M48
; DRILL file {KiCad 9.0.2-9.0.2-0~ubuntu24.04.1} date 2025-07-08T16:58:19-0400
; FORMAT={-:-/ absolute / metric / decimal}
; #@! TF.CreationDate,2025-07-08T16:58:19-04:00
; #@! TF.GenerationSoftware,Kicad,Pcbnew,9.0.2-9.0.2-0~ubuntu24.04.1
; #@! TF.FileFunction,MixedPlating,1,2
FMAT,2
METRIC
; #@! TA.AperFunction,Plated,PTH,ViaDrill
T1C0.381
; #@! TA.AperFunction,Plated,PTH,ComponentDrill
T2C1.000
; #@! TA.AperFunction,NonPlated,NPTH,ComponentDrill
T3C2.750
%
G90
G05
T1
X118.0Y-65.0
X118.25Y-62.5
X118.25Y-82.75
X118.25Y-84.25
X118.25Y-86.0
X118.5Y-87.5
X119.75Y-60.0
X120.5Y-88.25
X121.0Y-82.75
X122.5Y-61.0
X122.5Y-88.25
X122.75Y-62.5
X124.25Y-82.5
X124.25Y-84.5
X124.25Y-86.5
X124.25Y-88.25
X125.25Y-80.0
X126.0Y-82.5
X126.0Y-84.5
X126.0Y-86.5
X126.0Y-88.25
X128.5Y-77.0
X129.25Y-80.0
X130.25Y-76.5
X132.35Y-79.12
X134.25Y-65.75
X135.75Y-76.5
X137.0Y-65.75
X137.25Y-77.5
X139.0Y-76.5
X139.5Y-65.75
X140.75Y-77.5
X142.5Y-65.75
X142.75Y-76.5
X146.0Y-81.0
X146.0Y-83.25
X147.5Y-77.25
X147.5Y-81.0
X147.5Y-83.25
X149.29Y-77.2
X151.0Y-75.0
X151.0Y-76.75
X151.0Y-80.5
X151.0Y-82.25
X151.0Y-83.75
X152.45Y-71.62
X152.75Y-75.0
X152.75Y-76.75
X152.75Y-80.5
X152.75Y-82.25
X153.16Y-70.46
X153.75Y-84.5
X156.0Y-68.0
X157.0Y-71.75
X158.36Y-73.19
X158.5Y-71.0
X160.0Y-72.75
X162.25Y-66.75
X164.25Y-78.25
X164.7Y-67.3
X164.75Y-69.5
X164.75Y-71.75
X165.0Y-65.75
X166.0Y-70.75
X166.5Y-65.75
X166.5Y-76.0
X166.5Y-78.25
X167.25Y-69.5
X168.5Y-78.25
X170.25Y-71.75
X171.05Y-69.0
X172.0Y-82.75
X172.5Y-65.75
X172.75Y-71.25
X173.25Y-75.25
X173.5Y-81.0
X174.75Y-65.5
X174.75Y-84.0
X176.75Y-88.25
X178.75Y-60.0
X179.0Y-78.5
X179.0Y-88.25
X179.75Y-64.75
X180.75Y-62.25
X180.75Y-75.25
X180.75Y-77.25
X180.75Y-80.0
X180.75Y-82.25
X180.75Y-84.75
X180.75Y-87.0
X181.0Y-66.0
T2
X125.37Y-61.2
X125.37Y-63.74
X127.91Y-61.2
X127.91Y-63.74
X128.97Y-68.05
X129.0Y-87.55
X130.45Y-61.2
X130.45Y-63.74
X131.51Y-68.05
X131.54Y-87.55
X132.99Y-61.2
X132.99Y-63.74
X134.05Y-68.05
X134.08Y-87.55
X135.53Y-61.2
X135.53Y-63.74
X136.59Y-68.05
X136.62Y-87.55
X138.07Y-61.2
X138.07Y-63.74
X139.13Y-68.05
X139.16Y-87.55
X140.61Y-61.2
X140.61Y-63.74
X141.67Y-68.05
X141.7Y-87.55
X143.15Y-61.2
X143.15Y-63.74
X144.21Y-68.05
X144.24Y-87.55
X145.69Y-61.2
X145.69Y-63.74
X146.75Y-68.05
X146.78Y-87.55
X148.23Y-61.2
X148.23Y-63.74
X149.29Y-68.05
X149.32Y-87.55
X150.77Y-61.2
X150.77Y-63.74
X151.83Y-68.05
X151.86Y-87.55
X153.31Y-61.2
X153.31Y-63.74
X155.43Y-87.55
X155.85Y-61.2
X155.85Y-63.74
X157.97Y-87.55
X158.39Y-61.2
X158.39Y-63.74
X160.51Y-87.55
X160.93Y-61.2
X160.93Y-63.74
X163.05Y-87.55
X163.47Y-61.2
X163.47Y-63.74
X165.59Y-87.55
X166.01Y-61.2
X166.01Y-63.74
X168.13Y-87.55
X168.55Y-61.2
X168.55Y-63.74
X170.67Y-87.55
X170.8Y-77.4
X170.8Y-79.94
X171.09Y-61.2
X171.09Y-63.74
X173.21Y-87.55
X173.63Y-61.2
X173.63Y-63.74
T3
X120.5Y-62.45
X120.5Y-85.95
X178.5Y-62.45
X178.5Y-85.95
M30
