%TF.GenerationSoftware,KiCad,Pcbnew,9.0.2-9.0.2-0~ubuntu24.04.1*%
%TF.CreationDate,2025-07-08T16:58:14-04:00*%
%TF.ProjectId,GPIO_ADC_uHAT,4750494f-5f41-4444-935f-754841542e6b,rev?*%
%TF.SameCoordinates,Original*%
%TF.FileFunction,Soldermask,Bot*%
%TF.FilePolarity,Negative*%
%FSLAX46Y46*%
G04 Gerber Fmt 4.6, Leading zero omitted, Abs format (unit mm)*
G04 Created by KiCad (PCBNEW 9.0.2-9.0.2-0~ubuntu24.04.1) date 2025-07-08 16:58:14*
%MOMM*%
%LPD*%
G01*
G04 APERTURE LIST*
%ADD10R,1.700000X1.700000*%
%ADD11C,1.700000*%
%ADD12C,2.750000*%
G04 APERTURE END LIST*
D10*
%TO.C,J3*%
X151860000Y-87550000D03*
D11*
X149320000Y-87550000D03*
X146780000Y-87550000D03*
X144240000Y-87550000D03*
X141700000Y-87550000D03*
X139160000Y-87550000D03*
X136620000Y-87550000D03*
X134080000Y-87550000D03*
X131540000Y-87550000D03*
X129000000Y-87550000D03*
%TD*%
D12*
%TO.C,J1*%
X120500000Y-62450000D03*
X120500000Y-85950000D03*
X178500000Y-62450000D03*
X178500000Y-85950000D03*
D10*
X125370000Y-63740000D03*
D11*
X125370000Y-61200000D03*
X127910000Y-63740000D03*
X127910000Y-61200000D03*
X130450000Y-63740000D03*
X130450000Y-61200000D03*
X132990000Y-63740000D03*
X132990000Y-61200000D03*
X135530000Y-63740000D03*
X135530000Y-61200000D03*
X138070000Y-63740000D03*
X138070000Y-61200000D03*
X140610000Y-63740000D03*
X140610000Y-61200000D03*
X143150000Y-63740000D03*
X143150000Y-61200000D03*
X145690000Y-63740000D03*
X145690000Y-61200000D03*
X148230000Y-63740000D03*
X148230000Y-61200000D03*
X150770000Y-63740000D03*
X150770000Y-61200000D03*
X153310000Y-63740000D03*
X153310000Y-61200000D03*
X155850000Y-63740000D03*
X155850000Y-61200000D03*
X158390000Y-63740000D03*
X158390000Y-61200000D03*
X160930000Y-63740000D03*
X160930000Y-61200000D03*
X163470000Y-63740000D03*
X163470000Y-61200000D03*
X166010000Y-63740000D03*
X166010000Y-61200000D03*
X168550000Y-63740000D03*
X168550000Y-61200000D03*
X171090000Y-63740000D03*
X171090000Y-61200000D03*
X173630000Y-63740000D03*
X173630000Y-61200000D03*
%TD*%
D10*
%TO.C,J2*%
X151830000Y-68050000D03*
D11*
X149290000Y-68050000D03*
X146750000Y-68050000D03*
X144210000Y-68050000D03*
X141670000Y-68050000D03*
X139130000Y-68050000D03*
X136590000Y-68050000D03*
X134050000Y-68050000D03*
X131510000Y-68050000D03*
X128970000Y-68050000D03*
%TD*%
D10*
%TO.C,J4*%
X155430000Y-87550000D03*
D11*
X157970000Y-87550000D03*
X160510000Y-87550000D03*
X163050000Y-87550000D03*
X165590000Y-87550000D03*
X168130000Y-87550000D03*
X170670000Y-87550000D03*
X173210000Y-87550000D03*
%TD*%
D10*
%TO.C,J5*%
X170800000Y-77400000D03*
D11*
X170800000Y-79940000D03*
%TD*%
M02*
