%TF.GenerationSoftware,KiCad,Pcbnew,9.0.2-9.0.2-0~ubuntu24.04.1*%
%TF.CreationDate,2025-07-08T16:58:14-04:00*%
%TF.ProjectId,GPIO_ADC_uHAT,4750494f-5f41-4444-935f-754841542e6b,rev?*%
%TF.SameCoordinates,Original*%
%TF.FileFunction,Copper,L2,Bot*%
%TF.FilePolarity,Positive*%
%FSLAX46Y46*%
G04 Gerber Fmt 4.6, Leading zero omitted, Abs format (unit mm)*
G04 Created by KiCad (PCBNEW 9.0.2-9.0.2-0~ubuntu24.04.1) date 2025-07-08 16:58:14*
%MOMM*%
%LPD*%
G01*
G04 APERTURE LIST*
%TA.AperFunction,ComponentPad*%
%ADD10R,1.700000X1.700000*%
%TD*%
%TA.AperFunction,ComponentPad*%
%ADD11C,1.700000*%
%TD*%
%TA.AperFunction,ViaPad*%
%ADD12C,0.762000*%
%TD*%
%TA.AperFunction,Conductor*%
%ADD13C,0.304800*%
%TD*%
G04 APERTURE END LIST*
D10*
%TO.P,J3,1,Pin_1*%
%TO.N,GND*%
X151860000Y-87550000D03*
D11*
%TO.P,J3,2,Pin_2*%
%TO.N,+3V3*%
X149320000Y-87550000D03*
%TO.P,J3,3,Pin_3*%
%TO.N,/GPA7*%
X146780000Y-87550000D03*
%TO.P,J3,4,Pin_4*%
%TO.N,/GPA6*%
X144240000Y-87550000D03*
%TO.P,J3,5,Pin_5*%
%TO.N,/GPA5*%
X141700000Y-87550000D03*
%TO.P,J3,6,Pin_6*%
%TO.N,/GPA4*%
X139160000Y-87550000D03*
%TO.P,J3,7,Pin_7*%
%TO.N,/GPA3*%
X136620000Y-87550000D03*
%TO.P,J3,8,Pin_8*%
%TO.N,/GPA2*%
X134080000Y-87550000D03*
%TO.P,J3,9,Pin_9*%
%TO.N,/GPA1*%
X131540000Y-87550000D03*
%TO.P,J3,10,Pin_10*%
%TO.N,/GPA0*%
X129000000Y-87550000D03*
%TD*%
D10*
%TO.P,J1,1,+3V3*%
%TO.N,+3V3*%
X125370000Y-63740000D03*
D11*
%TO.P,J1,2,+5V*%
%TO.N,+5V*%
X125370000Y-61200000D03*
%TO.P,J1,3,GPIO2*%
%TO.N,SDA*%
X127910000Y-63740000D03*
%TO.P,J1,4,+5V*%
%TO.N,+5V*%
X127910000Y-61200000D03*
%TO.P,J1,5,GPIO3*%
%TO.N,SCL*%
X130450000Y-63740000D03*
%TO.P,J1,6,GND*%
%TO.N,GND*%
X130450000Y-61200000D03*
%TO.P,J1,7,GPIO4*%
%TO.N,unconnected-(J1-GPIO4-Pad7)*%
X132990000Y-63740000D03*
%TO.P,J1,8,GPIO14*%
%TO.N,unconnected-(J1-GPIO14-Pad8)*%
X132990000Y-61200000D03*
%TO.P,J1,9,GND*%
%TO.N,GND*%
X135530000Y-63740000D03*
%TO.P,J1,10,GPIO15*%
%TO.N,unconnected-(J1-GPIO15-Pad10)*%
X135530000Y-61200000D03*
%TO.P,J1,11,GPIO17*%
%TO.N,unconnected-(J1-GPIO17-Pad11)*%
X138070000Y-63740000D03*
%TO.P,J1,12,GPIO18*%
%TO.N,unconnected-(J1-GPIO18-Pad12)*%
X138070000Y-61200000D03*
%TO.P,J1,13,GPIO27*%
%TO.N,unconnected-(J1-GPIO27-Pad13)*%
X140610000Y-63740000D03*
%TO.P,J1,14,GND*%
%TO.N,GND*%
X140610000Y-61200000D03*
%TO.P,J1,15,GPIO22*%
%TO.N,unconnected-(J1-GPIO22-Pad15)*%
X143150000Y-63740000D03*
%TO.P,J1,16,GPIO23*%
%TO.N,unconnected-(J1-GPIO23-Pad16)*%
X143150000Y-61200000D03*
%TO.P,J1,17,+3V3*%
%TO.N,+3V3*%
X145690000Y-63740000D03*
%TO.P,J1,18,GPIO24*%
%TO.N,unconnected-(J1-GPIO24-Pad18)*%
X145690000Y-61200000D03*
%TO.P,J1,19,GPIO10*%
%TO.N,MOSI*%
X148230000Y-63740000D03*
%TO.P,J1,20,GND*%
%TO.N,GND*%
X148230000Y-61200000D03*
%TO.P,J1,21,GPIO9*%
%TO.N,MISO*%
X150770000Y-63740000D03*
%TO.P,J1,22,GPIO25*%
%TO.N,unconnected-(J1-GPIO25-Pad22)*%
X150770000Y-61200000D03*
%TO.P,J1,23,GPIO11*%
%TO.N,SCLK*%
X153310000Y-63740000D03*
%TO.P,J1,24,GPIO8*%
%TO.N,CE0*%
X153310000Y-61200000D03*
%TO.P,J1,25,GND*%
%TO.N,GND*%
X155850000Y-63740000D03*
%TO.P,J1,26,GPIO7*%
%TO.N,unconnected-(J1-GPIO7-Pad26)*%
X155850000Y-61200000D03*
%TO.P,J1,27,GPIO0*%
%TO.N,ID_SDA*%
X158390000Y-63740000D03*
%TO.P,J1,28,GPIO1*%
%TO.N,ID_SCL*%
X158390000Y-61200000D03*
%TO.P,J1,29,GPIO5*%
%TO.N,INTB*%
X160930000Y-63740000D03*
%TO.P,J1,30,GND*%
%TO.N,GND*%
X160930000Y-61200000D03*
%TO.P,J1,31,GPIO6*%
%TO.N,INTA*%
X163470000Y-63740000D03*
%TO.P,J1,32,GPIO12*%
%TO.N,unconnected-(J1-GPIO12-Pad32)*%
X163470000Y-61200000D03*
%TO.P,J1,33,GPIO13*%
%TO.N,unconnected-(J1-GPIO13-Pad33)*%
X166010000Y-63740000D03*
%TO.P,J1,34,GND*%
%TO.N,GND*%
X166010000Y-61200000D03*
%TO.P,J1,35,GPIO19*%
%TO.N,unconnected-(J1-GPIO19-Pad35)*%
X168550000Y-63740000D03*
%TO.P,J1,36,GPIO16*%
%TO.N,unconnected-(J1-GPIO16-Pad36)*%
X168550000Y-61200000D03*
%TO.P,J1,37,GPIO26*%
%TO.N,~{RST_23017}*%
X171090000Y-63740000D03*
%TO.P,J1,38,GPIO20*%
%TO.N,unconnected-(J1-GPIO20-Pad38)*%
X171090000Y-61200000D03*
%TO.P,J1,39,GND*%
%TO.N,GND*%
X173630000Y-63740000D03*
%TO.P,J1,40,GPIO21*%
%TO.N,unconnected-(J1-GPIO21-Pad40)*%
X173630000Y-61200000D03*
%TD*%
D10*
%TO.P,J2,1,Pin_1*%
%TO.N,GND*%
X151830000Y-68050000D03*
D11*
%TO.P,J2,2,Pin_2*%
%TO.N,+3V3*%
X149290000Y-68050000D03*
%TO.P,J2,3,Pin_3*%
%TO.N,/GPB0*%
X146750000Y-68050000D03*
%TO.P,J2,4,Pin_4*%
%TO.N,/GPB1*%
X144210000Y-68050000D03*
%TO.P,J2,5,Pin_5*%
%TO.N,/GPB2*%
X141670000Y-68050000D03*
%TO.P,J2,6,Pin_6*%
%TO.N,/GPB3*%
X139130000Y-68050000D03*
%TO.P,J2,7,Pin_7*%
%TO.N,/GPB4*%
X136590000Y-68050000D03*
%TO.P,J2,8,Pin_8*%
%TO.N,/GPB5*%
X134050000Y-68050000D03*
%TO.P,J2,9,Pin_9*%
%TO.N,/GPB6*%
X131510000Y-68050000D03*
%TO.P,J2,10,Pin_10*%
%TO.N,/GPB7*%
X128970000Y-68050000D03*
%TD*%
D10*
%TO.P,J4,1,Pin_1*%
%TO.N,/CH0*%
X155430000Y-87550000D03*
D11*
%TO.P,J4,2,Pin_2*%
%TO.N,/CH1*%
X157970000Y-87550000D03*
%TO.P,J4,3,Pin_3*%
%TO.N,/CH2*%
X160510000Y-87550000D03*
%TO.P,J4,4,Pin_4*%
%TO.N,/CH3*%
X163050000Y-87550000D03*
%TO.P,J4,5,Pin_5*%
%TO.N,/CH4*%
X165590000Y-87550000D03*
%TO.P,J4,6,Pin_6*%
%TO.N,/CH5*%
X168130000Y-87550000D03*
%TO.P,J4,7,Pin_7*%
%TO.N,/CH6*%
X170670000Y-87550000D03*
%TO.P,J4,8,Pin_8*%
%TO.N,/CH7*%
X173210000Y-87550000D03*
%TD*%
D10*
%TO.P,J5,1,Pin_1*%
%TO.N,Net-(J5-Pin_1)*%
X170800000Y-77400000D03*
D11*
%TO.P,J5,2,Pin_2*%
%TO.N,GND*%
X170800000Y-79940000D03*
%TD*%
D12*
%TO.N,GND*%
X151000000Y-82250000D03*
X120500000Y-88250000D03*
X167250000Y-69500000D03*
X172750000Y-71250000D03*
X164750000Y-69500000D03*
X165000000Y-65750000D03*
X126000000Y-86500000D03*
X137000000Y-65750000D03*
X153750000Y-84500000D03*
X152750000Y-75000000D03*
X180750000Y-87000000D03*
X125250000Y-80000000D03*
X129250000Y-80000000D03*
X122750000Y-62500000D03*
X147500000Y-83250000D03*
X158500000Y-71000000D03*
X173250000Y-75250000D03*
X122500000Y-88250000D03*
X139000000Y-76500000D03*
X146000000Y-83250000D03*
X124250000Y-82500000D03*
X126000000Y-88250000D03*
X164250000Y-78250000D03*
X174750000Y-65500000D03*
X174750000Y-84000000D03*
X164750000Y-71750000D03*
X151000000Y-83750000D03*
X122500000Y-61000000D03*
X118250000Y-86000000D03*
X166500000Y-78250000D03*
X152750000Y-76750000D03*
X118000000Y-65000000D03*
X118500000Y-87500000D03*
X137250000Y-77500000D03*
X146000000Y-81000000D03*
X140750000Y-77500000D03*
X168500000Y-78250000D03*
X180750000Y-84750000D03*
X124250000Y-84500000D03*
X139500000Y-65750000D03*
X135750000Y-76500000D03*
X142750000Y-76500000D03*
X178750000Y-60000000D03*
X152750000Y-82250000D03*
X172500000Y-65750000D03*
X180750000Y-80000000D03*
X151000000Y-76750000D03*
X170250000Y-71750000D03*
X179000000Y-88250000D03*
X118250000Y-82750000D03*
X151000000Y-80500000D03*
X180750000Y-82250000D03*
X166000000Y-70750000D03*
X179750000Y-64750000D03*
X180750000Y-62250000D03*
X180750000Y-75250000D03*
X173500000Y-81000000D03*
X118250000Y-62500000D03*
X124250000Y-86500000D03*
X166500000Y-65750000D03*
X121000000Y-82750000D03*
X179000000Y-78500000D03*
X126000000Y-82500000D03*
X152750000Y-80500000D03*
X172000000Y-82750000D03*
X151000000Y-75000000D03*
X156000000Y-68000000D03*
X124250000Y-88250000D03*
X180750000Y-77250000D03*
X157000000Y-71750000D03*
X126000000Y-84500000D03*
X128500000Y-77000000D03*
X166500000Y-76000000D03*
X130250000Y-76500000D03*
X142500000Y-65750000D03*
X118250000Y-84250000D03*
X147500000Y-77250000D03*
X176750000Y-88250000D03*
X147500000Y-81000000D03*
X160000000Y-72750000D03*
X181000000Y-66000000D03*
X119750000Y-60000000D03*
X162250000Y-66750000D03*
X134250000Y-65750000D03*
%TO.N,+3V3*%
X164700000Y-67300000D03*
X149290000Y-77200000D03*
X158360000Y-73190000D03*
%TO.N,INTA*%
X152450000Y-71620000D03*
%TO.N,INTB*%
X153160000Y-70460000D03*
%TO.N,~{RST_23017}*%
X132350000Y-79120000D03*
X171050000Y-69000000D03*
%TD*%
D13*
%TO.N,GND*%
X156000000Y-68000000D02*
X155950000Y-68050000D01*
X155950000Y-68050000D02*
X151830000Y-68050000D01*
%TO.N,+3V3*%
X149290000Y-68050000D02*
X149290000Y-72350000D01*
X163700000Y-67300000D02*
X164700000Y-67300000D01*
X149290000Y-72350000D02*
X149290000Y-77200000D01*
X149790000Y-72850000D02*
X150130000Y-73190000D01*
X158360000Y-73190000D02*
X158360000Y-72640000D01*
X150130000Y-73190000D02*
X158360000Y-73190000D01*
X158360000Y-72640000D02*
X163700000Y-67300000D01*
X149290000Y-72350000D02*
X149790000Y-72850000D01*
%TO.N,INTA*%
X155590000Y-71620000D02*
X152450000Y-71620000D01*
X163470000Y-63740000D02*
X155590000Y-71620000D01*
%TO.N,INTB*%
X160400000Y-65870000D02*
X155810000Y-70460000D01*
X155810000Y-70460000D02*
X153160000Y-70460000D01*
X160930000Y-65340000D02*
X160400000Y-65870000D01*
X160930000Y-63740000D02*
X160930000Y-65340000D01*
%TO.N,~{RST_23017}*%
X171050000Y-68750000D02*
X171090000Y-68710000D01*
X160930000Y-79120000D02*
X132350000Y-79120000D01*
X171090000Y-68710000D02*
X171090000Y-63740000D01*
X171050000Y-69000000D02*
X171050000Y-68750000D01*
X171050000Y-69000000D02*
X160930000Y-79120000D01*
%TD*%
%TA.AperFunction,Conductor*%
%TO.N,GND*%
G36*
X134331444Y-61853999D02*
G01*
X134370486Y-61899056D01*
X134374951Y-61907820D01*
X134499890Y-62079786D01*
X134650213Y-62230109D01*
X134822179Y-62355048D01*
X134822181Y-62355049D01*
X134822184Y-62355051D01*
X134831493Y-62359794D01*
X134882290Y-62407766D01*
X134899087Y-62475587D01*
X134876552Y-62541722D01*
X134831505Y-62580760D01*
X134822446Y-62585376D01*
X134822440Y-62585380D01*
X134768282Y-62624727D01*
X134768282Y-62624728D01*
X135400591Y-63257037D01*
X135337007Y-63274075D01*
X135222993Y-63339901D01*
X135129901Y-63432993D01*
X135064075Y-63547007D01*
X135047037Y-63610591D01*
X134414728Y-62978282D01*
X134414727Y-62978282D01*
X134375380Y-63032440D01*
X134375376Y-63032446D01*
X134370760Y-63041505D01*
X134322781Y-63092297D01*
X134254959Y-63109087D01*
X134188826Y-63086543D01*
X134149794Y-63041493D01*
X134145051Y-63032184D01*
X134145049Y-63032181D01*
X134145048Y-63032179D01*
X134020109Y-62860213D01*
X133869786Y-62709890D01*
X133697820Y-62584951D01*
X133689600Y-62580763D01*
X133689054Y-62580485D01*
X133638259Y-62532512D01*
X133621463Y-62464692D01*
X133643999Y-62398556D01*
X133689054Y-62359515D01*
X133697816Y-62355051D01*
X133787554Y-62289853D01*
X133869786Y-62230109D01*
X133869788Y-62230106D01*
X133869792Y-62230104D01*
X134020104Y-62079792D01*
X134020106Y-62079788D01*
X134020109Y-62079786D01*
X134145048Y-61907820D01*
X134145047Y-61907820D01*
X134145051Y-61907816D01*
X134149514Y-61899054D01*
X134197488Y-61848259D01*
X134265308Y-61831463D01*
X134331444Y-61853999D01*
G37*
%TD.AperFunction*%
%TA.AperFunction,Conductor*%
G36*
X154651444Y-61853999D02*
G01*
X154690486Y-61899056D01*
X154694951Y-61907820D01*
X154819890Y-62079786D01*
X154970213Y-62230109D01*
X155142179Y-62355048D01*
X155142181Y-62355049D01*
X155142184Y-62355051D01*
X155151493Y-62359794D01*
X155202290Y-62407766D01*
X155219087Y-62475587D01*
X155196552Y-62541722D01*
X155151505Y-62580760D01*
X155142446Y-62585376D01*
X155142440Y-62585380D01*
X155088282Y-62624727D01*
X155088282Y-62624728D01*
X155720591Y-63257037D01*
X155657007Y-63274075D01*
X155542993Y-63339901D01*
X155449901Y-63432993D01*
X155384075Y-63547007D01*
X155367037Y-63610591D01*
X154734728Y-62978282D01*
X154734727Y-62978282D01*
X154695380Y-63032440D01*
X154695376Y-63032446D01*
X154690760Y-63041505D01*
X154642781Y-63092297D01*
X154574959Y-63109087D01*
X154508826Y-63086543D01*
X154469794Y-63041493D01*
X154465051Y-63032184D01*
X154465049Y-63032181D01*
X154465048Y-63032179D01*
X154340109Y-62860213D01*
X154189786Y-62709890D01*
X154017820Y-62584951D01*
X154009600Y-62580763D01*
X154009054Y-62580485D01*
X153958259Y-62532512D01*
X153941463Y-62464692D01*
X153963999Y-62398556D01*
X154009054Y-62359515D01*
X154017816Y-62355051D01*
X154107554Y-62289853D01*
X154189786Y-62230109D01*
X154189788Y-62230106D01*
X154189792Y-62230104D01*
X154340104Y-62079792D01*
X154340106Y-62079788D01*
X154340109Y-62079786D01*
X154465048Y-61907820D01*
X154465047Y-61907820D01*
X154465051Y-61907816D01*
X154469514Y-61899054D01*
X154517488Y-61848259D01*
X154585308Y-61831463D01*
X154651444Y-61853999D01*
G37*
%TD.AperFunction*%
%TA.AperFunction,Conductor*%
G36*
X172431444Y-61853999D02*
G01*
X172470486Y-61899056D01*
X172474951Y-61907820D01*
X172599890Y-62079786D01*
X172750213Y-62230109D01*
X172922179Y-62355048D01*
X172922181Y-62355049D01*
X172922184Y-62355051D01*
X172931493Y-62359794D01*
X172982290Y-62407766D01*
X172999087Y-62475587D01*
X172976552Y-62541722D01*
X172931505Y-62580760D01*
X172922446Y-62585376D01*
X172922440Y-62585380D01*
X172868282Y-62624727D01*
X172868282Y-62624728D01*
X173500591Y-63257037D01*
X173437007Y-63274075D01*
X173322993Y-63339901D01*
X173229901Y-63432993D01*
X173164075Y-63547007D01*
X173147037Y-63610591D01*
X172514728Y-62978282D01*
X172514727Y-62978282D01*
X172475380Y-63032440D01*
X172475376Y-63032446D01*
X172470760Y-63041505D01*
X172422781Y-63092297D01*
X172354959Y-63109087D01*
X172288826Y-63086543D01*
X172249794Y-63041493D01*
X172245051Y-63032184D01*
X172245049Y-63032181D01*
X172245048Y-63032179D01*
X172120109Y-62860213D01*
X171969786Y-62709890D01*
X171797820Y-62584951D01*
X171789600Y-62580763D01*
X171789054Y-62580485D01*
X171738259Y-62532512D01*
X171721463Y-62464692D01*
X171743999Y-62398556D01*
X171789054Y-62359515D01*
X171797816Y-62355051D01*
X171887554Y-62289853D01*
X171969786Y-62230109D01*
X171969788Y-62230106D01*
X171969792Y-62230104D01*
X172120104Y-62079792D01*
X172120106Y-62079788D01*
X172120109Y-62079786D01*
X172245048Y-61907820D01*
X172245047Y-61907820D01*
X172245051Y-61907816D01*
X172249514Y-61899054D01*
X172297488Y-61848259D01*
X172365308Y-61831463D01*
X172431444Y-61853999D01*
G37*
%TD.AperFunction*%
%TA.AperFunction,Conductor*%
G36*
X136871444Y-61853999D02*
G01*
X136910486Y-61899056D01*
X136914951Y-61907820D01*
X137039890Y-62079786D01*
X137190213Y-62230109D01*
X137362182Y-62355050D01*
X137370946Y-62359516D01*
X137421742Y-62407491D01*
X137438536Y-62475312D01*
X137415998Y-62541447D01*
X137370946Y-62580484D01*
X137362182Y-62584949D01*
X137190213Y-62709890D01*
X137039890Y-62860213D01*
X136914949Y-63032182D01*
X136910202Y-63041499D01*
X136862227Y-63092293D01*
X136794405Y-63109087D01*
X136728271Y-63086548D01*
X136689234Y-63041495D01*
X136684626Y-63032452D01*
X136645270Y-62978282D01*
X136645269Y-62978282D01*
X136012962Y-63610590D01*
X135995925Y-63547007D01*
X135930099Y-63432993D01*
X135837007Y-63339901D01*
X135722993Y-63274075D01*
X135659409Y-63257037D01*
X136291716Y-62624728D01*
X136237547Y-62585373D01*
X136237547Y-62585372D01*
X136228500Y-62580763D01*
X136177706Y-62532788D01*
X136160912Y-62464966D01*
X136183451Y-62398832D01*
X136228508Y-62359793D01*
X136237816Y-62355051D01*
X136327554Y-62289853D01*
X136409786Y-62230109D01*
X136409788Y-62230106D01*
X136409792Y-62230104D01*
X136560104Y-62079792D01*
X136560106Y-62079788D01*
X136560109Y-62079786D01*
X136685048Y-61907820D01*
X136685047Y-61907820D01*
X136685051Y-61907816D01*
X136689514Y-61899054D01*
X136737488Y-61848259D01*
X136805308Y-61831463D01*
X136871444Y-61853999D01*
G37*
%TD.AperFunction*%
%TA.AperFunction,Conductor*%
G36*
X157191444Y-61853999D02*
G01*
X157230486Y-61899056D01*
X157234951Y-61907820D01*
X157359890Y-62079786D01*
X157510213Y-62230109D01*
X157682182Y-62355050D01*
X157690946Y-62359516D01*
X157741742Y-62407491D01*
X157758536Y-62475312D01*
X157735998Y-62541447D01*
X157690946Y-62580484D01*
X157682182Y-62584949D01*
X157510213Y-62709890D01*
X157359890Y-62860213D01*
X157234949Y-63032182D01*
X157230202Y-63041499D01*
X157182227Y-63092293D01*
X157114405Y-63109087D01*
X157048271Y-63086548D01*
X157009234Y-63041495D01*
X157004626Y-63032452D01*
X156965270Y-62978282D01*
X156332962Y-63610590D01*
X156315925Y-63547007D01*
X156250099Y-63432993D01*
X156157007Y-63339901D01*
X156042993Y-63274075D01*
X155979409Y-63257037D01*
X156611716Y-62624728D01*
X156557547Y-62585373D01*
X156557547Y-62585372D01*
X156548500Y-62580763D01*
X156497706Y-62532788D01*
X156480912Y-62464966D01*
X156503451Y-62398832D01*
X156548508Y-62359793D01*
X156557816Y-62355051D01*
X156647554Y-62289853D01*
X156729786Y-62230109D01*
X156729788Y-62230106D01*
X156729792Y-62230104D01*
X156880104Y-62079792D01*
X156880106Y-62079788D01*
X156880109Y-62079786D01*
X157005048Y-61907820D01*
X157005047Y-61907820D01*
X157005051Y-61907816D01*
X157009514Y-61899054D01*
X157057488Y-61848259D01*
X157125308Y-61831463D01*
X157191444Y-61853999D01*
G37*
%TD.AperFunction*%
%TA.AperFunction,Conductor*%
G36*
X129984075Y-61392993D02*
G01*
X130049901Y-61507007D01*
X130142993Y-61600099D01*
X130257007Y-61665925D01*
X130320590Y-61682962D01*
X129688282Y-62315269D01*
X129688282Y-62315270D01*
X129742452Y-62354626D01*
X129742451Y-62354626D01*
X129751495Y-62359234D01*
X129802292Y-62407208D01*
X129819087Y-62475029D01*
X129796550Y-62541164D01*
X129751499Y-62580202D01*
X129742182Y-62584949D01*
X129570213Y-62709890D01*
X129419890Y-62860213D01*
X129294949Y-63032182D01*
X129290484Y-63040946D01*
X129242509Y-63091742D01*
X129174688Y-63108536D01*
X129108553Y-63085998D01*
X129069516Y-63040946D01*
X129065050Y-63032182D01*
X128940109Y-62860213D01*
X128789786Y-62709890D01*
X128617820Y-62584951D01*
X128609600Y-62580763D01*
X128609054Y-62580485D01*
X128558259Y-62532512D01*
X128541463Y-62464692D01*
X128563999Y-62398556D01*
X128609054Y-62359515D01*
X128617816Y-62355051D01*
X128707554Y-62289853D01*
X128789786Y-62230109D01*
X128789788Y-62230106D01*
X128789792Y-62230104D01*
X128940104Y-62079792D01*
X128940106Y-62079788D01*
X128940109Y-62079786D01*
X129025890Y-61961717D01*
X129065051Y-61907816D01*
X129069793Y-61898508D01*
X129117763Y-61847711D01*
X129185583Y-61830911D01*
X129251719Y-61853445D01*
X129290763Y-61898500D01*
X129295373Y-61907547D01*
X129334728Y-61961716D01*
X129967037Y-61329408D01*
X129984075Y-61392993D01*
G37*
%TD.AperFunction*%
%TA.AperFunction,Conductor*%
G36*
X131565270Y-61961717D02*
G01*
X131565270Y-61961716D01*
X131604622Y-61907555D01*
X131609232Y-61898507D01*
X131657205Y-61847709D01*
X131725025Y-61830912D01*
X131791161Y-61853447D01*
X131830204Y-61898504D01*
X131834949Y-61907817D01*
X131959890Y-62079786D01*
X132110213Y-62230109D01*
X132282182Y-62355050D01*
X132290946Y-62359516D01*
X132341742Y-62407491D01*
X132358536Y-62475312D01*
X132335998Y-62541447D01*
X132290946Y-62580484D01*
X132282182Y-62584949D01*
X132110213Y-62709890D01*
X131959890Y-62860213D01*
X131834949Y-63032182D01*
X131830484Y-63040946D01*
X131782509Y-63091742D01*
X131714688Y-63108536D01*
X131648553Y-63085998D01*
X131609516Y-63040946D01*
X131605050Y-63032182D01*
X131480109Y-62860213D01*
X131329786Y-62709890D01*
X131157817Y-62584949D01*
X131148504Y-62580204D01*
X131097707Y-62532230D01*
X131080912Y-62464409D01*
X131103449Y-62398274D01*
X131148507Y-62359232D01*
X131157555Y-62354622D01*
X131211716Y-62315270D01*
X131211717Y-62315270D01*
X130579408Y-61682962D01*
X130642993Y-61665925D01*
X130757007Y-61600099D01*
X130850099Y-61507007D01*
X130915925Y-61392993D01*
X130932962Y-61329408D01*
X131565270Y-61961717D01*
G37*
%TD.AperFunction*%
%TA.AperFunction,Conductor*%
G36*
X140144075Y-61392993D02*
G01*
X140209901Y-61507007D01*
X140302993Y-61600099D01*
X140417007Y-61665925D01*
X140480590Y-61682962D01*
X139848282Y-62315269D01*
X139848282Y-62315270D01*
X139902452Y-62354626D01*
X139902451Y-62354626D01*
X139911495Y-62359234D01*
X139962292Y-62407208D01*
X139979087Y-62475029D01*
X139956550Y-62541164D01*
X139911499Y-62580202D01*
X139902182Y-62584949D01*
X139730213Y-62709890D01*
X139579890Y-62860213D01*
X139454949Y-63032182D01*
X139450484Y-63040946D01*
X139402509Y-63091742D01*
X139334688Y-63108536D01*
X139268553Y-63085998D01*
X139229516Y-63040946D01*
X139225050Y-63032182D01*
X139100109Y-62860213D01*
X138949786Y-62709890D01*
X138777820Y-62584951D01*
X138769600Y-62580763D01*
X138769054Y-62580485D01*
X138718259Y-62532512D01*
X138701463Y-62464692D01*
X138723999Y-62398556D01*
X138769054Y-62359515D01*
X138777816Y-62355051D01*
X138867554Y-62289853D01*
X138949786Y-62230109D01*
X138949788Y-62230106D01*
X138949792Y-62230104D01*
X139100104Y-62079792D01*
X139100106Y-62079788D01*
X139100109Y-62079786D01*
X139185890Y-61961717D01*
X139225051Y-61907816D01*
X139229793Y-61898508D01*
X139277763Y-61847711D01*
X139345583Y-61830911D01*
X139411719Y-61853445D01*
X139450763Y-61898500D01*
X139455373Y-61907547D01*
X139494728Y-61961716D01*
X140127037Y-61329408D01*
X140144075Y-61392993D01*
G37*
%TD.AperFunction*%
%TA.AperFunction,Conductor*%
G36*
X141725270Y-61961717D02*
G01*
X141725270Y-61961716D01*
X141764622Y-61907555D01*
X141769232Y-61898507D01*
X141817205Y-61847709D01*
X141885025Y-61830912D01*
X141951161Y-61853447D01*
X141990204Y-61898504D01*
X141994949Y-61907817D01*
X142119890Y-62079786D01*
X142270213Y-62230109D01*
X142442182Y-62355050D01*
X142450946Y-62359516D01*
X142501742Y-62407491D01*
X142518536Y-62475312D01*
X142495998Y-62541447D01*
X142450946Y-62580484D01*
X142442182Y-62584949D01*
X142270213Y-62709890D01*
X142119890Y-62860213D01*
X141994949Y-63032182D01*
X141990484Y-63040946D01*
X141942509Y-63091742D01*
X141874688Y-63108536D01*
X141808553Y-63085998D01*
X141769516Y-63040946D01*
X141765050Y-63032182D01*
X141640109Y-62860213D01*
X141489786Y-62709890D01*
X141317817Y-62584949D01*
X141308504Y-62580204D01*
X141257707Y-62532230D01*
X141240912Y-62464409D01*
X141263449Y-62398274D01*
X141308507Y-62359232D01*
X141317555Y-62354622D01*
X141371716Y-62315270D01*
X141371717Y-62315270D01*
X140739408Y-61682962D01*
X140802993Y-61665925D01*
X140917007Y-61600099D01*
X141010099Y-61507007D01*
X141075925Y-61392993D01*
X141092962Y-61329408D01*
X141725270Y-61961717D01*
G37*
%TD.AperFunction*%
%TA.AperFunction,Conductor*%
G36*
X147764075Y-61392993D02*
G01*
X147829901Y-61507007D01*
X147922993Y-61600099D01*
X148037007Y-61665925D01*
X148100590Y-61682962D01*
X147468282Y-62315269D01*
X147468282Y-62315270D01*
X147522452Y-62354626D01*
X147522451Y-62354626D01*
X147531495Y-62359234D01*
X147582292Y-62407208D01*
X147599087Y-62475029D01*
X147576550Y-62541164D01*
X147531499Y-62580202D01*
X147522182Y-62584949D01*
X147350213Y-62709890D01*
X147199890Y-62860213D01*
X147074949Y-63032182D01*
X147070484Y-63040946D01*
X147022509Y-63091742D01*
X146954688Y-63108536D01*
X146888553Y-63085998D01*
X146849516Y-63040946D01*
X146845050Y-63032182D01*
X146720109Y-62860213D01*
X146569786Y-62709890D01*
X146397820Y-62584951D01*
X146389600Y-62580763D01*
X146389054Y-62580485D01*
X146338259Y-62532512D01*
X146321463Y-62464692D01*
X146343999Y-62398556D01*
X146389054Y-62359515D01*
X146397816Y-62355051D01*
X146487554Y-62289853D01*
X146569786Y-62230109D01*
X146569788Y-62230106D01*
X146569792Y-62230104D01*
X146720104Y-62079792D01*
X146720106Y-62079788D01*
X146720109Y-62079786D01*
X146805890Y-61961717D01*
X146845051Y-61907816D01*
X146849793Y-61898508D01*
X146897763Y-61847711D01*
X146965583Y-61830911D01*
X147031719Y-61853445D01*
X147070763Y-61898500D01*
X147075373Y-61907547D01*
X147114728Y-61961716D01*
X147747037Y-61329408D01*
X147764075Y-61392993D01*
G37*
%TD.AperFunction*%
%TA.AperFunction,Conductor*%
G36*
X149345270Y-61961717D02*
G01*
X149345270Y-61961716D01*
X149384622Y-61907555D01*
X149389232Y-61898507D01*
X149437205Y-61847709D01*
X149505025Y-61830912D01*
X149571161Y-61853447D01*
X149610204Y-61898504D01*
X149614949Y-61907817D01*
X149739890Y-62079786D01*
X149890213Y-62230109D01*
X150062182Y-62355050D01*
X150070946Y-62359516D01*
X150121742Y-62407491D01*
X150138536Y-62475312D01*
X150115998Y-62541447D01*
X150070946Y-62580484D01*
X150062182Y-62584949D01*
X149890213Y-62709890D01*
X149739890Y-62860213D01*
X149614949Y-63032182D01*
X149610484Y-63040946D01*
X149562509Y-63091742D01*
X149494688Y-63108536D01*
X149428553Y-63085998D01*
X149389516Y-63040946D01*
X149385050Y-63032182D01*
X149260109Y-62860213D01*
X149109786Y-62709890D01*
X148937817Y-62584949D01*
X148928504Y-62580204D01*
X148877707Y-62532230D01*
X148860912Y-62464409D01*
X148883449Y-62398274D01*
X148928507Y-62359232D01*
X148937555Y-62354622D01*
X148991716Y-62315270D01*
X148991717Y-62315270D01*
X148359408Y-61682962D01*
X148422993Y-61665925D01*
X148537007Y-61600099D01*
X148630099Y-61507007D01*
X148695925Y-61392993D01*
X148712962Y-61329408D01*
X149345270Y-61961717D01*
G37*
%TD.AperFunction*%
%TA.AperFunction,Conductor*%
G36*
X160464075Y-61392993D02*
G01*
X160529901Y-61507007D01*
X160622993Y-61600099D01*
X160737007Y-61665925D01*
X160800590Y-61682962D01*
X160168282Y-62315269D01*
X160168282Y-62315270D01*
X160222452Y-62354626D01*
X160222451Y-62354626D01*
X160231495Y-62359234D01*
X160282292Y-62407208D01*
X160299087Y-62475029D01*
X160276550Y-62541164D01*
X160231499Y-62580202D01*
X160222182Y-62584949D01*
X160050213Y-62709890D01*
X159899890Y-62860213D01*
X159774949Y-63032182D01*
X159770484Y-63040946D01*
X159722509Y-63091742D01*
X159654688Y-63108536D01*
X159588553Y-63085998D01*
X159549516Y-63040946D01*
X159545050Y-63032182D01*
X159420109Y-62860213D01*
X159269786Y-62709890D01*
X159097820Y-62584951D01*
X159089600Y-62580763D01*
X159089054Y-62580485D01*
X159038259Y-62532512D01*
X159021463Y-62464692D01*
X159043999Y-62398556D01*
X159089054Y-62359515D01*
X159097816Y-62355051D01*
X159187554Y-62289853D01*
X159269786Y-62230109D01*
X159269788Y-62230106D01*
X159269792Y-62230104D01*
X159420104Y-62079792D01*
X159420106Y-62079788D01*
X159420109Y-62079786D01*
X159505890Y-61961717D01*
X159545051Y-61907816D01*
X159549793Y-61898508D01*
X159597763Y-61847711D01*
X159665583Y-61830911D01*
X159731719Y-61853445D01*
X159770763Y-61898500D01*
X159775373Y-61907547D01*
X159814728Y-61961716D01*
X160447037Y-61329408D01*
X160464075Y-61392993D01*
G37*
%TD.AperFunction*%
%TA.AperFunction,Conductor*%
G36*
X162045270Y-61961717D02*
G01*
X162045270Y-61961716D01*
X162084622Y-61907555D01*
X162089232Y-61898507D01*
X162137205Y-61847709D01*
X162205025Y-61830912D01*
X162271161Y-61853447D01*
X162310204Y-61898504D01*
X162314949Y-61907817D01*
X162439890Y-62079786D01*
X162590213Y-62230109D01*
X162762182Y-62355050D01*
X162770946Y-62359516D01*
X162821742Y-62407491D01*
X162838536Y-62475312D01*
X162815998Y-62541447D01*
X162770946Y-62580484D01*
X162762182Y-62584949D01*
X162590213Y-62709890D01*
X162439890Y-62860213D01*
X162314949Y-63032182D01*
X162310484Y-63040946D01*
X162262509Y-63091742D01*
X162194688Y-63108536D01*
X162128553Y-63085998D01*
X162089516Y-63040946D01*
X162085050Y-63032182D01*
X161960109Y-62860213D01*
X161809786Y-62709890D01*
X161637817Y-62584949D01*
X161628504Y-62580204D01*
X161577707Y-62532230D01*
X161560912Y-62464409D01*
X161583449Y-62398274D01*
X161628507Y-62359232D01*
X161637555Y-62354622D01*
X161691716Y-62315270D01*
X161691717Y-62315270D01*
X161059408Y-61682962D01*
X161122993Y-61665925D01*
X161237007Y-61600099D01*
X161330099Y-61507007D01*
X161395925Y-61392993D01*
X161412962Y-61329408D01*
X162045270Y-61961717D01*
G37*
%TD.AperFunction*%
%TA.AperFunction,Conductor*%
G36*
X165544075Y-61392993D02*
G01*
X165609901Y-61507007D01*
X165702993Y-61600099D01*
X165817007Y-61665925D01*
X165880590Y-61682962D01*
X165248282Y-62315269D01*
X165248282Y-62315270D01*
X165302452Y-62354626D01*
X165302451Y-62354626D01*
X165311495Y-62359234D01*
X165362292Y-62407208D01*
X165379087Y-62475029D01*
X165356550Y-62541164D01*
X165311499Y-62580202D01*
X165302182Y-62584949D01*
X165130213Y-62709890D01*
X164979890Y-62860213D01*
X164854949Y-63032182D01*
X164850484Y-63040946D01*
X164802509Y-63091742D01*
X164734688Y-63108536D01*
X164668553Y-63085998D01*
X164629516Y-63040946D01*
X164625050Y-63032182D01*
X164500109Y-62860213D01*
X164349786Y-62709890D01*
X164177820Y-62584951D01*
X164169600Y-62580763D01*
X164169054Y-62580485D01*
X164118259Y-62532512D01*
X164101463Y-62464692D01*
X164123999Y-62398556D01*
X164169054Y-62359515D01*
X164177816Y-62355051D01*
X164267554Y-62289853D01*
X164349786Y-62230109D01*
X164349788Y-62230106D01*
X164349792Y-62230104D01*
X164500104Y-62079792D01*
X164500106Y-62079788D01*
X164500109Y-62079786D01*
X164585890Y-61961717D01*
X164625051Y-61907816D01*
X164629793Y-61898508D01*
X164677763Y-61847711D01*
X164745583Y-61830911D01*
X164811719Y-61853445D01*
X164850763Y-61898500D01*
X164855373Y-61907547D01*
X164894728Y-61961716D01*
X165527037Y-61329408D01*
X165544075Y-61392993D01*
G37*
%TD.AperFunction*%
%TA.AperFunction,Conductor*%
G36*
X167125270Y-61961717D02*
G01*
X167125270Y-61961716D01*
X167164622Y-61907555D01*
X167169232Y-61898507D01*
X167217205Y-61847709D01*
X167285025Y-61830912D01*
X167351161Y-61853447D01*
X167390204Y-61898504D01*
X167394949Y-61907817D01*
X167519890Y-62079786D01*
X167670213Y-62230109D01*
X167842182Y-62355050D01*
X167850946Y-62359516D01*
X167901742Y-62407491D01*
X167918536Y-62475312D01*
X167895998Y-62541447D01*
X167850946Y-62580484D01*
X167842182Y-62584949D01*
X167670213Y-62709890D01*
X167519890Y-62860213D01*
X167394949Y-63032182D01*
X167390484Y-63040946D01*
X167342509Y-63091742D01*
X167274688Y-63108536D01*
X167208553Y-63085998D01*
X167169516Y-63040946D01*
X167165050Y-63032182D01*
X167040109Y-62860213D01*
X166889786Y-62709890D01*
X166717817Y-62584949D01*
X166708504Y-62580204D01*
X166657707Y-62532230D01*
X166640912Y-62464409D01*
X166663449Y-62398274D01*
X166708507Y-62359232D01*
X166717555Y-62354622D01*
X166771716Y-62315270D01*
X166771717Y-62315270D01*
X166139408Y-61682962D01*
X166202993Y-61665925D01*
X166317007Y-61600099D01*
X166410099Y-61507007D01*
X166475925Y-61392993D01*
X166492962Y-61329408D01*
X167125270Y-61961717D01*
G37*
%TD.AperFunction*%
%TA.AperFunction,Conductor*%
G36*
X179003736Y-59450726D02*
G01*
X179293796Y-59468271D01*
X179308659Y-59470076D01*
X179590798Y-59521780D01*
X179605335Y-59525363D01*
X179879172Y-59610695D01*
X179893163Y-59616000D01*
X180154743Y-59733727D01*
X180167989Y-59740680D01*
X180413465Y-59889075D01*
X180425776Y-59897573D01*
X180651573Y-60074473D01*
X180662781Y-60084403D01*
X180865596Y-60287218D01*
X180875526Y-60298426D01*
X181034623Y-60501499D01*
X181052422Y-60524217D01*
X181060926Y-60536537D01*
X181066975Y-60546543D01*
X181209316Y-60782004D01*
X181216275Y-60795263D01*
X181333997Y-61056831D01*
X181339306Y-61070832D01*
X181424635Y-61344663D01*
X181428219Y-61359201D01*
X181479923Y-61641340D01*
X181481728Y-61656205D01*
X181499274Y-61946263D01*
X181499500Y-61953750D01*
X181499500Y-86446249D01*
X181499274Y-86453736D01*
X181481728Y-86743794D01*
X181479923Y-86758659D01*
X181428219Y-87040798D01*
X181424635Y-87055336D01*
X181339306Y-87329167D01*
X181333997Y-87343168D01*
X181216275Y-87604736D01*
X181209316Y-87617995D01*
X181060928Y-87863459D01*
X181052422Y-87875782D01*
X180875526Y-88101573D01*
X180865596Y-88112781D01*
X180662781Y-88315596D01*
X180651573Y-88325526D01*
X180425782Y-88502422D01*
X180413459Y-88510928D01*
X180167995Y-88659316D01*
X180154736Y-88666275D01*
X179893168Y-88783997D01*
X179879167Y-88789306D01*
X179605336Y-88874635D01*
X179590798Y-88878219D01*
X179308659Y-88929923D01*
X179293794Y-88931728D01*
X179003736Y-88949274D01*
X178996249Y-88949500D01*
X173954555Y-88949500D01*
X173887516Y-88929815D01*
X173841761Y-88877011D01*
X173831817Y-88807853D01*
X173860842Y-88744297D01*
X173898261Y-88715015D01*
X173904796Y-88711684D01*
X173917816Y-88705051D01*
X173971187Y-88666275D01*
X174089786Y-88580109D01*
X174089788Y-88580106D01*
X174089792Y-88580104D01*
X174240104Y-88429792D01*
X174240106Y-88429788D01*
X174240109Y-88429786D01*
X174365048Y-88257820D01*
X174365047Y-88257820D01*
X174365051Y-88257816D01*
X174461557Y-88068412D01*
X174527246Y-87866243D01*
X174560500Y-87656287D01*
X174560500Y-87443713D01*
X174527246Y-87233757D01*
X174461557Y-87031588D01*
X174365051Y-86842184D01*
X174365049Y-86842181D01*
X174365048Y-86842179D01*
X174240109Y-86670213D01*
X174089786Y-86519890D01*
X173917820Y-86394951D01*
X173728414Y-86298444D01*
X173728413Y-86298443D01*
X173728412Y-86298443D01*
X173526243Y-86232754D01*
X173526241Y-86232753D01*
X173526240Y-86232753D01*
X173364957Y-86207208D01*
X173316287Y-86199500D01*
X173103713Y-86199500D01*
X173055042Y-86207208D01*
X172893760Y-86232753D01*
X172691585Y-86298444D01*
X172502179Y-86394951D01*
X172330213Y-86519890D01*
X172179890Y-86670213D01*
X172054949Y-86842182D01*
X172050484Y-86850946D01*
X172002509Y-86901742D01*
X171934688Y-86918536D01*
X171868553Y-86895998D01*
X171829516Y-86850946D01*
X171825050Y-86842182D01*
X171700109Y-86670213D01*
X171549786Y-86519890D01*
X171377820Y-86394951D01*
X171188414Y-86298444D01*
X171188413Y-86298443D01*
X171188412Y-86298443D01*
X170986243Y-86232754D01*
X170986241Y-86232753D01*
X170986240Y-86232753D01*
X170824957Y-86207208D01*
X170776287Y-86199500D01*
X170563713Y-86199500D01*
X170515042Y-86207208D01*
X170353760Y-86232753D01*
X170151585Y-86298444D01*
X169962179Y-86394951D01*
X169790213Y-86519890D01*
X169639890Y-86670213D01*
X169514949Y-86842182D01*
X169510484Y-86850946D01*
X169462509Y-86901742D01*
X169394688Y-86918536D01*
X169328553Y-86895998D01*
X169289516Y-86850946D01*
X169285050Y-86842182D01*
X169160109Y-86670213D01*
X169009786Y-86519890D01*
X168837820Y-86394951D01*
X168648414Y-86298444D01*
X168648413Y-86298443D01*
X168648412Y-86298443D01*
X168446243Y-86232754D01*
X168446241Y-86232753D01*
X168446240Y-86232753D01*
X168284957Y-86207208D01*
X168236287Y-86199500D01*
X168023713Y-86199500D01*
X167975042Y-86207208D01*
X167813760Y-86232753D01*
X167611585Y-86298444D01*
X167422179Y-86394951D01*
X167250213Y-86519890D01*
X167099890Y-86670213D01*
X166974949Y-86842182D01*
X166970484Y-86850946D01*
X166922509Y-86901742D01*
X166854688Y-86918536D01*
X166788553Y-86895998D01*
X166749516Y-86850946D01*
X166745050Y-86842182D01*
X166620109Y-86670213D01*
X166469786Y-86519890D01*
X166297820Y-86394951D01*
X166108414Y-86298444D01*
X166108413Y-86298443D01*
X166108412Y-86298443D01*
X165906243Y-86232754D01*
X165906241Y-86232753D01*
X165906240Y-86232753D01*
X165744957Y-86207208D01*
X165696287Y-86199500D01*
X165483713Y-86199500D01*
X165435042Y-86207208D01*
X165273760Y-86232753D01*
X165071585Y-86298444D01*
X164882179Y-86394951D01*
X164710213Y-86519890D01*
X164559890Y-86670213D01*
X164434949Y-86842182D01*
X164430484Y-86850946D01*
X164382509Y-86901742D01*
X164314688Y-86918536D01*
X164248553Y-86895998D01*
X164209516Y-86850946D01*
X164205050Y-86842182D01*
X164080109Y-86670213D01*
X163929786Y-86519890D01*
X163757820Y-86394951D01*
X163568414Y-86298444D01*
X163568413Y-86298443D01*
X163568412Y-86298443D01*
X163366243Y-86232754D01*
X163366241Y-86232753D01*
X163366240Y-86232753D01*
X163204957Y-86207208D01*
X163156287Y-86199500D01*
X162943713Y-86199500D01*
X162895042Y-86207208D01*
X162733760Y-86232753D01*
X162531585Y-86298444D01*
X162342179Y-86394951D01*
X162170213Y-86519890D01*
X162019890Y-86670213D01*
X161894949Y-86842182D01*
X161890484Y-86850946D01*
X161842509Y-86901742D01*
X161774688Y-86918536D01*
X161708553Y-86895998D01*
X161669516Y-86850946D01*
X161665050Y-86842182D01*
X161540109Y-86670213D01*
X161389786Y-86519890D01*
X161217820Y-86394951D01*
X161028414Y-86298444D01*
X161028413Y-86298443D01*
X161028412Y-86298443D01*
X160826243Y-86232754D01*
X160826241Y-86232753D01*
X160826240Y-86232753D01*
X160664957Y-86207208D01*
X160616287Y-86199500D01*
X160403713Y-86199500D01*
X160355042Y-86207208D01*
X160193760Y-86232753D01*
X159991585Y-86298444D01*
X159802179Y-86394951D01*
X159630213Y-86519890D01*
X159479890Y-86670213D01*
X159354949Y-86842182D01*
X159350484Y-86850946D01*
X159302509Y-86901742D01*
X159234688Y-86918536D01*
X159168553Y-86895998D01*
X159129516Y-86850946D01*
X159125050Y-86842182D01*
X159000109Y-86670213D01*
X158849786Y-86519890D01*
X158677820Y-86394951D01*
X158488414Y-86298444D01*
X158488413Y-86298443D01*
X158488412Y-86298443D01*
X158286243Y-86232754D01*
X158286241Y-86232753D01*
X158286240Y-86232753D01*
X158124957Y-86207208D01*
X158076287Y-86199500D01*
X157863713Y-86199500D01*
X157815042Y-86207208D01*
X157653760Y-86232753D01*
X157451585Y-86298444D01*
X157262179Y-86394951D01*
X157090215Y-86519889D01*
X156976673Y-86633431D01*
X156915350Y-86666915D01*
X156845658Y-86661931D01*
X156789725Y-86620059D01*
X156772810Y-86589082D01*
X156723797Y-86457671D01*
X156723793Y-86457664D01*
X156637547Y-86342455D01*
X156637544Y-86342452D01*
X156522335Y-86256206D01*
X156522328Y-86256202D01*
X156387482Y-86205908D01*
X156387483Y-86205908D01*
X156327883Y-86199501D01*
X156327881Y-86199500D01*
X156327873Y-86199500D01*
X156327864Y-86199500D01*
X154532129Y-86199500D01*
X154532123Y-86199501D01*
X154472516Y-86205908D01*
X154337671Y-86256202D01*
X154337664Y-86256206D01*
X154222455Y-86342452D01*
X154222452Y-86342455D01*
X154136206Y-86457664D01*
X154136202Y-86457671D01*
X154085908Y-86592517D01*
X154079501Y-86652116D01*
X154079500Y-86652135D01*
X154079500Y-88447870D01*
X154079501Y-88447876D01*
X154085908Y-88507483D01*
X154136202Y-88642328D01*
X154136206Y-88642335D01*
X154217695Y-88751189D01*
X154242113Y-88816653D01*
X154227262Y-88884926D01*
X154177857Y-88934332D01*
X154118429Y-88949500D01*
X153170947Y-88949500D01*
X153103908Y-88929815D01*
X153058153Y-88877011D01*
X153048209Y-88807853D01*
X153071681Y-88751189D01*
X153153350Y-88642093D01*
X153153354Y-88642086D01*
X153203596Y-88507379D01*
X153203598Y-88507372D01*
X153209999Y-88447844D01*
X153210000Y-88447827D01*
X153210000Y-87800000D01*
X152293012Y-87800000D01*
X152325925Y-87742993D01*
X152360000Y-87615826D01*
X152360000Y-87484174D01*
X152325925Y-87357007D01*
X152293012Y-87300000D01*
X153210000Y-87300000D01*
X153210000Y-86652172D01*
X153209999Y-86652155D01*
X153203598Y-86592627D01*
X153203596Y-86592620D01*
X153153354Y-86457913D01*
X153153350Y-86457906D01*
X153067190Y-86342812D01*
X153067187Y-86342809D01*
X152952093Y-86256649D01*
X152952086Y-86256645D01*
X152817379Y-86206403D01*
X152817372Y-86206401D01*
X152757844Y-86200000D01*
X152110000Y-86200000D01*
X152110000Y-87116988D01*
X152052993Y-87084075D01*
X151925826Y-87050000D01*
X151794174Y-87050000D01*
X151667007Y-87084075D01*
X151610000Y-87116988D01*
X151610000Y-86200000D01*
X150962155Y-86200000D01*
X150902627Y-86206401D01*
X150902620Y-86206403D01*
X150767913Y-86256645D01*
X150767906Y-86256649D01*
X150652812Y-86342809D01*
X150652809Y-86342812D01*
X150566649Y-86457906D01*
X150566646Y-86457912D01*
X150517577Y-86589471D01*
X150475705Y-86645404D01*
X150410241Y-86669821D01*
X150341968Y-86654969D01*
X150313714Y-86633818D01*
X150199786Y-86519890D01*
X150027820Y-86394951D01*
X149838414Y-86298444D01*
X149838413Y-86298443D01*
X149838412Y-86298443D01*
X149636243Y-86232754D01*
X149636241Y-86232753D01*
X149636240Y-86232753D01*
X149474957Y-86207208D01*
X149426287Y-86199500D01*
X149213713Y-86199500D01*
X149165042Y-86207208D01*
X149003760Y-86232753D01*
X148801585Y-86298444D01*
X148612179Y-86394951D01*
X148440213Y-86519890D01*
X148289890Y-86670213D01*
X148164949Y-86842182D01*
X148160484Y-86850946D01*
X148112509Y-86901742D01*
X148044688Y-86918536D01*
X147978553Y-86895998D01*
X147939516Y-86850946D01*
X147935050Y-86842182D01*
X147810109Y-86670213D01*
X147659786Y-86519890D01*
X147487820Y-86394951D01*
X147298414Y-86298444D01*
X147298413Y-86298443D01*
X147298412Y-86298443D01*
X147096243Y-86232754D01*
X147096241Y-86232753D01*
X147096240Y-86232753D01*
X146934957Y-86207208D01*
X146886287Y-86199500D01*
X146673713Y-86199500D01*
X146625042Y-86207208D01*
X146463760Y-86232753D01*
X146261585Y-86298444D01*
X146072179Y-86394951D01*
X145900213Y-86519890D01*
X145749890Y-86670213D01*
X145624949Y-86842182D01*
X145620484Y-86850946D01*
X145572509Y-86901742D01*
X145504688Y-86918536D01*
X145438553Y-86895998D01*
X145399516Y-86850946D01*
X145395050Y-86842182D01*
X145270109Y-86670213D01*
X145119786Y-86519890D01*
X144947820Y-86394951D01*
X144758414Y-86298444D01*
X144758413Y-86298443D01*
X144758412Y-86298443D01*
X144556243Y-86232754D01*
X144556241Y-86232753D01*
X144556240Y-86232753D01*
X144394957Y-86207208D01*
X144346287Y-86199500D01*
X144133713Y-86199500D01*
X144085042Y-86207208D01*
X143923760Y-86232753D01*
X143721585Y-86298444D01*
X143532179Y-86394951D01*
X143360213Y-86519890D01*
X143209890Y-86670213D01*
X143084949Y-86842182D01*
X143080484Y-86850946D01*
X143032509Y-86901742D01*
X142964688Y-86918536D01*
X142898553Y-86895998D01*
X142859516Y-86850946D01*
X142855050Y-86842182D01*
X142730109Y-86670213D01*
X142579786Y-86519890D01*
X142407820Y-86394951D01*
X142218414Y-86298444D01*
X142218413Y-86298443D01*
X142218412Y-86298443D01*
X142016243Y-86232754D01*
X142016241Y-86232753D01*
X142016240Y-86232753D01*
X141854957Y-86207208D01*
X141806287Y-86199500D01*
X141593713Y-86199500D01*
X141545042Y-86207208D01*
X141383760Y-86232753D01*
X141181585Y-86298444D01*
X140992179Y-86394951D01*
X140820213Y-86519890D01*
X140669890Y-86670213D01*
X140544949Y-86842182D01*
X140540484Y-86850946D01*
X140492509Y-86901742D01*
X140424688Y-86918536D01*
X140358553Y-86895998D01*
X140319516Y-86850946D01*
X140315050Y-86842182D01*
X140190109Y-86670213D01*
X140039786Y-86519890D01*
X139867820Y-86394951D01*
X139678414Y-86298444D01*
X139678413Y-86298443D01*
X139678412Y-86298443D01*
X139476243Y-86232754D01*
X139476241Y-86232753D01*
X139476240Y-86232753D01*
X139314957Y-86207208D01*
X139266287Y-86199500D01*
X139053713Y-86199500D01*
X139005042Y-86207208D01*
X138843760Y-86232753D01*
X138641585Y-86298444D01*
X138452179Y-86394951D01*
X138280213Y-86519890D01*
X138129890Y-86670213D01*
X138004949Y-86842182D01*
X138000484Y-86850946D01*
X137952509Y-86901742D01*
X137884688Y-86918536D01*
X137818553Y-86895998D01*
X137779516Y-86850946D01*
X137775050Y-86842182D01*
X137650109Y-86670213D01*
X137499786Y-86519890D01*
X137327820Y-86394951D01*
X137138414Y-86298444D01*
X137138413Y-86298443D01*
X137138412Y-86298443D01*
X136936243Y-86232754D01*
X136936241Y-86232753D01*
X136936240Y-86232753D01*
X136774957Y-86207208D01*
X136726287Y-86199500D01*
X136513713Y-86199500D01*
X136465042Y-86207208D01*
X136303760Y-86232753D01*
X136101585Y-86298444D01*
X135912179Y-86394951D01*
X135740213Y-86519890D01*
X135589890Y-86670213D01*
X135464949Y-86842182D01*
X135460484Y-86850946D01*
X135412509Y-86901742D01*
X135344688Y-86918536D01*
X135278553Y-86895998D01*
X135239516Y-86850946D01*
X135235050Y-86842182D01*
X135110109Y-86670213D01*
X134959786Y-86519890D01*
X134787820Y-86394951D01*
X134598414Y-86298444D01*
X134598413Y-86298443D01*
X134598412Y-86298443D01*
X134396243Y-86232754D01*
X134396241Y-86232753D01*
X134396240Y-86232753D01*
X134234957Y-86207208D01*
X134186287Y-86199500D01*
X133973713Y-86199500D01*
X133925042Y-86207208D01*
X133763760Y-86232753D01*
X133561585Y-86298444D01*
X133372179Y-86394951D01*
X133200213Y-86519890D01*
X133049890Y-86670213D01*
X132924949Y-86842182D01*
X132920484Y-86850946D01*
X132872509Y-86901742D01*
X132804688Y-86918536D01*
X132738553Y-86895998D01*
X132699516Y-86850946D01*
X132695050Y-86842182D01*
X132570109Y-86670213D01*
X132419786Y-86519890D01*
X132247820Y-86394951D01*
X132058414Y-86298444D01*
X132058413Y-86298443D01*
X132058412Y-86298443D01*
X131856243Y-86232754D01*
X131856241Y-86232753D01*
X131856240Y-86232753D01*
X131694957Y-86207208D01*
X131646287Y-86199500D01*
X131433713Y-86199500D01*
X131385042Y-86207208D01*
X131223760Y-86232753D01*
X131021585Y-86298444D01*
X130832179Y-86394951D01*
X130660213Y-86519890D01*
X130509890Y-86670213D01*
X130384949Y-86842182D01*
X130380484Y-86850946D01*
X130332509Y-86901742D01*
X130264688Y-86918536D01*
X130198553Y-86895998D01*
X130159516Y-86850946D01*
X130155050Y-86842182D01*
X130030109Y-86670213D01*
X129879786Y-86519890D01*
X129707820Y-86394951D01*
X129518414Y-86298444D01*
X129518413Y-86298443D01*
X129518412Y-86298443D01*
X129316243Y-86232754D01*
X129316241Y-86232753D01*
X129316240Y-86232753D01*
X129154957Y-86207208D01*
X129106287Y-86199500D01*
X128893713Y-86199500D01*
X128845042Y-86207208D01*
X128683760Y-86232753D01*
X128481585Y-86298444D01*
X128292179Y-86394951D01*
X128120213Y-86519890D01*
X127969890Y-86670213D01*
X127844951Y-86842179D01*
X127748444Y-87031585D01*
X127682753Y-87233760D01*
X127665425Y-87343168D01*
X127649500Y-87443713D01*
X127649500Y-87656287D01*
X127682754Y-87866243D01*
X127685853Y-87875782D01*
X127748444Y-88068414D01*
X127844951Y-88257820D01*
X127969890Y-88429786D01*
X128120213Y-88580109D01*
X128292182Y-88705050D01*
X128311739Y-88715015D01*
X128362536Y-88762989D01*
X128379331Y-88830810D01*
X128356794Y-88896945D01*
X128302079Y-88940397D01*
X128255445Y-88949500D01*
X120003751Y-88949500D01*
X119996264Y-88949274D01*
X119706205Y-88931728D01*
X119691340Y-88929923D01*
X119409201Y-88878219D01*
X119394663Y-88874635D01*
X119120832Y-88789306D01*
X119106831Y-88783997D01*
X118845263Y-88666275D01*
X118832004Y-88659316D01*
X118700981Y-88580110D01*
X118586537Y-88510926D01*
X118574217Y-88502422D01*
X118545024Y-88479551D01*
X118348426Y-88325526D01*
X118337218Y-88315596D01*
X118134403Y-88112781D01*
X118124473Y-88101573D01*
X118005801Y-87950099D01*
X117947573Y-87875776D01*
X117939075Y-87863465D01*
X117790680Y-87617989D01*
X117783727Y-87604743D01*
X117666000Y-87343163D01*
X117660693Y-87329167D01*
X117651604Y-87300000D01*
X117575363Y-87055335D01*
X117571780Y-87040798D01*
X117520076Y-86758659D01*
X117518271Y-86743794D01*
X117500726Y-86453736D01*
X117500500Y-86446249D01*
X117500500Y-85822070D01*
X118874500Y-85822070D01*
X118874500Y-86077929D01*
X118914526Y-86330640D01*
X118993588Y-86573972D01*
X118993589Y-86573975D01*
X119038406Y-86661931D01*
X119080117Y-86743794D01*
X119109750Y-86801950D01*
X119260132Y-87008935D01*
X119260136Y-87008940D01*
X119441059Y-87189863D01*
X119441064Y-87189867D01*
X119621607Y-87321038D01*
X119648053Y-87340252D01*
X119797080Y-87416185D01*
X119876024Y-87456410D01*
X119876027Y-87456411D01*
X119997693Y-87495942D01*
X120119361Y-87535474D01*
X120372070Y-87575500D01*
X120372071Y-87575500D01*
X120627929Y-87575500D01*
X120627930Y-87575500D01*
X120880639Y-87535474D01*
X121123975Y-87456410D01*
X121351947Y-87340252D01*
X121558942Y-87189862D01*
X121739862Y-87008942D01*
X121890252Y-86801947D01*
X122006410Y-86573975D01*
X122085474Y-86330639D01*
X122125500Y-86077930D01*
X122125500Y-85822070D01*
X176874500Y-85822070D01*
X176874500Y-86077929D01*
X176914526Y-86330640D01*
X176993588Y-86573972D01*
X176993589Y-86573975D01*
X177038406Y-86661931D01*
X177080117Y-86743794D01*
X177109750Y-86801950D01*
X177260132Y-87008935D01*
X177260136Y-87008940D01*
X177441059Y-87189863D01*
X177441064Y-87189867D01*
X177621607Y-87321038D01*
X177648053Y-87340252D01*
X177797080Y-87416185D01*
X177876024Y-87456410D01*
X177876027Y-87456411D01*
X177997693Y-87495942D01*
X178119361Y-87535474D01*
X178372070Y-87575500D01*
X178372071Y-87575500D01*
X178627929Y-87575500D01*
X178627930Y-87575500D01*
X178880639Y-87535474D01*
X179123975Y-87456410D01*
X179351947Y-87340252D01*
X179558942Y-87189862D01*
X179739862Y-87008942D01*
X179890252Y-86801947D01*
X180006410Y-86573975D01*
X180085474Y-86330639D01*
X180125500Y-86077930D01*
X180125500Y-85822070D01*
X180085474Y-85569361D01*
X180006410Y-85326025D01*
X180006410Y-85326024D01*
X179966185Y-85247080D01*
X179890252Y-85098053D01*
X179871038Y-85071607D01*
X179739867Y-84891064D01*
X179739863Y-84891059D01*
X179558940Y-84710136D01*
X179558935Y-84710132D01*
X179351950Y-84559750D01*
X179351949Y-84559749D01*
X179351947Y-84559748D01*
X179278910Y-84522533D01*
X179123975Y-84443589D01*
X179123972Y-84443588D01*
X178880640Y-84364526D01*
X178754284Y-84344513D01*
X178627930Y-84324500D01*
X178372070Y-84324500D01*
X178287833Y-84337842D01*
X178119359Y-84364526D01*
X177876027Y-84443588D01*
X177876024Y-84443589D01*
X177648049Y-84559750D01*
X177441064Y-84710132D01*
X177441059Y-84710136D01*
X177260136Y-84891059D01*
X177260132Y-84891064D01*
X177109750Y-85098049D01*
X176993589Y-85326024D01*
X176993588Y-85326027D01*
X176914526Y-85569359D01*
X176874500Y-85822070D01*
X122125500Y-85822070D01*
X122085474Y-85569361D01*
X122006410Y-85326025D01*
X122006410Y-85326024D01*
X121966185Y-85247080D01*
X121890252Y-85098053D01*
X121871038Y-85071607D01*
X121739867Y-84891064D01*
X121739863Y-84891059D01*
X121558940Y-84710136D01*
X121558935Y-84710132D01*
X121351950Y-84559750D01*
X121351949Y-84559749D01*
X121351947Y-84559748D01*
X121278910Y-84522533D01*
X121123975Y-84443589D01*
X121123972Y-84443588D01*
X120880640Y-84364526D01*
X120754284Y-84344513D01*
X120627930Y-84324500D01*
X120372070Y-84324500D01*
X120287833Y-84337842D01*
X120119359Y-84364526D01*
X119876027Y-84443588D01*
X119876024Y-84443589D01*
X119648049Y-84559750D01*
X119441064Y-84710132D01*
X119441059Y-84710136D01*
X119260136Y-84891059D01*
X119260132Y-84891064D01*
X119109750Y-85098049D01*
X118993589Y-85326024D01*
X118993588Y-85326027D01*
X118914526Y-85569359D01*
X118874500Y-85822070D01*
X117500500Y-85822070D01*
X117500500Y-62322070D01*
X118874500Y-62322070D01*
X118874500Y-62577930D01*
X118875680Y-62585380D01*
X118914526Y-62830640D01*
X118993588Y-63073972D01*
X118993589Y-63073975D01*
X119068803Y-63221588D01*
X119095546Y-63274075D01*
X119109750Y-63301950D01*
X119260132Y-63508935D01*
X119260136Y-63508940D01*
X119441059Y-63689863D01*
X119441064Y-63689867D01*
X119510067Y-63740000D01*
X119648053Y-63840252D01*
X119797080Y-63916185D01*
X119876024Y-63956410D01*
X119876027Y-63956411D01*
X119997693Y-63995942D01*
X120119361Y-64035474D01*
X120372070Y-64075500D01*
X120372071Y-64075500D01*
X120627929Y-64075500D01*
X120627930Y-64075500D01*
X120880639Y-64035474D01*
X121123975Y-63956410D01*
X121351947Y-63840252D01*
X121558942Y-63689862D01*
X121739862Y-63508942D01*
X121890252Y-63301947D01*
X122006410Y-63073975D01*
X122085474Y-62830639D01*
X122125500Y-62577930D01*
X122125500Y-62322070D01*
X122085474Y-62069361D01*
X122032985Y-61907816D01*
X122006411Y-61826027D01*
X122006410Y-61826024D01*
X121951578Y-61718412D01*
X121890252Y-61598053D01*
X121824104Y-61507007D01*
X121739867Y-61391064D01*
X121739863Y-61391059D01*
X121558936Y-61210132D01*
X121530068Y-61189159D01*
X121398697Y-61093713D01*
X124019500Y-61093713D01*
X124019500Y-61306286D01*
X124032926Y-61391058D01*
X124052754Y-61516243D01*
X124095798Y-61648719D01*
X124118444Y-61718414D01*
X124214951Y-61907820D01*
X124339890Y-62079786D01*
X124453430Y-62193326D01*
X124486915Y-62254649D01*
X124481931Y-62324341D01*
X124440059Y-62380274D01*
X124409083Y-62397189D01*
X124277669Y-62446203D01*
X124277664Y-62446206D01*
X124162455Y-62532452D01*
X124162452Y-62532455D01*
X124076206Y-62647664D01*
X124076202Y-62647671D01*
X124025908Y-62782517D01*
X124019501Y-62842116D01*
X124019500Y-62842135D01*
X124019500Y-64637870D01*
X124019501Y-64637876D01*
X124025908Y-64697483D01*
X124076202Y-64832328D01*
X124076206Y-64832335D01*
X124162452Y-64947544D01*
X124162455Y-64947547D01*
X124277664Y-65033793D01*
X124277671Y-65033797D01*
X124412517Y-65084091D01*
X124412516Y-65084091D01*
X124419444Y-65084835D01*
X124472127Y-65090500D01*
X126267872Y-65090499D01*
X126327483Y-65084091D01*
X126462331Y-65033796D01*
X126577546Y-64947546D01*
X126663796Y-64832331D01*
X126712810Y-64700916D01*
X126754681Y-64644984D01*
X126820145Y-64620566D01*
X126888418Y-64635417D01*
X126916673Y-64656569D01*
X127030213Y-64770109D01*
X127202179Y-64895048D01*
X127202181Y-64895049D01*
X127202184Y-64895051D01*
X127391588Y-64991557D01*
X127593757Y-65057246D01*
X127803713Y-65090500D01*
X127803714Y-65090500D01*
X128016286Y-65090500D01*
X128016287Y-65090500D01*
X128226243Y-65057246D01*
X128428412Y-64991557D01*
X128617816Y-64895051D01*
X128704138Y-64832335D01*
X128789786Y-64770109D01*
X128789788Y-64770106D01*
X128789792Y-64770104D01*
X128940104Y-64619792D01*
X128940106Y-64619788D01*
X128940109Y-64619786D01*
X129065048Y-64447820D01*
X129065047Y-64447820D01*
X129065051Y-64447816D01*
X129069514Y-64439054D01*
X129117488Y-64388259D01*
X129185308Y-64371463D01*
X129251444Y-64393999D01*
X129290486Y-64439056D01*
X129294951Y-64447820D01*
X129419890Y-64619786D01*
X129570213Y-64770109D01*
X129742179Y-64895048D01*
X129742181Y-64895049D01*
X129742184Y-64895051D01*
X129931588Y-64991557D01*
X130133757Y-65057246D01*
X130343713Y-65090500D01*
X130343714Y-65090500D01*
X130556286Y-65090500D01*
X130556287Y-65090500D01*
X130766243Y-65057246D01*
X130968412Y-64991557D01*
X131157816Y-64895051D01*
X131244138Y-64832335D01*
X131329786Y-64770109D01*
X131329788Y-64770106D01*
X131329792Y-64770104D01*
X131480104Y-64619792D01*
X131480106Y-64619788D01*
X131480109Y-64619786D01*
X131605048Y-64447820D01*
X131605047Y-64447820D01*
X131605051Y-64447816D01*
X131609514Y-64439054D01*
X131657488Y-64388259D01*
X131725308Y-64371463D01*
X131791444Y-64393999D01*
X131830486Y-64439056D01*
X131834951Y-64447820D01*
X131959890Y-64619786D01*
X132110213Y-64770109D01*
X132282179Y-64895048D01*
X132282181Y-64895049D01*
X132282184Y-64895051D01*
X132471588Y-64991557D01*
X132673757Y-65057246D01*
X132883713Y-65090500D01*
X132883714Y-65090500D01*
X133096286Y-65090500D01*
X133096287Y-65090500D01*
X133306243Y-65057246D01*
X133508412Y-64991557D01*
X133697816Y-64895051D01*
X133784138Y-64832335D01*
X133869786Y-64770109D01*
X133869788Y-64770106D01*
X133869792Y-64770104D01*
X134020104Y-64619792D01*
X134020106Y-64619788D01*
X134020109Y-64619786D01*
X134105890Y-64501717D01*
X134145051Y-64447816D01*
X134149793Y-64438508D01*
X134197763Y-64387711D01*
X134265583Y-64370911D01*
X134331719Y-64393445D01*
X134370763Y-64438500D01*
X134375373Y-64447547D01*
X134414728Y-64501716D01*
X135047037Y-63869408D01*
X135064075Y-63932993D01*
X135129901Y-64047007D01*
X135222993Y-64140099D01*
X135337007Y-64205925D01*
X135400590Y-64222962D01*
X134768282Y-64855269D01*
X134768282Y-64855270D01*
X134822449Y-64894624D01*
X135011782Y-64991095D01*
X135213870Y-65056757D01*
X135423754Y-65090000D01*
X135636246Y-65090000D01*
X135846127Y-65056757D01*
X135846130Y-65056757D01*
X136048217Y-64991095D01*
X136237554Y-64894622D01*
X136291716Y-64855270D01*
X136291717Y-64855270D01*
X135659408Y-64222962D01*
X135722993Y-64205925D01*
X135837007Y-64140099D01*
X135930099Y-64047007D01*
X135995925Y-63932993D01*
X136012962Y-63869408D01*
X136645270Y-64501717D01*
X136645270Y-64501716D01*
X136684622Y-64447555D01*
X136689232Y-64438507D01*
X136737205Y-64387709D01*
X136805025Y-64370912D01*
X136871161Y-64393447D01*
X136910204Y-64438504D01*
X136914949Y-64447817D01*
X137039890Y-64619786D01*
X137190213Y-64770109D01*
X137362179Y-64895048D01*
X137362181Y-64895049D01*
X137362184Y-64895051D01*
X137551588Y-64991557D01*
X137753757Y-65057246D01*
X137963713Y-65090500D01*
X137963714Y-65090500D01*
X138176286Y-65090500D01*
X138176287Y-65090500D01*
X138386243Y-65057246D01*
X138588412Y-64991557D01*
X138777816Y-64895051D01*
X138864138Y-64832335D01*
X138949786Y-64770109D01*
X138949788Y-64770106D01*
X138949792Y-64770104D01*
X139100104Y-64619792D01*
X139100106Y-64619788D01*
X139100109Y-64619786D01*
X139225048Y-64447820D01*
X139225047Y-64447820D01*
X139225051Y-64447816D01*
X139229514Y-64439054D01*
X139277488Y-64388259D01*
X139345308Y-64371463D01*
X139411444Y-64393999D01*
X139450486Y-64439056D01*
X139454951Y-64447820D01*
X139579890Y-64619786D01*
X139730213Y-64770109D01*
X139902179Y-64895048D01*
X139902181Y-64895049D01*
X139902184Y-64895051D01*
X140091588Y-64991557D01*
X140293757Y-65057246D01*
X140503713Y-65090500D01*
X140503714Y-65090500D01*
X140716286Y-65090500D01*
X140716287Y-65090500D01*
X140926243Y-65057246D01*
X141128412Y-64991557D01*
X141317816Y-64895051D01*
X141404138Y-64832335D01*
X141489786Y-64770109D01*
X141489788Y-64770106D01*
X141489792Y-64770104D01*
X141640104Y-64619792D01*
X141640106Y-64619788D01*
X141640109Y-64619786D01*
X141765048Y-64447820D01*
X141765047Y-64447820D01*
X141765051Y-64447816D01*
X141769514Y-64439054D01*
X141817488Y-64388259D01*
X141885308Y-64371463D01*
X141951444Y-64393999D01*
X141990486Y-64439056D01*
X141994951Y-64447820D01*
X142119890Y-64619786D01*
X142270213Y-64770109D01*
X142442179Y-64895048D01*
X142442181Y-64895049D01*
X142442184Y-64895051D01*
X142631588Y-64991557D01*
X142833757Y-65057246D01*
X143043713Y-65090500D01*
X143043714Y-65090500D01*
X143256286Y-65090500D01*
X143256287Y-65090500D01*
X143466243Y-65057246D01*
X143668412Y-64991557D01*
X143857816Y-64895051D01*
X143944138Y-64832335D01*
X144029786Y-64770109D01*
X144029788Y-64770106D01*
X144029792Y-64770104D01*
X144180104Y-64619792D01*
X144180106Y-64619788D01*
X144180109Y-64619786D01*
X144305048Y-64447820D01*
X144305047Y-64447820D01*
X144305051Y-64447816D01*
X144309514Y-64439054D01*
X144357488Y-64388259D01*
X144425308Y-64371463D01*
X144491444Y-64393999D01*
X144530486Y-64439056D01*
X144534951Y-64447820D01*
X144659890Y-64619786D01*
X144810213Y-64770109D01*
X144982179Y-64895048D01*
X144982181Y-64895049D01*
X144982184Y-64895051D01*
X145171588Y-64991557D01*
X145373757Y-65057246D01*
X145583713Y-65090500D01*
X145583714Y-65090500D01*
X145796286Y-65090500D01*
X145796287Y-65090500D01*
X146006243Y-65057246D01*
X146208412Y-64991557D01*
X146397816Y-64895051D01*
X146484138Y-64832335D01*
X146569786Y-64770109D01*
X146569788Y-64770106D01*
X146569792Y-64770104D01*
X146720104Y-64619792D01*
X146720106Y-64619788D01*
X146720109Y-64619786D01*
X146845048Y-64447820D01*
X146845047Y-64447820D01*
X146845051Y-64447816D01*
X146849514Y-64439054D01*
X146897488Y-64388259D01*
X146965308Y-64371463D01*
X147031444Y-64393999D01*
X147070486Y-64439056D01*
X147074951Y-64447820D01*
X147199890Y-64619786D01*
X147350213Y-64770109D01*
X147522179Y-64895048D01*
X147522181Y-64895049D01*
X147522184Y-64895051D01*
X147711588Y-64991557D01*
X147913757Y-65057246D01*
X148123713Y-65090500D01*
X148123714Y-65090500D01*
X148336286Y-65090500D01*
X148336287Y-65090500D01*
X148546243Y-65057246D01*
X148748412Y-64991557D01*
X148937816Y-64895051D01*
X149024138Y-64832335D01*
X149109786Y-64770109D01*
X149109788Y-64770106D01*
X149109792Y-64770104D01*
X149260104Y-64619792D01*
X149260106Y-64619788D01*
X149260109Y-64619786D01*
X149385048Y-64447820D01*
X149385047Y-64447820D01*
X149385051Y-64447816D01*
X149389514Y-64439054D01*
X149437488Y-64388259D01*
X149505308Y-64371463D01*
X149571444Y-64393999D01*
X149610486Y-64439056D01*
X149614951Y-64447820D01*
X149739890Y-64619786D01*
X149890213Y-64770109D01*
X150062179Y-64895048D01*
X150062181Y-64895049D01*
X150062184Y-64895051D01*
X150251588Y-64991557D01*
X150453757Y-65057246D01*
X150663713Y-65090500D01*
X150663714Y-65090500D01*
X150876286Y-65090500D01*
X150876287Y-65090500D01*
X151086243Y-65057246D01*
X151288412Y-64991557D01*
X151477816Y-64895051D01*
X151564138Y-64832335D01*
X151649786Y-64770109D01*
X151649788Y-64770106D01*
X151649792Y-64770104D01*
X151800104Y-64619792D01*
X151800106Y-64619788D01*
X151800109Y-64619786D01*
X151925048Y-64447820D01*
X151925047Y-64447820D01*
X151925051Y-64447816D01*
X151929514Y-64439054D01*
X151977488Y-64388259D01*
X152045308Y-64371463D01*
X152111444Y-64393999D01*
X152150486Y-64439056D01*
X152154951Y-64447820D01*
X152279890Y-64619786D01*
X152430213Y-64770109D01*
X152602179Y-64895048D01*
X152602181Y-64895049D01*
X152602184Y-64895051D01*
X152791588Y-64991557D01*
X152993757Y-65057246D01*
X153203713Y-65090500D01*
X153203714Y-65090500D01*
X153416286Y-65090500D01*
X153416287Y-65090500D01*
X153626243Y-65057246D01*
X153828412Y-64991557D01*
X154017816Y-64895051D01*
X154104138Y-64832335D01*
X154189786Y-64770109D01*
X154189788Y-64770106D01*
X154189792Y-64770104D01*
X154340104Y-64619792D01*
X154340106Y-64619788D01*
X154340109Y-64619786D01*
X154425890Y-64501717D01*
X154465051Y-64447816D01*
X154469793Y-64438508D01*
X154517763Y-64387711D01*
X154585583Y-64370911D01*
X154651719Y-64393445D01*
X154690763Y-64438500D01*
X154695373Y-64447547D01*
X154734728Y-64501716D01*
X155367037Y-63869408D01*
X155384075Y-63932993D01*
X155449901Y-64047007D01*
X155542993Y-64140099D01*
X155657007Y-64205925D01*
X155720590Y-64222962D01*
X155088282Y-64855269D01*
X155088282Y-64855270D01*
X155142449Y-64894624D01*
X155331782Y-64991095D01*
X155533870Y-65056757D01*
X155743754Y-65090000D01*
X155956246Y-65090000D01*
X156166127Y-65056757D01*
X156166130Y-65056757D01*
X156368217Y-64991095D01*
X156557554Y-64894622D01*
X156611716Y-64855270D01*
X156611717Y-64855270D01*
X155979408Y-64222962D01*
X156042993Y-64205925D01*
X156157007Y-64140099D01*
X156250099Y-64047007D01*
X156315925Y-63932993D01*
X156332962Y-63869408D01*
X156965270Y-64501717D01*
X156965270Y-64501716D01*
X157004622Y-64447555D01*
X157009232Y-64438507D01*
X157057205Y-64387709D01*
X157125025Y-64370912D01*
X157191161Y-64393447D01*
X157230204Y-64438504D01*
X157234949Y-64447817D01*
X157359890Y-64619786D01*
X157510213Y-64770109D01*
X157682179Y-64895048D01*
X157682181Y-64895049D01*
X157682184Y-64895051D01*
X157871588Y-64991557D01*
X158073757Y-65057246D01*
X158283713Y-65090500D01*
X158283714Y-65090500D01*
X158496286Y-65090500D01*
X158496287Y-65090500D01*
X158706243Y-65057246D01*
X158908412Y-64991557D01*
X159097816Y-64895051D01*
X159184138Y-64832335D01*
X159269786Y-64770109D01*
X159269788Y-64770106D01*
X159269792Y-64770104D01*
X159420104Y-64619792D01*
X159420106Y-64619788D01*
X159420109Y-64619786D01*
X159545048Y-64447820D01*
X159545047Y-64447820D01*
X159545051Y-64447816D01*
X159549514Y-64439054D01*
X159597488Y-64388259D01*
X159665308Y-64371463D01*
X159731444Y-64393999D01*
X159770486Y-64439056D01*
X159774951Y-64447820D01*
X159899890Y-64619786D01*
X159899896Y-64619792D01*
X160050208Y-64770104D01*
X160222184Y-64895051D01*
X160222186Y-64895052D01*
X160225985Y-64897812D01*
X160229326Y-64902145D01*
X160234303Y-64904418D01*
X160250431Y-64929514D01*
X160268651Y-64953142D01*
X160269904Y-64959815D01*
X160272077Y-64963196D01*
X160277100Y-64998131D01*
X160277100Y-65018197D01*
X160257415Y-65085236D01*
X160240781Y-65105878D01*
X155575878Y-69770781D01*
X155514555Y-69804266D01*
X155488197Y-69807100D01*
X153805047Y-69807100D01*
X153738008Y-69787415D01*
X153726382Y-69778953D01*
X153721923Y-69775294D01*
X153577553Y-69678828D01*
X153577540Y-69678821D01*
X153417128Y-69612377D01*
X153417118Y-69612374D01*
X153246822Y-69578500D01*
X153246820Y-69578500D01*
X153073180Y-69578500D01*
X153073175Y-69578500D01*
X152918296Y-69609307D01*
X152918285Y-69609310D01*
X152902876Y-69612376D01*
X152860046Y-69630116D01*
X152860031Y-69630122D01*
X152742456Y-69678823D01*
X152742446Y-69678828D01*
X152598077Y-69775293D01*
X152598073Y-69775296D01*
X152475296Y-69898073D01*
X152475293Y-69898077D01*
X152378828Y-70042446D01*
X152378821Y-70042459D01*
X152312377Y-70202871D01*
X152312374Y-70202881D01*
X152278500Y-70373177D01*
X152278500Y-70546824D01*
X152294207Y-70625790D01*
X152287980Y-70695382D01*
X152245116Y-70750559D01*
X152196790Y-70771597D01*
X152192880Y-70772375D01*
X152192871Y-70772377D01*
X152032459Y-70838821D01*
X152032446Y-70838828D01*
X151888077Y-70935293D01*
X151888073Y-70935296D01*
X151765296Y-71058073D01*
X151765293Y-71058077D01*
X151668828Y-71202446D01*
X151668821Y-71202459D01*
X151602377Y-71362871D01*
X151602374Y-71362881D01*
X151568500Y-71533177D01*
X151568500Y-71533180D01*
X151568500Y-71706820D01*
X151568500Y-71706822D01*
X151568499Y-71706822D01*
X151602374Y-71877118D01*
X151602377Y-71877128D01*
X151668821Y-72037540D01*
X151668828Y-72037553D01*
X151765293Y-72181922D01*
X151765296Y-72181926D01*
X151888073Y-72304703D01*
X151888078Y-72304707D01*
X151895995Y-72309997D01*
X151940801Y-72363608D01*
X151949510Y-72432933D01*
X151919356Y-72495961D01*
X151859914Y-72532681D01*
X151827106Y-72537100D01*
X150451803Y-72537100D01*
X150422362Y-72528455D01*
X150392376Y-72521932D01*
X150387360Y-72518177D01*
X150384764Y-72517415D01*
X150364127Y-72500786D01*
X150206200Y-72342859D01*
X150206197Y-72342857D01*
X150111148Y-72247808D01*
X149979219Y-72115878D01*
X149945734Y-72054555D01*
X149942900Y-72028197D01*
X149942900Y-69308131D01*
X149962585Y-69241092D01*
X149994015Y-69207812D01*
X149997813Y-69205052D01*
X149997816Y-69205051D01*
X150169792Y-69080104D01*
X150283717Y-68966178D01*
X150345036Y-68932696D01*
X150414728Y-68937680D01*
X150470662Y-68979551D01*
X150487577Y-69010528D01*
X150536646Y-69142088D01*
X150536649Y-69142093D01*
X150622809Y-69257187D01*
X150622812Y-69257190D01*
X150737906Y-69343350D01*
X150737913Y-69343354D01*
X150872620Y-69393596D01*
X150872627Y-69393598D01*
X150932155Y-69399999D01*
X150932172Y-69400000D01*
X151580000Y-69400000D01*
X151580000Y-68483012D01*
X151637007Y-68515925D01*
X151764174Y-68550000D01*
X151895826Y-68550000D01*
X152022993Y-68515925D01*
X152080000Y-68483012D01*
X152080000Y-69400000D01*
X152727828Y-69400000D01*
X152727844Y-69399999D01*
X152783892Y-69393972D01*
X152842639Y-69372985D01*
X152922084Y-69343355D01*
X152922093Y-69343350D01*
X153037187Y-69257190D01*
X153037190Y-69257187D01*
X153123350Y-69142093D01*
X153123354Y-69142086D01*
X153173596Y-69007379D01*
X153173598Y-69007372D01*
X153179999Y-68947844D01*
X153180000Y-68947827D01*
X153180000Y-68300000D01*
X152263012Y-68300000D01*
X152295925Y-68242993D01*
X152330000Y-68115826D01*
X152330000Y-67984174D01*
X152295925Y-67857007D01*
X152263012Y-67800000D01*
X153180000Y-67800000D01*
X153180000Y-67152172D01*
X153179999Y-67152155D01*
X153173598Y-67092627D01*
X153173596Y-67092620D01*
X153123354Y-66957913D01*
X153123350Y-66957906D01*
X153037190Y-66842812D01*
X153037187Y-66842809D01*
X152922093Y-66756649D01*
X152922086Y-66756645D01*
X152787379Y-66706403D01*
X152787372Y-66706401D01*
X152727844Y-66700000D01*
X152080000Y-66700000D01*
X152080000Y-67616988D01*
X152022993Y-67584075D01*
X151895826Y-67550000D01*
X151764174Y-67550000D01*
X151637007Y-67584075D01*
X151580000Y-67616988D01*
X151580000Y-66700000D01*
X150932155Y-66700000D01*
X150872627Y-66706401D01*
X150872620Y-66706403D01*
X150737913Y-66756645D01*
X150737906Y-66756649D01*
X150622812Y-66842809D01*
X150622809Y-66842812D01*
X150536649Y-66957906D01*
X150536646Y-66957912D01*
X150487577Y-67089471D01*
X150445705Y-67145404D01*
X150380241Y-67169821D01*
X150311968Y-67154969D01*
X150283714Y-67133818D01*
X150169786Y-67019890D01*
X149997820Y-66894951D01*
X149808414Y-66798444D01*
X149808413Y-66798443D01*
X149808412Y-66798443D01*
X149606243Y-66732754D01*
X149606241Y-66732753D01*
X149606240Y-66732753D01*
X149444957Y-66707208D01*
X149396287Y-66699500D01*
X149183713Y-66699500D01*
X149135042Y-66707208D01*
X148973760Y-66732753D01*
X148973757Y-66732754D01*
X148788765Y-66792862D01*
X148771585Y-66798444D01*
X148582179Y-66894951D01*
X148410213Y-67019890D01*
X148259890Y-67170213D01*
X148134949Y-67342182D01*
X148130484Y-67350946D01*
X148082509Y-67401742D01*
X148014688Y-67418536D01*
X147948553Y-67395998D01*
X147909516Y-67350946D01*
X147905050Y-67342182D01*
X147780109Y-67170213D01*
X147629786Y-67019890D01*
X147457820Y-66894951D01*
X147268414Y-66798444D01*
X147268413Y-66798443D01*
X147268412Y-66798443D01*
X147066243Y-66732754D01*
X147066241Y-66732753D01*
X147066240Y-66732753D01*
X146904957Y-66707208D01*
X146856287Y-66699500D01*
X146643713Y-66699500D01*
X146595042Y-66707208D01*
X146433760Y-66732753D01*
X146433757Y-66732754D01*
X146248765Y-66792862D01*
X146231585Y-66798444D01*
X146042179Y-66894951D01*
X145870213Y-67019890D01*
X145719890Y-67170213D01*
X145594949Y-67342182D01*
X145590484Y-67350946D01*
X145542509Y-67401742D01*
X145474688Y-67418536D01*
X145408553Y-67395998D01*
X145369516Y-67350946D01*
X145365050Y-67342182D01*
X145240109Y-67170213D01*
X145089786Y-67019890D01*
X144917820Y-66894951D01*
X144728414Y-66798444D01*
X144728413Y-66798443D01*
X144728412Y-66798443D01*
X144526243Y-66732754D01*
X144526241Y-66732753D01*
X144526240Y-66732753D01*
X144364957Y-66707208D01*
X144316287Y-66699500D01*
X144103713Y-66699500D01*
X144055042Y-66707208D01*
X143893760Y-66732753D01*
X143893757Y-66732754D01*
X143708765Y-66792862D01*
X143691585Y-66798444D01*
X143502179Y-66894951D01*
X143330213Y-67019890D01*
X143179890Y-67170213D01*
X143054949Y-67342182D01*
X143050484Y-67350946D01*
X143002509Y-67401742D01*
X142934688Y-67418536D01*
X142868553Y-67395998D01*
X142829516Y-67350946D01*
X142825050Y-67342182D01*
X142700109Y-67170213D01*
X142549786Y-67019890D01*
X142377820Y-66894951D01*
X142188414Y-66798444D01*
X142188413Y-66798443D01*
X142188412Y-66798443D01*
X141986243Y-66732754D01*
X141986241Y-66732753D01*
X141986240Y-66732753D01*
X141824957Y-66707208D01*
X141776287Y-66699500D01*
X141563713Y-66699500D01*
X141515042Y-66707208D01*
X141353760Y-66732753D01*
X141353757Y-66732754D01*
X141168765Y-66792862D01*
X141151585Y-66798444D01*
X140962179Y-66894951D01*
X140790213Y-67019890D01*
X140639890Y-67170213D01*
X140514949Y-67342182D01*
X140510484Y-67350946D01*
X140462509Y-67401742D01*
X140394688Y-67418536D01*
X140328553Y-67395998D01*
X140289516Y-67350946D01*
X140285050Y-67342182D01*
X140160109Y-67170213D01*
X140009786Y-67019890D01*
X139837820Y-66894951D01*
X139648414Y-66798444D01*
X139648413Y-66798443D01*
X139648412Y-66798443D01*
X139446243Y-66732754D01*
X139446241Y-66732753D01*
X139446240Y-66732753D01*
X139284957Y-66707208D01*
X139236287Y-66699500D01*
X139023713Y-66699500D01*
X138975042Y-66707208D01*
X138813760Y-66732753D01*
X138813757Y-66732754D01*
X138628765Y-66792862D01*
X138611585Y-66798444D01*
X138422179Y-66894951D01*
X138250213Y-67019890D01*
X138099890Y-67170213D01*
X137974949Y-67342182D01*
X137970484Y-67350946D01*
X137922509Y-67401742D01*
X137854688Y-67418536D01*
X137788553Y-67395998D01*
X137749516Y-67350946D01*
X137745050Y-67342182D01*
X137620109Y-67170213D01*
X137469786Y-67019890D01*
X137297820Y-66894951D01*
X137108414Y-66798444D01*
X137108413Y-66798443D01*
X137108412Y-66798443D01*
X136906243Y-66732754D01*
X136906241Y-66732753D01*
X136906240Y-66732753D01*
X136744957Y-66707208D01*
X136696287Y-66699500D01*
X136483713Y-66699500D01*
X136435042Y-66707208D01*
X136273760Y-66732753D01*
X136273757Y-66732754D01*
X136088765Y-66792862D01*
X136071585Y-66798444D01*
X135882179Y-66894951D01*
X135710213Y-67019890D01*
X135559890Y-67170213D01*
X135434949Y-67342182D01*
X135430484Y-67350946D01*
X135382509Y-67401742D01*
X135314688Y-67418536D01*
X135248553Y-67395998D01*
X135209516Y-67350946D01*
X135205050Y-67342182D01*
X135080109Y-67170213D01*
X134929786Y-67019890D01*
X134757820Y-66894951D01*
X134568414Y-66798444D01*
X134568413Y-66798443D01*
X134568412Y-66798443D01*
X134366243Y-66732754D01*
X134366241Y-66732753D01*
X134366240Y-66732753D01*
X134204957Y-66707208D01*
X134156287Y-66699500D01*
X133943713Y-66699500D01*
X133895042Y-66707208D01*
X133733760Y-66732753D01*
X133733757Y-66732754D01*
X133548765Y-66792862D01*
X133531585Y-66798444D01*
X133342179Y-66894951D01*
X133170213Y-67019890D01*
X133019890Y-67170213D01*
X132894949Y-67342182D01*
X132890484Y-67350946D01*
X132842509Y-67401742D01*
X132774688Y-67418536D01*
X132708553Y-67395998D01*
X132669516Y-67350946D01*
X132665050Y-67342182D01*
X132540109Y-67170213D01*
X132389786Y-67019890D01*
X132217820Y-66894951D01*
X132028414Y-66798444D01*
X132028413Y-66798443D01*
X132028412Y-66798443D01*
X131826243Y-66732754D01*
X131826241Y-66732753D01*
X131826240Y-66732753D01*
X131664957Y-66707208D01*
X131616287Y-66699500D01*
X131403713Y-66699500D01*
X131355042Y-66707208D01*
X131193760Y-66732753D01*
X131193757Y-66732754D01*
X131008765Y-66792862D01*
X130991585Y-66798444D01*
X130802179Y-66894951D01*
X130630213Y-67019890D01*
X130479890Y-67170213D01*
X130354949Y-67342182D01*
X130350484Y-67350946D01*
X130302509Y-67401742D01*
X130234688Y-67418536D01*
X130168553Y-67395998D01*
X130129516Y-67350946D01*
X130125050Y-67342182D01*
X130000109Y-67170213D01*
X129849786Y-67019890D01*
X129677820Y-66894951D01*
X129488414Y-66798444D01*
X129488413Y-66798443D01*
X129488412Y-66798443D01*
X129286243Y-66732754D01*
X129286241Y-66732753D01*
X129286240Y-66732753D01*
X129124957Y-66707208D01*
X129076287Y-66699500D01*
X128863713Y-66699500D01*
X128815042Y-66707208D01*
X128653760Y-66732753D01*
X128653757Y-66732754D01*
X128468765Y-66792862D01*
X128451585Y-66798444D01*
X128262179Y-66894951D01*
X128090213Y-67019890D01*
X127939890Y-67170213D01*
X127814951Y-67342179D01*
X127718444Y-67531585D01*
X127652753Y-67733760D01*
X127632454Y-67861923D01*
X127619500Y-67943713D01*
X127619500Y-68156287D01*
X127652754Y-68366243D01*
X127676094Y-68438077D01*
X127718444Y-68568414D01*
X127814951Y-68757820D01*
X127939890Y-68929786D01*
X128090213Y-69080109D01*
X128262179Y-69205048D01*
X128262181Y-69205049D01*
X128262184Y-69205051D01*
X128451588Y-69301557D01*
X128653757Y-69367246D01*
X128863713Y-69400500D01*
X128863714Y-69400500D01*
X129076286Y-69400500D01*
X129076287Y-69400500D01*
X129286243Y-69367246D01*
X129488412Y-69301557D01*
X129677816Y-69205051D01*
X129764478Y-69142088D01*
X129849786Y-69080109D01*
X129849788Y-69080106D01*
X129849792Y-69080104D01*
X130000104Y-68929792D01*
X130000106Y-68929788D01*
X130000109Y-68929786D01*
X130125048Y-68757820D01*
X130125047Y-68757820D01*
X130125051Y-68757816D01*
X130129514Y-68749054D01*
X130177488Y-68698259D01*
X130245308Y-68681463D01*
X130311444Y-68703999D01*
X130350486Y-68749056D01*
X130354951Y-68757820D01*
X130479890Y-68929786D01*
X130630213Y-69080109D01*
X130802179Y-69205048D01*
X130802181Y-69205049D01*
X130802184Y-69205051D01*
X130991588Y-69301557D01*
X131193757Y-69367246D01*
X131403713Y-69400500D01*
X131403714Y-69400500D01*
X131616286Y-69400500D01*
X131616287Y-69400500D01*
X131826243Y-69367246D01*
X132028412Y-69301557D01*
X132217816Y-69205051D01*
X132304478Y-69142088D01*
X132389786Y-69080109D01*
X132389788Y-69080106D01*
X132389792Y-69080104D01*
X132540104Y-68929792D01*
X132540106Y-68929788D01*
X132540109Y-68929786D01*
X132665048Y-68757820D01*
X132665047Y-68757820D01*
X132665051Y-68757816D01*
X132669514Y-68749054D01*
X132717488Y-68698259D01*
X132785308Y-68681463D01*
X132851444Y-68703999D01*
X132890486Y-68749056D01*
X132894951Y-68757820D01*
X133019890Y-68929786D01*
X133170213Y-69080109D01*
X133342179Y-69205048D01*
X133342181Y-69205049D01*
X133342184Y-69205051D01*
X133531588Y-69301557D01*
X133733757Y-69367246D01*
X133943713Y-69400500D01*
X133943714Y-69400500D01*
X134156286Y-69400500D01*
X134156287Y-69400500D01*
X134366243Y-69367246D01*
X134568412Y-69301557D01*
X134757816Y-69205051D01*
X134844478Y-69142088D01*
X134929786Y-69080109D01*
X134929788Y-69080106D01*
X134929792Y-69080104D01*
X135080104Y-68929792D01*
X135080106Y-68929788D01*
X135080109Y-68929786D01*
X135205048Y-68757820D01*
X135205047Y-68757820D01*
X135205051Y-68757816D01*
X135209514Y-68749054D01*
X135257488Y-68698259D01*
X135325308Y-68681463D01*
X135391444Y-68703999D01*
X135430486Y-68749056D01*
X135434951Y-68757820D01*
X135559890Y-68929786D01*
X135710213Y-69080109D01*
X135882179Y-69205048D01*
X135882181Y-69205049D01*
X135882184Y-69205051D01*
X136071588Y-69301557D01*
X136273757Y-69367246D01*
X136483713Y-69400500D01*
X136483714Y-69400500D01*
X136696286Y-69400500D01*
X136696287Y-69400500D01*
X136906243Y-69367246D01*
X137108412Y-69301557D01*
X137297816Y-69205051D01*
X137384478Y-69142088D01*
X137469786Y-69080109D01*
X137469788Y-69080106D01*
X137469792Y-69080104D01*
X137620104Y-68929792D01*
X137620106Y-68929788D01*
X137620109Y-68929786D01*
X137745048Y-68757820D01*
X137745047Y-68757820D01*
X137745051Y-68757816D01*
X137749514Y-68749054D01*
X137797488Y-68698259D01*
X137865308Y-68681463D01*
X137931444Y-68703999D01*
X137970486Y-68749056D01*
X137974951Y-68757820D01*
X138099890Y-68929786D01*
X138250213Y-69080109D01*
X138422179Y-69205048D01*
X138422181Y-69205049D01*
X138422184Y-69205051D01*
X138611588Y-69301557D01*
X138813757Y-69367246D01*
X139023713Y-69400500D01*
X139023714Y-69400500D01*
X139236286Y-69400500D01*
X139236287Y-69400500D01*
X139446243Y-69367246D01*
X139648412Y-69301557D01*
X139837816Y-69205051D01*
X139924478Y-69142088D01*
X140009786Y-69080109D01*
X140009788Y-69080106D01*
X140009792Y-69080104D01*
X140160104Y-68929792D01*
X140160106Y-68929788D01*
X140160109Y-68929786D01*
X140285048Y-68757820D01*
X140285047Y-68757820D01*
X140285051Y-68757816D01*
X140289514Y-68749054D01*
X140337488Y-68698259D01*
X140405308Y-68681463D01*
X140471444Y-68703999D01*
X140510486Y-68749056D01*
X140514951Y-68757820D01*
X140639890Y-68929786D01*
X140790213Y-69080109D01*
X140962179Y-69205048D01*
X140962181Y-69205049D01*
X140962184Y-69205051D01*
X141151588Y-69301557D01*
X141353757Y-69367246D01*
X141563713Y-69400500D01*
X141563714Y-69400500D01*
X141776286Y-69400500D01*
X141776287Y-69400500D01*
X141986243Y-69367246D01*
X142188412Y-69301557D01*
X142377816Y-69205051D01*
X142464478Y-69142088D01*
X142549786Y-69080109D01*
X142549788Y-69080106D01*
X142549792Y-69080104D01*
X142700104Y-68929792D01*
X142700106Y-68929788D01*
X142700109Y-68929786D01*
X142825048Y-68757820D01*
X142825047Y-68757820D01*
X142825051Y-68757816D01*
X142829514Y-68749054D01*
X142877488Y-68698259D01*
X142945308Y-68681463D01*
X143011444Y-68703999D01*
X143050486Y-68749056D01*
X143054951Y-68757820D01*
X143179890Y-68929786D01*
X143330213Y-69080109D01*
X143502179Y-69205048D01*
X143502181Y-69205049D01*
X143502184Y-69205051D01*
X143691588Y-69301557D01*
X143893757Y-69367246D01*
X144103713Y-69400500D01*
X144103714Y-69400500D01*
X144316286Y-69400500D01*
X144316287Y-69400500D01*
X144526243Y-69367246D01*
X144728412Y-69301557D01*
X144917816Y-69205051D01*
X145004478Y-69142088D01*
X145089786Y-69080109D01*
X145089788Y-69080106D01*
X145089792Y-69080104D01*
X145240104Y-68929792D01*
X145240106Y-68929788D01*
X145240109Y-68929786D01*
X145365048Y-68757820D01*
X145365047Y-68757820D01*
X145365051Y-68757816D01*
X145369514Y-68749054D01*
X145417488Y-68698259D01*
X145485308Y-68681463D01*
X145551444Y-68703999D01*
X145590486Y-68749056D01*
X145594951Y-68757820D01*
X145719890Y-68929786D01*
X145870213Y-69080109D01*
X146042179Y-69205048D01*
X146042181Y-69205049D01*
X146042184Y-69205051D01*
X146231588Y-69301557D01*
X146433757Y-69367246D01*
X146643713Y-69400500D01*
X146643714Y-69400500D01*
X146856286Y-69400500D01*
X146856287Y-69400500D01*
X147066243Y-69367246D01*
X147268412Y-69301557D01*
X147457816Y-69205051D01*
X147544478Y-69142088D01*
X147629786Y-69080109D01*
X147629788Y-69080106D01*
X147629792Y-69080104D01*
X147780104Y-68929792D01*
X147780106Y-68929788D01*
X147780109Y-68929786D01*
X147905048Y-68757820D01*
X147905047Y-68757820D01*
X147905051Y-68757816D01*
X147909514Y-68749054D01*
X147957488Y-68698259D01*
X148025308Y-68681463D01*
X148091444Y-68703999D01*
X148130486Y-68749056D01*
X148134951Y-68757820D01*
X148259890Y-68929786D01*
X148259896Y-68929792D01*
X148410208Y-69080104D01*
X148582184Y-69205051D01*
X148582186Y-69205052D01*
X148585985Y-69207812D01*
X148628651Y-69263142D01*
X148637100Y-69308131D01*
X148637100Y-76554952D01*
X148617415Y-76621991D01*
X148608957Y-76633612D01*
X148605296Y-76638073D01*
X148508828Y-76782446D01*
X148508821Y-76782459D01*
X148442377Y-76942871D01*
X148442374Y-76942881D01*
X148408500Y-77113177D01*
X148408500Y-77113180D01*
X148408500Y-77286820D01*
X148408500Y-77286822D01*
X148408499Y-77286822D01*
X148442374Y-77457118D01*
X148442377Y-77457128D01*
X148508821Y-77617540D01*
X148508828Y-77617553D01*
X148605293Y-77761922D01*
X148605296Y-77761926D01*
X148728073Y-77884703D01*
X148728077Y-77884706D01*
X148872446Y-77981171D01*
X148872459Y-77981178D01*
X149032871Y-78047622D01*
X149032876Y-78047624D01*
X149032880Y-78047624D01*
X149032881Y-78047625D01*
X149203177Y-78081500D01*
X149203180Y-78081500D01*
X149376822Y-78081500D01*
X149491394Y-78058709D01*
X149547124Y-78047624D01*
X149707547Y-77981175D01*
X149851923Y-77884706D01*
X149974706Y-77761923D01*
X150071175Y-77617547D01*
X150137624Y-77457124D01*
X150171500Y-77286820D01*
X150171500Y-77113180D01*
X150171500Y-77113177D01*
X150137625Y-76942881D01*
X150137624Y-76942880D01*
X150137624Y-76942876D01*
X150137622Y-76942871D01*
X150071178Y-76782459D01*
X150071171Y-76782446D01*
X149974703Y-76638073D01*
X149971043Y-76633612D01*
X149943733Y-76569300D01*
X149942900Y-76554952D01*
X149942900Y-73966900D01*
X149962585Y-73899861D01*
X150015389Y-73854106D01*
X150066900Y-73842900D01*
X157714953Y-73842900D01*
X157781992Y-73862585D01*
X157793618Y-73871047D01*
X157798076Y-73874705D01*
X157942446Y-73971171D01*
X157942459Y-73971178D01*
X158102871Y-74037622D01*
X158102876Y-74037624D01*
X158102880Y-74037624D01*
X158102881Y-74037625D01*
X158273177Y-74071500D01*
X158273180Y-74071500D01*
X158446822Y-74071500D01*
X158561394Y-74048709D01*
X158617124Y-74037624D01*
X158777547Y-73971175D01*
X158921923Y-73874706D01*
X159044706Y-73751923D01*
X159141175Y-73607547D01*
X159207624Y-73447124D01*
X159241500Y-73276820D01*
X159241500Y-73103180D01*
X159241500Y-73103177D01*
X159207625Y-72932881D01*
X159207624Y-72932880D01*
X159207624Y-72932876D01*
X159175724Y-72855864D01*
X159168256Y-72786400D01*
X159199530Y-72723920D01*
X159202577Y-72720762D01*
X163934121Y-67989219D01*
X163961048Y-67974515D01*
X163986867Y-67957923D01*
X163993067Y-67957031D01*
X163995444Y-67955734D01*
X164021802Y-67952900D01*
X164054953Y-67952900D01*
X164121992Y-67972585D01*
X164133618Y-67981047D01*
X164138074Y-67984703D01*
X164138077Y-67984706D01*
X164185550Y-68016426D01*
X164282446Y-68081171D01*
X164282459Y-68081178D01*
X164366108Y-68115826D01*
X164442876Y-68147624D01*
X164442880Y-68147624D01*
X164442881Y-68147625D01*
X164613177Y-68181500D01*
X164613180Y-68181500D01*
X164786822Y-68181500D01*
X164901394Y-68158709D01*
X164957124Y-68147624D01*
X165117547Y-68081175D01*
X165261923Y-67984706D01*
X165384706Y-67861923D01*
X165481175Y-67717547D01*
X165547624Y-67557124D01*
X165558709Y-67501394D01*
X165581500Y-67386822D01*
X165581500Y-67213177D01*
X165547625Y-67042881D01*
X165547624Y-67042880D01*
X165547624Y-67042876D01*
X165547622Y-67042871D01*
X165481178Y-66882459D01*
X165481171Y-66882446D01*
X165384706Y-66738077D01*
X165384703Y-66738073D01*
X165261926Y-66615296D01*
X165261922Y-66615293D01*
X165117553Y-66518828D01*
X165117540Y-66518821D01*
X164957128Y-66452377D01*
X164957118Y-66452374D01*
X164786822Y-66418500D01*
X164786820Y-66418500D01*
X164613180Y-66418500D01*
X164613178Y-66418500D01*
X164442881Y-66452374D01*
X164442871Y-66452377D01*
X164282459Y-66518821D01*
X164282446Y-66518828D01*
X164138076Y-66615294D01*
X164133618Y-66618953D01*
X164069308Y-66646266D01*
X164054953Y-66647100D01*
X163635693Y-66647100D01*
X163509561Y-66672189D01*
X163509555Y-66672191D01*
X163390737Y-66721407D01*
X163283797Y-66792861D01*
X163283796Y-66792862D01*
X157852863Y-72223794D01*
X157852857Y-72223801D01*
X157794594Y-72310998D01*
X157794595Y-72310999D01*
X157781408Y-72330734D01*
X157739915Y-72430906D01*
X157739077Y-72432933D01*
X157729860Y-72455184D01*
X157728666Y-72454689D01*
X157694028Y-72507538D01*
X157630214Y-72535991D01*
X157613670Y-72537100D01*
X153072894Y-72537100D01*
X153042818Y-72528268D01*
X153012253Y-72521261D01*
X153009554Y-72518501D01*
X153005855Y-72517415D01*
X152985333Y-72493732D01*
X152963404Y-72471306D01*
X152962625Y-72467526D01*
X152960100Y-72464611D01*
X152955637Y-72433577D01*
X152949317Y-72402871D01*
X152950705Y-72399272D01*
X152950156Y-72395453D01*
X152963181Y-72366931D01*
X152974464Y-72337684D01*
X152978090Y-72334285D01*
X152979181Y-72331897D01*
X152999699Y-72313008D01*
X153001825Y-72311452D01*
X153011923Y-72304706D01*
X153014294Y-72302334D01*
X153021852Y-72296808D01*
X153051593Y-72286092D01*
X153080692Y-72273734D01*
X153086894Y-72273373D01*
X153087585Y-72273125D01*
X153088310Y-72273291D01*
X153095047Y-72272900D01*
X155654307Y-72272900D01*
X155739165Y-72256019D01*
X155780444Y-72247809D01*
X155899264Y-72198592D01*
X155924211Y-72181923D01*
X156006200Y-72127141D01*
X163042038Y-65091301D01*
X163103359Y-65057818D01*
X163149115Y-65056511D01*
X163275242Y-65076487D01*
X163363713Y-65090500D01*
X163363714Y-65090500D01*
X163576286Y-65090500D01*
X163576287Y-65090500D01*
X163786243Y-65057246D01*
X163988412Y-64991557D01*
X164177816Y-64895051D01*
X164264138Y-64832335D01*
X164349786Y-64770109D01*
X164349788Y-64770106D01*
X164349792Y-64770104D01*
X164500104Y-64619792D01*
X164500106Y-64619788D01*
X164500109Y-64619786D01*
X164625048Y-64447820D01*
X164625047Y-64447820D01*
X164625051Y-64447816D01*
X164629514Y-64439054D01*
X164677488Y-64388259D01*
X164745308Y-64371463D01*
X164811444Y-64393999D01*
X164850486Y-64439056D01*
X164854951Y-64447820D01*
X164979890Y-64619786D01*
X165130213Y-64770109D01*
X165302179Y-64895048D01*
X165302181Y-64895049D01*
X165302184Y-64895051D01*
X165491588Y-64991557D01*
X165693757Y-65057246D01*
X165903713Y-65090500D01*
X165903714Y-65090500D01*
X166116286Y-65090500D01*
X166116287Y-65090500D01*
X166326243Y-65057246D01*
X166528412Y-64991557D01*
X166717816Y-64895051D01*
X166804138Y-64832335D01*
X166889786Y-64770109D01*
X166889788Y-64770106D01*
X166889792Y-64770104D01*
X167040104Y-64619792D01*
X167040106Y-64619788D01*
X167040109Y-64619786D01*
X167165048Y-64447820D01*
X167165047Y-64447820D01*
X167165051Y-64447816D01*
X167169514Y-64439054D01*
X167217488Y-64388259D01*
X167285308Y-64371463D01*
X167351444Y-64393999D01*
X167390486Y-64439056D01*
X167394951Y-64447820D01*
X167519890Y-64619786D01*
X167670213Y-64770109D01*
X167842179Y-64895048D01*
X167842181Y-64895049D01*
X167842184Y-64895051D01*
X168031588Y-64991557D01*
X168233757Y-65057246D01*
X168443713Y-65090500D01*
X168443714Y-65090500D01*
X168656286Y-65090500D01*
X168656287Y-65090500D01*
X168866243Y-65057246D01*
X169068412Y-64991557D01*
X169257816Y-64895051D01*
X169344138Y-64832335D01*
X169429786Y-64770109D01*
X169429788Y-64770106D01*
X169429792Y-64770104D01*
X169580104Y-64619792D01*
X169580106Y-64619788D01*
X169580109Y-64619786D01*
X169705048Y-64447820D01*
X169705047Y-64447820D01*
X169705051Y-64447816D01*
X169709514Y-64439054D01*
X169757488Y-64388259D01*
X169825308Y-64371463D01*
X169891444Y-64393999D01*
X169930486Y-64439056D01*
X169934951Y-64447820D01*
X170059890Y-64619786D01*
X170059896Y-64619792D01*
X170210208Y-64770104D01*
X170382184Y-64895051D01*
X170382186Y-64895052D01*
X170385985Y-64897812D01*
X170428651Y-64953142D01*
X170437100Y-64998131D01*
X170437100Y-68314908D01*
X170417415Y-68381947D01*
X170400781Y-68402589D01*
X170365296Y-68438073D01*
X170365293Y-68438077D01*
X170268828Y-68582446D01*
X170268821Y-68582459D01*
X170202377Y-68742871D01*
X170202374Y-68742881D01*
X170168498Y-68913183D01*
X170167933Y-68918925D01*
X170141769Y-68983711D01*
X170132212Y-68994446D01*
X160695878Y-78430781D01*
X160634555Y-78464266D01*
X160608197Y-78467100D01*
X132995047Y-78467100D01*
X132928008Y-78447415D01*
X132916382Y-78438953D01*
X132911923Y-78435294D01*
X132767553Y-78338828D01*
X132767540Y-78338821D01*
X132607128Y-78272377D01*
X132607118Y-78272374D01*
X132436822Y-78238500D01*
X132436820Y-78238500D01*
X132263180Y-78238500D01*
X132263178Y-78238500D01*
X132092881Y-78272374D01*
X132092871Y-78272377D01*
X131932459Y-78338821D01*
X131932446Y-78338828D01*
X131788077Y-78435293D01*
X131788073Y-78435296D01*
X131665296Y-78558073D01*
X131665293Y-78558077D01*
X131568828Y-78702446D01*
X131568821Y-78702459D01*
X131502377Y-78862871D01*
X131502374Y-78862881D01*
X131468500Y-79033177D01*
X131468500Y-79033180D01*
X131468500Y-79206820D01*
X131468500Y-79206822D01*
X131468499Y-79206822D01*
X131502374Y-79377118D01*
X131502377Y-79377128D01*
X131568821Y-79537540D01*
X131568828Y-79537553D01*
X131665293Y-79681922D01*
X131665296Y-79681926D01*
X131788073Y-79804703D01*
X131788077Y-79804706D01*
X131932446Y-79901171D01*
X131932459Y-79901178D01*
X132026185Y-79940000D01*
X132092876Y-79967624D01*
X132092880Y-79967624D01*
X132092881Y-79967625D01*
X132263177Y-80001500D01*
X132263180Y-80001500D01*
X132436822Y-80001500D01*
X132551394Y-79978709D01*
X132607124Y-79967624D01*
X132767547Y-79901175D01*
X132911923Y-79804706D01*
X132911928Y-79804700D01*
X132916382Y-79801047D01*
X132980692Y-79773734D01*
X132995047Y-79772900D01*
X160994307Y-79772900D01*
X161079165Y-79756019D01*
X161120444Y-79747809D01*
X161149717Y-79735683D01*
X161196319Y-79716381D01*
X161196324Y-79716378D01*
X161239264Y-79698592D01*
X161264211Y-79681923D01*
X161346200Y-79627141D01*
X164471205Y-76502135D01*
X169449500Y-76502135D01*
X169449500Y-78297870D01*
X169449501Y-78297876D01*
X169455908Y-78357483D01*
X169506202Y-78492328D01*
X169506206Y-78492335D01*
X169592452Y-78607544D01*
X169592455Y-78607547D01*
X169707664Y-78693793D01*
X169707671Y-78693797D01*
X169752618Y-78710561D01*
X169842517Y-78744091D01*
X169902127Y-78750500D01*
X169912685Y-78750499D01*
X169979723Y-78770179D01*
X170000372Y-78786818D01*
X170670591Y-79457037D01*
X170607007Y-79474075D01*
X170492993Y-79539901D01*
X170399901Y-79632993D01*
X170334075Y-79747007D01*
X170317037Y-79810591D01*
X169684728Y-79178282D01*
X169684727Y-79178282D01*
X169645380Y-79232439D01*
X169548904Y-79421782D01*
X169483242Y-79623869D01*
X169483242Y-79623872D01*
X169450000Y-79833753D01*
X169450000Y-80046246D01*
X169483242Y-80256127D01*
X169483242Y-80256130D01*
X169548904Y-80458217D01*
X169645375Y-80647550D01*
X169684728Y-80701716D01*
X170317037Y-80069408D01*
X170334075Y-80132993D01*
X170399901Y-80247007D01*
X170492993Y-80340099D01*
X170607007Y-80405925D01*
X170670590Y-80422962D01*
X170038282Y-81055269D01*
X170038282Y-81055270D01*
X170092449Y-81094624D01*
X170281782Y-81191095D01*
X170483870Y-81256757D01*
X170693754Y-81290000D01*
X170906246Y-81290000D01*
X171116127Y-81256757D01*
X171116130Y-81256757D01*
X171318217Y-81191095D01*
X171507554Y-81094622D01*
X171561716Y-81055270D01*
X171561717Y-81055270D01*
X170929408Y-80422962D01*
X170992993Y-80405925D01*
X171107007Y-80340099D01*
X171200099Y-80247007D01*
X171265925Y-80132993D01*
X171282962Y-80069408D01*
X171915270Y-80701717D01*
X171915270Y-80701716D01*
X171954622Y-80647554D01*
X172051095Y-80458217D01*
X172116757Y-80256130D01*
X172116757Y-80256127D01*
X172150000Y-80046246D01*
X172150000Y-79833753D01*
X172116757Y-79623872D01*
X172116757Y-79623869D01*
X172051095Y-79421782D01*
X171954624Y-79232449D01*
X171915270Y-79178282D01*
X171915269Y-79178282D01*
X171282962Y-79810590D01*
X171265925Y-79747007D01*
X171200099Y-79632993D01*
X171107007Y-79539901D01*
X170992993Y-79474075D01*
X170929409Y-79457037D01*
X171599627Y-78786818D01*
X171660950Y-78753333D01*
X171687307Y-78750499D01*
X171697872Y-78750499D01*
X171757483Y-78744091D01*
X171892331Y-78693796D01*
X172007546Y-78607546D01*
X172093796Y-78492331D01*
X172144091Y-78357483D01*
X172150500Y-78297873D01*
X172150499Y-76502128D01*
X172144091Y-76442517D01*
X172093796Y-76307669D01*
X172093795Y-76307668D01*
X172093793Y-76307664D01*
X172007547Y-76192455D01*
X172007544Y-76192452D01*
X171892335Y-76106206D01*
X171892328Y-76106202D01*
X171757482Y-76055908D01*
X171757483Y-76055908D01*
X171697883Y-76049501D01*
X171697881Y-76049500D01*
X171697873Y-76049500D01*
X171697864Y-76049500D01*
X169902129Y-76049500D01*
X169902123Y-76049501D01*
X169842516Y-76055908D01*
X169707671Y-76106202D01*
X169707664Y-76106206D01*
X169592455Y-76192452D01*
X169592452Y-76192455D01*
X169506206Y-76307664D01*
X169506202Y-76307671D01*
X169455908Y-76442517D01*
X169449501Y-76502116D01*
X169449501Y-76502123D01*
X169449500Y-76502135D01*
X164471205Y-76502135D01*
X171055554Y-69917785D01*
X171116875Y-69884302D01*
X171131085Y-69882064D01*
X171136810Y-69881500D01*
X171136820Y-69881500D01*
X171307124Y-69847624D01*
X171467547Y-69781175D01*
X171611923Y-69684706D01*
X171734706Y-69561923D01*
X171831175Y-69417547D01*
X171897624Y-69257124D01*
X171908709Y-69201394D01*
X171931500Y-69086822D01*
X171931500Y-68913177D01*
X171897625Y-68742881D01*
X171897624Y-68742880D01*
X171897624Y-68742876D01*
X171872186Y-68681463D01*
X171831178Y-68582459D01*
X171831171Y-68582446D01*
X171763798Y-68481615D01*
X171742920Y-68414937D01*
X171742900Y-68412724D01*
X171742900Y-64998131D01*
X171762585Y-64931092D01*
X171794015Y-64897812D01*
X171797813Y-64895052D01*
X171797816Y-64895051D01*
X171969792Y-64770104D01*
X172120104Y-64619792D01*
X172120106Y-64619788D01*
X172120109Y-64619786D01*
X172205890Y-64501717D01*
X172245051Y-64447816D01*
X172249793Y-64438508D01*
X172297763Y-64387711D01*
X172365583Y-64370911D01*
X172431719Y-64393445D01*
X172470763Y-64438500D01*
X172475373Y-64447547D01*
X172514728Y-64501716D01*
X173147037Y-63869408D01*
X173164075Y-63932993D01*
X173229901Y-64047007D01*
X173322993Y-64140099D01*
X173437007Y-64205925D01*
X173500590Y-64222962D01*
X172868282Y-64855269D01*
X172868282Y-64855270D01*
X172922449Y-64894624D01*
X173111782Y-64991095D01*
X173313870Y-65056757D01*
X173523754Y-65090000D01*
X173736246Y-65090000D01*
X173946127Y-65056757D01*
X173946130Y-65056757D01*
X174148217Y-64991095D01*
X174337554Y-64894622D01*
X174391716Y-64855270D01*
X174391717Y-64855270D01*
X173759408Y-64222962D01*
X173822993Y-64205925D01*
X173937007Y-64140099D01*
X174030099Y-64047007D01*
X174095925Y-63932993D01*
X174112962Y-63869408D01*
X174745270Y-64501717D01*
X174745270Y-64501716D01*
X174784622Y-64447554D01*
X174881095Y-64258217D01*
X174946757Y-64056130D01*
X174946757Y-64056127D01*
X174980000Y-63846246D01*
X174980000Y-63633753D01*
X174946757Y-63423872D01*
X174946757Y-63423869D01*
X174881095Y-63221782D01*
X174784624Y-63032449D01*
X174745270Y-62978282D01*
X174112962Y-63610590D01*
X174095925Y-63547007D01*
X174030099Y-63432993D01*
X173937007Y-63339901D01*
X173822993Y-63274075D01*
X173759409Y-63257037D01*
X174391716Y-62624728D01*
X174337547Y-62585373D01*
X174337547Y-62585372D01*
X174328500Y-62580763D01*
X174277706Y-62532788D01*
X174260912Y-62464966D01*
X174283451Y-62398832D01*
X174328508Y-62359793D01*
X174337816Y-62355051D01*
X174383211Y-62322070D01*
X176874500Y-62322070D01*
X176874500Y-62577930D01*
X176875680Y-62585380D01*
X176914526Y-62830640D01*
X176993588Y-63073972D01*
X176993589Y-63073975D01*
X177068803Y-63221588D01*
X177095546Y-63274075D01*
X177109750Y-63301950D01*
X177260132Y-63508935D01*
X177260136Y-63508940D01*
X177441059Y-63689863D01*
X177441064Y-63689867D01*
X177510067Y-63740000D01*
X177648053Y-63840252D01*
X177797080Y-63916185D01*
X177876024Y-63956410D01*
X177876027Y-63956411D01*
X177997693Y-63995942D01*
X178119361Y-64035474D01*
X178372070Y-64075500D01*
X178372071Y-64075500D01*
X178627929Y-64075500D01*
X178627930Y-64075500D01*
X178880639Y-64035474D01*
X179123975Y-63956410D01*
X179351947Y-63840252D01*
X179558942Y-63689862D01*
X179739862Y-63508942D01*
X179890252Y-63301947D01*
X180006410Y-63073975D01*
X180085474Y-62830639D01*
X180125500Y-62577930D01*
X180125500Y-62322070D01*
X180085474Y-62069361D01*
X180032985Y-61907816D01*
X180006411Y-61826027D01*
X180006410Y-61826024D01*
X179951578Y-61718412D01*
X179890252Y-61598053D01*
X179824104Y-61507007D01*
X179739867Y-61391064D01*
X179739863Y-61391059D01*
X179558940Y-61210136D01*
X179558935Y-61210132D01*
X179351950Y-61059750D01*
X179351949Y-61059749D01*
X179351947Y-61059748D01*
X179278910Y-61022533D01*
X179123975Y-60943589D01*
X179123972Y-60943588D01*
X178880640Y-60864526D01*
X178754284Y-60844513D01*
X178627930Y-60824500D01*
X178372070Y-60824500D01*
X178287833Y-60837842D01*
X178119359Y-60864526D01*
X177876027Y-60943588D01*
X177876024Y-60943589D01*
X177648049Y-61059750D01*
X177441064Y-61210132D01*
X177441059Y-61210136D01*
X177260136Y-61391059D01*
X177260132Y-61391064D01*
X177109750Y-61598049D01*
X176993589Y-61826024D01*
X176993588Y-61826027D01*
X176914526Y-62069359D01*
X176894891Y-62193326D01*
X176874500Y-62322070D01*
X174383211Y-62322070D01*
X174427554Y-62289853D01*
X174509786Y-62230109D01*
X174509788Y-62230106D01*
X174509792Y-62230104D01*
X174660104Y-62079792D01*
X174660106Y-62079788D01*
X174660109Y-62079786D01*
X174785048Y-61907820D01*
X174785047Y-61907820D01*
X174785051Y-61907816D01*
X174881557Y-61718412D01*
X174947246Y-61516243D01*
X174980500Y-61306287D01*
X174980500Y-61093713D01*
X174947246Y-60883757D01*
X174881557Y-60681588D01*
X174785051Y-60492184D01*
X174785049Y-60492181D01*
X174785048Y-60492179D01*
X174660109Y-60320213D01*
X174509786Y-60169890D01*
X174337820Y-60044951D01*
X174148414Y-59948444D01*
X174148413Y-59948443D01*
X174148412Y-59948443D01*
X173946243Y-59882754D01*
X173946241Y-59882753D01*
X173946240Y-59882753D01*
X173784957Y-59857208D01*
X173736287Y-59849500D01*
X173523713Y-59849500D01*
X173475042Y-59857208D01*
X173313760Y-59882753D01*
X173111585Y-59948444D01*
X172922179Y-60044951D01*
X172750213Y-60169890D01*
X172599890Y-60320213D01*
X172474949Y-60492182D01*
X172470484Y-60500946D01*
X172422509Y-60551742D01*
X172354688Y-60568536D01*
X172288553Y-60545998D01*
X172249516Y-60500946D01*
X172245050Y-60492182D01*
X172120109Y-60320213D01*
X171969786Y-60169890D01*
X171797820Y-60044951D01*
X171608414Y-59948444D01*
X171608413Y-59948443D01*
X171608412Y-59948443D01*
X171406243Y-59882754D01*
X171406241Y-59882753D01*
X171406240Y-59882753D01*
X171244957Y-59857208D01*
X171196287Y-59849500D01*
X170983713Y-59849500D01*
X170935042Y-59857208D01*
X170773760Y-59882753D01*
X170571585Y-59948444D01*
X170382179Y-60044951D01*
X170210213Y-60169890D01*
X170059890Y-60320213D01*
X169934949Y-60492182D01*
X169930484Y-60500946D01*
X169882509Y-60551742D01*
X169814688Y-60568536D01*
X169748553Y-60545998D01*
X169709516Y-60500946D01*
X169705050Y-60492182D01*
X169580109Y-60320213D01*
X169429786Y-60169890D01*
X169257820Y-60044951D01*
X169068414Y-59948444D01*
X169068413Y-59948443D01*
X169068412Y-59948443D01*
X168866243Y-59882754D01*
X168866241Y-59882753D01*
X168866240Y-59882753D01*
X168704957Y-59857208D01*
X168656287Y-59849500D01*
X168443713Y-59849500D01*
X168395042Y-59857208D01*
X168233760Y-59882753D01*
X168031585Y-59948444D01*
X167842179Y-60044951D01*
X167670213Y-60169890D01*
X167519890Y-60320213D01*
X167394949Y-60492182D01*
X167390202Y-60501499D01*
X167342227Y-60552293D01*
X167274405Y-60569087D01*
X167208271Y-60546548D01*
X167169234Y-60501495D01*
X167164626Y-60492452D01*
X167125270Y-60438282D01*
X166492962Y-61070590D01*
X166475925Y-61007007D01*
X166410099Y-60892993D01*
X166317007Y-60799901D01*
X166202993Y-60734075D01*
X166139409Y-60717037D01*
X166771716Y-60084728D01*
X166717550Y-60045375D01*
X166528217Y-59948904D01*
X166326129Y-59883242D01*
X166116246Y-59850000D01*
X165903754Y-59850000D01*
X165693872Y-59883242D01*
X165693869Y-59883242D01*
X165491782Y-59948904D01*
X165302439Y-60045380D01*
X165248282Y-60084727D01*
X165248282Y-60084728D01*
X165880591Y-60717037D01*
X165817007Y-60734075D01*
X165702993Y-60799901D01*
X165609901Y-60892993D01*
X165544075Y-61007007D01*
X165527037Y-61070591D01*
X164894728Y-60438282D01*
X164894727Y-60438282D01*
X164855380Y-60492440D01*
X164855376Y-60492446D01*
X164850760Y-60501505D01*
X164802781Y-60552297D01*
X164734959Y-60569087D01*
X164668826Y-60546543D01*
X164629794Y-60501493D01*
X164625051Y-60492184D01*
X164625049Y-60492181D01*
X164625048Y-60492179D01*
X164500109Y-60320213D01*
X164349786Y-60169890D01*
X164177820Y-60044951D01*
X163988414Y-59948444D01*
X163988413Y-59948443D01*
X163988412Y-59948443D01*
X163786243Y-59882754D01*
X163786241Y-59882753D01*
X163786240Y-59882753D01*
X163624957Y-59857208D01*
X163576287Y-59849500D01*
X163363713Y-59849500D01*
X163315042Y-59857208D01*
X163153760Y-59882753D01*
X162951585Y-59948444D01*
X162762179Y-60044951D01*
X162590213Y-60169890D01*
X162439890Y-60320213D01*
X162314949Y-60492182D01*
X162310202Y-60501499D01*
X162262227Y-60552293D01*
X162194405Y-60569087D01*
X162128271Y-60546548D01*
X162089234Y-60501495D01*
X162084626Y-60492452D01*
X162045270Y-60438282D01*
X161412962Y-61070590D01*
X161395925Y-61007007D01*
X161330099Y-60892993D01*
X161237007Y-60799901D01*
X161122993Y-60734075D01*
X161059409Y-60717037D01*
X161691716Y-60084728D01*
X161637550Y-60045375D01*
X161448217Y-59948904D01*
X161246129Y-59883242D01*
X161036246Y-59850000D01*
X160823754Y-59850000D01*
X160613872Y-59883242D01*
X160613869Y-59883242D01*
X160411782Y-59948904D01*
X160222439Y-60045380D01*
X160168282Y-60084727D01*
X160168282Y-60084728D01*
X160800591Y-60717037D01*
X160737007Y-60734075D01*
X160622993Y-60799901D01*
X160529901Y-60892993D01*
X160464075Y-61007007D01*
X160447037Y-61070591D01*
X159814728Y-60438282D01*
X159814727Y-60438282D01*
X159775380Y-60492440D01*
X159775376Y-60492446D01*
X159770760Y-60501505D01*
X159722781Y-60552297D01*
X159654959Y-60569087D01*
X159588826Y-60546543D01*
X159549794Y-60501493D01*
X159545051Y-60492184D01*
X159545049Y-60492181D01*
X159545048Y-60492179D01*
X159420109Y-60320213D01*
X159269786Y-60169890D01*
X159097820Y-60044951D01*
X158908414Y-59948444D01*
X158908413Y-59948443D01*
X158908412Y-59948443D01*
X158706243Y-59882754D01*
X158706241Y-59882753D01*
X158706240Y-59882753D01*
X158544957Y-59857208D01*
X158496287Y-59849500D01*
X158283713Y-59849500D01*
X158235042Y-59857208D01*
X158073760Y-59882753D01*
X157871585Y-59948444D01*
X157682179Y-60044951D01*
X157510213Y-60169890D01*
X157359890Y-60320213D01*
X157234949Y-60492182D01*
X157230484Y-60500946D01*
X157182509Y-60551742D01*
X157114688Y-60568536D01*
X157048553Y-60545998D01*
X157009516Y-60500946D01*
X157005050Y-60492182D01*
X156880109Y-60320213D01*
X156729786Y-60169890D01*
X156557820Y-60044951D01*
X156368414Y-59948444D01*
X156368413Y-59948443D01*
X156368412Y-59948443D01*
X156166243Y-59882754D01*
X156166241Y-59882753D01*
X156166240Y-59882753D01*
X156004957Y-59857208D01*
X155956287Y-59849500D01*
X155743713Y-59849500D01*
X155695042Y-59857208D01*
X155533760Y-59882753D01*
X155331585Y-59948444D01*
X155142179Y-60044951D01*
X154970213Y-60169890D01*
X154819890Y-60320213D01*
X154694949Y-60492182D01*
X154690484Y-60500946D01*
X154642509Y-60551742D01*
X154574688Y-60568536D01*
X154508553Y-60545998D01*
X154469516Y-60500946D01*
X154465050Y-60492182D01*
X154340109Y-60320213D01*
X154189786Y-60169890D01*
X154017820Y-60044951D01*
X153828414Y-59948444D01*
X153828413Y-59948443D01*
X153828412Y-59948443D01*
X153626243Y-59882754D01*
X153626241Y-59882753D01*
X153626240Y-59882753D01*
X153464957Y-59857208D01*
X153416287Y-59849500D01*
X153203713Y-59849500D01*
X153155042Y-59857208D01*
X152993760Y-59882753D01*
X152791585Y-59948444D01*
X152602179Y-60044951D01*
X152430213Y-60169890D01*
X152279890Y-60320213D01*
X152154949Y-60492182D01*
X152150484Y-60500946D01*
X152102509Y-60551742D01*
X152034688Y-60568536D01*
X151968553Y-60545998D01*
X151929516Y-60500946D01*
X151925050Y-60492182D01*
X151800109Y-60320213D01*
X151649786Y-60169890D01*
X151477820Y-60044951D01*
X151288414Y-59948444D01*
X151288413Y-59948443D01*
X151288412Y-59948443D01*
X151086243Y-59882754D01*
X151086241Y-59882753D01*
X151086240Y-59882753D01*
X150924957Y-59857208D01*
X150876287Y-59849500D01*
X150663713Y-59849500D01*
X150615042Y-59857208D01*
X150453760Y-59882753D01*
X150251585Y-59948444D01*
X150062179Y-60044951D01*
X149890213Y-60169890D01*
X149739890Y-60320213D01*
X149614949Y-60492182D01*
X149610202Y-60501499D01*
X149562227Y-60552293D01*
X149494405Y-60569087D01*
X149428271Y-60546548D01*
X149389234Y-60501495D01*
X149384626Y-60492452D01*
X149345270Y-60438282D01*
X149345269Y-60438282D01*
X148712962Y-61070590D01*
X148695925Y-61007007D01*
X148630099Y-60892993D01*
X148537007Y-60799901D01*
X148422993Y-60734075D01*
X148359409Y-60717037D01*
X148991716Y-60084728D01*
X148937550Y-60045375D01*
X148748217Y-59948904D01*
X148546129Y-59883242D01*
X148336246Y-59850000D01*
X148123754Y-59850000D01*
X147913872Y-59883242D01*
X147913869Y-59883242D01*
X147711782Y-59948904D01*
X147522439Y-60045380D01*
X147468282Y-60084727D01*
X147468282Y-60084728D01*
X148100591Y-60717037D01*
X148037007Y-60734075D01*
X147922993Y-60799901D01*
X147829901Y-60892993D01*
X147764075Y-61007007D01*
X147747037Y-61070591D01*
X147114728Y-60438282D01*
X147114727Y-60438282D01*
X147075380Y-60492440D01*
X147075376Y-60492446D01*
X147070760Y-60501505D01*
X147022781Y-60552297D01*
X146954959Y-60569087D01*
X146888826Y-60546543D01*
X146849794Y-60501493D01*
X146845051Y-60492184D01*
X146845049Y-60492181D01*
X146845048Y-60492179D01*
X146720109Y-60320213D01*
X146569786Y-60169890D01*
X146397820Y-60044951D01*
X146208414Y-59948444D01*
X146208413Y-59948443D01*
X146208412Y-59948443D01*
X146006243Y-59882754D01*
X146006241Y-59882753D01*
X146006240Y-59882753D01*
X145844957Y-59857208D01*
X145796287Y-59849500D01*
X145583713Y-59849500D01*
X145535042Y-59857208D01*
X145373760Y-59882753D01*
X145171585Y-59948444D01*
X144982179Y-60044951D01*
X144810213Y-60169890D01*
X144659890Y-60320213D01*
X144534949Y-60492182D01*
X144530484Y-60500946D01*
X144482509Y-60551742D01*
X144414688Y-60568536D01*
X144348553Y-60545998D01*
X144309516Y-60500946D01*
X144305050Y-60492182D01*
X144180109Y-60320213D01*
X144029786Y-60169890D01*
X143857820Y-60044951D01*
X143668414Y-59948444D01*
X143668413Y-59948443D01*
X143668412Y-59948443D01*
X143466243Y-59882754D01*
X143466241Y-59882753D01*
X143466240Y-59882753D01*
X143304957Y-59857208D01*
X143256287Y-59849500D01*
X143043713Y-59849500D01*
X142995042Y-59857208D01*
X142833760Y-59882753D01*
X142631585Y-59948444D01*
X142442179Y-60044951D01*
X142270213Y-60169890D01*
X142119890Y-60320213D01*
X141994949Y-60492182D01*
X141990202Y-60501499D01*
X141942227Y-60552293D01*
X141874405Y-60569087D01*
X141808271Y-60546548D01*
X141769234Y-60501495D01*
X141764626Y-60492452D01*
X141725270Y-60438282D01*
X141725269Y-60438282D01*
X141092962Y-61070590D01*
X141075925Y-61007007D01*
X141010099Y-60892993D01*
X140917007Y-60799901D01*
X140802993Y-60734075D01*
X140739409Y-60717037D01*
X141371716Y-60084728D01*
X141317550Y-60045375D01*
X141128217Y-59948904D01*
X140926129Y-59883242D01*
X140716246Y-59850000D01*
X140503754Y-59850000D01*
X140293872Y-59883242D01*
X140293869Y-59883242D01*
X140091782Y-59948904D01*
X139902439Y-60045380D01*
X139848282Y-60084727D01*
X139848282Y-60084728D01*
X140480591Y-60717037D01*
X140417007Y-60734075D01*
X140302993Y-60799901D01*
X140209901Y-60892993D01*
X140144075Y-61007007D01*
X140127037Y-61070591D01*
X139494728Y-60438282D01*
X139494727Y-60438282D01*
X139455380Y-60492440D01*
X139455376Y-60492446D01*
X139450760Y-60501505D01*
X139402781Y-60552297D01*
X139334959Y-60569087D01*
X139268826Y-60546543D01*
X139229794Y-60501493D01*
X139225051Y-60492184D01*
X139225049Y-60492181D01*
X139225048Y-60492179D01*
X139100109Y-60320213D01*
X138949786Y-60169890D01*
X138777820Y-60044951D01*
X138588414Y-59948444D01*
X138588413Y-59948443D01*
X138588412Y-59948443D01*
X138386243Y-59882754D01*
X138386241Y-59882753D01*
X138386240Y-59882753D01*
X138224957Y-59857208D01*
X138176287Y-59849500D01*
X137963713Y-59849500D01*
X137915042Y-59857208D01*
X137753760Y-59882753D01*
X137551585Y-59948444D01*
X137362179Y-60044951D01*
X137190213Y-60169890D01*
X137039890Y-60320213D01*
X136914949Y-60492182D01*
X136910484Y-60500946D01*
X136862509Y-60551742D01*
X136794688Y-60568536D01*
X136728553Y-60545998D01*
X136689516Y-60500946D01*
X136685050Y-60492182D01*
X136560109Y-60320213D01*
X136409786Y-60169890D01*
X136237820Y-60044951D01*
X136048414Y-59948444D01*
X136048413Y-59948443D01*
X136048412Y-59948443D01*
X135846243Y-59882754D01*
X135846241Y-59882753D01*
X135846240Y-59882753D01*
X135684957Y-59857208D01*
X135636287Y-59849500D01*
X135423713Y-59849500D01*
X135375042Y-59857208D01*
X135213760Y-59882753D01*
X135011585Y-59948444D01*
X134822179Y-60044951D01*
X134650213Y-60169890D01*
X134499890Y-60320213D01*
X134374949Y-60492182D01*
X134370484Y-60500946D01*
X134322509Y-60551742D01*
X134254688Y-60568536D01*
X134188553Y-60545998D01*
X134149516Y-60500946D01*
X134145050Y-60492182D01*
X134020109Y-60320213D01*
X133869786Y-60169890D01*
X133697820Y-60044951D01*
X133508414Y-59948444D01*
X133508413Y-59948443D01*
X133508412Y-59948443D01*
X133306243Y-59882754D01*
X133306241Y-59882753D01*
X133306240Y-59882753D01*
X133144957Y-59857208D01*
X133096287Y-59849500D01*
X132883713Y-59849500D01*
X132835042Y-59857208D01*
X132673760Y-59882753D01*
X132471585Y-59948444D01*
X132282179Y-60044951D01*
X132110213Y-60169890D01*
X131959890Y-60320213D01*
X131834949Y-60492182D01*
X131830202Y-60501499D01*
X131782227Y-60552293D01*
X131714405Y-60569087D01*
X131648271Y-60546548D01*
X131609234Y-60501495D01*
X131604626Y-60492452D01*
X131565270Y-60438282D01*
X131565269Y-60438282D01*
X130932962Y-61070590D01*
X130915925Y-61007007D01*
X130850099Y-60892993D01*
X130757007Y-60799901D01*
X130642993Y-60734075D01*
X130579409Y-60717037D01*
X131211716Y-60084728D01*
X131157550Y-60045375D01*
X130968217Y-59948904D01*
X130766129Y-59883242D01*
X130556246Y-59850000D01*
X130343754Y-59850000D01*
X130133872Y-59883242D01*
X130133869Y-59883242D01*
X129931782Y-59948904D01*
X129742439Y-60045380D01*
X129688282Y-60084727D01*
X129688282Y-60084728D01*
X130320591Y-60717037D01*
X130257007Y-60734075D01*
X130142993Y-60799901D01*
X130049901Y-60892993D01*
X129984075Y-61007007D01*
X129967037Y-61070591D01*
X129334728Y-60438282D01*
X129334727Y-60438282D01*
X129295380Y-60492440D01*
X129295376Y-60492446D01*
X129290760Y-60501505D01*
X129242781Y-60552297D01*
X129174959Y-60569087D01*
X129108826Y-60546543D01*
X129069794Y-60501493D01*
X129065051Y-60492184D01*
X129065049Y-60492181D01*
X129065048Y-60492179D01*
X128940109Y-60320213D01*
X128789786Y-60169890D01*
X128617820Y-60044951D01*
X128428414Y-59948444D01*
X128428413Y-59948443D01*
X128428412Y-59948443D01*
X128226243Y-59882754D01*
X128226241Y-59882753D01*
X128226240Y-59882753D01*
X128064957Y-59857208D01*
X128016287Y-59849500D01*
X127803713Y-59849500D01*
X127755042Y-59857208D01*
X127593760Y-59882753D01*
X127391585Y-59948444D01*
X127202179Y-60044951D01*
X127030213Y-60169890D01*
X126879890Y-60320213D01*
X126754949Y-60492182D01*
X126750484Y-60500946D01*
X126702509Y-60551742D01*
X126634688Y-60568536D01*
X126568553Y-60545998D01*
X126529516Y-60500946D01*
X126525050Y-60492182D01*
X126400109Y-60320213D01*
X126249786Y-60169890D01*
X126077820Y-60044951D01*
X125888414Y-59948444D01*
X125888413Y-59948443D01*
X125888412Y-59948443D01*
X125686243Y-59882754D01*
X125686241Y-59882753D01*
X125686240Y-59882753D01*
X125524957Y-59857208D01*
X125476287Y-59849500D01*
X125263713Y-59849500D01*
X125215042Y-59857208D01*
X125053760Y-59882753D01*
X124851585Y-59948444D01*
X124662179Y-60044951D01*
X124490213Y-60169890D01*
X124339890Y-60320213D01*
X124214951Y-60492179D01*
X124118444Y-60681585D01*
X124052753Y-60883760D01*
X124019500Y-61093713D01*
X121398697Y-61093713D01*
X121351950Y-61059750D01*
X121351949Y-61059749D01*
X121351947Y-61059748D01*
X121278910Y-61022533D01*
X121123975Y-60943589D01*
X121123972Y-60943588D01*
X120880640Y-60864526D01*
X120754284Y-60844513D01*
X120627930Y-60824500D01*
X120372070Y-60824500D01*
X120287833Y-60837842D01*
X120119359Y-60864526D01*
X119876027Y-60943588D01*
X119876024Y-60943589D01*
X119648049Y-61059750D01*
X119441064Y-61210132D01*
X119441059Y-61210136D01*
X119260136Y-61391059D01*
X119260132Y-61391064D01*
X119109750Y-61598049D01*
X118993589Y-61826024D01*
X118993588Y-61826027D01*
X118914526Y-62069359D01*
X118894891Y-62193326D01*
X118874500Y-62322070D01*
X117500500Y-62322070D01*
X117500500Y-61953750D01*
X117500726Y-61946263D01*
X117503051Y-61907820D01*
X117518271Y-61656201D01*
X117520076Y-61641340D01*
X117528010Y-61598049D01*
X117571780Y-61359197D01*
X117575364Y-61344663D01*
X117660696Y-61070822D01*
X117665998Y-61056841D01*
X117783731Y-60795249D01*
X117790676Y-60782016D01*
X117939080Y-60536526D01*
X117947567Y-60524230D01*
X118124480Y-60298417D01*
X118134395Y-60287226D01*
X118337226Y-60084395D01*
X118348417Y-60074480D01*
X118574230Y-59897567D01*
X118586526Y-59889080D01*
X118832016Y-59740676D01*
X118845249Y-59733731D01*
X119106841Y-59615998D01*
X119120822Y-59610696D01*
X119394668Y-59525362D01*
X119409197Y-59521780D01*
X119691344Y-59470075D01*
X119706201Y-59468271D01*
X119996264Y-59450726D01*
X120003751Y-59450500D01*
X120065892Y-59450500D01*
X178934108Y-59450500D01*
X178996249Y-59450500D01*
X179003736Y-59450726D01*
G37*
%TD.AperFunction*%
%TD*%
M02*
