%TF.GenerationSoftware,KiCad,Pcbnew,9.0.2-9.0.2-0~ubuntu24.04.1*%
%TF.CreationDate,2025-07-08T16:58:14-04:00*%
%TF.ProjectId,GPIO_ADC_uHAT,4750494f-5f41-4444-935f-754841542e6b,rev?*%
%TF.SameCoordinates,Original*%
%TF.FileFunction,Soldermask,Top*%
%TF.FilePolarity,Negative*%
%FSLAX46Y46*%
G04 Gerber Fmt 4.6, Leading zero omitted, Abs format (unit mm)*
G04 Created by KiCad (PCBNEW 9.0.2-9.0.2-0~ubuntu24.04.1) date 2025-07-08 16:58:14*
%MOMM*%
%LPD*%
G01*
G04 APERTURE LIST*
G04 Aperture macros list*
%AMRoundRect*
0 Rectangle with rounded corners*
0 $1 Rounding radius*
0 $2 $3 $4 $5 $6 $7 $8 $9 X,Y pos of 4 corners*
0 Add a 4 corners polygon primitive as box body*
4,1,4,$2,$3,$4,$5,$6,$7,$8,$9,$2,$3,0*
0 Add four circle primitives for the rounded corners*
1,1,$1+$1,$2,$3*
1,1,$1+$1,$4,$5*
1,1,$1+$1,$6,$7*
1,1,$1+$1,$8,$9*
0 Add four rect primitives between the rounded corners*
20,1,$1+$1,$2,$3,$4,$5,0*
20,1,$1+$1,$4,$5,$6,$7,0*
20,1,$1+$1,$6,$7,$8,$9,0*
20,1,$1+$1,$8,$9,$2,$3,0*%
G04 Aperture macros list end*
%ADD10R,1.700000X1.700000*%
%ADD11C,1.700000*%
%ADD12RoundRect,0.250000X-0.400000X-0.625000X0.400000X-0.625000X0.400000X0.625000X-0.400000X0.625000X0*%
%ADD13RoundRect,0.150000X0.150000X-0.825000X0.150000X0.825000X-0.150000X0.825000X-0.150000X-0.825000X0*%
%ADD14RoundRect,0.250000X0.412500X0.650000X-0.412500X0.650000X-0.412500X-0.650000X0.412500X-0.650000X0*%
%ADD15C,2.750000*%
%ADD16RoundRect,0.150000X-0.150000X0.875000X-0.150000X-0.875000X0.150000X-0.875000X0.150000X0.875000X0*%
%ADD17RoundRect,0.250000X0.650000X-0.412500X0.650000X0.412500X-0.650000X0.412500X-0.650000X-0.412500X0*%
%ADD18RoundRect,0.250000X-0.412500X-0.650000X0.412500X-0.650000X0.412500X0.650000X-0.412500X0.650000X0*%
G04 APERTURE END LIST*
D10*
%TO.C,J3*%
X151860000Y-87550000D03*
D11*
X149320000Y-87550000D03*
X146780000Y-87550000D03*
X144240000Y-87550000D03*
X141700000Y-87550000D03*
X139160000Y-87550000D03*
X136620000Y-87550000D03*
X134080000Y-87550000D03*
X131540000Y-87550000D03*
X129000000Y-87550000D03*
%TD*%
D12*
%TO.C,R2*%
X174600000Y-72600000D03*
X177700000Y-72600000D03*
%TD*%
D13*
%TO.C,U3*%
X175160000Y-81100000D03*
X176430000Y-81100000D03*
X177700000Y-81100000D03*
X178970000Y-81100000D03*
X178970000Y-76150000D03*
X177700000Y-76150000D03*
X176430000Y-76150000D03*
X175160000Y-76150000D03*
%TD*%
D14*
%TO.C,C3*%
X171600000Y-73600000D03*
X168475000Y-73600000D03*
%TD*%
D12*
%TO.C,R6*%
X119450000Y-73250000D03*
X122550000Y-73250000D03*
%TD*%
%TO.C,R4*%
X174600000Y-69900000D03*
X177700000Y-69900000D03*
%TD*%
D15*
%TO.C,J1*%
X120500000Y-62450000D03*
X120500000Y-85950000D03*
X178500000Y-62450000D03*
X178500000Y-85950000D03*
D10*
X125370000Y-63740000D03*
D11*
X125370000Y-61200000D03*
X127910000Y-63740000D03*
X127910000Y-61200000D03*
X130450000Y-63740000D03*
X130450000Y-61200000D03*
X132990000Y-63740000D03*
X132990000Y-61200000D03*
X135530000Y-63740000D03*
X135530000Y-61200000D03*
X138070000Y-63740000D03*
X138070000Y-61200000D03*
X140610000Y-63740000D03*
X140610000Y-61200000D03*
X143150000Y-63740000D03*
X143150000Y-61200000D03*
X145690000Y-63740000D03*
X145690000Y-61200000D03*
X148230000Y-63740000D03*
X148230000Y-61200000D03*
X150770000Y-63740000D03*
X150770000Y-61200000D03*
X153310000Y-63740000D03*
X153310000Y-61200000D03*
X155850000Y-63740000D03*
X155850000Y-61200000D03*
X158390000Y-63740000D03*
X158390000Y-61200000D03*
X160930000Y-63740000D03*
X160930000Y-61200000D03*
X163470000Y-63740000D03*
X163470000Y-61200000D03*
X166010000Y-63740000D03*
X166010000Y-61200000D03*
X168550000Y-63740000D03*
X168550000Y-61200000D03*
X171090000Y-63740000D03*
X171090000Y-61200000D03*
X173630000Y-63740000D03*
X173630000Y-61200000D03*
%TD*%
D12*
%TO.C,R1*%
X167950000Y-67300000D03*
X171050000Y-67300000D03*
%TD*%
D10*
%TO.C,J2*%
X151830000Y-68050000D03*
D11*
X149290000Y-68050000D03*
X146750000Y-68050000D03*
X144210000Y-68050000D03*
X141670000Y-68050000D03*
X139130000Y-68050000D03*
X136590000Y-68050000D03*
X134050000Y-68050000D03*
X131510000Y-68050000D03*
X128970000Y-68050000D03*
%TD*%
D16*
%TO.C,U1*%
X144235000Y-73250000D03*
X142965000Y-73250000D03*
X141695000Y-73250000D03*
X140425000Y-73250000D03*
X139155000Y-73250000D03*
X137885000Y-73250000D03*
X136615000Y-73250000D03*
X135345000Y-73250000D03*
X134075000Y-73250000D03*
X132805000Y-73250000D03*
X131535000Y-73250000D03*
X130265000Y-73250000D03*
X128995000Y-73250000D03*
X127725000Y-73250000D03*
X127725000Y-82550000D03*
X128995000Y-82550000D03*
X130265000Y-82550000D03*
X131535000Y-82550000D03*
X132805000Y-82550000D03*
X134075000Y-82550000D03*
X135345000Y-82550000D03*
X136615000Y-82550000D03*
X137885000Y-82550000D03*
X139155000Y-82550000D03*
X140425000Y-82550000D03*
X141695000Y-82550000D03*
X142965000Y-82550000D03*
X144235000Y-82550000D03*
%TD*%
D12*
%TO.C,R3*%
X174600000Y-67200000D03*
X177700000Y-67200000D03*
%TD*%
D17*
%TO.C,C2*%
X156590000Y-73252500D03*
X156590000Y-70127500D03*
%TD*%
D10*
%TO.C,J4*%
X155430000Y-87550000D03*
D11*
X157970000Y-87550000D03*
X160510000Y-87550000D03*
X163050000Y-87550000D03*
X165590000Y-87550000D03*
X168130000Y-87550000D03*
X170670000Y-87550000D03*
X173210000Y-87550000D03*
%TD*%
D18*
%TO.C,C1*%
X119437500Y-80750000D03*
X122562500Y-80750000D03*
%TD*%
D10*
%TO.C,J5*%
X170800000Y-77400000D03*
D11*
X170800000Y-79940000D03*
%TD*%
D12*
%TO.C,R5*%
X119450000Y-77000000D03*
X122550000Y-77000000D03*
%TD*%
D13*
%TO.C,U4*%
X155955000Y-80875000D03*
X157225000Y-80875000D03*
X158495000Y-80875000D03*
X159765000Y-80875000D03*
X161035000Y-80875000D03*
X162305000Y-80875000D03*
X163575000Y-80875000D03*
X164845000Y-80875000D03*
X164845000Y-75925000D03*
X163575000Y-75925000D03*
X162305000Y-75925000D03*
X161035000Y-75925000D03*
X159765000Y-75925000D03*
X158495000Y-75925000D03*
X157225000Y-75925000D03*
X155955000Y-75925000D03*
%TD*%
M02*
