%TF.GenerationSoftware,KiCad,Pcbnew,9.0.2-9.0.2-0~ubuntu24.04.1*%
%TF.CreationDate,2025-07-08T16:58:14-04:00*%
%TF.ProjectId,GPIO_ADC_uHAT,4750494f-5f41-4444-935f-754841542e6b,rev?*%
%TF.SameCoordinates,Original*%
%TF.FileFunction,Legend,Top*%
%TF.FilePolarity,Positive*%
%FSLAX46Y46*%
G04 Gerber Fmt 4.6, Leading zero omitted, Abs format (unit mm)*
G04 Created by KiCad (PCBNEW 9.0.2-9.0.2-0~ubuntu24.04.1) date 2025-07-08 16:58:14*
%MOMM*%
%LPD*%
G01*
G04 APERTURE LIST*
%ADD10C,0.160000*%
%ADD11C,0.150000*%
%ADD12C,0.120000*%
G04 APERTURE END LIST*
D10*
X132795739Y-70993775D02*
X132795739Y-70193775D01*
X132795739Y-70193775D02*
X133100501Y-70193775D01*
X133100501Y-70193775D02*
X133176691Y-70231870D01*
X133176691Y-70231870D02*
X133214786Y-70269965D01*
X133214786Y-70269965D02*
X133252882Y-70346156D01*
X133252882Y-70346156D02*
X133252882Y-70460441D01*
X133252882Y-70460441D02*
X133214786Y-70536632D01*
X133214786Y-70536632D02*
X133176691Y-70574727D01*
X133176691Y-70574727D02*
X133100501Y-70612822D01*
X133100501Y-70612822D02*
X132795739Y-70612822D01*
X133862405Y-70574727D02*
X133976691Y-70612822D01*
X133976691Y-70612822D02*
X134014786Y-70650918D01*
X134014786Y-70650918D02*
X134052882Y-70727108D01*
X134052882Y-70727108D02*
X134052882Y-70841394D01*
X134052882Y-70841394D02*
X134014786Y-70917584D01*
X134014786Y-70917584D02*
X133976691Y-70955680D01*
X133976691Y-70955680D02*
X133900501Y-70993775D01*
X133900501Y-70993775D02*
X133595739Y-70993775D01*
X133595739Y-70993775D02*
X133595739Y-70193775D01*
X133595739Y-70193775D02*
X133862405Y-70193775D01*
X133862405Y-70193775D02*
X133938596Y-70231870D01*
X133938596Y-70231870D02*
X133976691Y-70269965D01*
X133976691Y-70269965D02*
X134014786Y-70346156D01*
X134014786Y-70346156D02*
X134014786Y-70422346D01*
X134014786Y-70422346D02*
X133976691Y-70498537D01*
X133976691Y-70498537D02*
X133938596Y-70536632D01*
X133938596Y-70536632D02*
X133862405Y-70574727D01*
X133862405Y-70574727D02*
X133595739Y-70574727D01*
X134776691Y-70193775D02*
X134395739Y-70193775D01*
X134395739Y-70193775D02*
X134357643Y-70574727D01*
X134357643Y-70574727D02*
X134395739Y-70536632D01*
X134395739Y-70536632D02*
X134471929Y-70498537D01*
X134471929Y-70498537D02*
X134662405Y-70498537D01*
X134662405Y-70498537D02*
X134738596Y-70536632D01*
X134738596Y-70536632D02*
X134776691Y-70574727D01*
X134776691Y-70574727D02*
X134814786Y-70650918D01*
X134814786Y-70650918D02*
X134814786Y-70841394D01*
X134814786Y-70841394D02*
X134776691Y-70917584D01*
X134776691Y-70917584D02*
X134738596Y-70955680D01*
X134738596Y-70955680D02*
X134662405Y-70993775D01*
X134662405Y-70993775D02*
X134471929Y-70993775D01*
X134471929Y-70993775D02*
X134395739Y-70955680D01*
X134395739Y-70955680D02*
X134357643Y-70917584D01*
X149619013Y-85504260D02*
X149619013Y-84894737D01*
X149923775Y-85199498D02*
X149314251Y-85199498D01*
X149123775Y-84589975D02*
X149123775Y-84094737D01*
X149123775Y-84094737D02*
X149428537Y-84361403D01*
X149428537Y-84361403D02*
X149428537Y-84247118D01*
X149428537Y-84247118D02*
X149466632Y-84170927D01*
X149466632Y-84170927D02*
X149504727Y-84132832D01*
X149504727Y-84132832D02*
X149580918Y-84094737D01*
X149580918Y-84094737D02*
X149771394Y-84094737D01*
X149771394Y-84094737D02*
X149847584Y-84132832D01*
X149847584Y-84132832D02*
X149885680Y-84170927D01*
X149885680Y-84170927D02*
X149923775Y-84247118D01*
X149923775Y-84247118D02*
X149923775Y-84475689D01*
X149923775Y-84475689D02*
X149885680Y-84551880D01*
X149885680Y-84551880D02*
X149847584Y-84589975D01*
X149123775Y-83866165D02*
X149923775Y-83599498D01*
X149923775Y-83599498D02*
X149123775Y-83332832D01*
X149123775Y-83142356D02*
X149123775Y-82647118D01*
X149123775Y-82647118D02*
X149428537Y-82913784D01*
X149428537Y-82913784D02*
X149428537Y-82799499D01*
X149428537Y-82799499D02*
X149466632Y-82723308D01*
X149466632Y-82723308D02*
X149504727Y-82685213D01*
X149504727Y-82685213D02*
X149580918Y-82647118D01*
X149580918Y-82647118D02*
X149771394Y-82647118D01*
X149771394Y-82647118D02*
X149847584Y-82685213D01*
X149847584Y-82685213D02*
X149885680Y-82723308D01*
X149885680Y-82723308D02*
X149923775Y-82799499D01*
X149923775Y-82799499D02*
X149923775Y-83028070D01*
X149923775Y-83028070D02*
X149885680Y-83104261D01*
X149885680Y-83104261D02*
X149847584Y-83142356D01*
X130725739Y-85793775D02*
X130725739Y-84993775D01*
X130725739Y-84993775D02*
X131030501Y-84993775D01*
X131030501Y-84993775D02*
X131106691Y-85031870D01*
X131106691Y-85031870D02*
X131144786Y-85069965D01*
X131144786Y-85069965D02*
X131182882Y-85146156D01*
X131182882Y-85146156D02*
X131182882Y-85260441D01*
X131182882Y-85260441D02*
X131144786Y-85336632D01*
X131144786Y-85336632D02*
X131106691Y-85374727D01*
X131106691Y-85374727D02*
X131030501Y-85412822D01*
X131030501Y-85412822D02*
X130725739Y-85412822D01*
X131487643Y-85565203D02*
X131868596Y-85565203D01*
X131411453Y-85793775D02*
X131678120Y-84993775D01*
X131678120Y-84993775D02*
X131944786Y-85793775D01*
X132630500Y-85793775D02*
X132173357Y-85793775D01*
X132401929Y-85793775D02*
X132401929Y-84993775D01*
X132401929Y-84993775D02*
X132325738Y-85108060D01*
X132325738Y-85108060D02*
X132249548Y-85184251D01*
X132249548Y-85184251D02*
X132173357Y-85222346D01*
X151131870Y-71785213D02*
X151093775Y-71861403D01*
X151093775Y-71861403D02*
X151093775Y-71975689D01*
X151093775Y-71975689D02*
X151131870Y-72089975D01*
X151131870Y-72089975D02*
X151208060Y-72166165D01*
X151208060Y-72166165D02*
X151284251Y-72204260D01*
X151284251Y-72204260D02*
X151436632Y-72242356D01*
X151436632Y-72242356D02*
X151550918Y-72242356D01*
X151550918Y-72242356D02*
X151703299Y-72204260D01*
X151703299Y-72204260D02*
X151779489Y-72166165D01*
X151779489Y-72166165D02*
X151855680Y-72089975D01*
X151855680Y-72089975D02*
X151893775Y-71975689D01*
X151893775Y-71975689D02*
X151893775Y-71899498D01*
X151893775Y-71899498D02*
X151855680Y-71785213D01*
X151855680Y-71785213D02*
X151817584Y-71747117D01*
X151817584Y-71747117D02*
X151550918Y-71747117D01*
X151550918Y-71747117D02*
X151550918Y-71899498D01*
X151893775Y-71404260D02*
X151093775Y-71404260D01*
X151093775Y-71404260D02*
X151893775Y-70947117D01*
X151893775Y-70947117D02*
X151093775Y-70947117D01*
X151893775Y-70566165D02*
X151093775Y-70566165D01*
X151093775Y-70566165D02*
X151093775Y-70375689D01*
X151093775Y-70375689D02*
X151131870Y-70261403D01*
X151131870Y-70261403D02*
X151208060Y-70185213D01*
X151208060Y-70185213D02*
X151284251Y-70147118D01*
X151284251Y-70147118D02*
X151436632Y-70109022D01*
X151436632Y-70109022D02*
X151550918Y-70109022D01*
X151550918Y-70109022D02*
X151703299Y-70147118D01*
X151703299Y-70147118D02*
X151779489Y-70185213D01*
X151779489Y-70185213D02*
X151855680Y-70261403D01*
X151855680Y-70261403D02*
X151893775Y-70375689D01*
X151893775Y-70375689D02*
X151893775Y-70566165D01*
X128165739Y-85793775D02*
X128165739Y-84993775D01*
X128165739Y-84993775D02*
X128470501Y-84993775D01*
X128470501Y-84993775D02*
X128546691Y-85031870D01*
X128546691Y-85031870D02*
X128584786Y-85069965D01*
X128584786Y-85069965D02*
X128622882Y-85146156D01*
X128622882Y-85146156D02*
X128622882Y-85260441D01*
X128622882Y-85260441D02*
X128584786Y-85336632D01*
X128584786Y-85336632D02*
X128546691Y-85374727D01*
X128546691Y-85374727D02*
X128470501Y-85412822D01*
X128470501Y-85412822D02*
X128165739Y-85412822D01*
X128927643Y-85565203D02*
X129308596Y-85565203D01*
X128851453Y-85793775D02*
X129118120Y-84993775D01*
X129118120Y-84993775D02*
X129384786Y-85793775D01*
X129803834Y-84993775D02*
X129880024Y-84993775D01*
X129880024Y-84993775D02*
X129956215Y-85031870D01*
X129956215Y-85031870D02*
X129994310Y-85069965D01*
X129994310Y-85069965D02*
X130032405Y-85146156D01*
X130032405Y-85146156D02*
X130070500Y-85298537D01*
X130070500Y-85298537D02*
X130070500Y-85489013D01*
X130070500Y-85489013D02*
X130032405Y-85641394D01*
X130032405Y-85641394D02*
X129994310Y-85717584D01*
X129994310Y-85717584D02*
X129956215Y-85755680D01*
X129956215Y-85755680D02*
X129880024Y-85793775D01*
X129880024Y-85793775D02*
X129803834Y-85793775D01*
X129803834Y-85793775D02*
X129727643Y-85755680D01*
X129727643Y-85755680D02*
X129689548Y-85717584D01*
X129689548Y-85717584D02*
X129651453Y-85641394D01*
X129651453Y-85641394D02*
X129613357Y-85489013D01*
X129613357Y-85489013D02*
X129613357Y-85298537D01*
X129613357Y-85298537D02*
X129651453Y-85146156D01*
X129651453Y-85146156D02*
X129689548Y-85069965D01*
X129689548Y-85069965D02*
X129727643Y-85031870D01*
X129727643Y-85031870D02*
X129803834Y-84993775D01*
X147143775Y-71954260D02*
X146343775Y-71954260D01*
X146343775Y-71954260D02*
X146343775Y-71649498D01*
X146343775Y-71649498D02*
X146381870Y-71573308D01*
X146381870Y-71573308D02*
X146419965Y-71535213D01*
X146419965Y-71535213D02*
X146496156Y-71497117D01*
X146496156Y-71497117D02*
X146610441Y-71497117D01*
X146610441Y-71497117D02*
X146686632Y-71535213D01*
X146686632Y-71535213D02*
X146724727Y-71573308D01*
X146724727Y-71573308D02*
X146762822Y-71649498D01*
X146762822Y-71649498D02*
X146762822Y-71954260D01*
X146724727Y-70887594D02*
X146762822Y-70773308D01*
X146762822Y-70773308D02*
X146800918Y-70735213D01*
X146800918Y-70735213D02*
X146877108Y-70697117D01*
X146877108Y-70697117D02*
X146991394Y-70697117D01*
X146991394Y-70697117D02*
X147067584Y-70735213D01*
X147067584Y-70735213D02*
X147105680Y-70773308D01*
X147105680Y-70773308D02*
X147143775Y-70849498D01*
X147143775Y-70849498D02*
X147143775Y-71154260D01*
X147143775Y-71154260D02*
X146343775Y-71154260D01*
X146343775Y-71154260D02*
X146343775Y-70887594D01*
X146343775Y-70887594D02*
X146381870Y-70811403D01*
X146381870Y-70811403D02*
X146419965Y-70773308D01*
X146419965Y-70773308D02*
X146496156Y-70735213D01*
X146496156Y-70735213D02*
X146572346Y-70735213D01*
X146572346Y-70735213D02*
X146648537Y-70773308D01*
X146648537Y-70773308D02*
X146686632Y-70811403D01*
X146686632Y-70811403D02*
X146724727Y-70887594D01*
X146724727Y-70887594D02*
X146724727Y-71154260D01*
X146343775Y-70201879D02*
X146343775Y-70125689D01*
X146343775Y-70125689D02*
X146381870Y-70049498D01*
X146381870Y-70049498D02*
X146419965Y-70011403D01*
X146419965Y-70011403D02*
X146496156Y-69973308D01*
X146496156Y-69973308D02*
X146648537Y-69935213D01*
X146648537Y-69935213D02*
X146839013Y-69935213D01*
X146839013Y-69935213D02*
X146991394Y-69973308D01*
X146991394Y-69973308D02*
X147067584Y-70011403D01*
X147067584Y-70011403D02*
X147105680Y-70049498D01*
X147105680Y-70049498D02*
X147143775Y-70125689D01*
X147143775Y-70125689D02*
X147143775Y-70201879D01*
X147143775Y-70201879D02*
X147105680Y-70278070D01*
X147105680Y-70278070D02*
X147067584Y-70316165D01*
X147067584Y-70316165D02*
X146991394Y-70354260D01*
X146991394Y-70354260D02*
X146839013Y-70392356D01*
X146839013Y-70392356D02*
X146648537Y-70392356D01*
X146648537Y-70392356D02*
X146496156Y-70354260D01*
X146496156Y-70354260D02*
X146419965Y-70316165D01*
X146419965Y-70316165D02*
X146381870Y-70278070D01*
X146381870Y-70278070D02*
X146343775Y-70201879D01*
X161159629Y-84997117D02*
X161197725Y-85035213D01*
X161197725Y-85035213D02*
X161235820Y-85149498D01*
X161235820Y-85149498D02*
X161235820Y-85225689D01*
X161235820Y-85225689D02*
X161197725Y-85339975D01*
X161197725Y-85339975D02*
X161121534Y-85416165D01*
X161121534Y-85416165D02*
X161045344Y-85454260D01*
X161045344Y-85454260D02*
X160892963Y-85492356D01*
X160892963Y-85492356D02*
X160778677Y-85492356D01*
X160778677Y-85492356D02*
X160626296Y-85454260D01*
X160626296Y-85454260D02*
X160550105Y-85416165D01*
X160550105Y-85416165D02*
X160473915Y-85339975D01*
X160473915Y-85339975D02*
X160435820Y-85225689D01*
X160435820Y-85225689D02*
X160435820Y-85149498D01*
X160435820Y-85149498D02*
X160473915Y-85035213D01*
X160473915Y-85035213D02*
X160512010Y-84997117D01*
X161235820Y-84654260D02*
X160435820Y-84654260D01*
X160816772Y-84654260D02*
X160816772Y-84197117D01*
X161235820Y-84197117D02*
X160435820Y-84197117D01*
X160512010Y-83854261D02*
X160473915Y-83816165D01*
X160473915Y-83816165D02*
X160435820Y-83739975D01*
X160435820Y-83739975D02*
X160435820Y-83549499D01*
X160435820Y-83549499D02*
X160473915Y-83473308D01*
X160473915Y-83473308D02*
X160512010Y-83435213D01*
X160512010Y-83435213D02*
X160588201Y-83397118D01*
X160588201Y-83397118D02*
X160664391Y-83397118D01*
X160664391Y-83397118D02*
X160778677Y-83435213D01*
X160778677Y-83435213D02*
X161235820Y-83892356D01*
X161235820Y-83892356D02*
X161235820Y-83397118D01*
X149589013Y-72704260D02*
X149589013Y-72094737D01*
X149893775Y-72399498D02*
X149284251Y-72399498D01*
X149093775Y-71789975D02*
X149093775Y-71294737D01*
X149093775Y-71294737D02*
X149398537Y-71561403D01*
X149398537Y-71561403D02*
X149398537Y-71447118D01*
X149398537Y-71447118D02*
X149436632Y-71370927D01*
X149436632Y-71370927D02*
X149474727Y-71332832D01*
X149474727Y-71332832D02*
X149550918Y-71294737D01*
X149550918Y-71294737D02*
X149741394Y-71294737D01*
X149741394Y-71294737D02*
X149817584Y-71332832D01*
X149817584Y-71332832D02*
X149855680Y-71370927D01*
X149855680Y-71370927D02*
X149893775Y-71447118D01*
X149893775Y-71447118D02*
X149893775Y-71675689D01*
X149893775Y-71675689D02*
X149855680Y-71751880D01*
X149855680Y-71751880D02*
X149817584Y-71789975D01*
X149093775Y-71066165D02*
X149893775Y-70799498D01*
X149893775Y-70799498D02*
X149093775Y-70532832D01*
X149093775Y-70342356D02*
X149093775Y-69847118D01*
X149093775Y-69847118D02*
X149398537Y-70113784D01*
X149398537Y-70113784D02*
X149398537Y-69999499D01*
X149398537Y-69999499D02*
X149436632Y-69923308D01*
X149436632Y-69923308D02*
X149474727Y-69885213D01*
X149474727Y-69885213D02*
X149550918Y-69847118D01*
X149550918Y-69847118D02*
X149741394Y-69847118D01*
X149741394Y-69847118D02*
X149817584Y-69885213D01*
X149817584Y-69885213D02*
X149855680Y-69923308D01*
X149855680Y-69923308D02*
X149893775Y-69999499D01*
X149893775Y-69999499D02*
X149893775Y-70228070D01*
X149893775Y-70228070D02*
X149855680Y-70304261D01*
X149855680Y-70304261D02*
X149817584Y-70342356D01*
X143725739Y-85793775D02*
X143725739Y-84993775D01*
X143725739Y-84993775D02*
X144030501Y-84993775D01*
X144030501Y-84993775D02*
X144106691Y-85031870D01*
X144106691Y-85031870D02*
X144144786Y-85069965D01*
X144144786Y-85069965D02*
X144182882Y-85146156D01*
X144182882Y-85146156D02*
X144182882Y-85260441D01*
X144182882Y-85260441D02*
X144144786Y-85336632D01*
X144144786Y-85336632D02*
X144106691Y-85374727D01*
X144106691Y-85374727D02*
X144030501Y-85412822D01*
X144030501Y-85412822D02*
X143725739Y-85412822D01*
X144487643Y-85565203D02*
X144868596Y-85565203D01*
X144411453Y-85793775D02*
X144678120Y-84993775D01*
X144678120Y-84993775D02*
X144944786Y-85793775D01*
X145554310Y-84993775D02*
X145401929Y-84993775D01*
X145401929Y-84993775D02*
X145325738Y-85031870D01*
X145325738Y-85031870D02*
X145287643Y-85069965D01*
X145287643Y-85069965D02*
X145211453Y-85184251D01*
X145211453Y-85184251D02*
X145173357Y-85336632D01*
X145173357Y-85336632D02*
X145173357Y-85641394D01*
X145173357Y-85641394D02*
X145211453Y-85717584D01*
X145211453Y-85717584D02*
X145249548Y-85755680D01*
X145249548Y-85755680D02*
X145325738Y-85793775D01*
X145325738Y-85793775D02*
X145478119Y-85793775D01*
X145478119Y-85793775D02*
X145554310Y-85755680D01*
X145554310Y-85755680D02*
X145592405Y-85717584D01*
X145592405Y-85717584D02*
X145630500Y-85641394D01*
X145630500Y-85641394D02*
X145630500Y-85450918D01*
X145630500Y-85450918D02*
X145592405Y-85374727D01*
X145592405Y-85374727D02*
X145554310Y-85336632D01*
X145554310Y-85336632D02*
X145478119Y-85298537D01*
X145478119Y-85298537D02*
X145325738Y-85298537D01*
X145325738Y-85298537D02*
X145249548Y-85336632D01*
X145249548Y-85336632D02*
X145211453Y-85374727D01*
X145211453Y-85374727D02*
X145173357Y-85450918D01*
X143545739Y-70993775D02*
X143545739Y-70193775D01*
X143545739Y-70193775D02*
X143850501Y-70193775D01*
X143850501Y-70193775D02*
X143926691Y-70231870D01*
X143926691Y-70231870D02*
X143964786Y-70269965D01*
X143964786Y-70269965D02*
X144002882Y-70346156D01*
X144002882Y-70346156D02*
X144002882Y-70460441D01*
X144002882Y-70460441D02*
X143964786Y-70536632D01*
X143964786Y-70536632D02*
X143926691Y-70574727D01*
X143926691Y-70574727D02*
X143850501Y-70612822D01*
X143850501Y-70612822D02*
X143545739Y-70612822D01*
X144612405Y-70574727D02*
X144726691Y-70612822D01*
X144726691Y-70612822D02*
X144764786Y-70650918D01*
X144764786Y-70650918D02*
X144802882Y-70727108D01*
X144802882Y-70727108D02*
X144802882Y-70841394D01*
X144802882Y-70841394D02*
X144764786Y-70917584D01*
X144764786Y-70917584D02*
X144726691Y-70955680D01*
X144726691Y-70955680D02*
X144650501Y-70993775D01*
X144650501Y-70993775D02*
X144345739Y-70993775D01*
X144345739Y-70993775D02*
X144345739Y-70193775D01*
X144345739Y-70193775D02*
X144612405Y-70193775D01*
X144612405Y-70193775D02*
X144688596Y-70231870D01*
X144688596Y-70231870D02*
X144726691Y-70269965D01*
X144726691Y-70269965D02*
X144764786Y-70346156D01*
X144764786Y-70346156D02*
X144764786Y-70422346D01*
X144764786Y-70422346D02*
X144726691Y-70498537D01*
X144726691Y-70498537D02*
X144688596Y-70536632D01*
X144688596Y-70536632D02*
X144612405Y-70574727D01*
X144612405Y-70574727D02*
X144345739Y-70574727D01*
X145564786Y-70993775D02*
X145107643Y-70993775D01*
X145336215Y-70993775D02*
X145336215Y-70193775D01*
X145336215Y-70193775D02*
X145260024Y-70308060D01*
X145260024Y-70308060D02*
X145183834Y-70384251D01*
X145183834Y-70384251D02*
X145107643Y-70422346D01*
X138045739Y-70993775D02*
X138045739Y-70193775D01*
X138045739Y-70193775D02*
X138350501Y-70193775D01*
X138350501Y-70193775D02*
X138426691Y-70231870D01*
X138426691Y-70231870D02*
X138464786Y-70269965D01*
X138464786Y-70269965D02*
X138502882Y-70346156D01*
X138502882Y-70346156D02*
X138502882Y-70460441D01*
X138502882Y-70460441D02*
X138464786Y-70536632D01*
X138464786Y-70536632D02*
X138426691Y-70574727D01*
X138426691Y-70574727D02*
X138350501Y-70612822D01*
X138350501Y-70612822D02*
X138045739Y-70612822D01*
X139112405Y-70574727D02*
X139226691Y-70612822D01*
X139226691Y-70612822D02*
X139264786Y-70650918D01*
X139264786Y-70650918D02*
X139302882Y-70727108D01*
X139302882Y-70727108D02*
X139302882Y-70841394D01*
X139302882Y-70841394D02*
X139264786Y-70917584D01*
X139264786Y-70917584D02*
X139226691Y-70955680D01*
X139226691Y-70955680D02*
X139150501Y-70993775D01*
X139150501Y-70993775D02*
X138845739Y-70993775D01*
X138845739Y-70993775D02*
X138845739Y-70193775D01*
X138845739Y-70193775D02*
X139112405Y-70193775D01*
X139112405Y-70193775D02*
X139188596Y-70231870D01*
X139188596Y-70231870D02*
X139226691Y-70269965D01*
X139226691Y-70269965D02*
X139264786Y-70346156D01*
X139264786Y-70346156D02*
X139264786Y-70422346D01*
X139264786Y-70422346D02*
X139226691Y-70498537D01*
X139226691Y-70498537D02*
X139188596Y-70536632D01*
X139188596Y-70536632D02*
X139112405Y-70574727D01*
X139112405Y-70574727D02*
X138845739Y-70574727D01*
X139569548Y-70193775D02*
X140064786Y-70193775D01*
X140064786Y-70193775D02*
X139798120Y-70498537D01*
X139798120Y-70498537D02*
X139912405Y-70498537D01*
X139912405Y-70498537D02*
X139988596Y-70536632D01*
X139988596Y-70536632D02*
X140026691Y-70574727D01*
X140026691Y-70574727D02*
X140064786Y-70650918D01*
X140064786Y-70650918D02*
X140064786Y-70841394D01*
X140064786Y-70841394D02*
X140026691Y-70917584D01*
X140026691Y-70917584D02*
X139988596Y-70955680D01*
X139988596Y-70955680D02*
X139912405Y-70993775D01*
X139912405Y-70993775D02*
X139683834Y-70993775D01*
X139683834Y-70993775D02*
X139607643Y-70955680D01*
X139607643Y-70955680D02*
X139569548Y-70917584D01*
X151931870Y-84985213D02*
X151893775Y-85061403D01*
X151893775Y-85061403D02*
X151893775Y-85175689D01*
X151893775Y-85175689D02*
X151931870Y-85289975D01*
X151931870Y-85289975D02*
X152008060Y-85366165D01*
X152008060Y-85366165D02*
X152084251Y-85404260D01*
X152084251Y-85404260D02*
X152236632Y-85442356D01*
X152236632Y-85442356D02*
X152350918Y-85442356D01*
X152350918Y-85442356D02*
X152503299Y-85404260D01*
X152503299Y-85404260D02*
X152579489Y-85366165D01*
X152579489Y-85366165D02*
X152655680Y-85289975D01*
X152655680Y-85289975D02*
X152693775Y-85175689D01*
X152693775Y-85175689D02*
X152693775Y-85099498D01*
X152693775Y-85099498D02*
X152655680Y-84985213D01*
X152655680Y-84985213D02*
X152617584Y-84947117D01*
X152617584Y-84947117D02*
X152350918Y-84947117D01*
X152350918Y-84947117D02*
X152350918Y-85099498D01*
X152693775Y-84604260D02*
X151893775Y-84604260D01*
X151893775Y-84604260D02*
X152693775Y-84147117D01*
X152693775Y-84147117D02*
X151893775Y-84147117D01*
X152693775Y-83766165D02*
X151893775Y-83766165D01*
X151893775Y-83766165D02*
X151893775Y-83575689D01*
X151893775Y-83575689D02*
X151931870Y-83461403D01*
X151931870Y-83461403D02*
X152008060Y-83385213D01*
X152008060Y-83385213D02*
X152084251Y-83347118D01*
X152084251Y-83347118D02*
X152236632Y-83309022D01*
X152236632Y-83309022D02*
X152350918Y-83309022D01*
X152350918Y-83309022D02*
X152503299Y-83347118D01*
X152503299Y-83347118D02*
X152579489Y-83385213D01*
X152579489Y-83385213D02*
X152655680Y-83461403D01*
X152655680Y-83461403D02*
X152693775Y-83575689D01*
X152693775Y-83575689D02*
X152693775Y-83766165D01*
X163471674Y-84997117D02*
X163509770Y-85035213D01*
X163509770Y-85035213D02*
X163547865Y-85149498D01*
X163547865Y-85149498D02*
X163547865Y-85225689D01*
X163547865Y-85225689D02*
X163509770Y-85339975D01*
X163509770Y-85339975D02*
X163433579Y-85416165D01*
X163433579Y-85416165D02*
X163357389Y-85454260D01*
X163357389Y-85454260D02*
X163205008Y-85492356D01*
X163205008Y-85492356D02*
X163090722Y-85492356D01*
X163090722Y-85492356D02*
X162938341Y-85454260D01*
X162938341Y-85454260D02*
X162862150Y-85416165D01*
X162862150Y-85416165D02*
X162785960Y-85339975D01*
X162785960Y-85339975D02*
X162747865Y-85225689D01*
X162747865Y-85225689D02*
X162747865Y-85149498D01*
X162747865Y-85149498D02*
X162785960Y-85035213D01*
X162785960Y-85035213D02*
X162824055Y-84997117D01*
X163547865Y-84654260D02*
X162747865Y-84654260D01*
X163128817Y-84654260D02*
X163128817Y-84197117D01*
X163547865Y-84197117D02*
X162747865Y-84197117D01*
X162747865Y-83892356D02*
X162747865Y-83397118D01*
X162747865Y-83397118D02*
X163052627Y-83663784D01*
X163052627Y-83663784D02*
X163052627Y-83549499D01*
X163052627Y-83549499D02*
X163090722Y-83473308D01*
X163090722Y-83473308D02*
X163128817Y-83435213D01*
X163128817Y-83435213D02*
X163205008Y-83397118D01*
X163205008Y-83397118D02*
X163395484Y-83397118D01*
X163395484Y-83397118D02*
X163471674Y-83435213D01*
X163471674Y-83435213D02*
X163509770Y-83473308D01*
X163509770Y-83473308D02*
X163547865Y-83549499D01*
X163547865Y-83549499D02*
X163547865Y-83778070D01*
X163547865Y-83778070D02*
X163509770Y-83854261D01*
X163509770Y-83854261D02*
X163471674Y-83892356D01*
X155747584Y-84997117D02*
X155785680Y-85035213D01*
X155785680Y-85035213D02*
X155823775Y-85149498D01*
X155823775Y-85149498D02*
X155823775Y-85225689D01*
X155823775Y-85225689D02*
X155785680Y-85339975D01*
X155785680Y-85339975D02*
X155709489Y-85416165D01*
X155709489Y-85416165D02*
X155633299Y-85454260D01*
X155633299Y-85454260D02*
X155480918Y-85492356D01*
X155480918Y-85492356D02*
X155366632Y-85492356D01*
X155366632Y-85492356D02*
X155214251Y-85454260D01*
X155214251Y-85454260D02*
X155138060Y-85416165D01*
X155138060Y-85416165D02*
X155061870Y-85339975D01*
X155061870Y-85339975D02*
X155023775Y-85225689D01*
X155023775Y-85225689D02*
X155023775Y-85149498D01*
X155023775Y-85149498D02*
X155061870Y-85035213D01*
X155061870Y-85035213D02*
X155099965Y-84997117D01*
X155823775Y-84654260D02*
X155023775Y-84654260D01*
X155404727Y-84654260D02*
X155404727Y-84197117D01*
X155823775Y-84197117D02*
X155023775Y-84197117D01*
X155023775Y-83663784D02*
X155023775Y-83587594D01*
X155023775Y-83587594D02*
X155061870Y-83511403D01*
X155061870Y-83511403D02*
X155099965Y-83473308D01*
X155099965Y-83473308D02*
X155176156Y-83435213D01*
X155176156Y-83435213D02*
X155328537Y-83397118D01*
X155328537Y-83397118D02*
X155519013Y-83397118D01*
X155519013Y-83397118D02*
X155671394Y-83435213D01*
X155671394Y-83435213D02*
X155747584Y-83473308D01*
X155747584Y-83473308D02*
X155785680Y-83511403D01*
X155785680Y-83511403D02*
X155823775Y-83587594D01*
X155823775Y-83587594D02*
X155823775Y-83663784D01*
X155823775Y-83663784D02*
X155785680Y-83739975D01*
X155785680Y-83739975D02*
X155747584Y-83778070D01*
X155747584Y-83778070D02*
X155671394Y-83816165D01*
X155671394Y-83816165D02*
X155519013Y-83854261D01*
X155519013Y-83854261D02*
X155328537Y-83854261D01*
X155328537Y-83854261D02*
X155176156Y-83816165D01*
X155176156Y-83816165D02*
X155099965Y-83778070D01*
X155099965Y-83778070D02*
X155061870Y-83739975D01*
X155061870Y-83739975D02*
X155023775Y-83663784D01*
X170971674Y-84997117D02*
X171009770Y-85035213D01*
X171009770Y-85035213D02*
X171047865Y-85149498D01*
X171047865Y-85149498D02*
X171047865Y-85225689D01*
X171047865Y-85225689D02*
X171009770Y-85339975D01*
X171009770Y-85339975D02*
X170933579Y-85416165D01*
X170933579Y-85416165D02*
X170857389Y-85454260D01*
X170857389Y-85454260D02*
X170705008Y-85492356D01*
X170705008Y-85492356D02*
X170590722Y-85492356D01*
X170590722Y-85492356D02*
X170438341Y-85454260D01*
X170438341Y-85454260D02*
X170362150Y-85416165D01*
X170362150Y-85416165D02*
X170285960Y-85339975D01*
X170285960Y-85339975D02*
X170247865Y-85225689D01*
X170247865Y-85225689D02*
X170247865Y-85149498D01*
X170247865Y-85149498D02*
X170285960Y-85035213D01*
X170285960Y-85035213D02*
X170324055Y-84997117D01*
X171047865Y-84654260D02*
X170247865Y-84654260D01*
X170628817Y-84654260D02*
X170628817Y-84197117D01*
X171047865Y-84197117D02*
X170247865Y-84197117D01*
X170247865Y-83473308D02*
X170247865Y-83625689D01*
X170247865Y-83625689D02*
X170285960Y-83701880D01*
X170285960Y-83701880D02*
X170324055Y-83739975D01*
X170324055Y-83739975D02*
X170438341Y-83816165D01*
X170438341Y-83816165D02*
X170590722Y-83854261D01*
X170590722Y-83854261D02*
X170895484Y-83854261D01*
X170895484Y-83854261D02*
X170971674Y-83816165D01*
X170971674Y-83816165D02*
X171009770Y-83778070D01*
X171009770Y-83778070D02*
X171047865Y-83701880D01*
X171047865Y-83701880D02*
X171047865Y-83549499D01*
X171047865Y-83549499D02*
X171009770Y-83473308D01*
X171009770Y-83473308D02*
X170971674Y-83435213D01*
X170971674Y-83435213D02*
X170895484Y-83397118D01*
X170895484Y-83397118D02*
X170705008Y-83397118D01*
X170705008Y-83397118D02*
X170628817Y-83435213D01*
X170628817Y-83435213D02*
X170590722Y-83473308D01*
X170590722Y-83473308D02*
X170552627Y-83549499D01*
X170552627Y-83549499D02*
X170552627Y-83701880D01*
X170552627Y-83701880D02*
X170590722Y-83778070D01*
X170590722Y-83778070D02*
X170628817Y-83816165D01*
X170628817Y-83816165D02*
X170705008Y-83854261D01*
X140795739Y-70993775D02*
X140795739Y-70193775D01*
X140795739Y-70193775D02*
X141100501Y-70193775D01*
X141100501Y-70193775D02*
X141176691Y-70231870D01*
X141176691Y-70231870D02*
X141214786Y-70269965D01*
X141214786Y-70269965D02*
X141252882Y-70346156D01*
X141252882Y-70346156D02*
X141252882Y-70460441D01*
X141252882Y-70460441D02*
X141214786Y-70536632D01*
X141214786Y-70536632D02*
X141176691Y-70574727D01*
X141176691Y-70574727D02*
X141100501Y-70612822D01*
X141100501Y-70612822D02*
X140795739Y-70612822D01*
X141862405Y-70574727D02*
X141976691Y-70612822D01*
X141976691Y-70612822D02*
X142014786Y-70650918D01*
X142014786Y-70650918D02*
X142052882Y-70727108D01*
X142052882Y-70727108D02*
X142052882Y-70841394D01*
X142052882Y-70841394D02*
X142014786Y-70917584D01*
X142014786Y-70917584D02*
X141976691Y-70955680D01*
X141976691Y-70955680D02*
X141900501Y-70993775D01*
X141900501Y-70993775D02*
X141595739Y-70993775D01*
X141595739Y-70993775D02*
X141595739Y-70193775D01*
X141595739Y-70193775D02*
X141862405Y-70193775D01*
X141862405Y-70193775D02*
X141938596Y-70231870D01*
X141938596Y-70231870D02*
X141976691Y-70269965D01*
X141976691Y-70269965D02*
X142014786Y-70346156D01*
X142014786Y-70346156D02*
X142014786Y-70422346D01*
X142014786Y-70422346D02*
X141976691Y-70498537D01*
X141976691Y-70498537D02*
X141938596Y-70536632D01*
X141938596Y-70536632D02*
X141862405Y-70574727D01*
X141862405Y-70574727D02*
X141595739Y-70574727D01*
X142357643Y-70269965D02*
X142395739Y-70231870D01*
X142395739Y-70231870D02*
X142471929Y-70193775D01*
X142471929Y-70193775D02*
X142662405Y-70193775D01*
X142662405Y-70193775D02*
X142738596Y-70231870D01*
X142738596Y-70231870D02*
X142776691Y-70269965D01*
X142776691Y-70269965D02*
X142814786Y-70346156D01*
X142814786Y-70346156D02*
X142814786Y-70422346D01*
X142814786Y-70422346D02*
X142776691Y-70536632D01*
X142776691Y-70536632D02*
X142319548Y-70993775D01*
X142319548Y-70993775D02*
X142814786Y-70993775D01*
X141225739Y-85793775D02*
X141225739Y-84993775D01*
X141225739Y-84993775D02*
X141530501Y-84993775D01*
X141530501Y-84993775D02*
X141606691Y-85031870D01*
X141606691Y-85031870D02*
X141644786Y-85069965D01*
X141644786Y-85069965D02*
X141682882Y-85146156D01*
X141682882Y-85146156D02*
X141682882Y-85260441D01*
X141682882Y-85260441D02*
X141644786Y-85336632D01*
X141644786Y-85336632D02*
X141606691Y-85374727D01*
X141606691Y-85374727D02*
X141530501Y-85412822D01*
X141530501Y-85412822D02*
X141225739Y-85412822D01*
X141987643Y-85565203D02*
X142368596Y-85565203D01*
X141911453Y-85793775D02*
X142178120Y-84993775D01*
X142178120Y-84993775D02*
X142444786Y-85793775D01*
X143092405Y-84993775D02*
X142711453Y-84993775D01*
X142711453Y-84993775D02*
X142673357Y-85374727D01*
X142673357Y-85374727D02*
X142711453Y-85336632D01*
X142711453Y-85336632D02*
X142787643Y-85298537D01*
X142787643Y-85298537D02*
X142978119Y-85298537D01*
X142978119Y-85298537D02*
X143054310Y-85336632D01*
X143054310Y-85336632D02*
X143092405Y-85374727D01*
X143092405Y-85374727D02*
X143130500Y-85450918D01*
X143130500Y-85450918D02*
X143130500Y-85641394D01*
X143130500Y-85641394D02*
X143092405Y-85717584D01*
X143092405Y-85717584D02*
X143054310Y-85755680D01*
X143054310Y-85755680D02*
X142978119Y-85793775D01*
X142978119Y-85793775D02*
X142787643Y-85793775D01*
X142787643Y-85793775D02*
X142711453Y-85755680D01*
X142711453Y-85755680D02*
X142673357Y-85717584D01*
D11*
X118039160Y-67030430D02*
X118039160Y-66230430D01*
X118039160Y-66611382D02*
X118496303Y-66611382D01*
X118496303Y-67030430D02*
X118496303Y-66230430D01*
X119220112Y-66497096D02*
X119220112Y-67030430D01*
X118877255Y-66497096D02*
X118877255Y-66916144D01*
X118877255Y-66916144D02*
X118915350Y-66992335D01*
X118915350Y-66992335D02*
X118991540Y-67030430D01*
X118991540Y-67030430D02*
X119105826Y-67030430D01*
X119105826Y-67030430D02*
X119182017Y-66992335D01*
X119182017Y-66992335D02*
X119220112Y-66954239D01*
X119562969Y-66992335D02*
X119639160Y-67030430D01*
X119639160Y-67030430D02*
X119791541Y-67030430D01*
X119791541Y-67030430D02*
X119867731Y-66992335D01*
X119867731Y-66992335D02*
X119905827Y-66916144D01*
X119905827Y-66916144D02*
X119905827Y-66878049D01*
X119905827Y-66878049D02*
X119867731Y-66801858D01*
X119867731Y-66801858D02*
X119791541Y-66763763D01*
X119791541Y-66763763D02*
X119677255Y-66763763D01*
X119677255Y-66763763D02*
X119601065Y-66725668D01*
X119601065Y-66725668D02*
X119562969Y-66649477D01*
X119562969Y-66649477D02*
X119562969Y-66611382D01*
X119562969Y-66611382D02*
X119601065Y-66535192D01*
X119601065Y-66535192D02*
X119677255Y-66497096D01*
X119677255Y-66497096D02*
X119791541Y-66497096D01*
X119791541Y-66497096D02*
X119867731Y-66535192D01*
X120210588Y-66992335D02*
X120286779Y-67030430D01*
X120286779Y-67030430D02*
X120439160Y-67030430D01*
X120439160Y-67030430D02*
X120515350Y-66992335D01*
X120515350Y-66992335D02*
X120553446Y-66916144D01*
X120553446Y-66916144D02*
X120553446Y-66878049D01*
X120553446Y-66878049D02*
X120515350Y-66801858D01*
X120515350Y-66801858D02*
X120439160Y-66763763D01*
X120439160Y-66763763D02*
X120324874Y-66763763D01*
X120324874Y-66763763D02*
X120248684Y-66725668D01*
X120248684Y-66725668D02*
X120210588Y-66649477D01*
X120210588Y-66649477D02*
X120210588Y-66611382D01*
X120210588Y-66611382D02*
X120248684Y-66535192D01*
X120248684Y-66535192D02*
X120324874Y-66497096D01*
X120324874Y-66497096D02*
X120439160Y-66497096D01*
X120439160Y-66497096D02*
X120515350Y-66535192D01*
X121239160Y-67030430D02*
X121239160Y-66611382D01*
X121239160Y-66611382D02*
X121201065Y-66535192D01*
X121201065Y-66535192D02*
X121124874Y-66497096D01*
X121124874Y-66497096D02*
X120972493Y-66497096D01*
X120972493Y-66497096D02*
X120896303Y-66535192D01*
X121239160Y-66992335D02*
X121162969Y-67030430D01*
X121162969Y-67030430D02*
X120972493Y-67030430D01*
X120972493Y-67030430D02*
X120896303Y-66992335D01*
X120896303Y-66992335D02*
X120858207Y-66916144D01*
X120858207Y-66916144D02*
X120858207Y-66839954D01*
X120858207Y-66839954D02*
X120896303Y-66763763D01*
X120896303Y-66763763D02*
X120972493Y-66725668D01*
X120972493Y-66725668D02*
X121162969Y-66725668D01*
X121162969Y-66725668D02*
X121239160Y-66687573D01*
X121620113Y-67030430D02*
X121620113Y-66497096D01*
X121620113Y-66573287D02*
X121658208Y-66535192D01*
X121658208Y-66535192D02*
X121734398Y-66497096D01*
X121734398Y-66497096D02*
X121848684Y-66497096D01*
X121848684Y-66497096D02*
X121924875Y-66535192D01*
X121924875Y-66535192D02*
X121962970Y-66611382D01*
X121962970Y-66611382D02*
X121962970Y-67030430D01*
X121962970Y-66611382D02*
X122001065Y-66535192D01*
X122001065Y-66535192D02*
X122077256Y-66497096D01*
X122077256Y-66497096D02*
X122191541Y-66497096D01*
X122191541Y-66497096D02*
X122267732Y-66535192D01*
X122267732Y-66535192D02*
X122305827Y-66611382D01*
X122305827Y-66611382D02*
X122305827Y-67030430D01*
X118001064Y-68089813D02*
X118382017Y-68089813D01*
X117924874Y-68318385D02*
X118191541Y-67518385D01*
X118191541Y-67518385D02*
X118458207Y-68318385D01*
X118839159Y-68318385D02*
X118762969Y-68280290D01*
X118762969Y-68280290D02*
X118724874Y-68204099D01*
X118724874Y-68204099D02*
X118724874Y-67518385D01*
X119143922Y-68013623D02*
X119753446Y-68013623D01*
X120134398Y-68318385D02*
X120134398Y-67518385D01*
X120134398Y-67899337D02*
X120591541Y-67899337D01*
X120591541Y-68318385D02*
X120591541Y-67518385D01*
X121277255Y-68280290D02*
X121201064Y-68318385D01*
X121201064Y-68318385D02*
X121048683Y-68318385D01*
X121048683Y-68318385D02*
X120972493Y-68280290D01*
X120972493Y-68280290D02*
X120934397Y-68204099D01*
X120934397Y-68204099D02*
X120934397Y-67899337D01*
X120934397Y-67899337D02*
X120972493Y-67823147D01*
X120972493Y-67823147D02*
X121048683Y-67785051D01*
X121048683Y-67785051D02*
X121201064Y-67785051D01*
X121201064Y-67785051D02*
X121277255Y-67823147D01*
X121277255Y-67823147D02*
X121315350Y-67899337D01*
X121315350Y-67899337D02*
X121315350Y-67975528D01*
X121315350Y-67975528D02*
X120934397Y-68051718D01*
X121658207Y-68318385D02*
X121658207Y-67785051D01*
X121658207Y-67937432D02*
X121696302Y-67861242D01*
X121696302Y-67861242D02*
X121734397Y-67823147D01*
X121734397Y-67823147D02*
X121810588Y-67785051D01*
X121810588Y-67785051D02*
X121886778Y-67785051D01*
X122039159Y-67785051D02*
X122343921Y-67785051D01*
X122153445Y-67518385D02*
X122153445Y-68204099D01*
X122153445Y-68204099D02*
X122191540Y-68280290D01*
X122191540Y-68280290D02*
X122267730Y-68318385D01*
X122267730Y-68318385D02*
X122343921Y-68318385D01*
X122953445Y-68318385D02*
X122953445Y-67899337D01*
X122953445Y-67899337D02*
X122915350Y-67823147D01*
X122915350Y-67823147D02*
X122839159Y-67785051D01*
X122839159Y-67785051D02*
X122686778Y-67785051D01*
X122686778Y-67785051D02*
X122610588Y-67823147D01*
X122953445Y-68280290D02*
X122877254Y-68318385D01*
X122877254Y-68318385D02*
X122686778Y-68318385D01*
X122686778Y-68318385D02*
X122610588Y-68280290D01*
X122610588Y-68280290D02*
X122572492Y-68204099D01*
X122572492Y-68204099D02*
X122572492Y-68127909D01*
X122572492Y-68127909D02*
X122610588Y-68051718D01*
X122610588Y-68051718D02*
X122686778Y-68013623D01*
X122686778Y-68013623D02*
X122877254Y-68013623D01*
X122877254Y-68013623D02*
X122953445Y-67975528D01*
X123334398Y-67785051D02*
X123334398Y-68318385D01*
X123334398Y-67861242D02*
X123372493Y-67823147D01*
X123372493Y-67823147D02*
X123448683Y-67785051D01*
X123448683Y-67785051D02*
X123562969Y-67785051D01*
X123562969Y-67785051D02*
X123639160Y-67823147D01*
X123639160Y-67823147D02*
X123677255Y-67899337D01*
X123677255Y-67899337D02*
X123677255Y-68318385D01*
X124058208Y-68318385D02*
X124058208Y-67785051D01*
X124058208Y-67518385D02*
X124020112Y-67556480D01*
X124020112Y-67556480D02*
X124058208Y-67594575D01*
X124058208Y-67594575D02*
X124096303Y-67556480D01*
X124096303Y-67556480D02*
X124058208Y-67518385D01*
X124058208Y-67518385D02*
X124058208Y-67594575D01*
X118458207Y-68844435D02*
X118382017Y-68806340D01*
X118382017Y-68806340D02*
X118267731Y-68806340D01*
X118267731Y-68806340D02*
X118153445Y-68844435D01*
X118153445Y-68844435D02*
X118077255Y-68920625D01*
X118077255Y-68920625D02*
X118039160Y-68996816D01*
X118039160Y-68996816D02*
X118001064Y-69149197D01*
X118001064Y-69149197D02*
X118001064Y-69263483D01*
X118001064Y-69263483D02*
X118039160Y-69415864D01*
X118039160Y-69415864D02*
X118077255Y-69492054D01*
X118077255Y-69492054D02*
X118153445Y-69568245D01*
X118153445Y-69568245D02*
X118267731Y-69606340D01*
X118267731Y-69606340D02*
X118343922Y-69606340D01*
X118343922Y-69606340D02*
X118458207Y-69568245D01*
X118458207Y-69568245D02*
X118496303Y-69530149D01*
X118496303Y-69530149D02*
X118496303Y-69263483D01*
X118496303Y-69263483D02*
X118343922Y-69263483D01*
X118839160Y-69606340D02*
X118839160Y-68806340D01*
X118839160Y-68806340D02*
X119143922Y-68806340D01*
X119143922Y-68806340D02*
X119220112Y-68844435D01*
X119220112Y-68844435D02*
X119258207Y-68882530D01*
X119258207Y-68882530D02*
X119296303Y-68958721D01*
X119296303Y-68958721D02*
X119296303Y-69073006D01*
X119296303Y-69073006D02*
X119258207Y-69149197D01*
X119258207Y-69149197D02*
X119220112Y-69187292D01*
X119220112Y-69187292D02*
X119143922Y-69225387D01*
X119143922Y-69225387D02*
X118839160Y-69225387D01*
X119639160Y-69606340D02*
X119639160Y-68806340D01*
X120172493Y-68806340D02*
X120324874Y-68806340D01*
X120324874Y-68806340D02*
X120401064Y-68844435D01*
X120401064Y-68844435D02*
X120477255Y-68920625D01*
X120477255Y-68920625D02*
X120515350Y-69073006D01*
X120515350Y-69073006D02*
X120515350Y-69339673D01*
X120515350Y-69339673D02*
X120477255Y-69492054D01*
X120477255Y-69492054D02*
X120401064Y-69568245D01*
X120401064Y-69568245D02*
X120324874Y-69606340D01*
X120324874Y-69606340D02*
X120172493Y-69606340D01*
X120172493Y-69606340D02*
X120096302Y-69568245D01*
X120096302Y-69568245D02*
X120020112Y-69492054D01*
X120020112Y-69492054D02*
X119982016Y-69339673D01*
X119982016Y-69339673D02*
X119982016Y-69073006D01*
X119982016Y-69073006D02*
X120020112Y-68920625D01*
X120020112Y-68920625D02*
X120096302Y-68844435D01*
X120096302Y-68844435D02*
X120172493Y-68806340D01*
X120667731Y-69682530D02*
X121277254Y-69682530D01*
X121429635Y-69377768D02*
X121810588Y-69377768D01*
X121353445Y-69606340D02*
X121620112Y-68806340D01*
X121620112Y-68806340D02*
X121886778Y-69606340D01*
X122153445Y-69606340D02*
X122153445Y-68806340D01*
X122153445Y-68806340D02*
X122343921Y-68806340D01*
X122343921Y-68806340D02*
X122458207Y-68844435D01*
X122458207Y-68844435D02*
X122534397Y-68920625D01*
X122534397Y-68920625D02*
X122572492Y-68996816D01*
X122572492Y-68996816D02*
X122610588Y-69149197D01*
X122610588Y-69149197D02*
X122610588Y-69263483D01*
X122610588Y-69263483D02*
X122572492Y-69415864D01*
X122572492Y-69415864D02*
X122534397Y-69492054D01*
X122534397Y-69492054D02*
X122458207Y-69568245D01*
X122458207Y-69568245D02*
X122343921Y-69606340D01*
X122343921Y-69606340D02*
X122153445Y-69606340D01*
X123410588Y-69530149D02*
X123372492Y-69568245D01*
X123372492Y-69568245D02*
X123258207Y-69606340D01*
X123258207Y-69606340D02*
X123182016Y-69606340D01*
X123182016Y-69606340D02*
X123067730Y-69568245D01*
X123067730Y-69568245D02*
X122991540Y-69492054D01*
X122991540Y-69492054D02*
X122953445Y-69415864D01*
X122953445Y-69415864D02*
X122915349Y-69263483D01*
X122915349Y-69263483D02*
X122915349Y-69149197D01*
X122915349Y-69149197D02*
X122953445Y-68996816D01*
X122953445Y-68996816D02*
X122991540Y-68920625D01*
X122991540Y-68920625D02*
X123067730Y-68844435D01*
X123067730Y-68844435D02*
X123182016Y-68806340D01*
X123182016Y-68806340D02*
X123258207Y-68806340D01*
X123258207Y-68806340D02*
X123372492Y-68844435D01*
X123372492Y-68844435D02*
X123410588Y-68882530D01*
X118382017Y-70360961D02*
X118382017Y-70894295D01*
X118039160Y-70360961D02*
X118039160Y-70780009D01*
X118039160Y-70780009D02*
X118077255Y-70856200D01*
X118077255Y-70856200D02*
X118153445Y-70894295D01*
X118153445Y-70894295D02*
X118267731Y-70894295D01*
X118267731Y-70894295D02*
X118343922Y-70856200D01*
X118343922Y-70856200D02*
X118382017Y-70818104D01*
X118762970Y-70894295D02*
X118762970Y-70094295D01*
X118762970Y-70475247D02*
X119220113Y-70475247D01*
X119220113Y-70894295D02*
X119220113Y-70094295D01*
X119943922Y-70894295D02*
X119943922Y-70475247D01*
X119943922Y-70475247D02*
X119905827Y-70399057D01*
X119905827Y-70399057D02*
X119829636Y-70360961D01*
X119829636Y-70360961D02*
X119677255Y-70360961D01*
X119677255Y-70360961D02*
X119601065Y-70399057D01*
X119943922Y-70856200D02*
X119867731Y-70894295D01*
X119867731Y-70894295D02*
X119677255Y-70894295D01*
X119677255Y-70894295D02*
X119601065Y-70856200D01*
X119601065Y-70856200D02*
X119562969Y-70780009D01*
X119562969Y-70780009D02*
X119562969Y-70703819D01*
X119562969Y-70703819D02*
X119601065Y-70627628D01*
X119601065Y-70627628D02*
X119677255Y-70589533D01*
X119677255Y-70589533D02*
X119867731Y-70589533D01*
X119867731Y-70589533D02*
X119943922Y-70551438D01*
X120210589Y-70360961D02*
X120515351Y-70360961D01*
X120324875Y-70094295D02*
X120324875Y-70780009D01*
X120324875Y-70780009D02*
X120362970Y-70856200D01*
X120362970Y-70856200D02*
X120439160Y-70894295D01*
X120439160Y-70894295D02*
X120515351Y-70894295D01*
X121315351Y-70360961D02*
X121505827Y-70894295D01*
X121505827Y-70894295D02*
X121696304Y-70360961D01*
X121962970Y-70170485D02*
X122001066Y-70132390D01*
X122001066Y-70132390D02*
X122077256Y-70094295D01*
X122077256Y-70094295D02*
X122267732Y-70094295D01*
X122267732Y-70094295D02*
X122343923Y-70132390D01*
X122343923Y-70132390D02*
X122382018Y-70170485D01*
X122382018Y-70170485D02*
X122420113Y-70246676D01*
X122420113Y-70246676D02*
X122420113Y-70322866D01*
X122420113Y-70322866D02*
X122382018Y-70437152D01*
X122382018Y-70437152D02*
X121924875Y-70894295D01*
X121924875Y-70894295D02*
X122420113Y-70894295D01*
X122762971Y-70818104D02*
X122801066Y-70856200D01*
X122801066Y-70856200D02*
X122762971Y-70894295D01*
X122762971Y-70894295D02*
X122724875Y-70856200D01*
X122724875Y-70856200D02*
X122762971Y-70818104D01*
X122762971Y-70818104D02*
X122762971Y-70894295D01*
D10*
X165871674Y-84997117D02*
X165909770Y-85035213D01*
X165909770Y-85035213D02*
X165947865Y-85149498D01*
X165947865Y-85149498D02*
X165947865Y-85225689D01*
X165947865Y-85225689D02*
X165909770Y-85339975D01*
X165909770Y-85339975D02*
X165833579Y-85416165D01*
X165833579Y-85416165D02*
X165757389Y-85454260D01*
X165757389Y-85454260D02*
X165605008Y-85492356D01*
X165605008Y-85492356D02*
X165490722Y-85492356D01*
X165490722Y-85492356D02*
X165338341Y-85454260D01*
X165338341Y-85454260D02*
X165262150Y-85416165D01*
X165262150Y-85416165D02*
X165185960Y-85339975D01*
X165185960Y-85339975D02*
X165147865Y-85225689D01*
X165147865Y-85225689D02*
X165147865Y-85149498D01*
X165147865Y-85149498D02*
X165185960Y-85035213D01*
X165185960Y-85035213D02*
X165224055Y-84997117D01*
X165947865Y-84654260D02*
X165147865Y-84654260D01*
X165528817Y-84654260D02*
X165528817Y-84197117D01*
X165947865Y-84197117D02*
X165147865Y-84197117D01*
X165414531Y-83473308D02*
X165947865Y-83473308D01*
X165109770Y-83663784D02*
X165681198Y-83854261D01*
X165681198Y-83854261D02*
X165681198Y-83359022D01*
X130045739Y-70893775D02*
X130045739Y-70093775D01*
X130045739Y-70093775D02*
X130350501Y-70093775D01*
X130350501Y-70093775D02*
X130426691Y-70131870D01*
X130426691Y-70131870D02*
X130464786Y-70169965D01*
X130464786Y-70169965D02*
X130502882Y-70246156D01*
X130502882Y-70246156D02*
X130502882Y-70360441D01*
X130502882Y-70360441D02*
X130464786Y-70436632D01*
X130464786Y-70436632D02*
X130426691Y-70474727D01*
X130426691Y-70474727D02*
X130350501Y-70512822D01*
X130350501Y-70512822D02*
X130045739Y-70512822D01*
X131112405Y-70474727D02*
X131226691Y-70512822D01*
X131226691Y-70512822D02*
X131264786Y-70550918D01*
X131264786Y-70550918D02*
X131302882Y-70627108D01*
X131302882Y-70627108D02*
X131302882Y-70741394D01*
X131302882Y-70741394D02*
X131264786Y-70817584D01*
X131264786Y-70817584D02*
X131226691Y-70855680D01*
X131226691Y-70855680D02*
X131150501Y-70893775D01*
X131150501Y-70893775D02*
X130845739Y-70893775D01*
X130845739Y-70893775D02*
X130845739Y-70093775D01*
X130845739Y-70093775D02*
X131112405Y-70093775D01*
X131112405Y-70093775D02*
X131188596Y-70131870D01*
X131188596Y-70131870D02*
X131226691Y-70169965D01*
X131226691Y-70169965D02*
X131264786Y-70246156D01*
X131264786Y-70246156D02*
X131264786Y-70322346D01*
X131264786Y-70322346D02*
X131226691Y-70398537D01*
X131226691Y-70398537D02*
X131188596Y-70436632D01*
X131188596Y-70436632D02*
X131112405Y-70474727D01*
X131112405Y-70474727D02*
X130845739Y-70474727D01*
X131988596Y-70093775D02*
X131836215Y-70093775D01*
X131836215Y-70093775D02*
X131760024Y-70131870D01*
X131760024Y-70131870D02*
X131721929Y-70169965D01*
X131721929Y-70169965D02*
X131645739Y-70284251D01*
X131645739Y-70284251D02*
X131607643Y-70436632D01*
X131607643Y-70436632D02*
X131607643Y-70741394D01*
X131607643Y-70741394D02*
X131645739Y-70817584D01*
X131645739Y-70817584D02*
X131683834Y-70855680D01*
X131683834Y-70855680D02*
X131760024Y-70893775D01*
X131760024Y-70893775D02*
X131912405Y-70893775D01*
X131912405Y-70893775D02*
X131988596Y-70855680D01*
X131988596Y-70855680D02*
X132026691Y-70817584D01*
X132026691Y-70817584D02*
X132064786Y-70741394D01*
X132064786Y-70741394D02*
X132064786Y-70550918D01*
X132064786Y-70550918D02*
X132026691Y-70474727D01*
X132026691Y-70474727D02*
X131988596Y-70436632D01*
X131988596Y-70436632D02*
X131912405Y-70398537D01*
X131912405Y-70398537D02*
X131760024Y-70398537D01*
X131760024Y-70398537D02*
X131683834Y-70436632D01*
X131683834Y-70436632D02*
X131645739Y-70474727D01*
X131645739Y-70474727D02*
X131607643Y-70550918D01*
X146225739Y-85793775D02*
X146225739Y-84993775D01*
X146225739Y-84993775D02*
X146530501Y-84993775D01*
X146530501Y-84993775D02*
X146606691Y-85031870D01*
X146606691Y-85031870D02*
X146644786Y-85069965D01*
X146644786Y-85069965D02*
X146682882Y-85146156D01*
X146682882Y-85146156D02*
X146682882Y-85260441D01*
X146682882Y-85260441D02*
X146644786Y-85336632D01*
X146644786Y-85336632D02*
X146606691Y-85374727D01*
X146606691Y-85374727D02*
X146530501Y-85412822D01*
X146530501Y-85412822D02*
X146225739Y-85412822D01*
X146987643Y-85565203D02*
X147368596Y-85565203D01*
X146911453Y-85793775D02*
X147178120Y-84993775D01*
X147178120Y-84993775D02*
X147444786Y-85793775D01*
X147635262Y-84993775D02*
X148168596Y-84993775D01*
X148168596Y-84993775D02*
X147825738Y-85793775D01*
X136225739Y-85793775D02*
X136225739Y-84993775D01*
X136225739Y-84993775D02*
X136530501Y-84993775D01*
X136530501Y-84993775D02*
X136606691Y-85031870D01*
X136606691Y-85031870D02*
X136644786Y-85069965D01*
X136644786Y-85069965D02*
X136682882Y-85146156D01*
X136682882Y-85146156D02*
X136682882Y-85260441D01*
X136682882Y-85260441D02*
X136644786Y-85336632D01*
X136644786Y-85336632D02*
X136606691Y-85374727D01*
X136606691Y-85374727D02*
X136530501Y-85412822D01*
X136530501Y-85412822D02*
X136225739Y-85412822D01*
X136987643Y-85565203D02*
X137368596Y-85565203D01*
X136911453Y-85793775D02*
X137178120Y-84993775D01*
X137178120Y-84993775D02*
X137444786Y-85793775D01*
X137635262Y-84993775D02*
X138130500Y-84993775D01*
X138130500Y-84993775D02*
X137863834Y-85298537D01*
X137863834Y-85298537D02*
X137978119Y-85298537D01*
X137978119Y-85298537D02*
X138054310Y-85336632D01*
X138054310Y-85336632D02*
X138092405Y-85374727D01*
X138092405Y-85374727D02*
X138130500Y-85450918D01*
X138130500Y-85450918D02*
X138130500Y-85641394D01*
X138130500Y-85641394D02*
X138092405Y-85717584D01*
X138092405Y-85717584D02*
X138054310Y-85755680D01*
X138054310Y-85755680D02*
X137978119Y-85793775D01*
X137978119Y-85793775D02*
X137749548Y-85793775D01*
X137749548Y-85793775D02*
X137673357Y-85755680D01*
X137673357Y-85755680D02*
X137635262Y-85717584D01*
X158247584Y-84997117D02*
X158285680Y-85035213D01*
X158285680Y-85035213D02*
X158323775Y-85149498D01*
X158323775Y-85149498D02*
X158323775Y-85225689D01*
X158323775Y-85225689D02*
X158285680Y-85339975D01*
X158285680Y-85339975D02*
X158209489Y-85416165D01*
X158209489Y-85416165D02*
X158133299Y-85454260D01*
X158133299Y-85454260D02*
X157980918Y-85492356D01*
X157980918Y-85492356D02*
X157866632Y-85492356D01*
X157866632Y-85492356D02*
X157714251Y-85454260D01*
X157714251Y-85454260D02*
X157638060Y-85416165D01*
X157638060Y-85416165D02*
X157561870Y-85339975D01*
X157561870Y-85339975D02*
X157523775Y-85225689D01*
X157523775Y-85225689D02*
X157523775Y-85149498D01*
X157523775Y-85149498D02*
X157561870Y-85035213D01*
X157561870Y-85035213D02*
X157599965Y-84997117D01*
X158323775Y-84654260D02*
X157523775Y-84654260D01*
X157904727Y-84654260D02*
X157904727Y-84197117D01*
X158323775Y-84197117D02*
X157523775Y-84197117D01*
X158323775Y-83397118D02*
X158323775Y-83854261D01*
X158323775Y-83625689D02*
X157523775Y-83625689D01*
X157523775Y-83625689D02*
X157638060Y-83701880D01*
X157638060Y-83701880D02*
X157714251Y-83778070D01*
X157714251Y-83778070D02*
X157752346Y-83854261D01*
X135545739Y-70993775D02*
X135545739Y-70193775D01*
X135545739Y-70193775D02*
X135850501Y-70193775D01*
X135850501Y-70193775D02*
X135926691Y-70231870D01*
X135926691Y-70231870D02*
X135964786Y-70269965D01*
X135964786Y-70269965D02*
X136002882Y-70346156D01*
X136002882Y-70346156D02*
X136002882Y-70460441D01*
X136002882Y-70460441D02*
X135964786Y-70536632D01*
X135964786Y-70536632D02*
X135926691Y-70574727D01*
X135926691Y-70574727D02*
X135850501Y-70612822D01*
X135850501Y-70612822D02*
X135545739Y-70612822D01*
X136612405Y-70574727D02*
X136726691Y-70612822D01*
X136726691Y-70612822D02*
X136764786Y-70650918D01*
X136764786Y-70650918D02*
X136802882Y-70727108D01*
X136802882Y-70727108D02*
X136802882Y-70841394D01*
X136802882Y-70841394D02*
X136764786Y-70917584D01*
X136764786Y-70917584D02*
X136726691Y-70955680D01*
X136726691Y-70955680D02*
X136650501Y-70993775D01*
X136650501Y-70993775D02*
X136345739Y-70993775D01*
X136345739Y-70993775D02*
X136345739Y-70193775D01*
X136345739Y-70193775D02*
X136612405Y-70193775D01*
X136612405Y-70193775D02*
X136688596Y-70231870D01*
X136688596Y-70231870D02*
X136726691Y-70269965D01*
X136726691Y-70269965D02*
X136764786Y-70346156D01*
X136764786Y-70346156D02*
X136764786Y-70422346D01*
X136764786Y-70422346D02*
X136726691Y-70498537D01*
X136726691Y-70498537D02*
X136688596Y-70536632D01*
X136688596Y-70536632D02*
X136612405Y-70574727D01*
X136612405Y-70574727D02*
X136345739Y-70574727D01*
X137488596Y-70460441D02*
X137488596Y-70993775D01*
X137298120Y-70155680D02*
X137107643Y-70727108D01*
X137107643Y-70727108D02*
X137602882Y-70727108D01*
X126893775Y-68954260D02*
X126093775Y-68954260D01*
X126093775Y-68954260D02*
X126093775Y-68649498D01*
X126093775Y-68649498D02*
X126131870Y-68573308D01*
X126131870Y-68573308D02*
X126169965Y-68535213D01*
X126169965Y-68535213D02*
X126246156Y-68497117D01*
X126246156Y-68497117D02*
X126360441Y-68497117D01*
X126360441Y-68497117D02*
X126436632Y-68535213D01*
X126436632Y-68535213D02*
X126474727Y-68573308D01*
X126474727Y-68573308D02*
X126512822Y-68649498D01*
X126512822Y-68649498D02*
X126512822Y-68954260D01*
X126474727Y-67887594D02*
X126512822Y-67773308D01*
X126512822Y-67773308D02*
X126550918Y-67735213D01*
X126550918Y-67735213D02*
X126627108Y-67697117D01*
X126627108Y-67697117D02*
X126741394Y-67697117D01*
X126741394Y-67697117D02*
X126817584Y-67735213D01*
X126817584Y-67735213D02*
X126855680Y-67773308D01*
X126855680Y-67773308D02*
X126893775Y-67849498D01*
X126893775Y-67849498D02*
X126893775Y-68154260D01*
X126893775Y-68154260D02*
X126093775Y-68154260D01*
X126093775Y-68154260D02*
X126093775Y-67887594D01*
X126093775Y-67887594D02*
X126131870Y-67811403D01*
X126131870Y-67811403D02*
X126169965Y-67773308D01*
X126169965Y-67773308D02*
X126246156Y-67735213D01*
X126246156Y-67735213D02*
X126322346Y-67735213D01*
X126322346Y-67735213D02*
X126398537Y-67773308D01*
X126398537Y-67773308D02*
X126436632Y-67811403D01*
X126436632Y-67811403D02*
X126474727Y-67887594D01*
X126474727Y-67887594D02*
X126474727Y-68154260D01*
X126093775Y-67430451D02*
X126093775Y-66897117D01*
X126093775Y-66897117D02*
X126893775Y-67239975D01*
X173471674Y-84997117D02*
X173509770Y-85035213D01*
X173509770Y-85035213D02*
X173547865Y-85149498D01*
X173547865Y-85149498D02*
X173547865Y-85225689D01*
X173547865Y-85225689D02*
X173509770Y-85339975D01*
X173509770Y-85339975D02*
X173433579Y-85416165D01*
X173433579Y-85416165D02*
X173357389Y-85454260D01*
X173357389Y-85454260D02*
X173205008Y-85492356D01*
X173205008Y-85492356D02*
X173090722Y-85492356D01*
X173090722Y-85492356D02*
X172938341Y-85454260D01*
X172938341Y-85454260D02*
X172862150Y-85416165D01*
X172862150Y-85416165D02*
X172785960Y-85339975D01*
X172785960Y-85339975D02*
X172747865Y-85225689D01*
X172747865Y-85225689D02*
X172747865Y-85149498D01*
X172747865Y-85149498D02*
X172785960Y-85035213D01*
X172785960Y-85035213D02*
X172824055Y-84997117D01*
X173547865Y-84654260D02*
X172747865Y-84654260D01*
X173128817Y-84654260D02*
X173128817Y-84197117D01*
X173547865Y-84197117D02*
X172747865Y-84197117D01*
X172747865Y-83892356D02*
X172747865Y-83359022D01*
X172747865Y-83359022D02*
X173547865Y-83701880D01*
X133475739Y-85793775D02*
X133475739Y-84993775D01*
X133475739Y-84993775D02*
X133780501Y-84993775D01*
X133780501Y-84993775D02*
X133856691Y-85031870D01*
X133856691Y-85031870D02*
X133894786Y-85069965D01*
X133894786Y-85069965D02*
X133932882Y-85146156D01*
X133932882Y-85146156D02*
X133932882Y-85260441D01*
X133932882Y-85260441D02*
X133894786Y-85336632D01*
X133894786Y-85336632D02*
X133856691Y-85374727D01*
X133856691Y-85374727D02*
X133780501Y-85412822D01*
X133780501Y-85412822D02*
X133475739Y-85412822D01*
X134237643Y-85565203D02*
X134618596Y-85565203D01*
X134161453Y-85793775D02*
X134428120Y-84993775D01*
X134428120Y-84993775D02*
X134694786Y-85793775D01*
X134923357Y-85069965D02*
X134961453Y-85031870D01*
X134961453Y-85031870D02*
X135037643Y-84993775D01*
X135037643Y-84993775D02*
X135228119Y-84993775D01*
X135228119Y-84993775D02*
X135304310Y-85031870D01*
X135304310Y-85031870D02*
X135342405Y-85069965D01*
X135342405Y-85069965D02*
X135380500Y-85146156D01*
X135380500Y-85146156D02*
X135380500Y-85222346D01*
X135380500Y-85222346D02*
X135342405Y-85336632D01*
X135342405Y-85336632D02*
X134885262Y-85793775D01*
X134885262Y-85793775D02*
X135380500Y-85793775D01*
X168471674Y-84997117D02*
X168509770Y-85035213D01*
X168509770Y-85035213D02*
X168547865Y-85149498D01*
X168547865Y-85149498D02*
X168547865Y-85225689D01*
X168547865Y-85225689D02*
X168509770Y-85339975D01*
X168509770Y-85339975D02*
X168433579Y-85416165D01*
X168433579Y-85416165D02*
X168357389Y-85454260D01*
X168357389Y-85454260D02*
X168205008Y-85492356D01*
X168205008Y-85492356D02*
X168090722Y-85492356D01*
X168090722Y-85492356D02*
X167938341Y-85454260D01*
X167938341Y-85454260D02*
X167862150Y-85416165D01*
X167862150Y-85416165D02*
X167785960Y-85339975D01*
X167785960Y-85339975D02*
X167747865Y-85225689D01*
X167747865Y-85225689D02*
X167747865Y-85149498D01*
X167747865Y-85149498D02*
X167785960Y-85035213D01*
X167785960Y-85035213D02*
X167824055Y-84997117D01*
X168547865Y-84654260D02*
X167747865Y-84654260D01*
X168128817Y-84654260D02*
X168128817Y-84197117D01*
X168547865Y-84197117D02*
X167747865Y-84197117D01*
X167747865Y-83435213D02*
X167747865Y-83816165D01*
X167747865Y-83816165D02*
X168128817Y-83854261D01*
X168128817Y-83854261D02*
X168090722Y-83816165D01*
X168090722Y-83816165D02*
X168052627Y-83739975D01*
X168052627Y-83739975D02*
X168052627Y-83549499D01*
X168052627Y-83549499D02*
X168090722Y-83473308D01*
X168090722Y-83473308D02*
X168128817Y-83435213D01*
X168128817Y-83435213D02*
X168205008Y-83397118D01*
X168205008Y-83397118D02*
X168395484Y-83397118D01*
X168395484Y-83397118D02*
X168471674Y-83435213D01*
X168471674Y-83435213D02*
X168509770Y-83473308D01*
X168509770Y-83473308D02*
X168547865Y-83549499D01*
X168547865Y-83549499D02*
X168547865Y-83739975D01*
X168547865Y-83739975D02*
X168509770Y-83816165D01*
X168509770Y-83816165D02*
X168471674Y-83854261D01*
X138725739Y-85793775D02*
X138725739Y-84993775D01*
X138725739Y-84993775D02*
X139030501Y-84993775D01*
X139030501Y-84993775D02*
X139106691Y-85031870D01*
X139106691Y-85031870D02*
X139144786Y-85069965D01*
X139144786Y-85069965D02*
X139182882Y-85146156D01*
X139182882Y-85146156D02*
X139182882Y-85260441D01*
X139182882Y-85260441D02*
X139144786Y-85336632D01*
X139144786Y-85336632D02*
X139106691Y-85374727D01*
X139106691Y-85374727D02*
X139030501Y-85412822D01*
X139030501Y-85412822D02*
X138725739Y-85412822D01*
X139487643Y-85565203D02*
X139868596Y-85565203D01*
X139411453Y-85793775D02*
X139678120Y-84993775D01*
X139678120Y-84993775D02*
X139944786Y-85793775D01*
X140554310Y-85260441D02*
X140554310Y-85793775D01*
X140363834Y-84955680D02*
X140173357Y-85527108D01*
X140173357Y-85527108D02*
X140668596Y-85527108D01*
D11*
X125916666Y-86954819D02*
X125916666Y-87669104D01*
X125916666Y-87669104D02*
X125869047Y-87811961D01*
X125869047Y-87811961D02*
X125773809Y-87907200D01*
X125773809Y-87907200D02*
X125630952Y-87954819D01*
X125630952Y-87954819D02*
X125535714Y-87954819D01*
X126297619Y-86954819D02*
X126916666Y-86954819D01*
X126916666Y-86954819D02*
X126583333Y-87335771D01*
X126583333Y-87335771D02*
X126726190Y-87335771D01*
X126726190Y-87335771D02*
X126821428Y-87383390D01*
X126821428Y-87383390D02*
X126869047Y-87431009D01*
X126869047Y-87431009D02*
X126916666Y-87526247D01*
X126916666Y-87526247D02*
X126916666Y-87764342D01*
X126916666Y-87764342D02*
X126869047Y-87859580D01*
X126869047Y-87859580D02*
X126821428Y-87907200D01*
X126821428Y-87907200D02*
X126726190Y-87954819D01*
X126726190Y-87954819D02*
X126440476Y-87954819D01*
X126440476Y-87954819D02*
X126345238Y-87907200D01*
X126345238Y-87907200D02*
X126297619Y-87859580D01*
X179533333Y-72954819D02*
X179200000Y-72478628D01*
X178961905Y-72954819D02*
X178961905Y-71954819D01*
X178961905Y-71954819D02*
X179342857Y-71954819D01*
X179342857Y-71954819D02*
X179438095Y-72002438D01*
X179438095Y-72002438D02*
X179485714Y-72050057D01*
X179485714Y-72050057D02*
X179533333Y-72145295D01*
X179533333Y-72145295D02*
X179533333Y-72288152D01*
X179533333Y-72288152D02*
X179485714Y-72383390D01*
X179485714Y-72383390D02*
X179438095Y-72431009D01*
X179438095Y-72431009D02*
X179342857Y-72478628D01*
X179342857Y-72478628D02*
X178961905Y-72478628D01*
X179914286Y-72050057D02*
X179961905Y-72002438D01*
X179961905Y-72002438D02*
X180057143Y-71954819D01*
X180057143Y-71954819D02*
X180295238Y-71954819D01*
X180295238Y-71954819D02*
X180390476Y-72002438D01*
X180390476Y-72002438D02*
X180438095Y-72050057D01*
X180438095Y-72050057D02*
X180485714Y-72145295D01*
X180485714Y-72145295D02*
X180485714Y-72240533D01*
X180485714Y-72240533D02*
X180438095Y-72383390D01*
X180438095Y-72383390D02*
X179866667Y-72954819D01*
X179866667Y-72954819D02*
X180485714Y-72954819D01*
X173119819Y-79386904D02*
X173929342Y-79386904D01*
X173929342Y-79386904D02*
X174024580Y-79339285D01*
X174024580Y-79339285D02*
X174072200Y-79291666D01*
X174072200Y-79291666D02*
X174119819Y-79196428D01*
X174119819Y-79196428D02*
X174119819Y-79005952D01*
X174119819Y-79005952D02*
X174072200Y-78910714D01*
X174072200Y-78910714D02*
X174024580Y-78863095D01*
X174024580Y-78863095D02*
X173929342Y-78815476D01*
X173929342Y-78815476D02*
X173119819Y-78815476D01*
X173119819Y-78434523D02*
X173119819Y-77815476D01*
X173119819Y-77815476D02*
X173500771Y-78148809D01*
X173500771Y-78148809D02*
X173500771Y-78005952D01*
X173500771Y-78005952D02*
X173548390Y-77910714D01*
X173548390Y-77910714D02*
X173596009Y-77863095D01*
X173596009Y-77863095D02*
X173691247Y-77815476D01*
X173691247Y-77815476D02*
X173929342Y-77815476D01*
X173929342Y-77815476D02*
X174024580Y-77863095D01*
X174024580Y-77863095D02*
X174072200Y-77910714D01*
X174072200Y-77910714D02*
X174119819Y-78005952D01*
X174119819Y-78005952D02*
X174119819Y-78291666D01*
X174119819Y-78291666D02*
X174072200Y-78386904D01*
X174072200Y-78386904D02*
X174024580Y-78434523D01*
X166233333Y-74059580D02*
X166185714Y-74107200D01*
X166185714Y-74107200D02*
X166042857Y-74154819D01*
X166042857Y-74154819D02*
X165947619Y-74154819D01*
X165947619Y-74154819D02*
X165804762Y-74107200D01*
X165804762Y-74107200D02*
X165709524Y-74011961D01*
X165709524Y-74011961D02*
X165661905Y-73916723D01*
X165661905Y-73916723D02*
X165614286Y-73726247D01*
X165614286Y-73726247D02*
X165614286Y-73583390D01*
X165614286Y-73583390D02*
X165661905Y-73392914D01*
X165661905Y-73392914D02*
X165709524Y-73297676D01*
X165709524Y-73297676D02*
X165804762Y-73202438D01*
X165804762Y-73202438D02*
X165947619Y-73154819D01*
X165947619Y-73154819D02*
X166042857Y-73154819D01*
X166042857Y-73154819D02*
X166185714Y-73202438D01*
X166185714Y-73202438D02*
X166233333Y-73250057D01*
X166566667Y-73154819D02*
X167185714Y-73154819D01*
X167185714Y-73154819D02*
X166852381Y-73535771D01*
X166852381Y-73535771D02*
X166995238Y-73535771D01*
X166995238Y-73535771D02*
X167090476Y-73583390D01*
X167090476Y-73583390D02*
X167138095Y-73631009D01*
X167138095Y-73631009D02*
X167185714Y-73726247D01*
X167185714Y-73726247D02*
X167185714Y-73964342D01*
X167185714Y-73964342D02*
X167138095Y-74059580D01*
X167138095Y-74059580D02*
X167090476Y-74107200D01*
X167090476Y-74107200D02*
X166995238Y-74154819D01*
X166995238Y-74154819D02*
X166709524Y-74154819D01*
X166709524Y-74154819D02*
X166614286Y-74107200D01*
X166614286Y-74107200D02*
X166566667Y-74059580D01*
X124183333Y-75104819D02*
X123850000Y-74628628D01*
X123611905Y-75104819D02*
X123611905Y-74104819D01*
X123611905Y-74104819D02*
X123992857Y-74104819D01*
X123992857Y-74104819D02*
X124088095Y-74152438D01*
X124088095Y-74152438D02*
X124135714Y-74200057D01*
X124135714Y-74200057D02*
X124183333Y-74295295D01*
X124183333Y-74295295D02*
X124183333Y-74438152D01*
X124183333Y-74438152D02*
X124135714Y-74533390D01*
X124135714Y-74533390D02*
X124088095Y-74581009D01*
X124088095Y-74581009D02*
X123992857Y-74628628D01*
X123992857Y-74628628D02*
X123611905Y-74628628D01*
X125040476Y-74104819D02*
X124850000Y-74104819D01*
X124850000Y-74104819D02*
X124754762Y-74152438D01*
X124754762Y-74152438D02*
X124707143Y-74200057D01*
X124707143Y-74200057D02*
X124611905Y-74342914D01*
X124611905Y-74342914D02*
X124564286Y-74533390D01*
X124564286Y-74533390D02*
X124564286Y-74914342D01*
X124564286Y-74914342D02*
X124611905Y-75009580D01*
X124611905Y-75009580D02*
X124659524Y-75057200D01*
X124659524Y-75057200D02*
X124754762Y-75104819D01*
X124754762Y-75104819D02*
X124945238Y-75104819D01*
X124945238Y-75104819D02*
X125040476Y-75057200D01*
X125040476Y-75057200D02*
X125088095Y-75009580D01*
X125088095Y-75009580D02*
X125135714Y-74914342D01*
X125135714Y-74914342D02*
X125135714Y-74676247D01*
X125135714Y-74676247D02*
X125088095Y-74581009D01*
X125088095Y-74581009D02*
X125040476Y-74533390D01*
X125040476Y-74533390D02*
X124945238Y-74485771D01*
X124945238Y-74485771D02*
X124754762Y-74485771D01*
X124754762Y-74485771D02*
X124659524Y-74533390D01*
X124659524Y-74533390D02*
X124611905Y-74581009D01*
X124611905Y-74581009D02*
X124564286Y-74676247D01*
X179483333Y-70454819D02*
X179150000Y-69978628D01*
X178911905Y-70454819D02*
X178911905Y-69454819D01*
X178911905Y-69454819D02*
X179292857Y-69454819D01*
X179292857Y-69454819D02*
X179388095Y-69502438D01*
X179388095Y-69502438D02*
X179435714Y-69550057D01*
X179435714Y-69550057D02*
X179483333Y-69645295D01*
X179483333Y-69645295D02*
X179483333Y-69788152D01*
X179483333Y-69788152D02*
X179435714Y-69883390D01*
X179435714Y-69883390D02*
X179388095Y-69931009D01*
X179388095Y-69931009D02*
X179292857Y-69978628D01*
X179292857Y-69978628D02*
X178911905Y-69978628D01*
X180340476Y-69788152D02*
X180340476Y-70454819D01*
X180102381Y-69407200D02*
X179864286Y-70121485D01*
X179864286Y-70121485D02*
X180483333Y-70121485D01*
X166083333Y-68664819D02*
X165750000Y-68188628D01*
X165511905Y-68664819D02*
X165511905Y-67664819D01*
X165511905Y-67664819D02*
X165892857Y-67664819D01*
X165892857Y-67664819D02*
X165988095Y-67712438D01*
X165988095Y-67712438D02*
X166035714Y-67760057D01*
X166035714Y-67760057D02*
X166083333Y-67855295D01*
X166083333Y-67855295D02*
X166083333Y-67998152D01*
X166083333Y-67998152D02*
X166035714Y-68093390D01*
X166035714Y-68093390D02*
X165988095Y-68141009D01*
X165988095Y-68141009D02*
X165892857Y-68188628D01*
X165892857Y-68188628D02*
X165511905Y-68188628D01*
X167035714Y-68664819D02*
X166464286Y-68664819D01*
X166750000Y-68664819D02*
X166750000Y-67664819D01*
X166750000Y-67664819D02*
X166654762Y-67807676D01*
X166654762Y-67807676D02*
X166559524Y-67902914D01*
X166559524Y-67902914D02*
X166464286Y-67950533D01*
X153664819Y-68383333D02*
X154379104Y-68383333D01*
X154379104Y-68383333D02*
X154521961Y-68430952D01*
X154521961Y-68430952D02*
X154617200Y-68526190D01*
X154617200Y-68526190D02*
X154664819Y-68669047D01*
X154664819Y-68669047D02*
X154664819Y-68764285D01*
X153760057Y-67954761D02*
X153712438Y-67907142D01*
X153712438Y-67907142D02*
X153664819Y-67811904D01*
X153664819Y-67811904D02*
X153664819Y-67573809D01*
X153664819Y-67573809D02*
X153712438Y-67478571D01*
X153712438Y-67478571D02*
X153760057Y-67430952D01*
X153760057Y-67430952D02*
X153855295Y-67383333D01*
X153855295Y-67383333D02*
X153950533Y-67383333D01*
X153950533Y-67383333D02*
X154093390Y-67430952D01*
X154093390Y-67430952D02*
X154664819Y-68002380D01*
X154664819Y-68002380D02*
X154664819Y-67383333D01*
X145334819Y-78661904D02*
X146144342Y-78661904D01*
X146144342Y-78661904D02*
X146239580Y-78614285D01*
X146239580Y-78614285D02*
X146287200Y-78566666D01*
X146287200Y-78566666D02*
X146334819Y-78471428D01*
X146334819Y-78471428D02*
X146334819Y-78280952D01*
X146334819Y-78280952D02*
X146287200Y-78185714D01*
X146287200Y-78185714D02*
X146239580Y-78138095D01*
X146239580Y-78138095D02*
X146144342Y-78090476D01*
X146144342Y-78090476D02*
X145334819Y-78090476D01*
X146334819Y-77090476D02*
X146334819Y-77661904D01*
X146334819Y-77376190D02*
X145334819Y-77376190D01*
X145334819Y-77376190D02*
X145477676Y-77471428D01*
X145477676Y-77471428D02*
X145572914Y-77566666D01*
X145572914Y-77566666D02*
X145620533Y-77661904D01*
X179433333Y-67454819D02*
X179100000Y-66978628D01*
X178861905Y-67454819D02*
X178861905Y-66454819D01*
X178861905Y-66454819D02*
X179242857Y-66454819D01*
X179242857Y-66454819D02*
X179338095Y-66502438D01*
X179338095Y-66502438D02*
X179385714Y-66550057D01*
X179385714Y-66550057D02*
X179433333Y-66645295D01*
X179433333Y-66645295D02*
X179433333Y-66788152D01*
X179433333Y-66788152D02*
X179385714Y-66883390D01*
X179385714Y-66883390D02*
X179338095Y-66931009D01*
X179338095Y-66931009D02*
X179242857Y-66978628D01*
X179242857Y-66978628D02*
X178861905Y-66978628D01*
X179766667Y-66454819D02*
X180385714Y-66454819D01*
X180385714Y-66454819D02*
X180052381Y-66835771D01*
X180052381Y-66835771D02*
X180195238Y-66835771D01*
X180195238Y-66835771D02*
X180290476Y-66883390D01*
X180290476Y-66883390D02*
X180338095Y-66931009D01*
X180338095Y-66931009D02*
X180385714Y-67026247D01*
X180385714Y-67026247D02*
X180385714Y-67264342D01*
X180385714Y-67264342D02*
X180338095Y-67359580D01*
X180338095Y-67359580D02*
X180290476Y-67407200D01*
X180290476Y-67407200D02*
X180195238Y-67454819D01*
X180195238Y-67454819D02*
X179909524Y-67454819D01*
X179909524Y-67454819D02*
X179814286Y-67407200D01*
X179814286Y-67407200D02*
X179766667Y-67359580D01*
X155099580Y-71856666D02*
X155147200Y-71904285D01*
X155147200Y-71904285D02*
X155194819Y-72047142D01*
X155194819Y-72047142D02*
X155194819Y-72142380D01*
X155194819Y-72142380D02*
X155147200Y-72285237D01*
X155147200Y-72285237D02*
X155051961Y-72380475D01*
X155051961Y-72380475D02*
X154956723Y-72428094D01*
X154956723Y-72428094D02*
X154766247Y-72475713D01*
X154766247Y-72475713D02*
X154623390Y-72475713D01*
X154623390Y-72475713D02*
X154432914Y-72428094D01*
X154432914Y-72428094D02*
X154337676Y-72380475D01*
X154337676Y-72380475D02*
X154242438Y-72285237D01*
X154242438Y-72285237D02*
X154194819Y-72142380D01*
X154194819Y-72142380D02*
X154194819Y-72047142D01*
X154194819Y-72047142D02*
X154242438Y-71904285D01*
X154242438Y-71904285D02*
X154290057Y-71856666D01*
X154290057Y-71475713D02*
X154242438Y-71428094D01*
X154242438Y-71428094D02*
X154194819Y-71332856D01*
X154194819Y-71332856D02*
X154194819Y-71094761D01*
X154194819Y-71094761D02*
X154242438Y-70999523D01*
X154242438Y-70999523D02*
X154290057Y-70951904D01*
X154290057Y-70951904D02*
X154385295Y-70904285D01*
X154385295Y-70904285D02*
X154480533Y-70904285D01*
X154480533Y-70904285D02*
X154623390Y-70951904D01*
X154623390Y-70951904D02*
X155194819Y-71523332D01*
X155194819Y-71523332D02*
X155194819Y-70904285D01*
X175416666Y-86954819D02*
X175416666Y-87669104D01*
X175416666Y-87669104D02*
X175369047Y-87811961D01*
X175369047Y-87811961D02*
X175273809Y-87907200D01*
X175273809Y-87907200D02*
X175130952Y-87954819D01*
X175130952Y-87954819D02*
X175035714Y-87954819D01*
X176321428Y-87288152D02*
X176321428Y-87954819D01*
X176083333Y-86907200D02*
X175845238Y-87621485D01*
X175845238Y-87621485D02*
X176464285Y-87621485D01*
X123583333Y-83359580D02*
X123535714Y-83407200D01*
X123535714Y-83407200D02*
X123392857Y-83454819D01*
X123392857Y-83454819D02*
X123297619Y-83454819D01*
X123297619Y-83454819D02*
X123154762Y-83407200D01*
X123154762Y-83407200D02*
X123059524Y-83311961D01*
X123059524Y-83311961D02*
X123011905Y-83216723D01*
X123011905Y-83216723D02*
X122964286Y-83026247D01*
X122964286Y-83026247D02*
X122964286Y-82883390D01*
X122964286Y-82883390D02*
X123011905Y-82692914D01*
X123011905Y-82692914D02*
X123059524Y-82597676D01*
X123059524Y-82597676D02*
X123154762Y-82502438D01*
X123154762Y-82502438D02*
X123297619Y-82454819D01*
X123297619Y-82454819D02*
X123392857Y-82454819D01*
X123392857Y-82454819D02*
X123535714Y-82502438D01*
X123535714Y-82502438D02*
X123583333Y-82550057D01*
X124535714Y-83454819D02*
X123964286Y-83454819D01*
X124250000Y-83454819D02*
X124250000Y-82454819D01*
X124250000Y-82454819D02*
X124154762Y-82597676D01*
X124154762Y-82597676D02*
X124059524Y-82692914D01*
X124059524Y-82692914D02*
X123964286Y-82740533D01*
X167666666Y-76204819D02*
X167666666Y-76919104D01*
X167666666Y-76919104D02*
X167619047Y-77061961D01*
X167619047Y-77061961D02*
X167523809Y-77157200D01*
X167523809Y-77157200D02*
X167380952Y-77204819D01*
X167380952Y-77204819D02*
X167285714Y-77204819D01*
X168619047Y-76204819D02*
X168142857Y-76204819D01*
X168142857Y-76204819D02*
X168095238Y-76681009D01*
X168095238Y-76681009D02*
X168142857Y-76633390D01*
X168142857Y-76633390D02*
X168238095Y-76585771D01*
X168238095Y-76585771D02*
X168476190Y-76585771D01*
X168476190Y-76585771D02*
X168571428Y-76633390D01*
X168571428Y-76633390D02*
X168619047Y-76681009D01*
X168619047Y-76681009D02*
X168666666Y-76776247D01*
X168666666Y-76776247D02*
X168666666Y-77014342D01*
X168666666Y-77014342D02*
X168619047Y-77109580D01*
X168619047Y-77109580D02*
X168571428Y-77157200D01*
X168571428Y-77157200D02*
X168476190Y-77204819D01*
X168476190Y-77204819D02*
X168238095Y-77204819D01*
X168238095Y-77204819D02*
X168142857Y-77157200D01*
X168142857Y-77157200D02*
X168095238Y-77109580D01*
X124283333Y-77564819D02*
X123950000Y-77088628D01*
X123711905Y-77564819D02*
X123711905Y-76564819D01*
X123711905Y-76564819D02*
X124092857Y-76564819D01*
X124092857Y-76564819D02*
X124188095Y-76612438D01*
X124188095Y-76612438D02*
X124235714Y-76660057D01*
X124235714Y-76660057D02*
X124283333Y-76755295D01*
X124283333Y-76755295D02*
X124283333Y-76898152D01*
X124283333Y-76898152D02*
X124235714Y-76993390D01*
X124235714Y-76993390D02*
X124188095Y-77041009D01*
X124188095Y-77041009D02*
X124092857Y-77088628D01*
X124092857Y-77088628D02*
X123711905Y-77088628D01*
X125188095Y-76564819D02*
X124711905Y-76564819D01*
X124711905Y-76564819D02*
X124664286Y-77041009D01*
X124664286Y-77041009D02*
X124711905Y-76993390D01*
X124711905Y-76993390D02*
X124807143Y-76945771D01*
X124807143Y-76945771D02*
X125045238Y-76945771D01*
X125045238Y-76945771D02*
X125140476Y-76993390D01*
X125140476Y-76993390D02*
X125188095Y-77041009D01*
X125188095Y-77041009D02*
X125235714Y-77136247D01*
X125235714Y-77136247D02*
X125235714Y-77374342D01*
X125235714Y-77374342D02*
X125188095Y-77469580D01*
X125188095Y-77469580D02*
X125140476Y-77517200D01*
X125140476Y-77517200D02*
X125045238Y-77564819D01*
X125045238Y-77564819D02*
X124807143Y-77564819D01*
X124807143Y-77564819D02*
X124711905Y-77517200D01*
X124711905Y-77517200D02*
X124664286Y-77469580D01*
X153954819Y-79161904D02*
X154764342Y-79161904D01*
X154764342Y-79161904D02*
X154859580Y-79114285D01*
X154859580Y-79114285D02*
X154907200Y-79066666D01*
X154907200Y-79066666D02*
X154954819Y-78971428D01*
X154954819Y-78971428D02*
X154954819Y-78780952D01*
X154954819Y-78780952D02*
X154907200Y-78685714D01*
X154907200Y-78685714D02*
X154859580Y-78638095D01*
X154859580Y-78638095D02*
X154764342Y-78590476D01*
X154764342Y-78590476D02*
X153954819Y-78590476D01*
X154288152Y-77685714D02*
X154954819Y-77685714D01*
X153907200Y-77923809D02*
X154621485Y-78161904D01*
X154621485Y-78161904D02*
X154621485Y-77542857D01*
D12*
%TO.C,J3*%
X127620000Y-86170000D02*
X127620000Y-88930000D01*
X150590000Y-86170000D02*
X127620000Y-86170000D01*
X150590000Y-86170000D02*
X150590000Y-88930000D01*
X150590000Y-88930000D02*
X127620000Y-88930000D01*
X151860000Y-86170000D02*
X153240000Y-86170000D01*
X153240000Y-86170000D02*
X153240000Y-87550000D01*
%TO.C,R2*%
X175422936Y-71690000D02*
X176877064Y-71690000D01*
X175422936Y-73510000D02*
X176877064Y-73510000D01*
%TO.C,U3*%
X174505000Y-78625000D02*
X174505000Y-76675000D01*
X174505000Y-78625000D02*
X174505000Y-80575000D01*
X179625000Y-78625000D02*
X179625000Y-76675000D01*
X179625000Y-78625000D02*
X179625000Y-80575000D01*
X174600000Y-81325000D02*
X174270000Y-81565000D01*
X174270000Y-81085000D01*
X174600000Y-81325000D01*
G36*
X174600000Y-81325000D02*
G01*
X174270000Y-81565000D01*
X174270000Y-81085000D01*
X174600000Y-81325000D01*
G37*
%TO.C,C3*%
X170748752Y-72690000D02*
X169326248Y-72690000D01*
X170748752Y-74510000D02*
X169326248Y-74510000D01*
%TO.C,R6*%
X120272936Y-72340000D02*
X121727064Y-72340000D01*
X120272936Y-74160000D02*
X121727064Y-74160000D01*
%TO.C,R4*%
X175422936Y-68990000D02*
X176877064Y-68990000D01*
X175422936Y-70810000D02*
X176877064Y-70810000D01*
%TO.C,J1*%
X123990000Y-59820000D02*
X175010000Y-59820000D01*
X123990000Y-62470000D02*
X123990000Y-59820000D01*
X123990000Y-65120000D02*
X123990000Y-63740000D01*
X125370000Y-65120000D02*
X123990000Y-65120000D01*
X126640000Y-62470000D02*
X123990000Y-62470000D01*
X126640000Y-65120000D02*
X126640000Y-62470000D01*
X126640000Y-65120000D02*
X175010000Y-65120000D01*
X175010000Y-65120000D02*
X175010000Y-59820000D01*
%TO.C,R1*%
X168772936Y-66390000D02*
X170227064Y-66390000D01*
X168772936Y-68210000D02*
X170227064Y-68210000D01*
%TO.C,J2*%
X127590000Y-66670000D02*
X127590000Y-69430000D01*
X150560000Y-66670000D02*
X127590000Y-66670000D01*
X150560000Y-66670000D02*
X150560000Y-69430000D01*
X150560000Y-69430000D02*
X127590000Y-69430000D01*
X151830000Y-66670000D02*
X153210000Y-66670000D01*
X153210000Y-66670000D02*
X153210000Y-68050000D01*
%TO.C,U1*%
X126920000Y-74040000D02*
X127165000Y-74040000D01*
X126920000Y-77900000D02*
X126920000Y-74040000D01*
X126920000Y-77900000D02*
X126920000Y-81760000D01*
X126920000Y-81760000D02*
X127165000Y-81760000D01*
X145040000Y-74040000D02*
X144795000Y-74040000D01*
X145040000Y-77900000D02*
X145040000Y-74040000D01*
X145040000Y-77900000D02*
X145040000Y-81760000D01*
X145040000Y-81760000D02*
X144795000Y-81760000D01*
X145265000Y-73527500D02*
X144795000Y-73187500D01*
X145265000Y-72847500D01*
X145265000Y-73527500D01*
G36*
X145265000Y-73527500D02*
G01*
X144795000Y-73187500D01*
X145265000Y-72847500D01*
X145265000Y-73527500D01*
G37*
%TO.C,R3*%
X175422936Y-66290000D02*
X176877064Y-66290000D01*
X175422936Y-68110000D02*
X176877064Y-68110000D01*
%TO.C,C2*%
X155680000Y-72401252D02*
X155680000Y-70978748D01*
X157500000Y-72401252D02*
X157500000Y-70978748D01*
%TO.C,J4*%
X154050000Y-88930000D02*
X154050000Y-87550000D01*
X155430000Y-88930000D02*
X154050000Y-88930000D01*
X156700000Y-86170000D02*
X174590000Y-86170000D01*
X156700000Y-88930000D02*
X156700000Y-86170000D01*
X156700000Y-88930000D02*
X174590000Y-88930000D01*
X174590000Y-88930000D02*
X174590000Y-86170000D01*
%TO.C,C1*%
X120288748Y-79840000D02*
X121711252Y-79840000D01*
X120288748Y-81660000D02*
X121711252Y-81660000D01*
%TO.C,J5*%
X169420000Y-76020000D02*
X170800000Y-76020000D01*
X169420000Y-77400000D02*
X169420000Y-76020000D01*
X169420000Y-78670000D02*
X169420000Y-81320000D01*
X169420000Y-78670000D02*
X172180000Y-78670000D01*
X169420000Y-81320000D02*
X172180000Y-81320000D01*
X172180000Y-78670000D02*
X172180000Y-81320000D01*
%TO.C,R5*%
X120272936Y-76090000D02*
X121727064Y-76090000D01*
X120272936Y-77910000D02*
X121727064Y-77910000D01*
%TO.C,U4*%
X155340000Y-78400000D02*
X155340000Y-76450000D01*
X155340000Y-78400000D02*
X155340000Y-80350000D01*
X165460000Y-78400000D02*
X165460000Y-76450000D01*
X165460000Y-78400000D02*
X165460000Y-80350000D01*
X155395000Y-81100000D02*
X155065000Y-81340000D01*
X155065000Y-80860000D01*
X155395000Y-81100000D01*
G36*
X155395000Y-81100000D02*
G01*
X155065000Y-81340000D01*
X155065000Y-80860000D01*
X155395000Y-81100000D01*
G37*
%TD*%
M02*
