%TF.GenerationSoftware,KiCad,Pcbnew,9.0.2-9.0.2-0~ubuntu24.04.1*%
%TF.CreationDate,2025-07-08T16:58:14-04:00*%
%TF.ProjectId,GPIO_ADC_uHAT,4750494f-5f41-4444-935f-754841542e6b,rev?*%
%TF.SameCoordinates,Original*%
%TF.FileFunction,Copper,L1,Top*%
%TF.FilePolarity,Positive*%
%FSLAX46Y46*%
G04 Gerber Fmt 4.6, Leading zero omitted, Abs format (unit mm)*
G04 Created by KiCad (PCBNEW 9.0.2-9.0.2-0~ubuntu24.04.1) date 2025-07-08 16:58:14*
%MOMM*%
%LPD*%
G01*
G04 APERTURE LIST*
G04 Aperture macros list*
%AMRoundRect*
0 Rectangle with rounded corners*
0 $1 Rounding radius*
0 $2 $3 $4 $5 $6 $7 $8 $9 X,Y pos of 4 corners*
0 Add a 4 corners polygon primitive as box body*
4,1,4,$2,$3,$4,$5,$6,$7,$8,$9,$2,$3,0*
0 Add four circle primitives for the rounded corners*
1,1,$1+$1,$2,$3*
1,1,$1+$1,$4,$5*
1,1,$1+$1,$6,$7*
1,1,$1+$1,$8,$9*
0 Add four rect primitives between the rounded corners*
20,1,$1+$1,$2,$3,$4,$5,0*
20,1,$1+$1,$4,$5,$6,$7,0*
20,1,$1+$1,$6,$7,$8,$9,0*
20,1,$1+$1,$8,$9,$2,$3,0*%
G04 Aperture macros list end*
%TA.AperFunction,ComponentPad*%
%ADD10R,1.700000X1.700000*%
%TD*%
%TA.AperFunction,ComponentPad*%
%ADD11C,1.700000*%
%TD*%
%TA.AperFunction,SMDPad,CuDef*%
%ADD12RoundRect,0.250000X-0.400000X-0.625000X0.400000X-0.625000X0.400000X0.625000X-0.400000X0.625000X0*%
%TD*%
%TA.AperFunction,SMDPad,CuDef*%
%ADD13RoundRect,0.150000X0.150000X-0.825000X0.150000X0.825000X-0.150000X0.825000X-0.150000X-0.825000X0*%
%TD*%
%TA.AperFunction,SMDPad,CuDef*%
%ADD14RoundRect,0.250000X0.412500X0.650000X-0.412500X0.650000X-0.412500X-0.650000X0.412500X-0.650000X0*%
%TD*%
%TA.AperFunction,SMDPad,CuDef*%
%ADD15RoundRect,0.150000X-0.150000X0.875000X-0.150000X-0.875000X0.150000X-0.875000X0.150000X0.875000X0*%
%TD*%
%TA.AperFunction,SMDPad,CuDef*%
%ADD16RoundRect,0.250000X0.650000X-0.412500X0.650000X0.412500X-0.650000X0.412500X-0.650000X-0.412500X0*%
%TD*%
%TA.AperFunction,SMDPad,CuDef*%
%ADD17RoundRect,0.250000X-0.412500X-0.650000X0.412500X-0.650000X0.412500X0.650000X-0.412500X0.650000X0*%
%TD*%
%TA.AperFunction,ViaPad*%
%ADD18C,0.762000*%
%TD*%
%TA.AperFunction,Conductor*%
%ADD19C,0.304800*%
%TD*%
G04 APERTURE END LIST*
D10*
%TO.P,J3,1,Pin_1*%
%TO.N,GND*%
X151860000Y-87550000D03*
D11*
%TO.P,J3,2,Pin_2*%
%TO.N,+3V3*%
X149320000Y-87550000D03*
%TO.P,J3,3,Pin_3*%
%TO.N,/GPA7*%
X146780000Y-87550000D03*
%TO.P,J3,4,Pin_4*%
%TO.N,/GPA6*%
X144240000Y-87550000D03*
%TO.P,J3,5,Pin_5*%
%TO.N,/GPA5*%
X141700000Y-87550000D03*
%TO.P,J3,6,Pin_6*%
%TO.N,/GPA4*%
X139160000Y-87550000D03*
%TO.P,J3,7,Pin_7*%
%TO.N,/GPA3*%
X136620000Y-87550000D03*
%TO.P,J3,8,Pin_8*%
%TO.N,/GPA2*%
X134080000Y-87550000D03*
%TO.P,J3,9,Pin_9*%
%TO.N,/GPA1*%
X131540000Y-87550000D03*
%TO.P,J3,10,Pin_10*%
%TO.N,/GPA0*%
X129000000Y-87550000D03*
%TD*%
D12*
%TO.P,R2,1*%
%TO.N,+3V3*%
X174600000Y-72600000D03*
%TO.P,R2,2*%
%TO.N,Net-(J5-Pin_1)*%
X177700000Y-72600000D03*
%TD*%
D13*
%TO.P,U3,1,A0*%
%TO.N,GND*%
X175160000Y-81100000D03*
%TO.P,U3,2,A1*%
X176430000Y-81100000D03*
%TO.P,U3,3,A2*%
X177700000Y-81100000D03*
%TO.P,U3,4,GND*%
X178970000Y-81100000D03*
%TO.P,U3,5,SDA*%
%TO.N,ID_SDA*%
X178970000Y-76150000D03*
%TO.P,U3,6,SCL*%
%TO.N,ID_SCL*%
X177700000Y-76150000D03*
%TO.P,U3,7,WP*%
%TO.N,Net-(J5-Pin_1)*%
X176430000Y-76150000D03*
%TO.P,U3,8,VCC*%
%TO.N,+3V3*%
X175160000Y-76150000D03*
%TD*%
D14*
%TO.P,C3,1*%
%TO.N,+3V3*%
X171600000Y-73600000D03*
%TO.P,C3,2*%
%TO.N,GND*%
X168475000Y-73600000D03*
%TD*%
D12*
%TO.P,R6,1*%
%TO.N,+3V3*%
X119450000Y-73250000D03*
%TO.P,R6,2*%
%TO.N,SCL*%
X122550000Y-73250000D03*
%TD*%
%TO.P,R4,1*%
%TO.N,+3V3*%
X174600000Y-69900000D03*
%TO.P,R4,2*%
%TO.N,ID_SCL*%
X177700000Y-69900000D03*
%TD*%
D10*
%TO.P,J1,1,+3V3*%
%TO.N,+3V3*%
X125370000Y-63740000D03*
D11*
%TO.P,J1,2,+5V*%
%TO.N,+5V*%
X125370000Y-61200000D03*
%TO.P,J1,3,GPIO2*%
%TO.N,SDA*%
X127910000Y-63740000D03*
%TO.P,J1,4,+5V*%
%TO.N,+5V*%
X127910000Y-61200000D03*
%TO.P,J1,5,GPIO3*%
%TO.N,SCL*%
X130450000Y-63740000D03*
%TO.P,J1,6,GND*%
%TO.N,GND*%
X130450000Y-61200000D03*
%TO.P,J1,7,GPIO4*%
%TO.N,unconnected-(J1-GPIO4-Pad7)*%
X132990000Y-63740000D03*
%TO.P,J1,8,GPIO14*%
%TO.N,unconnected-(J1-GPIO14-Pad8)*%
X132990000Y-61200000D03*
%TO.P,J1,9,GND*%
%TO.N,GND*%
X135530000Y-63740000D03*
%TO.P,J1,10,GPIO15*%
%TO.N,unconnected-(J1-GPIO15-Pad10)*%
X135530000Y-61200000D03*
%TO.P,J1,11,GPIO17*%
%TO.N,unconnected-(J1-GPIO17-Pad11)*%
X138070000Y-63740000D03*
%TO.P,J1,12,GPIO18*%
%TO.N,unconnected-(J1-GPIO18-Pad12)*%
X138070000Y-61200000D03*
%TO.P,J1,13,GPIO27*%
%TO.N,unconnected-(J1-GPIO27-Pad13)*%
X140610000Y-63740000D03*
%TO.P,J1,14,GND*%
%TO.N,GND*%
X140610000Y-61200000D03*
%TO.P,J1,15,GPIO22*%
%TO.N,unconnected-(J1-GPIO22-Pad15)*%
X143150000Y-63740000D03*
%TO.P,J1,16,GPIO23*%
%TO.N,unconnected-(J1-GPIO23-Pad16)*%
X143150000Y-61200000D03*
%TO.P,J1,17,+3V3*%
%TO.N,+3V3*%
X145690000Y-63740000D03*
%TO.P,J1,18,GPIO24*%
%TO.N,unconnected-(J1-GPIO24-Pad18)*%
X145690000Y-61200000D03*
%TO.P,J1,19,GPIO10*%
%TO.N,MOSI*%
X148230000Y-63740000D03*
%TO.P,J1,20,GND*%
%TO.N,GND*%
X148230000Y-61200000D03*
%TO.P,J1,21,GPIO9*%
%TO.N,MISO*%
X150770000Y-63740000D03*
%TO.P,J1,22,GPIO25*%
%TO.N,unconnected-(J1-GPIO25-Pad22)*%
X150770000Y-61200000D03*
%TO.P,J1,23,GPIO11*%
%TO.N,SCLK*%
X153310000Y-63740000D03*
%TO.P,J1,24,GPIO8*%
%TO.N,CE0*%
X153310000Y-61200000D03*
%TO.P,J1,25,GND*%
%TO.N,GND*%
X155850000Y-63740000D03*
%TO.P,J1,26,GPIO7*%
%TO.N,unconnected-(J1-GPIO7-Pad26)*%
X155850000Y-61200000D03*
%TO.P,J1,27,GPIO0*%
%TO.N,ID_SDA*%
X158390000Y-63740000D03*
%TO.P,J1,28,GPIO1*%
%TO.N,ID_SCL*%
X158390000Y-61200000D03*
%TO.P,J1,29,GPIO5*%
%TO.N,INTB*%
X160930000Y-63740000D03*
%TO.P,J1,30,GND*%
%TO.N,GND*%
X160930000Y-61200000D03*
%TO.P,J1,31,GPIO6*%
%TO.N,INTA*%
X163470000Y-63740000D03*
%TO.P,J1,32,GPIO12*%
%TO.N,unconnected-(J1-GPIO12-Pad32)*%
X163470000Y-61200000D03*
%TO.P,J1,33,GPIO13*%
%TO.N,unconnected-(J1-GPIO13-Pad33)*%
X166010000Y-63740000D03*
%TO.P,J1,34,GND*%
%TO.N,GND*%
X166010000Y-61200000D03*
%TO.P,J1,35,GPIO19*%
%TO.N,unconnected-(J1-GPIO19-Pad35)*%
X168550000Y-63740000D03*
%TO.P,J1,36,GPIO16*%
%TO.N,unconnected-(J1-GPIO16-Pad36)*%
X168550000Y-61200000D03*
%TO.P,J1,37,GPIO26*%
%TO.N,~{RST_23017}*%
X171090000Y-63740000D03*
%TO.P,J1,38,GPIO20*%
%TO.N,unconnected-(J1-GPIO20-Pad38)*%
X171090000Y-61200000D03*
%TO.P,J1,39,GND*%
%TO.N,GND*%
X173630000Y-63740000D03*
%TO.P,J1,40,GPIO21*%
%TO.N,unconnected-(J1-GPIO21-Pad40)*%
X173630000Y-61200000D03*
%TD*%
D12*
%TO.P,R1,1*%
%TO.N,+3V3*%
X167950000Y-67300000D03*
%TO.P,R1,2*%
%TO.N,~{RST_23017}*%
X171050000Y-67300000D03*
%TD*%
D10*
%TO.P,J2,1,Pin_1*%
%TO.N,GND*%
X151830000Y-68050000D03*
D11*
%TO.P,J2,2,Pin_2*%
%TO.N,+3V3*%
X149290000Y-68050000D03*
%TO.P,J2,3,Pin_3*%
%TO.N,/GPB0*%
X146750000Y-68050000D03*
%TO.P,J2,4,Pin_4*%
%TO.N,/GPB1*%
X144210000Y-68050000D03*
%TO.P,J2,5,Pin_5*%
%TO.N,/GPB2*%
X141670000Y-68050000D03*
%TO.P,J2,6,Pin_6*%
%TO.N,/GPB3*%
X139130000Y-68050000D03*
%TO.P,J2,7,Pin_7*%
%TO.N,/GPB4*%
X136590000Y-68050000D03*
%TO.P,J2,8,Pin_8*%
%TO.N,/GPB5*%
X134050000Y-68050000D03*
%TO.P,J2,9,Pin_9*%
%TO.N,/GPB6*%
X131510000Y-68050000D03*
%TO.P,J2,10,Pin_10*%
%TO.N,/GPB7*%
X128970000Y-68050000D03*
%TD*%
D15*
%TO.P,U1,1,GPB0*%
%TO.N,/GPB0*%
X144235000Y-73250000D03*
%TO.P,U1,2,GPB1*%
%TO.N,/GPB1*%
X142965000Y-73250000D03*
%TO.P,U1,3,GPB2*%
%TO.N,/GPB2*%
X141695000Y-73250000D03*
%TO.P,U1,4,GPB3*%
%TO.N,/GPB3*%
X140425000Y-73250000D03*
%TO.P,U1,5,GPB4*%
%TO.N,/GPB4*%
X139155000Y-73250000D03*
%TO.P,U1,6,GPB5*%
%TO.N,/GPB5*%
X137885000Y-73250000D03*
%TO.P,U1,7,GPB6*%
%TO.N,/GPB6*%
X136615000Y-73250000D03*
%TO.P,U1,8,GPB7*%
%TO.N,/GPB7*%
X135345000Y-73250000D03*
%TO.P,U1,9,VDD*%
%TO.N,+3V3*%
X134075000Y-73250000D03*
%TO.P,U1,10,VSS*%
%TO.N,GND*%
X132805000Y-73250000D03*
%TO.P,U1,11,NC*%
%TO.N,unconnected-(U1-NC-Pad11)*%
X131535000Y-73250000D03*
%TO.P,U1,12,SCK*%
%TO.N,SCL*%
X130265000Y-73250000D03*
%TO.P,U1,13,SDA*%
%TO.N,SDA*%
X128995000Y-73250000D03*
%TO.P,U1,14,NC*%
%TO.N,unconnected-(U1-NC-Pad14)*%
X127725000Y-73250000D03*
%TO.P,U1,15,A0*%
%TO.N,GND*%
X127725000Y-82550000D03*
%TO.P,U1,16,A1*%
X128995000Y-82550000D03*
%TO.P,U1,17,A2*%
X130265000Y-82550000D03*
%TO.P,U1,18,~{RESET}*%
%TO.N,~{RST_23017}*%
X131535000Y-82550000D03*
%TO.P,U1,19,INTB*%
%TO.N,INTB*%
X132805000Y-82550000D03*
%TO.P,U1,20,INTA*%
%TO.N,INTA*%
X134075000Y-82550000D03*
%TO.P,U1,21,GPA0*%
%TO.N,/GPA0*%
X135345000Y-82550000D03*
%TO.P,U1,22,GPA1*%
%TO.N,/GPA1*%
X136615000Y-82550000D03*
%TO.P,U1,23,GPA2*%
%TO.N,/GPA2*%
X137885000Y-82550000D03*
%TO.P,U1,24,GPA3*%
%TO.N,/GPA3*%
X139155000Y-82550000D03*
%TO.P,U1,25,GPA4*%
%TO.N,/GPA4*%
X140425000Y-82550000D03*
%TO.P,U1,26,GPA5*%
%TO.N,/GPA5*%
X141695000Y-82550000D03*
%TO.P,U1,27,GPA6*%
%TO.N,/GPA6*%
X142965000Y-82550000D03*
%TO.P,U1,28,GPA7*%
%TO.N,/GPA7*%
X144235000Y-82550000D03*
%TD*%
D12*
%TO.P,R3,1*%
%TO.N,+3V3*%
X174600000Y-67200000D03*
%TO.P,R3,2*%
%TO.N,ID_SDA*%
X177700000Y-67200000D03*
%TD*%
D16*
%TO.P,C2,1*%
%TO.N,+3V3*%
X156590000Y-73252500D03*
%TO.P,C2,2*%
%TO.N,GND*%
X156590000Y-70127500D03*
%TD*%
D10*
%TO.P,J4,1,Pin_1*%
%TO.N,/CH0*%
X155430000Y-87550000D03*
D11*
%TO.P,J4,2,Pin_2*%
%TO.N,/CH1*%
X157970000Y-87550000D03*
%TO.P,J4,3,Pin_3*%
%TO.N,/CH2*%
X160510000Y-87550000D03*
%TO.P,J4,4,Pin_4*%
%TO.N,/CH3*%
X163050000Y-87550000D03*
%TO.P,J4,5,Pin_5*%
%TO.N,/CH4*%
X165590000Y-87550000D03*
%TO.P,J4,6,Pin_6*%
%TO.N,/CH5*%
X168130000Y-87550000D03*
%TO.P,J4,7,Pin_7*%
%TO.N,/CH6*%
X170670000Y-87550000D03*
%TO.P,J4,8,Pin_8*%
%TO.N,/CH7*%
X173210000Y-87550000D03*
%TD*%
D17*
%TO.P,C1,1*%
%TO.N,+3V3*%
X119437500Y-80750000D03*
%TO.P,C1,2*%
%TO.N,GND*%
X122562500Y-80750000D03*
%TD*%
D10*
%TO.P,J5,1,Pin_1*%
%TO.N,Net-(J5-Pin_1)*%
X170800000Y-77400000D03*
D11*
%TO.P,J5,2,Pin_2*%
%TO.N,GND*%
X170800000Y-79940000D03*
%TD*%
D12*
%TO.P,R5,1*%
%TO.N,+3V3*%
X119450000Y-77000000D03*
%TO.P,R5,2*%
%TO.N,SDA*%
X122550000Y-77000000D03*
%TD*%
D13*
%TO.P,U4,1,CH0*%
%TO.N,/CH0*%
X155955000Y-80875000D03*
%TO.P,U4,2,CH1*%
%TO.N,/CH1*%
X157225000Y-80875000D03*
%TO.P,U4,3,CH2*%
%TO.N,/CH2*%
X158495000Y-80875000D03*
%TO.P,U4,4,CH3*%
%TO.N,/CH3*%
X159765000Y-80875000D03*
%TO.P,U4,5,CH4*%
%TO.N,/CH4*%
X161035000Y-80875000D03*
%TO.P,U4,6,CH5*%
%TO.N,/CH5*%
X162305000Y-80875000D03*
%TO.P,U4,7,CH6*%
%TO.N,/CH6*%
X163575000Y-80875000D03*
%TO.P,U4,8,CH7*%
%TO.N,/CH7*%
X164845000Y-80875000D03*
%TO.P,U4,9,DGND*%
%TO.N,GND*%
X164845000Y-75925000D03*
%TO.P,U4,10,~{CS}/SHDN*%
%TO.N,CE0*%
X163575000Y-75925000D03*
%TO.P,U4,11,Din*%
%TO.N,MOSI*%
X162305000Y-75925000D03*
%TO.P,U4,12,Dout*%
%TO.N,MISO*%
X161035000Y-75925000D03*
%TO.P,U4,13,CLK*%
%TO.N,SCLK*%
X159765000Y-75925000D03*
%TO.P,U4,14,AGND*%
%TO.N,GND*%
X158495000Y-75925000D03*
%TO.P,U4,15,Vref*%
%TO.N,+3V3*%
X157225000Y-75925000D03*
%TO.P,U4,16,Vdd*%
X155955000Y-75925000D03*
%TD*%
D18*
%TO.N,GND*%
X151000000Y-82250000D03*
X120500000Y-88250000D03*
X167250000Y-69500000D03*
X172750000Y-71250000D03*
X164750000Y-69500000D03*
X165000000Y-65750000D03*
X126000000Y-86500000D03*
X137000000Y-65750000D03*
X153750000Y-84500000D03*
X152750000Y-75000000D03*
X180750000Y-87000000D03*
X125250000Y-80000000D03*
X129250000Y-80000000D03*
X122750000Y-62500000D03*
X147500000Y-83250000D03*
X158500000Y-71000000D03*
X173250000Y-75250000D03*
X122500000Y-88250000D03*
X139000000Y-76500000D03*
X146000000Y-83250000D03*
X124250000Y-82500000D03*
X126000000Y-88250000D03*
X164250000Y-78250000D03*
X174750000Y-65500000D03*
X174750000Y-84000000D03*
X164750000Y-71750000D03*
X151000000Y-83750000D03*
X122500000Y-61000000D03*
X118250000Y-86000000D03*
X166500000Y-78250000D03*
X152750000Y-76750000D03*
X118000000Y-65000000D03*
X118500000Y-87500000D03*
X137250000Y-77500000D03*
X146000000Y-81000000D03*
X140750000Y-77500000D03*
X168500000Y-78250000D03*
X180750000Y-84750000D03*
X124250000Y-84500000D03*
X139500000Y-65750000D03*
X135750000Y-76500000D03*
X142750000Y-76500000D03*
X178750000Y-60000000D03*
X152750000Y-82250000D03*
X172500000Y-65750000D03*
X180750000Y-80000000D03*
X151000000Y-76750000D03*
X170250000Y-71750000D03*
X179000000Y-88250000D03*
X118250000Y-82750000D03*
X151000000Y-80500000D03*
X180750000Y-82250000D03*
X166000000Y-70750000D03*
X179750000Y-64750000D03*
X180750000Y-62250000D03*
X180750000Y-75250000D03*
X173500000Y-81000000D03*
X118250000Y-62500000D03*
X124250000Y-86500000D03*
X166500000Y-65750000D03*
X121000000Y-82750000D03*
X179000000Y-78500000D03*
X126000000Y-82500000D03*
X152750000Y-80500000D03*
X172000000Y-82750000D03*
X151000000Y-75000000D03*
X156000000Y-68000000D03*
X124250000Y-88250000D03*
X180750000Y-77250000D03*
X157000000Y-71750000D03*
X126000000Y-84500000D03*
X128500000Y-77000000D03*
X166500000Y-76000000D03*
X130250000Y-76500000D03*
X142500000Y-65750000D03*
X118250000Y-84250000D03*
X147500000Y-77250000D03*
X176750000Y-88250000D03*
X147500000Y-81000000D03*
X160000000Y-72750000D03*
X181000000Y-66000000D03*
X119750000Y-60000000D03*
X162250000Y-66750000D03*
X134250000Y-65750000D03*
%TO.N,+3V3*%
X164700000Y-67300000D03*
X149290000Y-77200000D03*
X158360000Y-73190000D03*
%TO.N,INTA*%
X152450000Y-71620000D03*
%TO.N,INTB*%
X153160000Y-70460000D03*
%TO.N,~{RST_23017}*%
X132350000Y-79120000D03*
X171050000Y-69000000D03*
%TD*%
D19*
%TO.N,GND*%
X132805000Y-73250000D02*
X132805000Y-73945000D01*
X132805000Y-73945000D02*
X130250000Y-76500000D01*
X156590000Y-70127500D02*
X158127500Y-70127500D01*
X158500000Y-70500000D02*
X158500000Y-71000000D01*
X156590000Y-70127500D02*
X156590000Y-68590000D01*
X156590000Y-68590000D02*
X156000000Y-68000000D01*
X158127500Y-70127500D02*
X158500000Y-70500000D01*
%TO.N,+3V3*%
X175160000Y-75010000D02*
X174600000Y-74450000D01*
X172600000Y-68200000D02*
X172600000Y-69200000D01*
X156590000Y-74240000D02*
X156590000Y-73252500D01*
X173600000Y-67200000D02*
X172600000Y-68200000D01*
X123010000Y-63740000D02*
X119450000Y-67300000D01*
X174600000Y-74450000D02*
X174600000Y-72600000D01*
X174600000Y-69900000D02*
X174600000Y-67200000D01*
X146620000Y-66340000D02*
X148250000Y-66340000D01*
X156657500Y-73320000D02*
X156590000Y-73252500D01*
X149320000Y-77230000D02*
X149320000Y-87550000D01*
X169450000Y-70000000D02*
X167950000Y-68500000D01*
X125370000Y-63740000D02*
X125370000Y-62901865D01*
X155955000Y-75925000D02*
X155955000Y-74875000D01*
X134075000Y-74925000D02*
X130250000Y-78750000D01*
X145363400Y-62403400D02*
X145690000Y-62730000D01*
X167950000Y-68500000D02*
X167950000Y-67300000D01*
X149290000Y-67380000D02*
X149290000Y-68050000D01*
X145690000Y-63740000D02*
X145690000Y-65410000D01*
X149290000Y-77200000D02*
X149320000Y-77230000D01*
X171800000Y-70000000D02*
X171600000Y-70000000D01*
X119450000Y-67300000D02*
X119450000Y-73250000D01*
X145690000Y-65410000D02*
X146620000Y-66340000D01*
X175160000Y-76150000D02*
X175160000Y-75010000D01*
X130250000Y-78750000D02*
X119450000Y-78750000D01*
X125868465Y-62403400D02*
X145363400Y-62403400D01*
X125370000Y-62901865D02*
X125868465Y-62403400D01*
X171600000Y-70000000D02*
X169450000Y-70000000D01*
X172600000Y-69200000D02*
X171800000Y-70000000D01*
X119450000Y-80737500D02*
X119437500Y-80750000D01*
X125370000Y-63740000D02*
X123010000Y-63740000D01*
X134075000Y-73250000D02*
X134075000Y-74925000D01*
X174600000Y-72600000D02*
X174600000Y-69900000D01*
X145690000Y-62730000D02*
X145690000Y-63740000D01*
X155955000Y-74875000D02*
X156590000Y-74240000D01*
X119450000Y-77000000D02*
X119450000Y-78750000D01*
X158360000Y-73190000D02*
X156652500Y-73190000D01*
X119450000Y-78750000D02*
X119450000Y-80737500D01*
X156652500Y-73190000D02*
X156590000Y-73252500D01*
X164700000Y-67300000D02*
X167950000Y-67300000D01*
X171600000Y-73600000D02*
X171600000Y-70000000D01*
X148250000Y-66340000D02*
X149290000Y-67380000D01*
X157225000Y-75925000D02*
X155955000Y-75925000D01*
X174600000Y-67200000D02*
X173600000Y-67200000D01*
X119450000Y-73250000D02*
X119450000Y-77000000D01*
%TO.N,ID_SCL*%
X176740000Y-69900000D02*
X177700000Y-69900000D01*
X175634200Y-64734200D02*
X176250000Y-65350000D01*
X176250000Y-69410000D02*
X176740000Y-69900000D01*
X158390000Y-61200000D02*
X159080000Y-61200000D01*
X159080000Y-61200000D02*
X160340000Y-62460000D01*
X177700000Y-75150000D02*
X179370000Y-73480000D01*
X178810000Y-69900000D02*
X177700000Y-69900000D01*
X179370000Y-70460000D02*
X178810000Y-69900000D01*
X175634200Y-63594200D02*
X175634200Y-64734200D01*
X179370000Y-73480000D02*
X179370000Y-70460000D01*
X174500000Y-62460000D02*
X175634200Y-63594200D01*
X177700000Y-76150000D02*
X177700000Y-75150000D01*
X176250000Y-65350000D02*
X176250000Y-69410000D01*
X160340000Y-62460000D02*
X174500000Y-62460000D01*
%TO.N,SDA*%
X128995000Y-73250000D02*
X128995000Y-74505000D01*
X127910000Y-63740000D02*
X127910000Y-64840000D01*
X121000000Y-76500000D02*
X121500000Y-77000000D01*
X127910000Y-64840000D02*
X127255800Y-65494200D01*
X121000000Y-69500000D02*
X121000000Y-76500000D01*
X127255800Y-65494200D02*
X125005800Y-65494200D01*
X126500000Y-77000000D02*
X122550000Y-77000000D01*
X121500000Y-77000000D02*
X122550000Y-77000000D01*
X128995000Y-74505000D02*
X126500000Y-77000000D01*
X125005800Y-65494200D02*
X121000000Y-69500000D01*
%TO.N,+5V*%
X125370000Y-61200000D02*
X127910000Y-61200000D01*
%TO.N,SCLK*%
X161250000Y-71650000D02*
X154460000Y-64860000D01*
X159765000Y-75925000D02*
X159765000Y-74735000D01*
X154460000Y-64860000D02*
X153720000Y-64860000D01*
X153310000Y-64450000D02*
X153310000Y-63740000D01*
X161250000Y-73250000D02*
X161250000Y-71650000D01*
X159765000Y-74735000D02*
X161250000Y-73250000D01*
X153720000Y-64860000D02*
X153310000Y-64450000D01*
%TO.N,MOSI*%
X148750000Y-65950000D02*
X153900000Y-65950000D01*
X148230000Y-65430000D02*
X148750000Y-65950000D01*
X154140000Y-66190000D02*
X154140000Y-77195309D01*
X161994200Y-78905800D02*
X162305000Y-78595000D01*
X154140000Y-77195309D02*
X155850491Y-78905800D01*
X162305000Y-78595000D02*
X162305000Y-75925000D01*
X153900000Y-65950000D02*
X154140000Y-66190000D01*
X148230000Y-63740000D02*
X148230000Y-65430000D01*
X155850491Y-78905800D02*
X161994200Y-78905800D01*
%TO.N,MISO*%
X151584200Y-65444200D02*
X154109510Y-65444200D01*
X154650000Y-76990000D02*
X156060000Y-78400000D01*
X156060000Y-78400000D02*
X160550000Y-78400000D01*
X160550000Y-78400000D02*
X161035000Y-77915000D01*
X161035000Y-77915000D02*
X161035000Y-75925000D01*
X154109510Y-65444200D02*
X154650000Y-65984690D01*
X150770000Y-64630000D02*
X151584200Y-65444200D01*
X150770000Y-63740000D02*
X150770000Y-64630000D01*
X154650000Y-65984690D02*
X154650000Y-76990000D01*
%TO.N,ID_SDA*%
X178970000Y-75000000D02*
X180210000Y-73760000D01*
X178970000Y-76150000D02*
X178970000Y-75000000D01*
X180210000Y-73760000D02*
X180210000Y-68060000D01*
X157120000Y-61830000D02*
X157120000Y-60320000D01*
X176140000Y-60480000D02*
X176140000Y-64030000D01*
X175570000Y-59910000D02*
X176140000Y-60480000D01*
X176140000Y-64030000D02*
X177700000Y-65590000D01*
X157120000Y-60320000D02*
X157530000Y-59910000D01*
X157530000Y-59910000D02*
X175570000Y-59910000D01*
X180210000Y-68060000D02*
X179350000Y-67200000D01*
X158390000Y-63740000D02*
X158390000Y-63100000D01*
X179350000Y-67200000D02*
X177700000Y-67200000D01*
X177700000Y-65590000D02*
X177700000Y-67200000D01*
X158390000Y-63100000D02*
X157120000Y-61830000D01*
%TO.N,INTA*%
X147190000Y-72690000D02*
X147190000Y-75440000D01*
X143314200Y-79315800D02*
X135234200Y-79315800D01*
X135234200Y-79315800D02*
X134075000Y-80475000D01*
X134075000Y-80475000D02*
X134075000Y-82550000D01*
X152450000Y-71620000D02*
X148260000Y-71620000D01*
X148260000Y-71620000D02*
X147190000Y-72690000D01*
X147190000Y-75440000D02*
X143314200Y-79315800D01*
%TO.N,SCL*%
X122550000Y-68700000D02*
X122550000Y-71000000D01*
X125000000Y-66500000D02*
X125000000Y-66250000D01*
X129750000Y-66000000D02*
X125250000Y-66000000D01*
X125250000Y-66000000D02*
X125000000Y-66250000D01*
X130265000Y-73250000D02*
X130265000Y-71765000D01*
X130450000Y-63740000D02*
X130450000Y-65300000D01*
X130265000Y-71765000D02*
X125000000Y-66500000D01*
X130450000Y-65300000D02*
X129750000Y-66000000D01*
X125000000Y-66250000D02*
X122550000Y-68700000D01*
X122550000Y-71000000D02*
X122550000Y-73250000D01*
%TO.N,Net-(J5-Pin_1)*%
X173700000Y-77750000D02*
X173350000Y-77400000D01*
X176430000Y-77370000D02*
X176050000Y-77750000D01*
X176430000Y-76150000D02*
X176430000Y-75000000D01*
X176050000Y-77750000D02*
X173700000Y-77750000D01*
X173350000Y-77400000D02*
X170800000Y-77400000D01*
X176430000Y-75000000D02*
X177700000Y-73730000D01*
X176430000Y-76150000D02*
X176430000Y-77370000D01*
X177700000Y-73730000D02*
X177700000Y-72600000D01*
%TO.N,INTB*%
X153160000Y-70460000D02*
X148340000Y-70460000D01*
X146490000Y-75220000D02*
X142900000Y-78810000D01*
X142900000Y-78810000D02*
X134320000Y-78810000D01*
X132805000Y-80325000D02*
X132805000Y-82550000D01*
X146490000Y-72310000D02*
X146490000Y-75220000D01*
X148340000Y-70460000D02*
X146490000Y-72310000D01*
X134320000Y-78810000D02*
X132805000Y-80325000D01*
%TO.N,/GPB5*%
X136538400Y-70588400D02*
X137885000Y-71935000D01*
X134050000Y-68050000D02*
X134050000Y-70288400D01*
X134050000Y-70288400D02*
X134350000Y-70588400D01*
X137885000Y-71935000D02*
X137885000Y-73250000D01*
X134350000Y-70588400D02*
X136538400Y-70588400D01*
%TO.N,CE0*%
X153310000Y-61200000D02*
X154560000Y-62450000D01*
X163575000Y-71225000D02*
X163575000Y-75925000D01*
X157186600Y-64836600D02*
X163575000Y-71225000D01*
X154560000Y-62450000D02*
X156261865Y-62450000D01*
X156261865Y-62450000D02*
X157186600Y-63374735D01*
X157186600Y-63374735D02*
X157186600Y-64836600D01*
%TO.N,~{RST_23017}*%
X132350000Y-79120000D02*
X131535000Y-79935000D01*
X131535000Y-79935000D02*
X131535000Y-82550000D01*
X171050000Y-67300000D02*
X171050000Y-69000000D01*
%TO.N,/GPB7*%
X134950000Y-71600000D02*
X135345000Y-71995000D01*
X128970000Y-68929510D02*
X131640491Y-71600000D01*
X128970000Y-68050000D02*
X128970000Y-68929510D01*
X131640491Y-71600000D02*
X134950000Y-71600000D01*
X135345000Y-71995000D02*
X135345000Y-73250000D01*
%TO.N,/GPB4*%
X136590000Y-69790000D02*
X139155000Y-72355000D01*
X136590000Y-68050000D02*
X136590000Y-69790000D01*
X139155000Y-72355000D02*
X139155000Y-73250000D01*
%TO.N,/GPB0*%
X146750000Y-68050000D02*
X144235000Y-70565000D01*
X144235000Y-70565000D02*
X144235000Y-73250000D01*
%TO.N,/GPB2*%
X141670000Y-73225000D02*
X141695000Y-73250000D01*
X141670000Y-68050000D02*
X141670000Y-73225000D01*
%TO.N,/GPB6*%
X131510000Y-68050000D02*
X131510000Y-70754200D01*
X131510000Y-70754200D02*
X131850000Y-71094200D01*
X136615000Y-71965000D02*
X136615000Y-73250000D01*
X131850000Y-71094200D02*
X135744200Y-71094200D01*
X135744200Y-71094200D02*
X136615000Y-71965000D01*
%TO.N,/GPB1*%
X142965000Y-71035000D02*
X142965000Y-73250000D01*
X144210000Y-69790000D02*
X142965000Y-71035000D01*
X144210000Y-68050000D02*
X144210000Y-69790000D01*
%TO.N,/GPB3*%
X139130000Y-68050000D02*
X139130000Y-70930000D01*
X140425000Y-72225001D02*
X140425000Y-73250000D01*
X139130000Y-70930000D02*
X140425000Y-72225001D01*
%TO.N,/GPA6*%
X144240000Y-86340000D02*
X144240000Y-87550000D01*
X142965000Y-82550000D02*
X142965000Y-85065000D01*
X142965000Y-85065000D02*
X144240000Y-86340000D01*
%TO.N,/GPA3*%
X139155000Y-82550000D02*
X139155000Y-83695000D01*
X139155000Y-83695000D02*
X136600000Y-86250000D01*
X136600000Y-86250000D02*
X136600000Y-87530000D01*
X136600000Y-87530000D02*
X136620000Y-87550000D01*
%TO.N,/GPA5*%
X141695000Y-82550000D02*
X141695000Y-87545000D01*
X141695000Y-87545000D02*
X141700000Y-87550000D01*
%TO.N,/GPA4*%
X140425000Y-82550000D02*
X140425000Y-84075000D01*
X139160000Y-85340000D02*
X139160000Y-87550000D01*
X140425000Y-84075000D02*
X139160000Y-85340000D01*
%TO.N,/GPA0*%
X129000000Y-84950000D02*
X129000000Y-87550000D01*
X135345000Y-82550000D02*
X135345000Y-83505000D01*
X135345000Y-83505000D02*
X134800000Y-84050000D01*
X134800000Y-84050000D02*
X129900000Y-84050000D01*
X129900000Y-84050000D02*
X129000000Y-84950000D01*
%TO.N,/GPA7*%
X144235000Y-83735000D02*
X144235000Y-82550000D01*
X146780000Y-86280000D02*
X144235000Y-83735000D01*
X146780000Y-87550000D02*
X146780000Y-86280000D01*
%TO.N,/GPA2*%
X134080000Y-85720000D02*
X134080000Y-87550000D01*
X136588400Y-85061600D02*
X134738400Y-85061600D01*
X137885000Y-83765000D02*
X136588400Y-85061600D01*
X134738400Y-85061600D02*
X134080000Y-85720000D01*
X137885000Y-82550000D02*
X137885000Y-83765000D01*
%TO.N,/GPA1*%
X136615000Y-83735000D02*
X135794200Y-84555800D01*
X135794200Y-84555800D02*
X131894200Y-84555800D01*
X136615000Y-82550000D02*
X136615000Y-83735000D01*
X131540000Y-84910000D02*
X131540000Y-87550000D01*
X131894200Y-84555800D02*
X131540000Y-84910000D01*
%TO.N,/CH5*%
X162305000Y-83555000D02*
X162900000Y-84150000D01*
X168100000Y-87520000D02*
X168130000Y-87550000D01*
X166000000Y-84150000D02*
X168100000Y-86250000D01*
X168100000Y-86250000D02*
X168100000Y-87520000D01*
X162305000Y-80875000D02*
X162305000Y-83555000D01*
X162900000Y-84150000D02*
X166000000Y-84150000D01*
%TO.N,/CH0*%
X155430000Y-83370000D02*
X155955000Y-82845000D01*
X155430000Y-87550000D02*
X155430000Y-83370000D01*
X155955000Y-82845000D02*
X155955000Y-80875000D01*
%TO.N,/CH2*%
X160510000Y-87550000D02*
X160510000Y-86310000D01*
X160510000Y-86310000D02*
X158495000Y-84295000D01*
X158495000Y-84295000D02*
X158495000Y-80875000D01*
%TO.N,/CH4*%
X165590000Y-86840000D02*
X165590000Y-87550000D01*
X161035000Y-84085000D02*
X162100000Y-85150000D01*
X161035000Y-80875000D02*
X161035000Y-84085000D01*
X163900000Y-85150000D02*
X165590000Y-86840000D01*
X162100000Y-85150000D02*
X163900000Y-85150000D01*
%TO.N,/CH7*%
X173210000Y-86710000D02*
X173210000Y-87550000D01*
X167375000Y-80875000D02*
X173210000Y-86710000D01*
X164845000Y-80875000D02*
X167375000Y-80875000D01*
%TO.N,/CH1*%
X157225000Y-84625000D02*
X157970000Y-85370000D01*
X157225000Y-80875000D02*
X157225000Y-84625000D01*
X157970000Y-85370000D02*
X157970000Y-87550000D01*
%TO.N,/CH6*%
X163575000Y-83175000D02*
X164000000Y-83600000D01*
X170670000Y-85620000D02*
X170670000Y-87550000D01*
X168650000Y-83600000D02*
X170670000Y-85620000D01*
X163575000Y-80875000D02*
X163575000Y-83175000D01*
X164000000Y-83600000D02*
X168650000Y-83600000D01*
%TO.N,/CH3*%
X163050000Y-86650000D02*
X163050000Y-87550000D01*
X159765000Y-80875000D02*
X159765000Y-84849690D01*
X159765000Y-84849690D02*
X160765310Y-85850000D01*
X162250000Y-85850000D02*
X163050000Y-86650000D01*
X160765310Y-85850000D02*
X162250000Y-85850000D01*
%TD*%
%TA.AperFunction,Conductor*%
%TO.N,GND*%
G36*
X156833836Y-59470185D02*
G01*
X156879591Y-59522989D01*
X156889535Y-59592147D01*
X156860510Y-59655703D01*
X156854478Y-59662181D01*
X156612863Y-59903794D01*
X156612860Y-59903797D01*
X156589738Y-59938403D01*
X156536125Y-59983208D01*
X156466800Y-59991915D01*
X156430342Y-59979997D01*
X156368417Y-59948445D01*
X156368414Y-59948444D01*
X156368412Y-59948443D01*
X156166243Y-59882754D01*
X156166241Y-59882753D01*
X156166240Y-59882753D01*
X156004957Y-59857208D01*
X155956287Y-59849500D01*
X155743713Y-59849500D01*
X155695042Y-59857208D01*
X155533760Y-59882753D01*
X155331585Y-59948444D01*
X155142179Y-60044951D01*
X154970213Y-60169890D01*
X154819890Y-60320213D01*
X154694949Y-60492182D01*
X154690484Y-60500946D01*
X154642509Y-60551742D01*
X154574688Y-60568536D01*
X154508553Y-60545998D01*
X154469516Y-60500946D01*
X154465050Y-60492182D01*
X154340109Y-60320213D01*
X154189786Y-60169890D01*
X154017820Y-60044951D01*
X153828414Y-59948444D01*
X153828413Y-59948443D01*
X153828412Y-59948443D01*
X153626243Y-59882754D01*
X153626241Y-59882753D01*
X153626240Y-59882753D01*
X153464957Y-59857208D01*
X153416287Y-59849500D01*
X153203713Y-59849500D01*
X153155042Y-59857208D01*
X152993760Y-59882753D01*
X152791585Y-59948444D01*
X152602179Y-60044951D01*
X152430213Y-60169890D01*
X152279890Y-60320213D01*
X152154949Y-60492182D01*
X152150484Y-60500946D01*
X152102509Y-60551742D01*
X152034688Y-60568536D01*
X151968553Y-60545998D01*
X151929516Y-60500946D01*
X151925050Y-60492182D01*
X151800109Y-60320213D01*
X151649786Y-60169890D01*
X151477820Y-60044951D01*
X151288414Y-59948444D01*
X151288413Y-59948443D01*
X151288412Y-59948443D01*
X151086243Y-59882754D01*
X151086241Y-59882753D01*
X151086240Y-59882753D01*
X150924957Y-59857208D01*
X150876287Y-59849500D01*
X150663713Y-59849500D01*
X150615042Y-59857208D01*
X150453760Y-59882753D01*
X150251585Y-59948444D01*
X150062179Y-60044951D01*
X149890213Y-60169890D01*
X149739890Y-60320213D01*
X149614949Y-60492182D01*
X149610202Y-60501499D01*
X149562227Y-60552293D01*
X149494405Y-60569087D01*
X149428271Y-60546548D01*
X149389234Y-60501495D01*
X149384626Y-60492452D01*
X149345270Y-60438282D01*
X148712962Y-61070590D01*
X148695925Y-61007007D01*
X148630099Y-60892993D01*
X148537007Y-60799901D01*
X148422993Y-60734075D01*
X148359409Y-60717037D01*
X148991716Y-60084728D01*
X148937550Y-60045375D01*
X148748217Y-59948904D01*
X148546129Y-59883242D01*
X148336246Y-59850000D01*
X148123754Y-59850000D01*
X147913872Y-59883242D01*
X147913869Y-59883242D01*
X147711782Y-59948904D01*
X147522439Y-60045380D01*
X147468282Y-60084727D01*
X147468282Y-60084728D01*
X148100591Y-60717037D01*
X148037007Y-60734075D01*
X147922993Y-60799901D01*
X147829901Y-60892993D01*
X147764075Y-61007007D01*
X147747037Y-61070591D01*
X147114728Y-60438282D01*
X147114727Y-60438282D01*
X147075380Y-60492440D01*
X147075376Y-60492446D01*
X147070760Y-60501505D01*
X147022781Y-60552297D01*
X146954959Y-60569087D01*
X146888826Y-60546543D01*
X146849794Y-60501493D01*
X146845051Y-60492184D01*
X146845049Y-60492181D01*
X146845048Y-60492179D01*
X146720109Y-60320213D01*
X146569786Y-60169890D01*
X146397820Y-60044951D01*
X146208414Y-59948444D01*
X146208413Y-59948443D01*
X146208412Y-59948443D01*
X146006243Y-59882754D01*
X146006241Y-59882753D01*
X146006240Y-59882753D01*
X145844957Y-59857208D01*
X145796287Y-59849500D01*
X145583713Y-59849500D01*
X145535042Y-59857208D01*
X145373760Y-59882753D01*
X145171585Y-59948444D01*
X144982179Y-60044951D01*
X144810213Y-60169890D01*
X144659890Y-60320213D01*
X144534949Y-60492182D01*
X144530484Y-60500946D01*
X144482509Y-60551742D01*
X144414688Y-60568536D01*
X144348553Y-60545998D01*
X144309516Y-60500946D01*
X144305050Y-60492182D01*
X144180109Y-60320213D01*
X144029786Y-60169890D01*
X143857820Y-60044951D01*
X143668414Y-59948444D01*
X143668413Y-59948443D01*
X143668412Y-59948443D01*
X143466243Y-59882754D01*
X143466241Y-59882753D01*
X143466240Y-59882753D01*
X143304957Y-59857208D01*
X143256287Y-59849500D01*
X143043713Y-59849500D01*
X142995042Y-59857208D01*
X142833760Y-59882753D01*
X142631585Y-59948444D01*
X142442179Y-60044951D01*
X142270213Y-60169890D01*
X142119890Y-60320213D01*
X141994949Y-60492182D01*
X141990202Y-60501499D01*
X141942227Y-60552293D01*
X141874405Y-60569087D01*
X141808271Y-60546548D01*
X141769234Y-60501495D01*
X141764626Y-60492452D01*
X141725270Y-60438282D01*
X141725269Y-60438282D01*
X141092962Y-61070589D01*
X141075925Y-61007007D01*
X141010099Y-60892993D01*
X140917007Y-60799901D01*
X140802993Y-60734075D01*
X140739409Y-60717037D01*
X141371716Y-60084728D01*
X141317550Y-60045375D01*
X141128217Y-59948904D01*
X140926129Y-59883242D01*
X140716246Y-59850000D01*
X140503754Y-59850000D01*
X140293872Y-59883242D01*
X140293869Y-59883242D01*
X140091782Y-59948904D01*
X139902439Y-60045380D01*
X139848282Y-60084727D01*
X139848282Y-60084728D01*
X140480591Y-60717037D01*
X140417007Y-60734075D01*
X140302993Y-60799901D01*
X140209901Y-60892993D01*
X140144075Y-61007007D01*
X140127037Y-61070591D01*
X139494728Y-60438282D01*
X139494727Y-60438282D01*
X139455380Y-60492440D01*
X139455376Y-60492446D01*
X139450760Y-60501505D01*
X139402781Y-60552297D01*
X139334959Y-60569087D01*
X139268826Y-60546543D01*
X139229794Y-60501493D01*
X139225051Y-60492184D01*
X139225049Y-60492181D01*
X139225048Y-60492179D01*
X139100109Y-60320213D01*
X138949786Y-60169890D01*
X138777820Y-60044951D01*
X138588414Y-59948444D01*
X138588413Y-59948443D01*
X138588412Y-59948443D01*
X138386243Y-59882754D01*
X138386241Y-59882753D01*
X138386240Y-59882753D01*
X138224957Y-59857208D01*
X138176287Y-59849500D01*
X137963713Y-59849500D01*
X137915042Y-59857208D01*
X137753760Y-59882753D01*
X137551585Y-59948444D01*
X137362179Y-60044951D01*
X137190213Y-60169890D01*
X137039890Y-60320213D01*
X136914949Y-60492182D01*
X136910484Y-60500946D01*
X136862509Y-60551742D01*
X136794688Y-60568536D01*
X136728553Y-60545998D01*
X136689516Y-60500946D01*
X136685050Y-60492182D01*
X136560109Y-60320213D01*
X136409786Y-60169890D01*
X136237820Y-60044951D01*
X136048414Y-59948444D01*
X136048413Y-59948443D01*
X136048412Y-59948443D01*
X135846243Y-59882754D01*
X135846241Y-59882753D01*
X135846240Y-59882753D01*
X135684957Y-59857208D01*
X135636287Y-59849500D01*
X135423713Y-59849500D01*
X135375042Y-59857208D01*
X135213760Y-59882753D01*
X135011585Y-59948444D01*
X134822179Y-60044951D01*
X134650213Y-60169890D01*
X134499890Y-60320213D01*
X134374949Y-60492182D01*
X134370484Y-60500946D01*
X134322509Y-60551742D01*
X134254688Y-60568536D01*
X134188553Y-60545998D01*
X134149516Y-60500946D01*
X134145050Y-60492182D01*
X134020109Y-60320213D01*
X133869786Y-60169890D01*
X133697820Y-60044951D01*
X133508414Y-59948444D01*
X133508413Y-59948443D01*
X133508412Y-59948443D01*
X133306243Y-59882754D01*
X133306241Y-59882753D01*
X133306240Y-59882753D01*
X133144957Y-59857208D01*
X133096287Y-59849500D01*
X132883713Y-59849500D01*
X132835042Y-59857208D01*
X132673760Y-59882753D01*
X132471585Y-59948444D01*
X132282179Y-60044951D01*
X132110213Y-60169890D01*
X131959890Y-60320213D01*
X131834949Y-60492182D01*
X131830202Y-60501499D01*
X131782227Y-60552293D01*
X131714405Y-60569087D01*
X131648271Y-60546548D01*
X131609234Y-60501495D01*
X131604626Y-60492452D01*
X131565270Y-60438282D01*
X131565269Y-60438282D01*
X130932962Y-61070589D01*
X130915925Y-61007007D01*
X130850099Y-60892993D01*
X130757007Y-60799901D01*
X130642993Y-60734075D01*
X130579409Y-60717037D01*
X131211716Y-60084728D01*
X131157550Y-60045375D01*
X130968217Y-59948904D01*
X130766129Y-59883242D01*
X130556246Y-59850000D01*
X130343754Y-59850000D01*
X130133872Y-59883242D01*
X130133869Y-59883242D01*
X129931782Y-59948904D01*
X129742439Y-60045380D01*
X129688282Y-60084727D01*
X129688282Y-60084728D01*
X130320591Y-60717037D01*
X130257007Y-60734075D01*
X130142993Y-60799901D01*
X130049901Y-60892993D01*
X129984075Y-61007007D01*
X129967037Y-61070591D01*
X129334728Y-60438282D01*
X129334727Y-60438282D01*
X129295380Y-60492440D01*
X129295376Y-60492446D01*
X129290760Y-60501505D01*
X129242781Y-60552297D01*
X129174959Y-60569087D01*
X129108826Y-60546543D01*
X129069794Y-60501493D01*
X129065051Y-60492184D01*
X129065049Y-60492181D01*
X129065048Y-60492179D01*
X128940109Y-60320213D01*
X128789786Y-60169890D01*
X128617820Y-60044951D01*
X128428414Y-59948444D01*
X128428413Y-59948443D01*
X128428412Y-59948443D01*
X128226243Y-59882754D01*
X128226241Y-59882753D01*
X128226240Y-59882753D01*
X128064957Y-59857208D01*
X128016287Y-59849500D01*
X127803713Y-59849500D01*
X127755042Y-59857208D01*
X127593760Y-59882753D01*
X127391585Y-59948444D01*
X127202179Y-60044951D01*
X127030213Y-60169890D01*
X126879896Y-60320207D01*
X126879892Y-60320213D01*
X126754949Y-60492184D01*
X126754947Y-60492186D01*
X126752188Y-60495985D01*
X126747854Y-60499326D01*
X126745582Y-60504303D01*
X126720485Y-60520431D01*
X126696858Y-60538651D01*
X126690184Y-60539904D01*
X126686804Y-60542077D01*
X126651869Y-60547100D01*
X126628131Y-60547100D01*
X126561092Y-60527415D01*
X126527812Y-60495985D01*
X126525052Y-60492186D01*
X126525051Y-60492184D01*
X126400104Y-60320208D01*
X126249792Y-60169896D01*
X126249786Y-60169890D01*
X126077820Y-60044951D01*
X125888414Y-59948444D01*
X125888413Y-59948443D01*
X125888412Y-59948443D01*
X125686243Y-59882754D01*
X125686241Y-59882753D01*
X125686240Y-59882753D01*
X125524957Y-59857208D01*
X125476287Y-59849500D01*
X125263713Y-59849500D01*
X125215042Y-59857208D01*
X125053760Y-59882753D01*
X124851585Y-59948444D01*
X124662179Y-60044951D01*
X124490213Y-60169890D01*
X124339890Y-60320213D01*
X124214951Y-60492179D01*
X124118444Y-60681585D01*
X124052753Y-60883760D01*
X124019500Y-61093713D01*
X124019500Y-61306286D01*
X124032926Y-61391058D01*
X124052754Y-61516243D01*
X124113566Y-61703403D01*
X124118444Y-61718414D01*
X124214951Y-61907820D01*
X124339890Y-62079786D01*
X124453430Y-62193326D01*
X124486915Y-62254649D01*
X124481931Y-62324341D01*
X124440059Y-62380274D01*
X124409083Y-62397189D01*
X124277669Y-62446203D01*
X124277664Y-62446206D01*
X124162455Y-62532452D01*
X124162452Y-62532455D01*
X124076206Y-62647664D01*
X124076202Y-62647671D01*
X124025908Y-62782517D01*
X124019501Y-62842116D01*
X124019500Y-62842135D01*
X124019500Y-62963100D01*
X123999815Y-63030139D01*
X123947011Y-63075894D01*
X123895500Y-63087100D01*
X122945693Y-63087100D01*
X122819561Y-63112189D01*
X122819555Y-63112191D01*
X122700737Y-63161407D01*
X122593797Y-63232861D01*
X122593796Y-63232862D01*
X118942863Y-66883794D01*
X118942862Y-66883795D01*
X118871407Y-66990737D01*
X118822191Y-67109555D01*
X118822189Y-67109561D01*
X118797100Y-67235692D01*
X118797100Y-71830210D01*
X118777415Y-71897249D01*
X118735343Y-71934012D01*
X118736813Y-71936395D01*
X118730667Y-71940185D01*
X118730666Y-71940186D01*
X118640781Y-71995627D01*
X118581342Y-72032289D01*
X118457289Y-72156342D01*
X118365187Y-72305663D01*
X118365185Y-72305668D01*
X118353022Y-72342374D01*
X118310001Y-72472203D01*
X118310001Y-72472204D01*
X118310000Y-72472204D01*
X118299500Y-72574983D01*
X118299500Y-73925001D01*
X118299501Y-73925007D01*
X118310000Y-74027796D01*
X118310001Y-74027799D01*
X118352792Y-74156931D01*
X118365186Y-74194334D01*
X118457288Y-74343656D01*
X118581344Y-74467712D01*
X118730666Y-74559814D01*
X118730667Y-74559814D01*
X118736813Y-74563605D01*
X118735308Y-74566044D01*
X118777929Y-74603556D01*
X118797100Y-74669789D01*
X118797100Y-75580210D01*
X118777415Y-75647249D01*
X118735343Y-75684012D01*
X118736813Y-75686395D01*
X118730667Y-75690185D01*
X118730666Y-75690186D01*
X118634886Y-75749263D01*
X118581342Y-75782289D01*
X118457289Y-75906342D01*
X118365187Y-76055663D01*
X118365185Y-76055668D01*
X118365105Y-76055909D01*
X118310001Y-76222203D01*
X118310001Y-76222204D01*
X118310000Y-76222204D01*
X118299500Y-76324983D01*
X118299500Y-77675001D01*
X118299501Y-77675018D01*
X118310000Y-77777796D01*
X118310001Y-77777799D01*
X118325221Y-77823729D01*
X118365186Y-77944334D01*
X118457288Y-78093656D01*
X118581344Y-78217712D01*
X118730666Y-78309814D01*
X118730667Y-78309814D01*
X118736813Y-78313605D01*
X118735308Y-78316044D01*
X118777929Y-78353556D01*
X118797100Y-78419789D01*
X118797100Y-79295346D01*
X118777415Y-79362385D01*
X118724611Y-79408140D01*
X118712110Y-79413050D01*
X118705668Y-79415184D01*
X118556342Y-79507289D01*
X118432289Y-79631342D01*
X118340187Y-79780663D01*
X118340185Y-79780668D01*
X118326179Y-79822936D01*
X118285001Y-79947203D01*
X118285001Y-79947204D01*
X118285000Y-79947204D01*
X118274500Y-80049983D01*
X118274500Y-81450001D01*
X118274501Y-81450018D01*
X118285000Y-81552796D01*
X118285001Y-81552799D01*
X118340115Y-81719119D01*
X118340186Y-81719334D01*
X118432288Y-81868656D01*
X118556344Y-81992712D01*
X118705666Y-82084814D01*
X118872203Y-82139999D01*
X118974991Y-82150500D01*
X119900008Y-82150499D01*
X119900016Y-82150498D01*
X119900019Y-82150498D01*
X119956302Y-82144748D01*
X120002797Y-82139999D01*
X120169334Y-82084814D01*
X120318656Y-81992712D01*
X120442712Y-81868656D01*
X120534814Y-81719334D01*
X120589999Y-81552797D01*
X120600500Y-81450009D01*
X120600500Y-81449986D01*
X121400001Y-81449986D01*
X121410494Y-81552697D01*
X121465641Y-81719119D01*
X121465643Y-81719124D01*
X121557684Y-81868345D01*
X121681654Y-81992315D01*
X121830875Y-82084356D01*
X121830880Y-82084358D01*
X121997302Y-82139505D01*
X121997309Y-82139506D01*
X122100019Y-82149999D01*
X122312499Y-82149999D01*
X122812500Y-82149999D01*
X123024972Y-82149999D01*
X123024986Y-82149998D01*
X123127697Y-82139505D01*
X123294119Y-82084358D01*
X123294124Y-82084356D01*
X123443345Y-81992315D01*
X123567315Y-81868345D01*
X123659356Y-81719124D01*
X123659358Y-81719119D01*
X123695732Y-81609350D01*
X126925000Y-81609350D01*
X126925000Y-82300000D01*
X127475000Y-82300000D01*
X127475000Y-81027703D01*
X127975000Y-81027703D01*
X127975000Y-82300000D01*
X128745000Y-82300000D01*
X128745000Y-81027703D01*
X129245000Y-81027703D01*
X129245000Y-82300000D01*
X130015000Y-82300000D01*
X130015000Y-81027703D01*
X130012503Y-81027900D01*
X129854806Y-81073716D01*
X129854803Y-81073717D01*
X129713447Y-81157314D01*
X129707278Y-81162100D01*
X129705457Y-81159753D01*
X129656358Y-81186564D01*
X129586666Y-81181580D01*
X129553930Y-81160541D01*
X129552722Y-81162100D01*
X129546552Y-81157314D01*
X129405196Y-81073717D01*
X129405193Y-81073716D01*
X129247494Y-81027900D01*
X129247497Y-81027900D01*
X129245000Y-81027703D01*
X128745000Y-81027703D01*
X128742503Y-81027900D01*
X128584806Y-81073716D01*
X128584803Y-81073717D01*
X128443447Y-81157314D01*
X128437278Y-81162100D01*
X128435457Y-81159753D01*
X128386358Y-81186564D01*
X128316666Y-81181580D01*
X128283930Y-81160541D01*
X128282722Y-81162100D01*
X128276552Y-81157314D01*
X128135196Y-81073717D01*
X128135193Y-81073716D01*
X127977494Y-81027900D01*
X127977497Y-81027900D01*
X127975000Y-81027703D01*
X127475000Y-81027703D01*
X127472503Y-81027900D01*
X127314806Y-81073716D01*
X127314803Y-81073717D01*
X127173447Y-81157314D01*
X127173438Y-81157321D01*
X127057321Y-81273438D01*
X127057314Y-81273447D01*
X126973717Y-81414803D01*
X126973716Y-81414806D01*
X126927900Y-81572504D01*
X126927899Y-81572510D01*
X126925000Y-81609350D01*
X123695732Y-81609350D01*
X123709461Y-81567919D01*
X123709461Y-81567918D01*
X123714505Y-81552694D01*
X123714506Y-81552690D01*
X123724999Y-81449986D01*
X123725000Y-81449973D01*
X123725000Y-81000000D01*
X122812500Y-81000000D01*
X122812500Y-82149999D01*
X122312499Y-82149999D01*
X122312500Y-82149998D01*
X122312500Y-81000000D01*
X121400001Y-81000000D01*
X121400001Y-81449986D01*
X120600500Y-81449986D01*
X120600499Y-80745440D01*
X120600499Y-80049998D01*
X120600498Y-80049981D01*
X120589999Y-79947203D01*
X120589998Y-79947200D01*
X120572499Y-79894392D01*
X120534814Y-79780666D01*
X120442712Y-79631344D01*
X120425949Y-79614581D01*
X120392464Y-79553258D01*
X120397448Y-79483566D01*
X120439320Y-79427633D01*
X120504784Y-79403216D01*
X120513630Y-79402900D01*
X121487077Y-79402900D01*
X121554116Y-79422585D01*
X121599871Y-79475389D01*
X121609815Y-79544547D01*
X121580790Y-79608103D01*
X121574758Y-79614581D01*
X121557684Y-79631654D01*
X121465643Y-79780875D01*
X121465641Y-79780880D01*
X121410494Y-79947302D01*
X121410493Y-79947309D01*
X121400000Y-80050013D01*
X121400000Y-80500000D01*
X123724999Y-80500000D01*
X123724999Y-80050028D01*
X123724998Y-80050013D01*
X123714505Y-79947302D01*
X123659358Y-79780880D01*
X123659356Y-79780875D01*
X123567315Y-79631654D01*
X123550242Y-79614581D01*
X123516757Y-79553258D01*
X123521741Y-79483566D01*
X123563613Y-79427633D01*
X123629077Y-79403216D01*
X123637923Y-79402900D01*
X130314307Y-79402900D01*
X130404861Y-79384887D01*
X130440444Y-79377809D01*
X130559264Y-79328592D01*
X130576403Y-79317140D01*
X130666200Y-79257141D01*
X131379210Y-78544131D01*
X131440533Y-78510646D01*
X131510224Y-78515630D01*
X131566158Y-78557502D01*
X131590575Y-78622966D01*
X131575723Y-78691239D01*
X131569998Y-78700696D01*
X131568829Y-78702445D01*
X131568821Y-78702459D01*
X131502377Y-78862871D01*
X131502374Y-78862881D01*
X131468498Y-79033183D01*
X131467933Y-79038925D01*
X131441769Y-79103711D01*
X131432212Y-79114446D01*
X131027863Y-79518794D01*
X131027863Y-79518795D01*
X131027860Y-79518798D01*
X131027859Y-79518800D01*
X130956857Y-79625064D01*
X130956856Y-79625064D01*
X130956408Y-79625735D01*
X130907191Y-79744555D01*
X130907189Y-79744561D01*
X130882100Y-79870692D01*
X130882100Y-80978684D01*
X130862415Y-81045723D01*
X130809611Y-81091478D01*
X130740453Y-81101422D01*
X130694981Y-81085417D01*
X130675198Y-81073718D01*
X130675193Y-81073716D01*
X130517494Y-81027900D01*
X130517497Y-81027900D01*
X130515000Y-81027703D01*
X130515000Y-82426000D01*
X130495315Y-82493039D01*
X130442511Y-82538794D01*
X130391000Y-82550000D01*
X130265000Y-82550000D01*
X130265000Y-82676000D01*
X130245315Y-82743039D01*
X130192511Y-82788794D01*
X130141000Y-82800000D01*
X127975000Y-82800000D01*
X127975000Y-84072295D01*
X127975001Y-84072295D01*
X127977486Y-84072100D01*
X128135198Y-84026281D01*
X128276552Y-83942685D01*
X128282722Y-83937900D01*
X128284546Y-83940252D01*
X128333595Y-83913445D01*
X128403288Y-83918402D01*
X128436063Y-83939465D01*
X128437278Y-83937900D01*
X128443447Y-83942685D01*
X128584803Y-84026282D01*
X128584806Y-84026283D01*
X128705474Y-84061341D01*
X128764360Y-84098947D01*
X128793566Y-84162419D01*
X128783820Y-84231606D01*
X128758560Y-84268098D01*
X128492863Y-84533794D01*
X128492857Y-84533801D01*
X128435192Y-84620103D01*
X128435193Y-84620104D01*
X128421408Y-84640734D01*
X128372191Y-84759555D01*
X128372189Y-84759561D01*
X128347100Y-84885692D01*
X128347100Y-86291868D01*
X128327415Y-86358907D01*
X128295985Y-86392186D01*
X128120214Y-86519890D01*
X128120209Y-86519894D01*
X127969890Y-86670213D01*
X127844951Y-86842179D01*
X127748444Y-87031585D01*
X127682753Y-87233760D01*
X127665425Y-87343168D01*
X127649500Y-87443713D01*
X127649500Y-87656287D01*
X127682754Y-87866243D01*
X127685853Y-87875782D01*
X127748444Y-88068414D01*
X127844951Y-88257820D01*
X127969890Y-88429786D01*
X128120213Y-88580109D01*
X128292182Y-88705050D01*
X128311739Y-88715015D01*
X128362536Y-88762989D01*
X128379331Y-88830810D01*
X128356794Y-88896945D01*
X128302079Y-88940397D01*
X128255445Y-88949500D01*
X120003751Y-88949500D01*
X119996264Y-88949274D01*
X119706205Y-88931728D01*
X119691340Y-88929923D01*
X119409201Y-88878219D01*
X119394663Y-88874635D01*
X119120832Y-88789306D01*
X119106831Y-88783997D01*
X118845263Y-88666275D01*
X118832004Y-88659316D01*
X118700981Y-88580110D01*
X118586537Y-88510926D01*
X118574217Y-88502422D01*
X118545024Y-88479551D01*
X118348426Y-88325526D01*
X118337218Y-88315596D01*
X118134403Y-88112781D01*
X118124473Y-88101573D01*
X118005801Y-87950099D01*
X117947573Y-87875776D01*
X117939075Y-87863465D01*
X117790680Y-87617989D01*
X117783727Y-87604743D01*
X117666000Y-87343163D01*
X117660693Y-87329167D01*
X117651604Y-87300000D01*
X117575363Y-87055335D01*
X117571780Y-87040798D01*
X117520076Y-86758659D01*
X117518271Y-86743794D01*
X117516554Y-86715415D01*
X117500726Y-86453736D01*
X117500500Y-86446249D01*
X117500500Y-85822070D01*
X118874500Y-85822070D01*
X118874500Y-86077930D01*
X118890637Y-86179815D01*
X118914526Y-86330640D01*
X118993588Y-86573972D01*
X118993589Y-86573975D01*
X119070616Y-86725146D01*
X119080117Y-86743794D01*
X119109750Y-86801950D01*
X119260132Y-87008935D01*
X119260136Y-87008940D01*
X119441059Y-87189863D01*
X119441064Y-87189867D01*
X119621607Y-87321038D01*
X119648053Y-87340252D01*
X119797080Y-87416185D01*
X119876024Y-87456410D01*
X119876027Y-87456411D01*
X119997693Y-87495942D01*
X120119361Y-87535474D01*
X120372070Y-87575500D01*
X120372071Y-87575500D01*
X120627929Y-87575500D01*
X120627930Y-87575500D01*
X120880639Y-87535474D01*
X121123975Y-87456410D01*
X121351947Y-87340252D01*
X121558942Y-87189862D01*
X121739862Y-87008942D01*
X121890252Y-86801947D01*
X122006410Y-86573975D01*
X122085474Y-86330639D01*
X122125500Y-86077930D01*
X122125500Y-85822070D01*
X122085474Y-85569361D01*
X122006410Y-85326025D01*
X122006410Y-85326024D01*
X121953020Y-85221241D01*
X121890252Y-85098053D01*
X121848946Y-85041200D01*
X121739867Y-84891064D01*
X121739863Y-84891059D01*
X121558940Y-84710136D01*
X121558935Y-84710132D01*
X121351950Y-84559750D01*
X121351949Y-84559749D01*
X121351947Y-84559748D01*
X121217415Y-84491200D01*
X121123975Y-84443589D01*
X121123972Y-84443588D01*
X120880640Y-84364526D01*
X120685169Y-84333566D01*
X120627930Y-84324500D01*
X120372070Y-84324500D01*
X120314831Y-84333566D01*
X120119359Y-84364526D01*
X119876027Y-84443588D01*
X119876024Y-84443589D01*
X119648049Y-84559750D01*
X119441064Y-84710132D01*
X119441059Y-84710136D01*
X119260136Y-84891059D01*
X119260132Y-84891064D01*
X119109750Y-85098049D01*
X118993589Y-85326024D01*
X118993588Y-85326027D01*
X118914526Y-85569359D01*
X118885785Y-85750819D01*
X118874500Y-85822070D01*
X117500500Y-85822070D01*
X117500500Y-83490649D01*
X126925000Y-83490649D01*
X126927899Y-83527489D01*
X126927900Y-83527495D01*
X126973716Y-83685193D01*
X126973717Y-83685196D01*
X127057314Y-83826552D01*
X127057321Y-83826561D01*
X127173438Y-83942678D01*
X127173447Y-83942685D01*
X127314801Y-84026281D01*
X127472514Y-84072100D01*
X127472511Y-84072100D01*
X127474998Y-84072295D01*
X127475000Y-84072295D01*
X127475000Y-82800000D01*
X126925000Y-82800000D01*
X126925000Y-83490649D01*
X117500500Y-83490649D01*
X117500500Y-62322070D01*
X118874500Y-62322070D01*
X118874500Y-62577929D01*
X118914526Y-62830640D01*
X118993588Y-63073972D01*
X118993589Y-63073975D01*
X119056069Y-63196596D01*
X119095546Y-63274075D01*
X119109750Y-63301950D01*
X119260132Y-63508935D01*
X119260136Y-63508940D01*
X119441059Y-63689863D01*
X119441064Y-63689867D01*
X119536988Y-63759559D01*
X119648053Y-63840252D01*
X119797080Y-63916185D01*
X119876024Y-63956410D01*
X119876027Y-63956411D01*
X119997693Y-63995942D01*
X120119361Y-64035474D01*
X120372070Y-64075500D01*
X120372071Y-64075500D01*
X120627929Y-64075500D01*
X120627930Y-64075500D01*
X120880639Y-64035474D01*
X121123975Y-63956410D01*
X121351947Y-63840252D01*
X121558942Y-63689862D01*
X121739862Y-63508942D01*
X121890252Y-63301947D01*
X122006410Y-63073975D01*
X122085474Y-62830639D01*
X122125500Y-62577930D01*
X122125500Y-62322070D01*
X122085474Y-62069361D01*
X122032985Y-61907816D01*
X122006411Y-61826027D01*
X122006410Y-61826024D01*
X121951578Y-61718412D01*
X121890252Y-61598053D01*
X121824104Y-61507007D01*
X121739867Y-61391064D01*
X121739863Y-61391059D01*
X121558940Y-61210136D01*
X121558935Y-61210132D01*
X121351950Y-61059750D01*
X121351949Y-61059749D01*
X121351947Y-61059748D01*
X121278910Y-61022533D01*
X121123975Y-60943589D01*
X121123972Y-60943588D01*
X120880640Y-60864526D01*
X120754284Y-60844513D01*
X120627930Y-60824500D01*
X120372070Y-60824500D01*
X120287833Y-60837842D01*
X120119359Y-60864526D01*
X119876027Y-60943588D01*
X119876024Y-60943589D01*
X119648049Y-61059750D01*
X119441064Y-61210132D01*
X119441059Y-61210136D01*
X119260136Y-61391059D01*
X119260132Y-61391064D01*
X119109750Y-61598049D01*
X118993589Y-61826024D01*
X118993588Y-61826027D01*
X118914526Y-62069359D01*
X118874500Y-62322070D01*
X117500500Y-62322070D01*
X117500500Y-61953750D01*
X117500726Y-61946263D01*
X117518271Y-61656201D01*
X117520076Y-61641340D01*
X117528010Y-61598049D01*
X117571780Y-61359197D01*
X117575364Y-61344663D01*
X117582245Y-61322581D01*
X117660696Y-61070822D01*
X117665998Y-61056841D01*
X117783731Y-60795249D01*
X117790676Y-60782016D01*
X117939080Y-60536526D01*
X117947567Y-60524230D01*
X118124480Y-60298417D01*
X118134395Y-60287226D01*
X118337226Y-60084395D01*
X118348417Y-60074480D01*
X118574230Y-59897567D01*
X118586526Y-59889080D01*
X118832016Y-59740676D01*
X118845249Y-59733731D01*
X119106841Y-59615998D01*
X119120822Y-59610696D01*
X119394668Y-59525362D01*
X119409197Y-59521780D01*
X119691344Y-59470075D01*
X119706201Y-59468271D01*
X119996264Y-59450726D01*
X120003751Y-59450500D01*
X120065892Y-59450500D01*
X156766797Y-59450500D01*
X156833836Y-59470185D01*
G37*
%TD.AperFunction*%
%TA.AperFunction,Conductor*%
G36*
X153426373Y-71936437D02*
G01*
X153473983Y-71987574D01*
X153487100Y-72043079D01*
X153487100Y-77259614D01*
X153505426Y-77351744D01*
X153505549Y-77352366D01*
X153505561Y-77352426D01*
X153512189Y-77385745D01*
X153512191Y-77385753D01*
X153541755Y-77457128D01*
X153561408Y-77504573D01*
X153609631Y-77576745D01*
X153632862Y-77611513D01*
X153632863Y-77611514D01*
X155390520Y-79369170D01*
X155424005Y-79430493D01*
X155419021Y-79500185D01*
X155390521Y-79544532D01*
X155286920Y-79648133D01*
X155286917Y-79648137D01*
X155203255Y-79789603D01*
X155203254Y-79789606D01*
X155157402Y-79947426D01*
X155157401Y-79947432D01*
X155154500Y-79984298D01*
X155154500Y-81765701D01*
X155157401Y-81802567D01*
X155157402Y-81802573D01*
X155203254Y-81960393D01*
X155203255Y-81960396D01*
X155203256Y-81960398D01*
X155242933Y-82027489D01*
X155284832Y-82098336D01*
X155302100Y-82161457D01*
X155302100Y-82523196D01*
X155282415Y-82590235D01*
X155265781Y-82610877D01*
X154922863Y-82953794D01*
X154922857Y-82953801D01*
X154863859Y-83042098D01*
X154863860Y-83042099D01*
X154851408Y-83060734D01*
X154802191Y-83179555D01*
X154802189Y-83179561D01*
X154777100Y-83305692D01*
X154777100Y-86075500D01*
X154757415Y-86142539D01*
X154704611Y-86188294D01*
X154653101Y-86199500D01*
X154532130Y-86199500D01*
X154532123Y-86199501D01*
X154472516Y-86205908D01*
X154337671Y-86256202D01*
X154337664Y-86256206D01*
X154222455Y-86342452D01*
X154222452Y-86342455D01*
X154136206Y-86457664D01*
X154136202Y-86457671D01*
X154085908Y-86592517D01*
X154079501Y-86652116D01*
X154079500Y-86652135D01*
X154079500Y-88447870D01*
X154079501Y-88447876D01*
X154085908Y-88507483D01*
X154136202Y-88642328D01*
X154136206Y-88642335D01*
X154217695Y-88751189D01*
X154242113Y-88816653D01*
X154227262Y-88884926D01*
X154177857Y-88934332D01*
X154118429Y-88949500D01*
X153170947Y-88949500D01*
X153103908Y-88929815D01*
X153058153Y-88877011D01*
X153048209Y-88807853D01*
X153071681Y-88751189D01*
X153153350Y-88642093D01*
X153153354Y-88642086D01*
X153203596Y-88507379D01*
X153203598Y-88507372D01*
X153209999Y-88447844D01*
X153210000Y-88447827D01*
X153210000Y-87800000D01*
X152293012Y-87800000D01*
X152325925Y-87742993D01*
X152360000Y-87615826D01*
X152360000Y-87484174D01*
X152325925Y-87357007D01*
X152293012Y-87300000D01*
X153210000Y-87300000D01*
X153210000Y-86652172D01*
X153209999Y-86652155D01*
X153203598Y-86592627D01*
X153203596Y-86592620D01*
X153153354Y-86457913D01*
X153153350Y-86457906D01*
X153067190Y-86342812D01*
X153067187Y-86342809D01*
X152952093Y-86256649D01*
X152952086Y-86256645D01*
X152817379Y-86206403D01*
X152817372Y-86206401D01*
X152757844Y-86200000D01*
X152110000Y-86200000D01*
X152110000Y-87116988D01*
X152052993Y-87084075D01*
X151925826Y-87050000D01*
X151794174Y-87050000D01*
X151667007Y-87084075D01*
X151610000Y-87116988D01*
X151610000Y-86200000D01*
X150962155Y-86200000D01*
X150902627Y-86206401D01*
X150902620Y-86206403D01*
X150767913Y-86256645D01*
X150767906Y-86256649D01*
X150652812Y-86342809D01*
X150652809Y-86342812D01*
X150566649Y-86457906D01*
X150566646Y-86457912D01*
X150517577Y-86589471D01*
X150475705Y-86645404D01*
X150410241Y-86669821D01*
X150341968Y-86654969D01*
X150313714Y-86633818D01*
X150199790Y-86519894D01*
X150199785Y-86519890D01*
X150024015Y-86392186D01*
X149981349Y-86336856D01*
X149972900Y-86291868D01*
X149972900Y-77802241D01*
X149992585Y-77735202D01*
X149993798Y-77733350D01*
X150071171Y-77617553D01*
X150071171Y-77617552D01*
X150071175Y-77617547D01*
X150137624Y-77457124D01*
X150158450Y-77352426D01*
X150171500Y-77286822D01*
X150171500Y-77113177D01*
X150137625Y-76942881D01*
X150137624Y-76942880D01*
X150137624Y-76942876D01*
X150116908Y-76892862D01*
X150071178Y-76782459D01*
X150071171Y-76782446D01*
X149974706Y-76638077D01*
X149974703Y-76638073D01*
X149851926Y-76515296D01*
X149851922Y-76515293D01*
X149707553Y-76418828D01*
X149707540Y-76418821D01*
X149547128Y-76352377D01*
X149547118Y-76352374D01*
X149376822Y-76318500D01*
X149376820Y-76318500D01*
X149203180Y-76318500D01*
X149203178Y-76318500D01*
X149032881Y-76352374D01*
X149032871Y-76352377D01*
X148872459Y-76418821D01*
X148872446Y-76418828D01*
X148728077Y-76515293D01*
X148728073Y-76515296D01*
X148605296Y-76638073D01*
X148605293Y-76638077D01*
X148508828Y-76782446D01*
X148508821Y-76782459D01*
X148442377Y-76942871D01*
X148442374Y-76942881D01*
X148408500Y-77113177D01*
X148408500Y-77113180D01*
X148408500Y-77286820D01*
X148408500Y-77286822D01*
X148408499Y-77286822D01*
X148442374Y-77457118D01*
X148442377Y-77457128D01*
X148508821Y-77617540D01*
X148508828Y-77617553D01*
X148605292Y-77761921D01*
X148605293Y-77761922D01*
X148605294Y-77761923D01*
X148630781Y-77787410D01*
X148664266Y-77848731D01*
X148667100Y-77875091D01*
X148667100Y-86291868D01*
X148647415Y-86358907D01*
X148615985Y-86392186D01*
X148440214Y-86519890D01*
X148440209Y-86519894D01*
X148289890Y-86670213D01*
X148164949Y-86842182D01*
X148160484Y-86850946D01*
X148112509Y-86901742D01*
X148044688Y-86918536D01*
X147978553Y-86895998D01*
X147939516Y-86850946D01*
X147935050Y-86842182D01*
X147810109Y-86670213D01*
X147659790Y-86519894D01*
X147659785Y-86519890D01*
X147484015Y-86392186D01*
X147441349Y-86336856D01*
X147432900Y-86291868D01*
X147432900Y-86215692D01*
X147407810Y-86089561D01*
X147407809Y-86089560D01*
X147407809Y-86089556D01*
X147380199Y-86022899D01*
X147358593Y-85970737D01*
X147287141Y-85863801D01*
X147287139Y-85863798D01*
X145065968Y-83642627D01*
X145032483Y-83581304D01*
X145031667Y-83532664D01*
X145032595Y-83527577D01*
X145032598Y-83527569D01*
X145035500Y-83490694D01*
X145035500Y-81609306D01*
X145032598Y-81572431D01*
X145031287Y-81567919D01*
X144986745Y-81414606D01*
X144986744Y-81414603D01*
X144986744Y-81414602D01*
X144903081Y-81273135D01*
X144903079Y-81273133D01*
X144903076Y-81273129D01*
X144786870Y-81156923D01*
X144786862Y-81156917D01*
X144693024Y-81101422D01*
X144645398Y-81073256D01*
X144645397Y-81073255D01*
X144645396Y-81073255D01*
X144645393Y-81073254D01*
X144487573Y-81027402D01*
X144487567Y-81027401D01*
X144450701Y-81024500D01*
X144450694Y-81024500D01*
X144019306Y-81024500D01*
X144019298Y-81024500D01*
X143982432Y-81027401D01*
X143982426Y-81027402D01*
X143824606Y-81073254D01*
X143824603Y-81073255D01*
X143683137Y-81156917D01*
X143676969Y-81161702D01*
X143675072Y-81159256D01*
X143626358Y-81185857D01*
X143556666Y-81180873D01*
X143524296Y-81160069D01*
X143523031Y-81161702D01*
X143516862Y-81156917D01*
X143423024Y-81101422D01*
X143375398Y-81073256D01*
X143375397Y-81073255D01*
X143375396Y-81073255D01*
X143375393Y-81073254D01*
X143217573Y-81027402D01*
X143217567Y-81027401D01*
X143180701Y-81024500D01*
X143180694Y-81024500D01*
X142749306Y-81024500D01*
X142749298Y-81024500D01*
X142712432Y-81027401D01*
X142712426Y-81027402D01*
X142554606Y-81073254D01*
X142554603Y-81073255D01*
X142413137Y-81156917D01*
X142406969Y-81161702D01*
X142405072Y-81159256D01*
X142356358Y-81185857D01*
X142286666Y-81180873D01*
X142254296Y-81160069D01*
X142253031Y-81161702D01*
X142246862Y-81156917D01*
X142153024Y-81101422D01*
X142105398Y-81073256D01*
X142105397Y-81073255D01*
X142105396Y-81073255D01*
X142105393Y-81073254D01*
X141947573Y-81027402D01*
X141947567Y-81027401D01*
X141910701Y-81024500D01*
X141910694Y-81024500D01*
X141479306Y-81024500D01*
X141479298Y-81024500D01*
X141442432Y-81027401D01*
X141442426Y-81027402D01*
X141284606Y-81073254D01*
X141284603Y-81073255D01*
X141143137Y-81156917D01*
X141136969Y-81161702D01*
X141135072Y-81159256D01*
X141086358Y-81185857D01*
X141016666Y-81180873D01*
X140984296Y-81160069D01*
X140983031Y-81161702D01*
X140976862Y-81156917D01*
X140883024Y-81101422D01*
X140835398Y-81073256D01*
X140835397Y-81073255D01*
X140835396Y-81073255D01*
X140835393Y-81073254D01*
X140677573Y-81027402D01*
X140677567Y-81027401D01*
X140640701Y-81024500D01*
X140640694Y-81024500D01*
X140209306Y-81024500D01*
X140209298Y-81024500D01*
X140172432Y-81027401D01*
X140172426Y-81027402D01*
X140014606Y-81073254D01*
X140014603Y-81073255D01*
X139873137Y-81156917D01*
X139866969Y-81161702D01*
X139865072Y-81159256D01*
X139816358Y-81185857D01*
X139746666Y-81180873D01*
X139714296Y-81160069D01*
X139713031Y-81161702D01*
X139706862Y-81156917D01*
X139613024Y-81101422D01*
X139565398Y-81073256D01*
X139565397Y-81073255D01*
X139565396Y-81073255D01*
X139565393Y-81073254D01*
X139407573Y-81027402D01*
X139407567Y-81027401D01*
X139370701Y-81024500D01*
X139370694Y-81024500D01*
X138939306Y-81024500D01*
X138939298Y-81024500D01*
X138902432Y-81027401D01*
X138902426Y-81027402D01*
X138744606Y-81073254D01*
X138744603Y-81073255D01*
X138603137Y-81156917D01*
X138596969Y-81161702D01*
X138595072Y-81159256D01*
X138546358Y-81185857D01*
X138476666Y-81180873D01*
X138444296Y-81160069D01*
X138443031Y-81161702D01*
X138436862Y-81156917D01*
X138343024Y-81101422D01*
X138295398Y-81073256D01*
X138295397Y-81073255D01*
X138295396Y-81073255D01*
X138295393Y-81073254D01*
X138137573Y-81027402D01*
X138137567Y-81027401D01*
X138100701Y-81024500D01*
X138100694Y-81024500D01*
X137669306Y-81024500D01*
X137669298Y-81024500D01*
X137632432Y-81027401D01*
X137632426Y-81027402D01*
X137474606Y-81073254D01*
X137474603Y-81073255D01*
X137333137Y-81156917D01*
X137326969Y-81161702D01*
X137325072Y-81159256D01*
X137276358Y-81185857D01*
X137206666Y-81180873D01*
X137174296Y-81160069D01*
X137173031Y-81161702D01*
X137166862Y-81156917D01*
X137073024Y-81101422D01*
X137025398Y-81073256D01*
X137025397Y-81073255D01*
X137025396Y-81073255D01*
X137025393Y-81073254D01*
X136867573Y-81027402D01*
X136867567Y-81027401D01*
X136830701Y-81024500D01*
X136830694Y-81024500D01*
X136399306Y-81024500D01*
X136399298Y-81024500D01*
X136362432Y-81027401D01*
X136362426Y-81027402D01*
X136204606Y-81073254D01*
X136204603Y-81073255D01*
X136063137Y-81156917D01*
X136056969Y-81161702D01*
X136055072Y-81159256D01*
X136006358Y-81185857D01*
X135936666Y-81180873D01*
X135904296Y-81160069D01*
X135903031Y-81161702D01*
X135896862Y-81156917D01*
X135803024Y-81101422D01*
X135755398Y-81073256D01*
X135755397Y-81073255D01*
X135755396Y-81073255D01*
X135755393Y-81073254D01*
X135597573Y-81027402D01*
X135597567Y-81027401D01*
X135560701Y-81024500D01*
X135560694Y-81024500D01*
X135129306Y-81024500D01*
X135129298Y-81024500D01*
X135092432Y-81027401D01*
X135092426Y-81027402D01*
X134934606Y-81073254D01*
X134934605Y-81073254D01*
X134915020Y-81084837D01*
X134908495Y-81086492D01*
X134903411Y-81090898D01*
X134875060Y-81094974D01*
X134847296Y-81102018D01*
X134840915Y-81099884D01*
X134834253Y-81100842D01*
X134808194Y-81088941D01*
X134781033Y-81079858D01*
X134776818Y-81074612D01*
X134770697Y-81071817D01*
X134755210Y-81047719D01*
X134737271Y-81025392D01*
X134735670Y-81017313D01*
X134732923Y-81013039D01*
X134727900Y-80978104D01*
X134727900Y-80796802D01*
X134747585Y-80729763D01*
X134764219Y-80709121D01*
X135468321Y-80005019D01*
X135529644Y-79971534D01*
X135556002Y-79968700D01*
X143378507Y-79968700D01*
X143463365Y-79951819D01*
X143504644Y-79943609D01*
X143623464Y-79894392D01*
X143730400Y-79822941D01*
X147697141Y-75856199D01*
X147768592Y-75749264D01*
X147817809Y-75630444D01*
X147820735Y-75615736D01*
X147821021Y-75614302D01*
X147842899Y-75504309D01*
X147842900Y-75504307D01*
X147842900Y-73011802D01*
X147862585Y-72944763D01*
X147879219Y-72924121D01*
X148494121Y-72309219D01*
X148555444Y-72275734D01*
X148581802Y-72272900D01*
X151804953Y-72272900D01*
X151871992Y-72292585D01*
X151883618Y-72301047D01*
X151888074Y-72304703D01*
X151888077Y-72304706D01*
X151894972Y-72309313D01*
X152032446Y-72401171D01*
X152032459Y-72401178D01*
X152192871Y-72467622D01*
X152192876Y-72467624D01*
X152192880Y-72467624D01*
X152192881Y-72467625D01*
X152363177Y-72501500D01*
X152363180Y-72501500D01*
X152536822Y-72501500D01*
X152684119Y-72472200D01*
X152707124Y-72467624D01*
X152849088Y-72408821D01*
X152867540Y-72401178D01*
X152867540Y-72401177D01*
X152867547Y-72401175D01*
X153011923Y-72304706D01*
X153134706Y-72181923D01*
X153231175Y-72037547D01*
X153231176Y-72037544D01*
X153231178Y-72037541D01*
X153248539Y-71995627D01*
X153292379Y-71941223D01*
X153358673Y-71919158D01*
X153426373Y-71936437D01*
G37*
%TD.AperFunction*%
%TA.AperFunction,Conductor*%
G36*
X179003736Y-59450726D02*
G01*
X179293796Y-59468271D01*
X179308657Y-59470075D01*
X179590798Y-59521780D01*
X179605335Y-59525363D01*
X179879172Y-59610695D01*
X179893163Y-59616000D01*
X180154743Y-59733727D01*
X180167989Y-59740680D01*
X180413465Y-59889075D01*
X180425776Y-59897573D01*
X180637946Y-60063797D01*
X180651573Y-60074473D01*
X180662781Y-60084403D01*
X180865596Y-60287218D01*
X180875526Y-60298426D01*
X181034623Y-60501499D01*
X181052422Y-60524217D01*
X181060926Y-60536537D01*
X181066975Y-60546543D01*
X181209316Y-60782004D01*
X181216275Y-60795263D01*
X181333997Y-61056831D01*
X181339306Y-61070832D01*
X181424635Y-61344663D01*
X181428219Y-61359201D01*
X181479923Y-61641340D01*
X181481728Y-61656205D01*
X181495514Y-61884108D01*
X181498729Y-61937262D01*
X181499274Y-61946263D01*
X181499500Y-61953750D01*
X181499500Y-86446249D01*
X181499274Y-86453736D01*
X181481728Y-86743794D01*
X181479923Y-86758659D01*
X181428219Y-87040798D01*
X181424635Y-87055336D01*
X181339306Y-87329167D01*
X181333997Y-87343168D01*
X181216275Y-87604736D01*
X181209316Y-87617995D01*
X181060928Y-87863459D01*
X181052422Y-87875782D01*
X180875526Y-88101573D01*
X180865596Y-88112781D01*
X180662781Y-88315596D01*
X180651573Y-88325526D01*
X180425782Y-88502422D01*
X180413459Y-88510928D01*
X180167995Y-88659316D01*
X180154736Y-88666275D01*
X179893168Y-88783997D01*
X179879167Y-88789306D01*
X179605336Y-88874635D01*
X179590798Y-88878219D01*
X179308659Y-88929923D01*
X179293794Y-88931728D01*
X179003736Y-88949274D01*
X178996249Y-88949500D01*
X173954555Y-88949500D01*
X173887516Y-88929815D01*
X173841761Y-88877011D01*
X173831817Y-88807853D01*
X173860842Y-88744297D01*
X173898261Y-88715015D01*
X173904796Y-88711684D01*
X173917816Y-88705051D01*
X173971187Y-88666275D01*
X174089786Y-88580109D01*
X174089788Y-88580106D01*
X174089792Y-88580104D01*
X174240104Y-88429792D01*
X174240106Y-88429788D01*
X174240109Y-88429786D01*
X174365048Y-88257820D01*
X174365047Y-88257820D01*
X174365051Y-88257816D01*
X174461557Y-88068412D01*
X174527246Y-87866243D01*
X174560500Y-87656287D01*
X174560500Y-87443713D01*
X174527246Y-87233757D01*
X174461557Y-87031588D01*
X174365051Y-86842184D01*
X174365049Y-86842181D01*
X174365048Y-86842179D01*
X174240109Y-86670213D01*
X174089786Y-86519890D01*
X173917820Y-86394951D01*
X173857899Y-86364420D01*
X173732394Y-86300472D01*
X173701011Y-86277670D01*
X173328220Y-85904879D01*
X173245411Y-85822070D01*
X176874500Y-85822070D01*
X176874500Y-86077930D01*
X176890637Y-86179815D01*
X176914526Y-86330640D01*
X176993588Y-86573972D01*
X176993589Y-86573975D01*
X177070616Y-86725146D01*
X177080117Y-86743794D01*
X177109750Y-86801950D01*
X177260132Y-87008935D01*
X177260136Y-87008940D01*
X177441059Y-87189863D01*
X177441064Y-87189867D01*
X177621607Y-87321038D01*
X177648053Y-87340252D01*
X177797080Y-87416185D01*
X177876024Y-87456410D01*
X177876027Y-87456411D01*
X177997693Y-87495942D01*
X178119361Y-87535474D01*
X178372070Y-87575500D01*
X178372071Y-87575500D01*
X178627929Y-87575500D01*
X178627930Y-87575500D01*
X178880639Y-87535474D01*
X179123975Y-87456410D01*
X179351947Y-87340252D01*
X179558942Y-87189862D01*
X179739862Y-87008942D01*
X179890252Y-86801947D01*
X180006410Y-86573975D01*
X180085474Y-86330639D01*
X180125500Y-86077930D01*
X180125500Y-85822070D01*
X180085474Y-85569361D01*
X180006410Y-85326025D01*
X180006410Y-85326024D01*
X179953020Y-85221241D01*
X179890252Y-85098053D01*
X179848946Y-85041200D01*
X179739867Y-84891064D01*
X179739863Y-84891059D01*
X179558940Y-84710136D01*
X179558935Y-84710132D01*
X179351950Y-84559750D01*
X179351949Y-84559749D01*
X179351947Y-84559748D01*
X179217415Y-84491200D01*
X179123975Y-84443589D01*
X179123972Y-84443588D01*
X178880640Y-84364526D01*
X178685169Y-84333566D01*
X178627930Y-84324500D01*
X178372070Y-84324500D01*
X178314831Y-84333566D01*
X178119359Y-84364526D01*
X177876027Y-84443588D01*
X177876024Y-84443589D01*
X177648049Y-84559750D01*
X177441064Y-84710132D01*
X177441059Y-84710136D01*
X177260136Y-84891059D01*
X177260132Y-84891064D01*
X177109750Y-85098049D01*
X176993589Y-85326024D01*
X176993588Y-85326027D01*
X176914526Y-85569359D01*
X176885785Y-85750819D01*
X176874500Y-85822070D01*
X173245411Y-85822070D01*
X169413991Y-81990649D01*
X174360000Y-81990649D01*
X174362899Y-82027489D01*
X174362900Y-82027495D01*
X174408716Y-82185193D01*
X174408717Y-82185196D01*
X174492314Y-82326552D01*
X174492321Y-82326561D01*
X174608438Y-82442678D01*
X174608447Y-82442685D01*
X174749801Y-82526281D01*
X174907514Y-82572100D01*
X174907511Y-82572100D01*
X174909998Y-82572295D01*
X174910000Y-82572295D01*
X175410000Y-82572295D01*
X175410001Y-82572295D01*
X175412486Y-82572100D01*
X175570198Y-82526281D01*
X175711552Y-82442685D01*
X175717722Y-82437900D01*
X175719546Y-82440252D01*
X175768595Y-82413445D01*
X175838288Y-82418402D01*
X175871063Y-82439465D01*
X175872278Y-82437900D01*
X175878447Y-82442685D01*
X176019801Y-82526281D01*
X176177514Y-82572100D01*
X176177511Y-82572100D01*
X176179998Y-82572295D01*
X176180000Y-82572295D01*
X176680000Y-82572295D01*
X176680001Y-82572295D01*
X176682486Y-82572100D01*
X176840198Y-82526281D01*
X176981552Y-82442685D01*
X176987722Y-82437900D01*
X176989546Y-82440252D01*
X177038595Y-82413445D01*
X177108288Y-82418402D01*
X177141063Y-82439465D01*
X177142278Y-82437900D01*
X177148447Y-82442685D01*
X177289801Y-82526281D01*
X177447514Y-82572100D01*
X177447511Y-82572100D01*
X177449998Y-82572295D01*
X177450000Y-82572295D01*
X177950000Y-82572295D01*
X177950001Y-82572295D01*
X177952486Y-82572100D01*
X178110198Y-82526281D01*
X178251552Y-82442685D01*
X178257722Y-82437900D01*
X178259546Y-82440252D01*
X178308595Y-82413445D01*
X178378288Y-82418402D01*
X178411063Y-82439465D01*
X178412278Y-82437900D01*
X178418447Y-82442685D01*
X178559801Y-82526281D01*
X178717514Y-82572100D01*
X178717511Y-82572100D01*
X178719998Y-82572295D01*
X178720000Y-82572295D01*
X179220000Y-82572295D01*
X179220001Y-82572295D01*
X179222486Y-82572100D01*
X179380198Y-82526281D01*
X179521552Y-82442685D01*
X179521561Y-82442678D01*
X179637678Y-82326561D01*
X179637685Y-82326552D01*
X179721282Y-82185196D01*
X179721283Y-82185193D01*
X179767099Y-82027495D01*
X179767100Y-82027489D01*
X179769999Y-81990649D01*
X179770000Y-81990634D01*
X179770000Y-81350000D01*
X179220000Y-81350000D01*
X179220000Y-82572295D01*
X178720000Y-82572295D01*
X178720000Y-81350000D01*
X177950000Y-81350000D01*
X177950000Y-82572295D01*
X177450000Y-82572295D01*
X177450000Y-81350000D01*
X176680000Y-81350000D01*
X176680000Y-82572295D01*
X176180000Y-82572295D01*
X176180000Y-81350000D01*
X175410000Y-81350000D01*
X175410000Y-82572295D01*
X174910000Y-82572295D01*
X174910000Y-81350000D01*
X174360000Y-81350000D01*
X174360000Y-81990649D01*
X169413991Y-81990649D01*
X168519034Y-81095692D01*
X167791204Y-80367862D01*
X167749653Y-80340099D01*
X167684264Y-80296408D01*
X167565444Y-80247191D01*
X167565441Y-80247190D01*
X167558086Y-80245727D01*
X167550731Y-80244264D01*
X167550729Y-80244263D01*
X167550729Y-80244264D01*
X167439307Y-80222100D01*
X167439305Y-80222100D01*
X165769500Y-80222100D01*
X165702461Y-80202415D01*
X165656706Y-80149611D01*
X165645500Y-80098100D01*
X165645500Y-79984313D01*
X165645499Y-79984298D01*
X165642598Y-79947432D01*
X165642597Y-79947426D01*
X165618207Y-79863476D01*
X165596745Y-79789606D01*
X165596744Y-79789603D01*
X165596744Y-79789602D01*
X165513081Y-79648135D01*
X165513079Y-79648133D01*
X165513076Y-79648129D01*
X165396870Y-79531923D01*
X165396862Y-79531917D01*
X165255396Y-79448255D01*
X165255393Y-79448254D01*
X165097573Y-79402402D01*
X165097567Y-79402401D01*
X165060701Y-79399500D01*
X165060694Y-79399500D01*
X164629306Y-79399500D01*
X164629298Y-79399500D01*
X164592432Y-79402401D01*
X164592426Y-79402402D01*
X164434606Y-79448254D01*
X164434603Y-79448255D01*
X164293137Y-79531917D01*
X164286969Y-79536702D01*
X164285072Y-79534256D01*
X164236358Y-79560857D01*
X164166666Y-79555873D01*
X164134296Y-79535069D01*
X164133031Y-79536702D01*
X164126862Y-79531917D01*
X163985396Y-79448255D01*
X163985393Y-79448254D01*
X163827573Y-79402402D01*
X163827567Y-79402401D01*
X163790701Y-79399500D01*
X163790694Y-79399500D01*
X163359306Y-79399500D01*
X163359298Y-79399500D01*
X163322432Y-79402401D01*
X163322426Y-79402402D01*
X163164606Y-79448254D01*
X163164603Y-79448255D01*
X163023137Y-79531917D01*
X163016969Y-79536702D01*
X163015072Y-79534256D01*
X162966358Y-79560857D01*
X162896666Y-79555873D01*
X162864296Y-79535069D01*
X162863031Y-79536702D01*
X162856862Y-79531917D01*
X162715396Y-79448255D01*
X162715394Y-79448254D01*
X162653043Y-79430139D01*
X162594157Y-79392532D01*
X162564952Y-79329059D01*
X162574699Y-79259873D01*
X162599956Y-79223383D01*
X162812141Y-79011199D01*
X162883593Y-78904263D01*
X162920854Y-78814305D01*
X162932809Y-78785444D01*
X162957900Y-78659305D01*
X162957900Y-77446895D01*
X162977585Y-77379856D01*
X163030389Y-77334101D01*
X163099547Y-77324157D01*
X163145018Y-77340162D01*
X163164602Y-77351744D01*
X163169552Y-77353182D01*
X163322426Y-77397597D01*
X163322429Y-77397597D01*
X163322431Y-77397598D01*
X163359306Y-77400500D01*
X163359314Y-77400500D01*
X163790686Y-77400500D01*
X163790694Y-77400500D01*
X163827569Y-77397598D01*
X163827571Y-77397597D01*
X163827573Y-77397597D01*
X163888637Y-77379856D01*
X163985398Y-77351744D01*
X164126865Y-77268081D01*
X164126868Y-77268077D01*
X164133026Y-77263301D01*
X164134839Y-77265638D01*
X164183949Y-77238798D01*
X164253643Y-77243756D01*
X164285996Y-77264551D01*
X164287278Y-77262900D01*
X164293447Y-77267685D01*
X164434801Y-77351281D01*
X164592514Y-77397100D01*
X164592511Y-77397100D01*
X164594998Y-77397295D01*
X164595000Y-77397295D01*
X165095000Y-77397295D01*
X165095001Y-77397295D01*
X165097486Y-77397100D01*
X165255198Y-77351281D01*
X165396552Y-77267685D01*
X165396561Y-77267678D01*
X165512678Y-77151561D01*
X165512685Y-77151552D01*
X165596282Y-77010196D01*
X165596283Y-77010193D01*
X165642099Y-76852495D01*
X165642100Y-76852489D01*
X165644999Y-76815649D01*
X165645000Y-76815634D01*
X165645000Y-76175000D01*
X165095000Y-76175000D01*
X165095000Y-77397295D01*
X164595000Y-77397295D01*
X164595000Y-75675000D01*
X165095000Y-75675000D01*
X165645000Y-75675000D01*
X165645000Y-75034365D01*
X165644999Y-75034350D01*
X165642100Y-74997510D01*
X165642099Y-74997504D01*
X165596283Y-74839806D01*
X165596282Y-74839803D01*
X165512685Y-74698447D01*
X165512678Y-74698438D01*
X165396561Y-74582321D01*
X165396552Y-74582314D01*
X165255196Y-74498717D01*
X165255193Y-74498716D01*
X165097494Y-74452900D01*
X165097497Y-74452900D01*
X165095000Y-74452703D01*
X165095000Y-75675000D01*
X164595000Y-75675000D01*
X164595000Y-74452703D01*
X164592503Y-74452900D01*
X164434806Y-74498716D01*
X164434801Y-74498718D01*
X164415019Y-74510417D01*
X164347295Y-74527598D01*
X164281033Y-74505438D01*
X164237270Y-74450971D01*
X164227900Y-74403684D01*
X164227900Y-74299986D01*
X167312501Y-74299986D01*
X167322994Y-74402697D01*
X167378141Y-74569119D01*
X167378143Y-74569124D01*
X167470184Y-74718345D01*
X167594154Y-74842315D01*
X167743375Y-74934356D01*
X167743380Y-74934358D01*
X167909802Y-74989505D01*
X167909809Y-74989506D01*
X168012519Y-74999999D01*
X168224999Y-74999999D01*
X168725000Y-74999999D01*
X168937472Y-74999999D01*
X168937486Y-74999998D01*
X169040197Y-74989505D01*
X169206619Y-74934358D01*
X169206624Y-74934356D01*
X169355845Y-74842315D01*
X169479815Y-74718345D01*
X169571856Y-74569124D01*
X169571858Y-74569119D01*
X169627005Y-74402697D01*
X169627006Y-74402690D01*
X169637499Y-74299986D01*
X169637500Y-74299973D01*
X169637500Y-73850000D01*
X168725000Y-73850000D01*
X168725000Y-74999999D01*
X168224999Y-74999999D01*
X168225000Y-74999998D01*
X168225000Y-73850000D01*
X167312501Y-73850000D01*
X167312501Y-74299986D01*
X164227900Y-74299986D01*
X164227900Y-72900013D01*
X167312500Y-72900013D01*
X167312500Y-73350000D01*
X168225000Y-73350000D01*
X168725000Y-73350000D01*
X169637499Y-73350000D01*
X169637499Y-72900028D01*
X169637498Y-72900013D01*
X169627005Y-72797302D01*
X169571858Y-72630880D01*
X169571856Y-72630875D01*
X169479815Y-72481654D01*
X169355845Y-72357684D01*
X169206624Y-72265643D01*
X169206619Y-72265641D01*
X169040197Y-72210494D01*
X169040190Y-72210493D01*
X168937486Y-72200000D01*
X168725000Y-72200000D01*
X168725000Y-73350000D01*
X168225000Y-73350000D01*
X168225000Y-72200000D01*
X168012529Y-72200000D01*
X168012512Y-72200001D01*
X167909802Y-72210494D01*
X167743380Y-72265641D01*
X167743375Y-72265643D01*
X167594154Y-72357684D01*
X167470184Y-72481654D01*
X167378143Y-72630875D01*
X167378141Y-72630880D01*
X167322994Y-72797302D01*
X167322993Y-72797309D01*
X167312500Y-72900013D01*
X164227900Y-72900013D01*
X164227900Y-71160692D01*
X164202810Y-71034561D01*
X164202809Y-71034560D01*
X164202809Y-71034556D01*
X164153592Y-70915736D01*
X164127174Y-70876199D01*
X164082141Y-70808801D01*
X164082139Y-70808799D01*
X164082137Y-70808796D01*
X158554033Y-65280692D01*
X158520548Y-65219369D01*
X158525532Y-65149677D01*
X158567404Y-65093744D01*
X158622310Y-65070539D01*
X158706243Y-65057246D01*
X158908412Y-64991557D01*
X159097816Y-64895051D01*
X159152572Y-64855269D01*
X159269786Y-64770109D01*
X159269788Y-64770106D01*
X159269792Y-64770104D01*
X159420104Y-64619792D01*
X159420106Y-64619788D01*
X159420109Y-64619786D01*
X159545048Y-64447820D01*
X159545047Y-64447820D01*
X159545051Y-64447816D01*
X159549514Y-64439054D01*
X159597488Y-64388259D01*
X159665308Y-64371463D01*
X159731444Y-64393999D01*
X159770486Y-64439056D01*
X159774951Y-64447820D01*
X159899890Y-64619786D01*
X160050213Y-64770109D01*
X160222179Y-64895048D01*
X160222181Y-64895049D01*
X160222184Y-64895051D01*
X160411588Y-64991557D01*
X160613757Y-65057246D01*
X160823713Y-65090500D01*
X160823714Y-65090500D01*
X161036286Y-65090500D01*
X161036287Y-65090500D01*
X161246243Y-65057246D01*
X161448412Y-64991557D01*
X161637816Y-64895051D01*
X161692572Y-64855269D01*
X161809786Y-64770109D01*
X161809788Y-64770106D01*
X161809792Y-64770104D01*
X161960104Y-64619792D01*
X161960106Y-64619788D01*
X161960109Y-64619786D01*
X162085048Y-64447820D01*
X162085047Y-64447820D01*
X162085051Y-64447816D01*
X162089514Y-64439054D01*
X162137488Y-64388259D01*
X162205308Y-64371463D01*
X162271444Y-64393999D01*
X162310486Y-64439056D01*
X162314951Y-64447820D01*
X162439890Y-64619786D01*
X162590213Y-64770109D01*
X162762179Y-64895048D01*
X162762181Y-64895049D01*
X162762184Y-64895051D01*
X162951588Y-64991557D01*
X163153757Y-65057246D01*
X163363713Y-65090500D01*
X163363714Y-65090500D01*
X163576286Y-65090500D01*
X163576287Y-65090500D01*
X163786243Y-65057246D01*
X163988412Y-64991557D01*
X164177816Y-64895051D01*
X164232572Y-64855269D01*
X164349786Y-64770109D01*
X164349788Y-64770106D01*
X164349792Y-64770104D01*
X164500104Y-64619792D01*
X164500106Y-64619788D01*
X164500109Y-64619786D01*
X164625048Y-64447820D01*
X164625047Y-64447820D01*
X164625051Y-64447816D01*
X164629514Y-64439054D01*
X164677488Y-64388259D01*
X164745308Y-64371463D01*
X164811444Y-64393999D01*
X164850486Y-64439056D01*
X164854951Y-64447820D01*
X164979890Y-64619786D01*
X165130213Y-64770109D01*
X165302179Y-64895048D01*
X165302181Y-64895049D01*
X165302184Y-64895051D01*
X165491588Y-64991557D01*
X165693757Y-65057246D01*
X165903713Y-65090500D01*
X165903714Y-65090500D01*
X166116286Y-65090500D01*
X166116287Y-65090500D01*
X166326243Y-65057246D01*
X166528412Y-64991557D01*
X166717816Y-64895051D01*
X166772572Y-64855269D01*
X166889786Y-64770109D01*
X166889788Y-64770106D01*
X166889792Y-64770104D01*
X167040104Y-64619792D01*
X167040106Y-64619788D01*
X167040109Y-64619786D01*
X167165048Y-64447820D01*
X167165047Y-64447820D01*
X167165051Y-64447816D01*
X167169514Y-64439054D01*
X167217488Y-64388259D01*
X167285308Y-64371463D01*
X167351444Y-64393999D01*
X167390486Y-64439056D01*
X167394951Y-64447820D01*
X167519890Y-64619786D01*
X167670213Y-64770109D01*
X167842179Y-64895048D01*
X167842181Y-64895049D01*
X167842184Y-64895051D01*
X168031588Y-64991557D01*
X168233757Y-65057246D01*
X168443713Y-65090500D01*
X168443714Y-65090500D01*
X168656286Y-65090500D01*
X168656287Y-65090500D01*
X168866243Y-65057246D01*
X169068412Y-64991557D01*
X169257816Y-64895051D01*
X169312572Y-64855269D01*
X169429786Y-64770109D01*
X169429788Y-64770106D01*
X169429792Y-64770104D01*
X169580104Y-64619792D01*
X169580106Y-64619788D01*
X169580109Y-64619786D01*
X169705048Y-64447820D01*
X169705047Y-64447820D01*
X169705051Y-64447816D01*
X169709514Y-64439054D01*
X169757488Y-64388259D01*
X169825308Y-64371463D01*
X169891444Y-64393999D01*
X169930486Y-64439056D01*
X169934951Y-64447820D01*
X170059890Y-64619786D01*
X170210213Y-64770109D01*
X170382179Y-64895048D01*
X170382181Y-64895049D01*
X170382184Y-64895051D01*
X170571588Y-64991557D01*
X170773757Y-65057246D01*
X170983713Y-65090500D01*
X170983714Y-65090500D01*
X171196286Y-65090500D01*
X171196287Y-65090500D01*
X171406243Y-65057246D01*
X171608412Y-64991557D01*
X171797816Y-64895051D01*
X171852572Y-64855269D01*
X171969786Y-64770109D01*
X171969788Y-64770106D01*
X171969792Y-64770104D01*
X172120104Y-64619792D01*
X172120106Y-64619788D01*
X172120109Y-64619786D01*
X172205890Y-64501717D01*
X172245051Y-64447816D01*
X172249793Y-64438508D01*
X172297763Y-64387711D01*
X172365583Y-64370911D01*
X172431719Y-64393445D01*
X172470763Y-64438500D01*
X172475373Y-64447547D01*
X172514728Y-64501716D01*
X173147036Y-63869407D01*
X173164075Y-63932993D01*
X173229901Y-64047007D01*
X173322993Y-64140099D01*
X173437007Y-64205925D01*
X173500590Y-64222962D01*
X172868282Y-64855269D01*
X172868282Y-64855270D01*
X172922449Y-64894624D01*
X173111782Y-64991095D01*
X173313870Y-65056757D01*
X173523754Y-65090000D01*
X173736246Y-65090000D01*
X173946127Y-65056757D01*
X173946130Y-65056757D01*
X174148217Y-64991095D01*
X174337554Y-64894622D01*
X174391716Y-64855270D01*
X174391717Y-64855270D01*
X173759408Y-64222962D01*
X173822993Y-64205925D01*
X173937007Y-64140099D01*
X174030099Y-64047007D01*
X174095925Y-63932993D01*
X174112962Y-63869409D01*
X174745270Y-64501717D01*
X174745270Y-64501716D01*
X174756982Y-64485598D01*
X174812312Y-64442933D01*
X174881926Y-64436954D01*
X174943721Y-64469560D01*
X174978078Y-64530399D01*
X174981300Y-64558484D01*
X174981300Y-64798505D01*
X174981300Y-64798507D01*
X174981299Y-64798507D01*
X175001669Y-64900905D01*
X175005909Y-64922223D01*
X175006391Y-64924644D01*
X175048806Y-65027044D01*
X175055608Y-65043464D01*
X175126576Y-65149677D01*
X175127062Y-65150404D01*
X175127063Y-65150405D01*
X175560781Y-65584121D01*
X175575484Y-65611048D01*
X175592077Y-65636867D01*
X175592968Y-65643067D01*
X175594266Y-65645444D01*
X175597100Y-65671802D01*
X175597100Y-65839338D01*
X175577415Y-65906377D01*
X175524611Y-65952132D01*
X175455453Y-65962076D01*
X175408004Y-65944877D01*
X175319340Y-65890189D01*
X175319335Y-65890187D01*
X175319334Y-65890186D01*
X175152797Y-65835001D01*
X175152795Y-65835000D01*
X175050010Y-65824500D01*
X174149998Y-65824500D01*
X174149980Y-65824501D01*
X174047203Y-65835000D01*
X174047200Y-65835001D01*
X173880668Y-65890185D01*
X173880663Y-65890187D01*
X173731342Y-65982289D01*
X173607289Y-66106342D01*
X173515187Y-66255663D01*
X173515186Y-66255666D01*
X173460002Y-66422202D01*
X173460001Y-66422204D01*
X173460000Y-66422205D01*
X173453752Y-66483367D01*
X173427355Y-66548059D01*
X173377847Y-66585325D01*
X173290741Y-66621405D01*
X173290733Y-66621409D01*
X173183798Y-66692860D01*
X172412180Y-67464478D01*
X172350857Y-67497963D01*
X172281165Y-67492979D01*
X172225232Y-67451107D01*
X172200815Y-67385643D01*
X172200499Y-67376797D01*
X172200499Y-66624998D01*
X172200498Y-66624981D01*
X172189999Y-66522203D01*
X172189998Y-66522200D01*
X172177130Y-66483367D01*
X172134814Y-66355666D01*
X172042712Y-66206344D01*
X171918656Y-66082288D01*
X171769334Y-65990186D01*
X171602797Y-65935001D01*
X171602795Y-65935000D01*
X171500010Y-65924500D01*
X170599998Y-65924500D01*
X170599980Y-65924501D01*
X170497203Y-65935000D01*
X170497200Y-65935001D01*
X170330668Y-65990185D01*
X170330663Y-65990187D01*
X170181342Y-66082289D01*
X170057289Y-66206342D01*
X169965187Y-66355663D01*
X169965186Y-66355666D01*
X169910001Y-66522203D01*
X169910001Y-66522204D01*
X169910000Y-66522204D01*
X169899500Y-66624983D01*
X169899500Y-67975001D01*
X169899501Y-67975018D01*
X169910000Y-68077796D01*
X169910001Y-68077799D01*
X169944365Y-68181500D01*
X169965186Y-68244334D01*
X170057288Y-68393656D01*
X170181344Y-68517712D01*
X170182506Y-68518429D01*
X170183135Y-68519128D01*
X170187008Y-68522190D01*
X170186484Y-68522851D01*
X170229231Y-68570372D01*
X170240456Y-68639334D01*
X170231973Y-68671420D01*
X170202377Y-68742871D01*
X170202374Y-68742881D01*
X170168500Y-68913177D01*
X170168500Y-68913180D01*
X170168500Y-69086820D01*
X170168500Y-69086822D01*
X170168499Y-69086822D01*
X170190796Y-69198908D01*
X170184569Y-69268500D01*
X170141706Y-69323677D01*
X170075817Y-69346922D01*
X170069179Y-69347100D01*
X169771802Y-69347100D01*
X169704763Y-69327415D01*
X169684121Y-69310781D01*
X169289540Y-68916200D01*
X168942533Y-68569193D01*
X168909050Y-68507872D01*
X168914034Y-68438180D01*
X168938746Y-68399731D01*
X168938231Y-68399324D01*
X168942383Y-68394071D01*
X168942541Y-68393826D01*
X168942712Y-68393656D01*
X169034814Y-68244334D01*
X169089999Y-68077797D01*
X169100500Y-67975009D01*
X169100499Y-66624992D01*
X169089999Y-66522203D01*
X169034814Y-66355666D01*
X168942712Y-66206344D01*
X168818656Y-66082288D01*
X168669334Y-65990186D01*
X168502797Y-65935001D01*
X168502795Y-65935000D01*
X168400010Y-65924500D01*
X167499998Y-65924500D01*
X167499980Y-65924501D01*
X167397203Y-65935000D01*
X167397200Y-65935001D01*
X167230668Y-65990185D01*
X167230663Y-65990187D01*
X167081342Y-66082289D01*
X166957289Y-66206342D01*
X166865187Y-66355663D01*
X166865186Y-66355666D01*
X166811120Y-66518828D01*
X166810001Y-66522204D01*
X166810000Y-66522205D01*
X166808622Y-66535702D01*
X166782226Y-66600394D01*
X166725046Y-66640545D01*
X166685264Y-66647100D01*
X165345047Y-66647100D01*
X165278008Y-66627415D01*
X165266382Y-66618953D01*
X165261923Y-66615294D01*
X165117553Y-66518828D01*
X165117540Y-66518821D01*
X164957128Y-66452377D01*
X164957118Y-66452374D01*
X164786822Y-66418500D01*
X164786820Y-66418500D01*
X164613180Y-66418500D01*
X164613178Y-66418500D01*
X164442881Y-66452374D01*
X164442871Y-66452377D01*
X164282459Y-66518821D01*
X164282446Y-66518828D01*
X164138077Y-66615293D01*
X164138073Y-66615296D01*
X164015296Y-66738073D01*
X164015293Y-66738077D01*
X163918828Y-66882446D01*
X163918821Y-66882459D01*
X163852377Y-67042871D01*
X163852374Y-67042881D01*
X163818500Y-67213177D01*
X163818500Y-67213180D01*
X163818500Y-67386820D01*
X163818500Y-67386822D01*
X163818499Y-67386822D01*
X163852374Y-67557118D01*
X163852377Y-67557128D01*
X163918821Y-67717540D01*
X163918828Y-67717553D01*
X164015293Y-67861922D01*
X164015296Y-67861926D01*
X164138073Y-67984703D01*
X164138077Y-67984706D01*
X164282446Y-68081171D01*
X164282459Y-68081178D01*
X164366108Y-68115826D01*
X164442876Y-68147624D01*
X164442880Y-68147624D01*
X164442881Y-68147625D01*
X164613177Y-68181500D01*
X164613180Y-68181500D01*
X164786822Y-68181500D01*
X164901394Y-68158709D01*
X164957124Y-68147624D01*
X165117547Y-68081175D01*
X165261923Y-67984706D01*
X165261928Y-67984700D01*
X165266382Y-67981047D01*
X165330692Y-67953734D01*
X165345047Y-67952900D01*
X166685264Y-67952900D01*
X166752303Y-67972585D01*
X166798058Y-68025389D01*
X166808622Y-68064298D01*
X166810001Y-68077797D01*
X166810001Y-68077799D01*
X166844365Y-68181500D01*
X166865186Y-68244334D01*
X166957288Y-68393656D01*
X167081344Y-68517712D01*
X167230666Y-68609814D01*
X167230668Y-68609814D01*
X167230669Y-68609815D01*
X167244219Y-68614305D01*
X167301666Y-68654075D01*
X167318329Y-68685447D01*
X167319859Y-68684814D01*
X167370197Y-68806342D01*
X167371408Y-68809264D01*
X167436874Y-68907242D01*
X167442862Y-68916204D01*
X167442863Y-68916205D01*
X169033794Y-70507135D01*
X169033797Y-70507138D01*
X169093187Y-70546821D01*
X169123673Y-70567191D01*
X169140736Y-70578592D01*
X169259556Y-70627809D01*
X169259560Y-70627809D01*
X169259561Y-70627810D01*
X169385692Y-70652900D01*
X169385695Y-70652900D01*
X170823100Y-70652900D01*
X170890139Y-70672585D01*
X170935894Y-70725389D01*
X170947100Y-70776900D01*
X170947100Y-72149488D01*
X170927415Y-72216527D01*
X170874611Y-72262282D01*
X170873222Y-72262827D01*
X170868169Y-72265184D01*
X170718842Y-72357289D01*
X170594789Y-72481342D01*
X170502687Y-72630663D01*
X170502685Y-72630668D01*
X170502615Y-72630880D01*
X170447501Y-72797203D01*
X170447501Y-72797204D01*
X170447500Y-72797204D01*
X170437000Y-72899983D01*
X170437000Y-74300001D01*
X170437001Y-74300018D01*
X170447500Y-74402796D01*
X170447501Y-74402799D01*
X170502685Y-74569331D01*
X170502687Y-74569336D01*
X170513642Y-74587097D01*
X170594788Y-74718656D01*
X170718844Y-74842712D01*
X170868166Y-74934814D01*
X171034703Y-74989999D01*
X171137491Y-75000500D01*
X172062508Y-75000499D01*
X172062516Y-75000498D01*
X172062519Y-75000498D01*
X172118802Y-74994748D01*
X172165297Y-74989999D01*
X172331834Y-74934814D01*
X172481156Y-74842712D01*
X172605212Y-74718656D01*
X172697314Y-74569334D01*
X172752499Y-74402797D01*
X172763000Y-74300009D01*
X172762999Y-72899992D01*
X172752499Y-72797203D01*
X172697314Y-72630666D01*
X172605212Y-72481344D01*
X172481156Y-72357288D01*
X172331834Y-72265186D01*
X172331832Y-72265185D01*
X172331830Y-72265184D01*
X172325289Y-72262134D01*
X172326573Y-72259380D01*
X172280372Y-72227324D01*
X172253615Y-72162781D01*
X172252900Y-72149488D01*
X172252900Y-70521802D01*
X172272585Y-70454763D01*
X172289219Y-70434121D01*
X173107139Y-69616201D01*
X173107141Y-69616199D01*
X173178592Y-69509264D01*
X173210939Y-69431172D01*
X173254780Y-69376768D01*
X173321074Y-69354703D01*
X173388773Y-69371982D01*
X173436384Y-69423119D01*
X173449500Y-69478624D01*
X173449500Y-70575001D01*
X173449501Y-70575018D01*
X173460000Y-70677796D01*
X173460001Y-70677799D01*
X173507044Y-70819763D01*
X173515186Y-70844334D01*
X173607288Y-70993656D01*
X173731344Y-71117712D01*
X173774712Y-71144461D01*
X173821436Y-71196409D01*
X173832659Y-71265372D01*
X173804815Y-71329454D01*
X173774713Y-71355537D01*
X173762816Y-71362876D01*
X173731342Y-71382289D01*
X173607289Y-71506342D01*
X173515187Y-71655663D01*
X173515185Y-71655668D01*
X173504435Y-71688111D01*
X173460001Y-71822203D01*
X173460001Y-71822204D01*
X173460000Y-71822204D01*
X173449500Y-71924983D01*
X173449500Y-73275001D01*
X173449501Y-73275018D01*
X173460000Y-73377796D01*
X173460001Y-73377799D01*
X173515185Y-73544331D01*
X173515187Y-73544336D01*
X173524395Y-73559264D01*
X173607288Y-73693656D01*
X173731344Y-73817712D01*
X173880666Y-73909814D01*
X173880667Y-73909814D01*
X173886813Y-73913605D01*
X173885308Y-73916044D01*
X173927929Y-73953556D01*
X173947100Y-74019789D01*
X173947100Y-74514305D01*
X173947100Y-74514307D01*
X173947099Y-74514307D01*
X173972189Y-74640438D01*
X173972191Y-74640444D01*
X174004587Y-74718656D01*
X174021408Y-74759264D01*
X174076900Y-74842315D01*
X174092862Y-74866204D01*
X174330062Y-75103404D01*
X174363547Y-75164727D01*
X174361801Y-75215886D01*
X174363540Y-75216204D01*
X174362401Y-75222436D01*
X174359500Y-75259298D01*
X174359500Y-76973100D01*
X174356949Y-76981785D01*
X174358238Y-76990747D01*
X174347259Y-77014787D01*
X174339815Y-77040139D01*
X174332974Y-77046066D01*
X174329213Y-77054303D01*
X174306978Y-77068592D01*
X174287011Y-77085894D01*
X174276496Y-77088181D01*
X174270435Y-77092077D01*
X174235500Y-77097100D01*
X174021803Y-77097100D01*
X173954764Y-77077415D01*
X173934122Y-77060781D01*
X173766205Y-76892863D01*
X173766204Y-76892862D01*
X173766200Y-76892859D01*
X173659264Y-76821408D01*
X173645469Y-76815694D01*
X173540444Y-76772191D01*
X173540438Y-76772189D01*
X173414307Y-76747100D01*
X173414305Y-76747100D01*
X172274499Y-76747100D01*
X172207460Y-76727415D01*
X172161705Y-76674611D01*
X172150499Y-76623100D01*
X172150499Y-76502129D01*
X172150498Y-76502123D01*
X172150497Y-76502116D01*
X172144091Y-76442517D01*
X172135254Y-76418825D01*
X172093797Y-76307671D01*
X172093793Y-76307664D01*
X172007547Y-76192455D01*
X172007544Y-76192452D01*
X171892335Y-76106206D01*
X171892328Y-76106202D01*
X171757482Y-76055908D01*
X171757483Y-76055908D01*
X171697883Y-76049501D01*
X171697881Y-76049500D01*
X171697873Y-76049500D01*
X171697864Y-76049500D01*
X169902129Y-76049500D01*
X169902123Y-76049501D01*
X169842516Y-76055908D01*
X169707671Y-76106202D01*
X169707664Y-76106206D01*
X169592455Y-76192452D01*
X169592452Y-76192455D01*
X169506206Y-76307664D01*
X169506202Y-76307671D01*
X169455908Y-76442517D01*
X169449501Y-76502116D01*
X169449501Y-76502123D01*
X169449500Y-76502135D01*
X169449500Y-78297870D01*
X169449501Y-78297876D01*
X169455908Y-78357483D01*
X169506202Y-78492328D01*
X169506206Y-78492335D01*
X169592452Y-78607544D01*
X169592455Y-78607547D01*
X169707664Y-78693793D01*
X169707671Y-78693797D01*
X169752618Y-78710561D01*
X169842517Y-78744091D01*
X169902127Y-78750500D01*
X169912685Y-78750499D01*
X169979723Y-78770179D01*
X170000372Y-78786818D01*
X170670591Y-79457037D01*
X170607007Y-79474075D01*
X170492993Y-79539901D01*
X170399901Y-79632993D01*
X170334075Y-79747007D01*
X170317037Y-79810591D01*
X169684728Y-79178282D01*
X169684727Y-79178282D01*
X169645380Y-79232439D01*
X169548904Y-79421782D01*
X169483242Y-79623869D01*
X169483242Y-79623872D01*
X169450000Y-79833753D01*
X169450000Y-80046246D01*
X169483242Y-80256127D01*
X169483242Y-80256130D01*
X169548904Y-80458217D01*
X169645375Y-80647550D01*
X169684728Y-80701716D01*
X170317037Y-80069408D01*
X170334075Y-80132993D01*
X170399901Y-80247007D01*
X170492993Y-80340099D01*
X170607007Y-80405925D01*
X170670590Y-80422962D01*
X170038282Y-81055269D01*
X170038282Y-81055270D01*
X170092449Y-81094624D01*
X170281782Y-81191095D01*
X170483870Y-81256757D01*
X170693754Y-81290000D01*
X170906246Y-81290000D01*
X171116127Y-81256757D01*
X171116130Y-81256757D01*
X171318219Y-81191094D01*
X171323991Y-81188154D01*
X171323992Y-81188153D01*
X171507554Y-81094622D01*
X171561716Y-81055270D01*
X171561717Y-81055270D01*
X170929408Y-80422962D01*
X170992993Y-80405925D01*
X171107007Y-80340099D01*
X171200099Y-80247007D01*
X171265925Y-80132993D01*
X171282962Y-80069408D01*
X171915270Y-80701717D01*
X171915270Y-80701716D01*
X171954622Y-80647554D01*
X172051095Y-80458217D01*
X172116757Y-80256130D01*
X172116757Y-80256129D01*
X172124167Y-80209350D01*
X174360000Y-80209350D01*
X174360000Y-80850000D01*
X174910000Y-80850000D01*
X174910000Y-79627703D01*
X175410000Y-79627703D01*
X175410000Y-80850000D01*
X176180000Y-80850000D01*
X176180000Y-79627703D01*
X176680000Y-79627703D01*
X176680000Y-80850000D01*
X177450000Y-80850000D01*
X177450000Y-79627703D01*
X177950000Y-79627703D01*
X177950000Y-80850000D01*
X178720000Y-80850000D01*
X179220000Y-80850000D01*
X179770000Y-80850000D01*
X179770000Y-80209365D01*
X179769999Y-80209350D01*
X179767100Y-80172510D01*
X179767099Y-80172504D01*
X179721283Y-80014806D01*
X179721282Y-80014803D01*
X179637685Y-79873447D01*
X179637678Y-79873438D01*
X179521561Y-79757321D01*
X179521552Y-79757314D01*
X179380196Y-79673717D01*
X179380193Y-79673716D01*
X179222494Y-79627900D01*
X179222497Y-79627900D01*
X179220000Y-79627703D01*
X179220000Y-80850000D01*
X178720000Y-80850000D01*
X178720000Y-79627703D01*
X178717503Y-79627900D01*
X178559806Y-79673716D01*
X178559803Y-79673717D01*
X178418447Y-79757314D01*
X178412278Y-79762100D01*
X178410457Y-79759753D01*
X178361358Y-79786564D01*
X178291666Y-79781580D01*
X178258930Y-79760541D01*
X178257722Y-79762100D01*
X178251552Y-79757314D01*
X178110196Y-79673717D01*
X178110193Y-79673716D01*
X177952494Y-79627900D01*
X177952497Y-79627900D01*
X177950000Y-79627703D01*
X177450000Y-79627703D01*
X177447503Y-79627900D01*
X177289806Y-79673716D01*
X177289803Y-79673717D01*
X177148447Y-79757314D01*
X177142278Y-79762100D01*
X177140457Y-79759753D01*
X177091358Y-79786564D01*
X177021666Y-79781580D01*
X176988930Y-79760541D01*
X176987722Y-79762100D01*
X176981552Y-79757314D01*
X176840196Y-79673717D01*
X176840193Y-79673716D01*
X176682494Y-79627900D01*
X176682497Y-79627900D01*
X176680000Y-79627703D01*
X176180000Y-79627703D01*
X176177503Y-79627900D01*
X176019806Y-79673716D01*
X176019803Y-79673717D01*
X175878447Y-79757314D01*
X175872278Y-79762100D01*
X175870457Y-79759753D01*
X175821358Y-79786564D01*
X175751666Y-79781580D01*
X175718930Y-79760541D01*
X175717722Y-79762100D01*
X175711552Y-79757314D01*
X175570196Y-79673717D01*
X175570193Y-79673716D01*
X175412494Y-79627900D01*
X175412497Y-79627900D01*
X175410000Y-79627703D01*
X174910000Y-79627703D01*
X174907503Y-79627900D01*
X174749806Y-79673716D01*
X174749803Y-79673717D01*
X174608447Y-79757314D01*
X174608438Y-79757321D01*
X174492321Y-79873438D01*
X174492314Y-79873447D01*
X174408717Y-80014803D01*
X174408716Y-80014806D01*
X174362900Y-80172504D01*
X174362899Y-80172510D01*
X174360000Y-80209350D01*
X172124167Y-80209350D01*
X172127624Y-80187524D01*
X172127624Y-80187523D01*
X172150000Y-80046246D01*
X172150000Y-79833753D01*
X172116757Y-79623872D01*
X172116757Y-79623869D01*
X172051095Y-79421782D01*
X171954624Y-79232449D01*
X171915270Y-79178282D01*
X171915269Y-79178282D01*
X171282962Y-79810590D01*
X171265925Y-79747007D01*
X171200099Y-79632993D01*
X171107007Y-79539901D01*
X170992993Y-79474075D01*
X170929409Y-79457037D01*
X171599627Y-78786818D01*
X171660950Y-78753333D01*
X171687307Y-78750499D01*
X171697872Y-78750499D01*
X171757483Y-78744091D01*
X171892331Y-78693796D01*
X172007546Y-78607546D01*
X172093796Y-78492331D01*
X172144091Y-78357483D01*
X172150500Y-78297873D01*
X172150500Y-78176900D01*
X172170185Y-78109861D01*
X172222989Y-78064106D01*
X172274500Y-78052900D01*
X173028198Y-78052900D01*
X173095237Y-78072585D01*
X173115879Y-78089219D01*
X173283795Y-78257136D01*
X173283796Y-78257137D01*
X173283799Y-78257139D01*
X173283801Y-78257141D01*
X173388658Y-78327203D01*
X173388660Y-78327205D01*
X173390725Y-78328585D01*
X173390728Y-78328586D01*
X173390736Y-78328592D01*
X173509556Y-78377809D01*
X173509560Y-78377809D01*
X173509561Y-78377810D01*
X173635692Y-78402900D01*
X173635695Y-78402900D01*
X176114307Y-78402900D01*
X176199165Y-78386019D01*
X176240444Y-78377809D01*
X176359264Y-78328592D01*
X176361335Y-78327208D01*
X176466200Y-78257141D01*
X176937140Y-77786200D01*
X177008592Y-77679264D01*
X177010355Y-77675009D01*
X177043310Y-77595448D01*
X177087151Y-77541044D01*
X177153445Y-77518979D01*
X177220991Y-77536167D01*
X177289602Y-77576744D01*
X177331224Y-77588836D01*
X177447426Y-77622597D01*
X177447429Y-77622597D01*
X177447431Y-77622598D01*
X177484306Y-77625500D01*
X177484314Y-77625500D01*
X177915686Y-77625500D01*
X177915694Y-77625500D01*
X177952569Y-77622598D01*
X177952571Y-77622597D01*
X177952573Y-77622597D01*
X177994191Y-77610505D01*
X178110398Y-77576744D01*
X178251865Y-77493081D01*
X178251870Y-77493075D01*
X178258031Y-77488298D01*
X178259933Y-77490750D01*
X178308579Y-77464155D01*
X178378274Y-77469104D01*
X178410695Y-77489940D01*
X178411969Y-77488298D01*
X178418132Y-77493078D01*
X178418135Y-77493081D01*
X178559602Y-77576744D01*
X178601224Y-77588836D01*
X178717426Y-77622597D01*
X178717429Y-77622597D01*
X178717431Y-77622598D01*
X178754306Y-77625500D01*
X178754314Y-77625500D01*
X179185686Y-77625500D01*
X179185694Y-77625500D01*
X179222569Y-77622598D01*
X179222571Y-77622597D01*
X179222573Y-77622597D01*
X179264191Y-77610505D01*
X179380398Y-77576744D01*
X179521865Y-77493081D01*
X179638081Y-77376865D01*
X179721744Y-77235398D01*
X179767598Y-77077569D01*
X179770500Y-77040694D01*
X179770500Y-75259306D01*
X179767598Y-75222431D01*
X179766292Y-75217935D01*
X179766487Y-75148069D01*
X179797683Y-75095656D01*
X180717141Y-74176199D01*
X180788592Y-74069264D01*
X180837809Y-73950444D01*
X180842868Y-73925009D01*
X180862900Y-73824305D01*
X180862900Y-67995695D01*
X180862900Y-67995692D01*
X180837810Y-67869561D01*
X180837809Y-67869560D01*
X180837809Y-67869556D01*
X180788592Y-67750736D01*
X180788591Y-67750735D01*
X180788587Y-67750727D01*
X180759463Y-67707141D01*
X180759461Y-67707139D01*
X180717141Y-67643801D01*
X180717139Y-67643799D01*
X180717137Y-67643796D01*
X180717136Y-67643795D01*
X179766205Y-66692863D01*
X179766204Y-66692862D01*
X179743412Y-66677633D01*
X179659264Y-66621408D01*
X179653337Y-66618953D01*
X179540444Y-66572191D01*
X179540438Y-66572189D01*
X179414307Y-66547100D01*
X179414305Y-66547100D01*
X178964736Y-66547100D01*
X178897697Y-66527415D01*
X178851942Y-66474611D01*
X178841378Y-66435702D01*
X178841286Y-66434809D01*
X178839999Y-66422203D01*
X178784814Y-66255666D01*
X178692712Y-66106344D01*
X178568656Y-65982288D01*
X178419334Y-65890186D01*
X178419332Y-65890185D01*
X178413187Y-65886395D01*
X178414685Y-65883966D01*
X178372031Y-65846381D01*
X178352900Y-65780210D01*
X178352900Y-65525692D01*
X178327810Y-65399561D01*
X178327809Y-65399560D01*
X178327809Y-65399556D01*
X178278592Y-65280736D01*
X178276373Y-65277415D01*
X178260565Y-65253756D01*
X178260565Y-65253757D01*
X178207138Y-65173797D01*
X176829219Y-63795878D01*
X176795734Y-63734555D01*
X176792900Y-63708197D01*
X176792900Y-63196596D01*
X176812585Y-63129557D01*
X176865389Y-63083802D01*
X176934547Y-63073858D01*
X176998103Y-63102883D01*
X177027384Y-63140300D01*
X177097724Y-63278349D01*
X177109750Y-63301950D01*
X177260132Y-63508935D01*
X177260136Y-63508940D01*
X177441059Y-63689863D01*
X177441064Y-63689867D01*
X177536988Y-63759559D01*
X177648053Y-63840252D01*
X177797080Y-63916185D01*
X177876024Y-63956410D01*
X177876027Y-63956411D01*
X177997693Y-63995942D01*
X178119361Y-64035474D01*
X178372070Y-64075500D01*
X178372071Y-64075500D01*
X178627929Y-64075500D01*
X178627930Y-64075500D01*
X178880639Y-64035474D01*
X179123975Y-63956410D01*
X179351947Y-63840252D01*
X179558942Y-63689862D01*
X179739862Y-63508942D01*
X179890252Y-63301947D01*
X180006410Y-63073975D01*
X180085474Y-62830639D01*
X180125500Y-62577930D01*
X180125500Y-62322070D01*
X180085474Y-62069361D01*
X180032985Y-61907816D01*
X180006411Y-61826027D01*
X180006410Y-61826024D01*
X179951578Y-61718412D01*
X179890252Y-61598053D01*
X179824104Y-61507007D01*
X179739867Y-61391064D01*
X179739863Y-61391059D01*
X179558940Y-61210136D01*
X179558935Y-61210132D01*
X179351950Y-61059750D01*
X179351949Y-61059749D01*
X179351947Y-61059748D01*
X179278910Y-61022533D01*
X179123975Y-60943589D01*
X179123972Y-60943588D01*
X178880640Y-60864526D01*
X178754284Y-60844513D01*
X178627930Y-60824500D01*
X178372070Y-60824500D01*
X178287833Y-60837842D01*
X178119359Y-60864526D01*
X177876027Y-60943588D01*
X177876024Y-60943589D01*
X177648049Y-61059750D01*
X177441064Y-61210132D01*
X177441059Y-61210136D01*
X177260136Y-61391059D01*
X177260132Y-61391064D01*
X177109750Y-61598049D01*
X177027385Y-61759698D01*
X176979410Y-61810494D01*
X176911589Y-61827289D01*
X176845454Y-61804751D01*
X176802003Y-61750036D01*
X176792900Y-61703403D01*
X176792900Y-60415692D01*
X176767810Y-60289561D01*
X176767809Y-60289560D01*
X176767809Y-60289556D01*
X176718592Y-60170736D01*
X176718027Y-60169890D01*
X176703543Y-60148212D01*
X176703543Y-60148211D01*
X176647144Y-60063805D01*
X176647138Y-60063797D01*
X176245522Y-59662181D01*
X176212037Y-59600858D01*
X176217021Y-59531166D01*
X176258893Y-59475233D01*
X176324357Y-59450816D01*
X176333203Y-59450500D01*
X178934108Y-59450500D01*
X178996249Y-59450500D01*
X179003736Y-59450726D01*
G37*
%TD.AperFunction*%
%TA.AperFunction,Conductor*%
G36*
X153430139Y-66622585D02*
G01*
X153475894Y-66675389D01*
X153487100Y-66726900D01*
X153487100Y-69475200D01*
X153467415Y-69542239D01*
X153414611Y-69587994D01*
X153345453Y-69597938D01*
X153338909Y-69596817D01*
X153246823Y-69578500D01*
X153246820Y-69578500D01*
X153073180Y-69578500D01*
X153073175Y-69578500D01*
X152918296Y-69609307D01*
X152918285Y-69609310D01*
X152902876Y-69612376D01*
X152860046Y-69630116D01*
X152860031Y-69630122D01*
X152742456Y-69678823D01*
X152742446Y-69678828D01*
X152598076Y-69775294D01*
X152593618Y-69778953D01*
X152529308Y-69806266D01*
X152514953Y-69807100D01*
X148275693Y-69807100D01*
X148149561Y-69832189D01*
X148149555Y-69832191D01*
X148030737Y-69881407D01*
X147923797Y-69952861D01*
X147923796Y-69952862D01*
X145982863Y-71893794D01*
X145982862Y-71893795D01*
X145930481Y-71972191D01*
X145911407Y-72000737D01*
X145862191Y-72119555D01*
X145862189Y-72119561D01*
X145837100Y-72245692D01*
X145837100Y-74898197D01*
X145817415Y-74965236D01*
X145800781Y-74985878D01*
X142665878Y-78120781D01*
X142604555Y-78154266D01*
X142578197Y-78157100D01*
X134255693Y-78157100D01*
X134129557Y-78182190D01*
X134129553Y-78182191D01*
X134080340Y-78202575D01*
X134080340Y-78202576D01*
X134062160Y-78210106D01*
X134010739Y-78231405D01*
X134010730Y-78231410D01*
X133903801Y-78302858D01*
X133903797Y-78302861D01*
X133371656Y-78835001D01*
X133310333Y-78868486D01*
X133240641Y-78863502D01*
X133184708Y-78821630D01*
X133169417Y-78794778D01*
X133131175Y-78702453D01*
X133131171Y-78702446D01*
X133034706Y-78558077D01*
X133034703Y-78558073D01*
X132911926Y-78435296D01*
X132911922Y-78435293D01*
X132767553Y-78338828D01*
X132767540Y-78338821D01*
X132607128Y-78272377D01*
X132607118Y-78272374D01*
X132436822Y-78238500D01*
X132436820Y-78238500D01*
X132263180Y-78238500D01*
X132263178Y-78238500D01*
X132092881Y-78272374D01*
X132092871Y-78272377D01*
X131932459Y-78338821D01*
X131932445Y-78338829D01*
X131930696Y-78339998D01*
X131929640Y-78340328D01*
X131927078Y-78341698D01*
X131926818Y-78341211D01*
X131864017Y-78360871D01*
X131796638Y-78342382D01*
X131749952Y-78290400D01*
X131738780Y-78221430D01*
X131766670Y-78157368D01*
X131774131Y-78149210D01*
X134582136Y-75341204D01*
X134582139Y-75341201D01*
X134582138Y-75341201D01*
X134582141Y-75341199D01*
X134653592Y-75234264D01*
X134702809Y-75115444D01*
X134705304Y-75102900D01*
X134727900Y-74989305D01*
X134727900Y-74821895D01*
X134747585Y-74754856D01*
X134800389Y-74709101D01*
X134869547Y-74699157D01*
X134915018Y-74715162D01*
X134934602Y-74726744D01*
X134976224Y-74738836D01*
X135092426Y-74772597D01*
X135092429Y-74772597D01*
X135092431Y-74772598D01*
X135129306Y-74775500D01*
X135129314Y-74775500D01*
X135560686Y-74775500D01*
X135560694Y-74775500D01*
X135597569Y-74772598D01*
X135597571Y-74772597D01*
X135597573Y-74772597D01*
X135658637Y-74754856D01*
X135755398Y-74726744D01*
X135896865Y-74643081D01*
X135896870Y-74643075D01*
X135903031Y-74638298D01*
X135904933Y-74640750D01*
X135953579Y-74614155D01*
X136023274Y-74619104D01*
X136055695Y-74639940D01*
X136056969Y-74638298D01*
X136063132Y-74643078D01*
X136063135Y-74643081D01*
X136204602Y-74726744D01*
X136246224Y-74738836D01*
X136362426Y-74772597D01*
X136362429Y-74772597D01*
X136362431Y-74772598D01*
X136399306Y-74775500D01*
X136399314Y-74775500D01*
X136830686Y-74775500D01*
X136830694Y-74775500D01*
X136867569Y-74772598D01*
X136867571Y-74772597D01*
X136867573Y-74772597D01*
X136928637Y-74754856D01*
X137025398Y-74726744D01*
X137166865Y-74643081D01*
X137166870Y-74643075D01*
X137173031Y-74638298D01*
X137174933Y-74640750D01*
X137223579Y-74614155D01*
X137293274Y-74619104D01*
X137325695Y-74639940D01*
X137326969Y-74638298D01*
X137333132Y-74643078D01*
X137333135Y-74643081D01*
X137474602Y-74726744D01*
X137516224Y-74738836D01*
X137632426Y-74772597D01*
X137632429Y-74772597D01*
X137632431Y-74772598D01*
X137669306Y-74775500D01*
X137669314Y-74775500D01*
X138100686Y-74775500D01*
X138100694Y-74775500D01*
X138137569Y-74772598D01*
X138137571Y-74772597D01*
X138137573Y-74772597D01*
X138198637Y-74754856D01*
X138295398Y-74726744D01*
X138436865Y-74643081D01*
X138436870Y-74643075D01*
X138443031Y-74638298D01*
X138444933Y-74640750D01*
X138493579Y-74614155D01*
X138563274Y-74619104D01*
X138595695Y-74639940D01*
X138596969Y-74638298D01*
X138603132Y-74643078D01*
X138603135Y-74643081D01*
X138744602Y-74726744D01*
X138786224Y-74738836D01*
X138902426Y-74772597D01*
X138902429Y-74772597D01*
X138902431Y-74772598D01*
X138939306Y-74775500D01*
X138939314Y-74775500D01*
X139370686Y-74775500D01*
X139370694Y-74775500D01*
X139407569Y-74772598D01*
X139407571Y-74772597D01*
X139407573Y-74772597D01*
X139468637Y-74754856D01*
X139565398Y-74726744D01*
X139706865Y-74643081D01*
X139706870Y-74643075D01*
X139713031Y-74638298D01*
X139714933Y-74640750D01*
X139763579Y-74614155D01*
X139833274Y-74619104D01*
X139865695Y-74639940D01*
X139866969Y-74638298D01*
X139873132Y-74643078D01*
X139873135Y-74643081D01*
X140014602Y-74726744D01*
X140056224Y-74738836D01*
X140172426Y-74772597D01*
X140172429Y-74772597D01*
X140172431Y-74772598D01*
X140209306Y-74775500D01*
X140209314Y-74775500D01*
X140640686Y-74775500D01*
X140640694Y-74775500D01*
X140677569Y-74772598D01*
X140677571Y-74772597D01*
X140677573Y-74772597D01*
X140738637Y-74754856D01*
X140835398Y-74726744D01*
X140976865Y-74643081D01*
X140976870Y-74643075D01*
X140983031Y-74638298D01*
X140984933Y-74640750D01*
X141033579Y-74614155D01*
X141103274Y-74619104D01*
X141135695Y-74639940D01*
X141136969Y-74638298D01*
X141143132Y-74643078D01*
X141143135Y-74643081D01*
X141284602Y-74726744D01*
X141326224Y-74738836D01*
X141442426Y-74772597D01*
X141442429Y-74772597D01*
X141442431Y-74772598D01*
X141479306Y-74775500D01*
X141479314Y-74775500D01*
X141910686Y-74775500D01*
X141910694Y-74775500D01*
X141947569Y-74772598D01*
X141947571Y-74772597D01*
X141947573Y-74772597D01*
X142008637Y-74754856D01*
X142105398Y-74726744D01*
X142246865Y-74643081D01*
X142246870Y-74643075D01*
X142253031Y-74638298D01*
X142254933Y-74640750D01*
X142303579Y-74614155D01*
X142373274Y-74619104D01*
X142405695Y-74639940D01*
X142406969Y-74638298D01*
X142413132Y-74643078D01*
X142413135Y-74643081D01*
X142554602Y-74726744D01*
X142596224Y-74738836D01*
X142712426Y-74772597D01*
X142712429Y-74772597D01*
X142712431Y-74772598D01*
X142749306Y-74775500D01*
X142749314Y-74775500D01*
X143180686Y-74775500D01*
X143180694Y-74775500D01*
X143217569Y-74772598D01*
X143217571Y-74772597D01*
X143217573Y-74772597D01*
X143278637Y-74754856D01*
X143375398Y-74726744D01*
X143516865Y-74643081D01*
X143516870Y-74643075D01*
X143523031Y-74638298D01*
X143524933Y-74640750D01*
X143573579Y-74614155D01*
X143643274Y-74619104D01*
X143675695Y-74639940D01*
X143676969Y-74638298D01*
X143683132Y-74643078D01*
X143683135Y-74643081D01*
X143824602Y-74726744D01*
X143866224Y-74738836D01*
X143982426Y-74772597D01*
X143982429Y-74772597D01*
X143982431Y-74772598D01*
X144019306Y-74775500D01*
X144019314Y-74775500D01*
X144450686Y-74775500D01*
X144450694Y-74775500D01*
X144487569Y-74772598D01*
X144487571Y-74772597D01*
X144487573Y-74772597D01*
X144548637Y-74754856D01*
X144645398Y-74726744D01*
X144786865Y-74643081D01*
X144903081Y-74526865D01*
X144986744Y-74385398D01*
X145023841Y-74257710D01*
X145032597Y-74227573D01*
X145032598Y-74227567D01*
X145035213Y-74194336D01*
X145035500Y-74190694D01*
X145035500Y-72309306D01*
X145032598Y-72272431D01*
X145030625Y-72265641D01*
X144986745Y-72114606D01*
X144986744Y-72114603D01*
X144986744Y-72114602D01*
X144941170Y-72037541D01*
X144905168Y-71976663D01*
X144887900Y-71913542D01*
X144887900Y-70886802D01*
X144907585Y-70819763D01*
X144924219Y-70799121D01*
X145590138Y-70133202D01*
X146322038Y-69401301D01*
X146383359Y-69367818D01*
X146429115Y-69366511D01*
X146555242Y-69386487D01*
X146643713Y-69400500D01*
X146643714Y-69400500D01*
X146856286Y-69400500D01*
X146856287Y-69400500D01*
X147066243Y-69367246D01*
X147268412Y-69301557D01*
X147457816Y-69205051D01*
X147529596Y-69152900D01*
X147629786Y-69080109D01*
X147629788Y-69080106D01*
X147629792Y-69080104D01*
X147780104Y-68929792D01*
X147780106Y-68929788D01*
X147780109Y-68929786D01*
X147889086Y-68779789D01*
X147905051Y-68757816D01*
X147909514Y-68749054D01*
X147957488Y-68698259D01*
X148025308Y-68681463D01*
X148091444Y-68703999D01*
X148130486Y-68749056D01*
X148134951Y-68757820D01*
X148259890Y-68929786D01*
X148410213Y-69080109D01*
X148582179Y-69205048D01*
X148582181Y-69205049D01*
X148582184Y-69205051D01*
X148771588Y-69301557D01*
X148973757Y-69367246D01*
X149183713Y-69400500D01*
X149183714Y-69400500D01*
X149396286Y-69400500D01*
X149396287Y-69400500D01*
X149606243Y-69367246D01*
X149808412Y-69301557D01*
X149997816Y-69205051D01*
X150084478Y-69142088D01*
X150169784Y-69080110D01*
X150169784Y-69080109D01*
X150169792Y-69080104D01*
X150283717Y-68966178D01*
X150345036Y-68932696D01*
X150414728Y-68937680D01*
X150470662Y-68979551D01*
X150487577Y-69010528D01*
X150536646Y-69142088D01*
X150536649Y-69142093D01*
X150622809Y-69257187D01*
X150622812Y-69257190D01*
X150737906Y-69343350D01*
X150737913Y-69343354D01*
X150872620Y-69393596D01*
X150872627Y-69393598D01*
X150932155Y-69399999D01*
X150932172Y-69400000D01*
X151580000Y-69400000D01*
X151580000Y-68483012D01*
X151637007Y-68515925D01*
X151764174Y-68550000D01*
X151895826Y-68550000D01*
X152022993Y-68515925D01*
X152080000Y-68483012D01*
X152080000Y-69400000D01*
X152727828Y-69400000D01*
X152727844Y-69399999D01*
X152783892Y-69393972D01*
X152842639Y-69372985D01*
X152922084Y-69343355D01*
X152922093Y-69343350D01*
X153037187Y-69257190D01*
X153037190Y-69257187D01*
X153123350Y-69142093D01*
X153123354Y-69142086D01*
X153173596Y-69007379D01*
X153173598Y-69007372D01*
X153179999Y-68947844D01*
X153180000Y-68947827D01*
X153180000Y-68300000D01*
X152263012Y-68300000D01*
X152295925Y-68242993D01*
X152330000Y-68115826D01*
X152330000Y-67984174D01*
X152295925Y-67857007D01*
X152263012Y-67800000D01*
X153180000Y-67800000D01*
X153180000Y-67152172D01*
X153179999Y-67152155D01*
X153173598Y-67092627D01*
X153173596Y-67092620D01*
X153123354Y-66957913D01*
X153123350Y-66957906D01*
X153037190Y-66842812D01*
X153014954Y-66826166D01*
X152973084Y-66770232D01*
X152968100Y-66700540D01*
X153001586Y-66639218D01*
X153062909Y-66605733D01*
X153089266Y-66602900D01*
X153363100Y-66602900D01*
X153430139Y-66622585D01*
G37*
%TD.AperFunction*%
%TA.AperFunction,Conductor*%
G36*
X132998039Y-73269685D02*
G01*
X133043794Y-73322489D01*
X133055000Y-73374000D01*
X133055000Y-74772294D01*
X133089877Y-74804535D01*
X133125743Y-74864497D01*
X133123498Y-74934330D01*
X133093386Y-74983272D01*
X130015878Y-78060781D01*
X129954555Y-78094266D01*
X129928197Y-78097100D01*
X123755912Y-78097100D01*
X123730229Y-78089558D01*
X123703760Y-78085599D01*
X123697218Y-78079865D01*
X123688873Y-78077415D01*
X123671347Y-78057189D01*
X123651217Y-78039545D01*
X123648813Y-78031183D01*
X123643118Y-78024611D01*
X123639308Y-77998120D01*
X123631914Y-77972395D01*
X123633884Y-77960397D01*
X123633174Y-77955453D01*
X123637136Y-77937489D01*
X123637647Y-77935784D01*
X123689999Y-77777797D01*
X123692575Y-77752577D01*
X123695960Y-77741289D01*
X123708846Y-77721485D01*
X123717774Y-77699606D01*
X123727552Y-77692739D01*
X123734068Y-77682727D01*
X123755615Y-77673034D01*
X123774954Y-77659455D01*
X123792074Y-77656633D01*
X123797788Y-77654064D01*
X123802968Y-77654838D01*
X123814736Y-77652900D01*
X126564307Y-77652900D01*
X126652704Y-77635316D01*
X126690444Y-77627809D01*
X126809264Y-77578592D01*
X126809269Y-77578588D01*
X126809272Y-77578587D01*
X126824228Y-77568594D01*
X126824230Y-77568592D01*
X126833274Y-77562549D01*
X126916200Y-77507141D01*
X129502141Y-74921199D01*
X129573592Y-74814264D01*
X129603320Y-74742492D01*
X129647159Y-74688093D01*
X129713453Y-74666027D01*
X129780999Y-74683215D01*
X129854602Y-74726744D01*
X129896224Y-74738836D01*
X130012426Y-74772597D01*
X130012429Y-74772597D01*
X130012431Y-74772598D01*
X130049306Y-74775500D01*
X130049314Y-74775500D01*
X130480686Y-74775500D01*
X130480694Y-74775500D01*
X130517569Y-74772598D01*
X130517571Y-74772597D01*
X130517573Y-74772597D01*
X130578637Y-74754856D01*
X130675398Y-74726744D01*
X130816865Y-74643081D01*
X130816870Y-74643075D01*
X130823031Y-74638298D01*
X130824933Y-74640750D01*
X130873579Y-74614155D01*
X130943274Y-74619104D01*
X130975695Y-74639940D01*
X130976969Y-74638298D01*
X130983132Y-74643078D01*
X130983135Y-74643081D01*
X131124602Y-74726744D01*
X131166224Y-74738836D01*
X131282426Y-74772597D01*
X131282429Y-74772597D01*
X131282431Y-74772598D01*
X131319306Y-74775500D01*
X131319314Y-74775500D01*
X131750686Y-74775500D01*
X131750694Y-74775500D01*
X131787569Y-74772598D01*
X131787571Y-74772597D01*
X131787573Y-74772597D01*
X131848637Y-74754856D01*
X131945398Y-74726744D01*
X132086865Y-74643081D01*
X132086870Y-74643076D01*
X132093026Y-74638301D01*
X132094839Y-74640638D01*
X132143949Y-74613798D01*
X132213643Y-74618756D01*
X132245996Y-74639551D01*
X132247278Y-74637900D01*
X132253447Y-74642685D01*
X132394801Y-74726281D01*
X132552514Y-74772100D01*
X132552511Y-74772100D01*
X132554998Y-74772295D01*
X132555000Y-74772295D01*
X132555000Y-73374000D01*
X132574685Y-73306961D01*
X132627489Y-73261206D01*
X132679000Y-73250000D01*
X132931000Y-73250000D01*
X132998039Y-73269685D01*
G37*
%TD.AperFunction*%
%TA.AperFunction,Conductor*%
G36*
X155508103Y-66831889D02*
G01*
X155514581Y-66837921D01*
X157435213Y-68758553D01*
X157468698Y-68819876D01*
X157463714Y-68889568D01*
X157421842Y-68945501D01*
X157356378Y-68969918D01*
X157334930Y-68969592D01*
X157289988Y-68965000D01*
X156840000Y-68965000D01*
X156840000Y-69877500D01*
X157989999Y-69877500D01*
X157989999Y-69665028D01*
X157989998Y-69665018D01*
X157985406Y-69620070D01*
X157998175Y-69551377D01*
X158046054Y-69500492D01*
X158113844Y-69483570D01*
X158180021Y-69505985D01*
X158196445Y-69519785D01*
X160560781Y-71884121D01*
X160594266Y-71945444D01*
X160597100Y-71971802D01*
X160597100Y-72928196D01*
X160577415Y-72995235D01*
X160560781Y-73015877D01*
X159257863Y-74318794D01*
X159257862Y-74318795D01*
X159196966Y-74409934D01*
X159191671Y-74417859D01*
X159186408Y-74425736D01*
X159160466Y-74488364D01*
X159159339Y-74490787D01*
X159137961Y-74515103D01*
X159117636Y-74540325D01*
X159115023Y-74541194D01*
X159113206Y-74543262D01*
X159082068Y-74552162D01*
X159051342Y-74562389D01*
X159048670Y-74561709D01*
X159046027Y-74562465D01*
X159015614Y-74553297D01*
X158983797Y-74545201D01*
X158905194Y-74498716D01*
X158747494Y-74452900D01*
X158747497Y-74452900D01*
X158745000Y-74452703D01*
X158745000Y-77397295D01*
X158745001Y-77397295D01*
X158747486Y-77397100D01*
X158905198Y-77351281D01*
X159046550Y-77267686D01*
X159052717Y-77262903D01*
X159054630Y-77265369D01*
X159103222Y-77238802D01*
X159172917Y-77243749D01*
X159205762Y-77264853D01*
X159206969Y-77263298D01*
X159213132Y-77268078D01*
X159213135Y-77268081D01*
X159354602Y-77351744D01*
X159359552Y-77353182D01*
X159512426Y-77397597D01*
X159512429Y-77397597D01*
X159512431Y-77397598D01*
X159549306Y-77400500D01*
X159549314Y-77400500D01*
X159980686Y-77400500D01*
X159980694Y-77400500D01*
X160017569Y-77397598D01*
X160017571Y-77397597D01*
X160017573Y-77397597D01*
X160078637Y-77379856D01*
X160175398Y-77351744D01*
X160194980Y-77340163D01*
X160201502Y-77338508D01*
X160206589Y-77334101D01*
X160234935Y-77330025D01*
X160262701Y-77322980D01*
X160269085Y-77325114D01*
X160275747Y-77324157D01*
X160301800Y-77336055D01*
X160328964Y-77345139D01*
X160333179Y-77350385D01*
X160339303Y-77353182D01*
X160354788Y-77377277D01*
X160372728Y-77399604D01*
X160374329Y-77407684D01*
X160377077Y-77411960D01*
X160382100Y-77446895D01*
X160382100Y-77593197D01*
X160362415Y-77660236D01*
X160345781Y-77680878D01*
X160315878Y-77710781D01*
X160254555Y-77744266D01*
X160228197Y-77747100D01*
X156381802Y-77747100D01*
X156314763Y-77727415D01*
X156294121Y-77710781D01*
X156180218Y-77596878D01*
X156146733Y-77535555D01*
X156151717Y-77465863D01*
X156193589Y-77409930D01*
X156233298Y-77390122D01*
X156365398Y-77351744D01*
X156506865Y-77268081D01*
X156506870Y-77268075D01*
X156513031Y-77263298D01*
X156514933Y-77265750D01*
X156563579Y-77239155D01*
X156633274Y-77244104D01*
X156665695Y-77264940D01*
X156666969Y-77263298D01*
X156673132Y-77268078D01*
X156673135Y-77268081D01*
X156814602Y-77351744D01*
X156819552Y-77353182D01*
X156972426Y-77397597D01*
X156972429Y-77397597D01*
X156972431Y-77397598D01*
X157009306Y-77400500D01*
X157009314Y-77400500D01*
X157440686Y-77400500D01*
X157440694Y-77400500D01*
X157477569Y-77397598D01*
X157477571Y-77397597D01*
X157477573Y-77397597D01*
X157538637Y-77379856D01*
X157635398Y-77351744D01*
X157776865Y-77268081D01*
X157776868Y-77268077D01*
X157783026Y-77263301D01*
X157784839Y-77265638D01*
X157833949Y-77238798D01*
X157903643Y-77243756D01*
X157935996Y-77264551D01*
X157937278Y-77262900D01*
X157943447Y-77267685D01*
X158084801Y-77351281D01*
X158242514Y-77397100D01*
X158242511Y-77397100D01*
X158244998Y-77397295D01*
X158245000Y-77397295D01*
X158245000Y-74452703D01*
X158242503Y-74452900D01*
X158084806Y-74498716D01*
X158084803Y-74498717D01*
X157943449Y-74582313D01*
X157937283Y-74587097D01*
X157935389Y-74584655D01*
X157886580Y-74611239D01*
X157816894Y-74606179D01*
X157795736Y-74595877D01*
X157783120Y-74588174D01*
X157776865Y-74581919D01*
X157649678Y-74506701D01*
X157648908Y-74506231D01*
X157625998Y-74480991D01*
X157602720Y-74456061D01*
X157602557Y-74455167D01*
X157601948Y-74454496D01*
X157596319Y-74420869D01*
X157590217Y-74387319D01*
X157590562Y-74386480D01*
X157590413Y-74385585D01*
X157603858Y-74354250D01*
X157616862Y-74322730D01*
X157617703Y-74321987D01*
X157617965Y-74321377D01*
X157619794Y-74320140D01*
X157648424Y-74294862D01*
X157708656Y-74257712D01*
X157832712Y-74133656D01*
X157879435Y-74057905D01*
X157931380Y-74011182D01*
X158000342Y-73999959D01*
X158032422Y-74008441D01*
X158102876Y-74037624D01*
X158102880Y-74037624D01*
X158102881Y-74037625D01*
X158273177Y-74071500D01*
X158273180Y-74071500D01*
X158446822Y-74071500D01*
X158561394Y-74048709D01*
X158617124Y-74037624D01*
X158777547Y-73971175D01*
X158921923Y-73874706D01*
X159044706Y-73751923D01*
X159141175Y-73607547D01*
X159207624Y-73447124D01*
X159221415Y-73377795D01*
X159241500Y-73276822D01*
X159241500Y-73103177D01*
X159207625Y-72932881D01*
X159207624Y-72932880D01*
X159207624Y-72932876D01*
X159207622Y-72932871D01*
X159141178Y-72772459D01*
X159141171Y-72772446D01*
X159044706Y-72628077D01*
X159044703Y-72628073D01*
X158921926Y-72505296D01*
X158921922Y-72505293D01*
X158777553Y-72408828D01*
X158777540Y-72408821D01*
X158617128Y-72342377D01*
X158617118Y-72342374D01*
X158446822Y-72308500D01*
X158446820Y-72308500D01*
X158273180Y-72308500D01*
X158273178Y-72308500D01*
X158102881Y-72342374D01*
X158102871Y-72342377D01*
X157967903Y-72398282D01*
X157898433Y-72405751D01*
X157835954Y-72374475D01*
X157832770Y-72371402D01*
X157708657Y-72247289D01*
X157708656Y-72247288D01*
X157571648Y-72162781D01*
X157559336Y-72155187D01*
X157559331Y-72155185D01*
X157557862Y-72154698D01*
X157392797Y-72100001D01*
X157392795Y-72100000D01*
X157290010Y-72089500D01*
X155889998Y-72089500D01*
X155889981Y-72089501D01*
X155787203Y-72100000D01*
X155787200Y-72100001D01*
X155620668Y-72155185D01*
X155620659Y-72155189D01*
X155491996Y-72234549D01*
X155424604Y-72252989D01*
X155357940Y-72232066D01*
X155313171Y-72178424D01*
X155302900Y-72129010D01*
X155302900Y-71250401D01*
X155322585Y-71183362D01*
X155375389Y-71137607D01*
X155444547Y-71127663D01*
X155491997Y-71144863D01*
X155620869Y-71224353D01*
X155620880Y-71224358D01*
X155787302Y-71279505D01*
X155787309Y-71279506D01*
X155890019Y-71289999D01*
X156339999Y-71289999D01*
X156840000Y-71289999D01*
X157289972Y-71289999D01*
X157289986Y-71289998D01*
X157392697Y-71279505D01*
X157559119Y-71224358D01*
X157559124Y-71224356D01*
X157708345Y-71132315D01*
X157832315Y-71008345D01*
X157924356Y-70859124D01*
X157924358Y-70859119D01*
X157979505Y-70692697D01*
X157979506Y-70692690D01*
X157989999Y-70589986D01*
X157990000Y-70589973D01*
X157990000Y-70377500D01*
X156840000Y-70377500D01*
X156840000Y-71289999D01*
X156339999Y-71289999D01*
X156340000Y-71289998D01*
X156340000Y-68965000D01*
X155890028Y-68965000D01*
X155890012Y-68965001D01*
X155787302Y-68975494D01*
X155620880Y-69030641D01*
X155620875Y-69030643D01*
X155491997Y-69110137D01*
X155424604Y-69128577D01*
X155357941Y-69107654D01*
X155313171Y-69054012D01*
X155302900Y-69004598D01*
X155302900Y-66925602D01*
X155322585Y-66858563D01*
X155375389Y-66812808D01*
X155444547Y-66802864D01*
X155508103Y-66831889D01*
G37*
%TD.AperFunction*%
%TA.AperFunction,Conductor*%
G36*
X135064075Y-63932993D02*
G01*
X135129901Y-64047007D01*
X135222993Y-64140099D01*
X135337007Y-64205925D01*
X135400590Y-64222962D01*
X134768282Y-64855269D01*
X134768282Y-64855270D01*
X134822449Y-64894624D01*
X135011782Y-64991095D01*
X135213870Y-65056757D01*
X135423754Y-65090000D01*
X135636246Y-65090000D01*
X135846127Y-65056757D01*
X135846130Y-65056757D01*
X136048217Y-64991095D01*
X136237554Y-64894622D01*
X136291716Y-64855270D01*
X136291717Y-64855270D01*
X135659408Y-64222962D01*
X135722993Y-64205925D01*
X135837007Y-64140099D01*
X135930099Y-64047007D01*
X135995925Y-63932993D01*
X136012962Y-63869409D01*
X136645270Y-64501717D01*
X136645270Y-64501716D01*
X136684622Y-64447555D01*
X136689232Y-64438507D01*
X136737205Y-64387709D01*
X136805025Y-64370912D01*
X136871161Y-64393447D01*
X136910204Y-64438504D01*
X136914949Y-64447817D01*
X137039890Y-64619786D01*
X137190213Y-64770109D01*
X137362179Y-64895048D01*
X137362181Y-64895049D01*
X137362184Y-64895051D01*
X137551588Y-64991557D01*
X137753757Y-65057246D01*
X137963713Y-65090500D01*
X137963714Y-65090500D01*
X138176286Y-65090500D01*
X138176287Y-65090500D01*
X138386243Y-65057246D01*
X138588412Y-64991557D01*
X138777816Y-64895051D01*
X138832572Y-64855269D01*
X138949786Y-64770109D01*
X138949788Y-64770106D01*
X138949792Y-64770104D01*
X139100104Y-64619792D01*
X139100106Y-64619788D01*
X139100109Y-64619786D01*
X139225048Y-64447820D01*
X139225047Y-64447820D01*
X139225051Y-64447816D01*
X139229514Y-64439054D01*
X139277488Y-64388259D01*
X139345308Y-64371463D01*
X139411444Y-64393999D01*
X139450486Y-64439056D01*
X139454951Y-64447820D01*
X139579890Y-64619786D01*
X139730213Y-64770109D01*
X139902179Y-64895048D01*
X139902181Y-64895049D01*
X139902184Y-64895051D01*
X140091588Y-64991557D01*
X140293757Y-65057246D01*
X140503713Y-65090500D01*
X140503714Y-65090500D01*
X140716286Y-65090500D01*
X140716287Y-65090500D01*
X140926243Y-65057246D01*
X141128412Y-64991557D01*
X141317816Y-64895051D01*
X141372572Y-64855269D01*
X141489786Y-64770109D01*
X141489788Y-64770106D01*
X141489792Y-64770104D01*
X141640104Y-64619792D01*
X141640106Y-64619788D01*
X141640109Y-64619786D01*
X141765048Y-64447820D01*
X141765047Y-64447820D01*
X141765051Y-64447816D01*
X141769514Y-64439054D01*
X141817488Y-64388259D01*
X141885308Y-64371463D01*
X141951444Y-64393999D01*
X141990486Y-64439056D01*
X141994951Y-64447820D01*
X142119890Y-64619786D01*
X142270213Y-64770109D01*
X142442179Y-64895048D01*
X142442181Y-64895049D01*
X142442184Y-64895051D01*
X142631588Y-64991557D01*
X142833757Y-65057246D01*
X143043713Y-65090500D01*
X143043714Y-65090500D01*
X143256286Y-65090500D01*
X143256287Y-65090500D01*
X143466243Y-65057246D01*
X143668412Y-64991557D01*
X143857816Y-64895051D01*
X143912572Y-64855269D01*
X144029786Y-64770109D01*
X144029788Y-64770106D01*
X144029792Y-64770104D01*
X144180104Y-64619792D01*
X144180106Y-64619788D01*
X144180109Y-64619786D01*
X144305048Y-64447820D01*
X144305047Y-64447820D01*
X144305051Y-64447816D01*
X144309514Y-64439054D01*
X144357488Y-64388259D01*
X144425308Y-64371463D01*
X144491444Y-64393999D01*
X144530486Y-64439056D01*
X144534951Y-64447820D01*
X144659890Y-64619786D01*
X144659896Y-64619792D01*
X144810208Y-64770104D01*
X144982184Y-64895051D01*
X144982186Y-64895052D01*
X144985985Y-64897812D01*
X145028651Y-64953142D01*
X145037100Y-64998131D01*
X145037100Y-65474305D01*
X145037100Y-65474307D01*
X145037099Y-65474307D01*
X145061524Y-65597092D01*
X145061524Y-65597095D01*
X145061525Y-65597095D01*
X145061526Y-65597100D01*
X145062191Y-65600444D01*
X145066583Y-65611048D01*
X145111407Y-65719262D01*
X145182862Y-65826204D01*
X145182863Y-65826205D01*
X146060819Y-66704159D01*
X146094304Y-66765482D01*
X146089320Y-66835173D01*
X146047449Y-66891107D01*
X146046023Y-66892158D01*
X145870214Y-67019890D01*
X145870209Y-67019894D01*
X145719890Y-67170213D01*
X145594949Y-67342182D01*
X145590484Y-67350946D01*
X145542509Y-67401742D01*
X145474688Y-67418536D01*
X145408553Y-67395998D01*
X145369516Y-67350946D01*
X145365050Y-67342182D01*
X145240109Y-67170213D01*
X145089786Y-67019890D01*
X144917820Y-66894951D01*
X144728414Y-66798444D01*
X144728413Y-66798443D01*
X144728412Y-66798443D01*
X144526243Y-66732754D01*
X144526241Y-66732753D01*
X144526240Y-66732753D01*
X144353879Y-66705454D01*
X144316287Y-66699500D01*
X144103713Y-66699500D01*
X144066121Y-66705454D01*
X143893760Y-66732753D01*
X143691585Y-66798444D01*
X143502179Y-66894951D01*
X143330213Y-67019890D01*
X143179890Y-67170213D01*
X143054949Y-67342182D01*
X143050484Y-67350946D01*
X143002509Y-67401742D01*
X142934688Y-67418536D01*
X142868553Y-67395998D01*
X142829516Y-67350946D01*
X142825050Y-67342182D01*
X142700109Y-67170213D01*
X142549786Y-67019890D01*
X142377820Y-66894951D01*
X142188414Y-66798444D01*
X142188413Y-66798443D01*
X142188412Y-66798443D01*
X141986243Y-66732754D01*
X141986241Y-66732753D01*
X141986240Y-66732753D01*
X141813879Y-66705454D01*
X141776287Y-66699500D01*
X141563713Y-66699500D01*
X141526121Y-66705454D01*
X141353760Y-66732753D01*
X141151585Y-66798444D01*
X140962179Y-66894951D01*
X140790213Y-67019890D01*
X140639890Y-67170213D01*
X140514949Y-67342182D01*
X140510484Y-67350946D01*
X140462509Y-67401742D01*
X140394688Y-67418536D01*
X140328553Y-67395998D01*
X140289516Y-67350946D01*
X140285050Y-67342182D01*
X140160109Y-67170213D01*
X140009786Y-67019890D01*
X139837820Y-66894951D01*
X139648414Y-66798444D01*
X139648413Y-66798443D01*
X139648412Y-66798443D01*
X139446243Y-66732754D01*
X139446241Y-66732753D01*
X139446240Y-66732753D01*
X139273879Y-66705454D01*
X139236287Y-66699500D01*
X139023713Y-66699500D01*
X138986121Y-66705454D01*
X138813760Y-66732753D01*
X138611585Y-66798444D01*
X138422179Y-66894951D01*
X138250213Y-67019890D01*
X138099890Y-67170213D01*
X137974949Y-67342182D01*
X137970484Y-67350946D01*
X137922509Y-67401742D01*
X137854688Y-67418536D01*
X137788553Y-67395998D01*
X137749516Y-67350946D01*
X137745050Y-67342182D01*
X137620109Y-67170213D01*
X137469786Y-67019890D01*
X137297820Y-66894951D01*
X137108414Y-66798444D01*
X137108413Y-66798443D01*
X137108412Y-66798443D01*
X136906243Y-66732754D01*
X136906241Y-66732753D01*
X136906240Y-66732753D01*
X136733879Y-66705454D01*
X136696287Y-66699500D01*
X136483713Y-66699500D01*
X136446121Y-66705454D01*
X136273760Y-66732753D01*
X136071585Y-66798444D01*
X135882179Y-66894951D01*
X135710213Y-67019890D01*
X135559890Y-67170213D01*
X135434949Y-67342182D01*
X135430484Y-67350946D01*
X135382509Y-67401742D01*
X135314688Y-67418536D01*
X135248553Y-67395998D01*
X135209516Y-67350946D01*
X135205050Y-67342182D01*
X135080109Y-67170213D01*
X134929786Y-67019890D01*
X134757820Y-66894951D01*
X134568414Y-66798444D01*
X134568413Y-66798443D01*
X134568412Y-66798443D01*
X134366243Y-66732754D01*
X134366241Y-66732753D01*
X134366240Y-66732753D01*
X134193879Y-66705454D01*
X134156287Y-66699500D01*
X133943713Y-66699500D01*
X133906121Y-66705454D01*
X133733760Y-66732753D01*
X133531585Y-66798444D01*
X133342179Y-66894951D01*
X133170213Y-67019890D01*
X133019890Y-67170213D01*
X132894949Y-67342182D01*
X132890484Y-67350946D01*
X132842509Y-67401742D01*
X132774688Y-67418536D01*
X132708553Y-67395998D01*
X132669516Y-67350946D01*
X132665050Y-67342182D01*
X132540109Y-67170213D01*
X132389786Y-67019890D01*
X132217820Y-66894951D01*
X132028414Y-66798444D01*
X132028413Y-66798443D01*
X132028412Y-66798443D01*
X131826243Y-66732754D01*
X131826241Y-66732753D01*
X131826240Y-66732753D01*
X131653879Y-66705454D01*
X131616287Y-66699500D01*
X131403713Y-66699500D01*
X131366121Y-66705454D01*
X131193760Y-66732753D01*
X130991585Y-66798444D01*
X130802179Y-66894951D01*
X130630213Y-67019890D01*
X130479890Y-67170213D01*
X130354949Y-67342182D01*
X130350484Y-67350946D01*
X130302509Y-67401742D01*
X130234688Y-67418536D01*
X130168553Y-67395998D01*
X130129516Y-67350946D01*
X130125050Y-67342182D01*
X130000109Y-67170213D01*
X129849786Y-67019890D01*
X129677817Y-66894949D01*
X129662970Y-66887384D01*
X129612175Y-66839409D01*
X129595380Y-66771588D01*
X129617918Y-66705454D01*
X129672634Y-66662003D01*
X129719266Y-66652900D01*
X129814307Y-66652900D01*
X129899165Y-66636019D01*
X129940444Y-66627809D01*
X130059264Y-66578592D01*
X130082177Y-66563282D01*
X130166200Y-66507141D01*
X130957140Y-65716200D01*
X131028592Y-65609264D01*
X131077809Y-65490444D01*
X131092101Y-65418592D01*
X131102900Y-65364305D01*
X131102900Y-64998131D01*
X131122585Y-64931092D01*
X131154015Y-64897812D01*
X131157813Y-64895052D01*
X131157816Y-64895051D01*
X131329792Y-64770104D01*
X131480104Y-64619792D01*
X131480106Y-64619788D01*
X131480109Y-64619786D01*
X131605048Y-64447820D01*
X131605047Y-64447820D01*
X131605051Y-64447816D01*
X131609514Y-64439054D01*
X131657488Y-64388259D01*
X131725308Y-64371463D01*
X131791444Y-64393999D01*
X131830486Y-64439056D01*
X131834951Y-64447820D01*
X131959890Y-64619786D01*
X132110213Y-64770109D01*
X132282179Y-64895048D01*
X132282181Y-64895049D01*
X132282184Y-64895051D01*
X132471588Y-64991557D01*
X132673757Y-65057246D01*
X132883713Y-65090500D01*
X132883714Y-65090500D01*
X133096286Y-65090500D01*
X133096287Y-65090500D01*
X133306243Y-65057246D01*
X133508412Y-64991557D01*
X133697816Y-64895051D01*
X133752572Y-64855269D01*
X133869786Y-64770109D01*
X133869788Y-64770106D01*
X133869792Y-64770104D01*
X134020104Y-64619792D01*
X134020106Y-64619788D01*
X134020109Y-64619786D01*
X134105890Y-64501717D01*
X134145051Y-64447816D01*
X134149793Y-64438508D01*
X134197763Y-64387711D01*
X134265583Y-64370911D01*
X134331719Y-64393445D01*
X134370763Y-64438500D01*
X134375373Y-64447547D01*
X134414728Y-64501716D01*
X135047036Y-63869407D01*
X135064075Y-63932993D01*
G37*
%TD.AperFunction*%
%TA.AperFunction,Conductor*%
G36*
X147764075Y-61392993D02*
G01*
X147829901Y-61507007D01*
X147922993Y-61600099D01*
X148037007Y-61665925D01*
X148100590Y-61682962D01*
X147468282Y-62315269D01*
X147468282Y-62315270D01*
X147522452Y-62354626D01*
X147522451Y-62354626D01*
X147531495Y-62359234D01*
X147582292Y-62407208D01*
X147599087Y-62475029D01*
X147576550Y-62541164D01*
X147531499Y-62580202D01*
X147522182Y-62584949D01*
X147350213Y-62709890D01*
X147199890Y-62860213D01*
X147074949Y-63032182D01*
X147070484Y-63040946D01*
X147022509Y-63091742D01*
X146954688Y-63108536D01*
X146888553Y-63085998D01*
X146849516Y-63040946D01*
X146845050Y-63032182D01*
X146720109Y-62860213D01*
X146569786Y-62709890D01*
X146397815Y-62584948D01*
X146397812Y-62584946D01*
X146389050Y-62580481D01*
X146338256Y-62532505D01*
X146321463Y-62464683D01*
X146344003Y-62398549D01*
X146389056Y-62359514D01*
X146397816Y-62355051D01*
X146569792Y-62230104D01*
X146720104Y-62079792D01*
X146720106Y-62079788D01*
X146720109Y-62079786D01*
X146805890Y-61961717D01*
X146845051Y-61907816D01*
X146849793Y-61898508D01*
X146897763Y-61847711D01*
X146965583Y-61830911D01*
X147031719Y-61853445D01*
X147070763Y-61898500D01*
X147075373Y-61907547D01*
X147114728Y-61961716D01*
X147747037Y-61329408D01*
X147764075Y-61392993D01*
G37*
%TD.AperFunction*%
%TA.AperFunction,Conductor*%
G36*
X149345270Y-61961717D02*
G01*
X149345270Y-61961716D01*
X149384622Y-61907555D01*
X149389232Y-61898507D01*
X149437205Y-61847709D01*
X149505025Y-61830912D01*
X149571161Y-61853447D01*
X149610204Y-61898504D01*
X149614949Y-61907817D01*
X149739890Y-62079786D01*
X149890213Y-62230109D01*
X150062182Y-62355050D01*
X150070946Y-62359516D01*
X150121742Y-62407491D01*
X150138536Y-62475312D01*
X150115998Y-62541447D01*
X150070946Y-62580484D01*
X150062182Y-62584949D01*
X149890213Y-62709890D01*
X149739890Y-62860213D01*
X149614949Y-63032182D01*
X149610484Y-63040946D01*
X149562509Y-63091742D01*
X149494688Y-63108536D01*
X149428553Y-63085998D01*
X149389516Y-63040946D01*
X149385050Y-63032182D01*
X149260109Y-62860213D01*
X149109786Y-62709890D01*
X148937817Y-62584949D01*
X148928504Y-62580204D01*
X148877707Y-62532230D01*
X148860912Y-62464409D01*
X148883449Y-62398274D01*
X148928507Y-62359232D01*
X148937555Y-62354622D01*
X148991716Y-62315270D01*
X148991717Y-62315270D01*
X148359408Y-61682962D01*
X148422993Y-61665925D01*
X148537007Y-61600099D01*
X148630099Y-61507007D01*
X148695925Y-61392993D01*
X148712962Y-61329408D01*
X149345270Y-61961717D01*
G37*
%TD.AperFunction*%
%TD*%
M02*
